<?xml version="1.0" encoding="UTF-8" standalone="no"?>
<!-- Created with Inkscape (http://www.inkscape.org/) -->

<svg
   xmlns:dc="http://purl.org/dc/elements/1.1/"
   xmlns:cc="http://creativecommons.org/ns#"
   xmlns:rdf="http://www.w3.org/1999/02/22-rdf-syntax-ns#"
   xmlns:svg="http://www.w3.org/2000/svg"
   xmlns="http://www.w3.org/2000/svg"
   xmlns:sodipodi="http://sodipodi.sourceforge.net/DTD/sodipodi-0.dtd"
   xmlns:inkscape="http://www.inkscape.org/namespaces/inkscape"
   width="42.381699mm"
   height="36.419403mm"
   viewBox="0 0 150.17137 129.04513"
   id="svg14262"
   version="1.1"
   inkscape:version="0.92.3 (2405546, 2018-03-11)"
   sodipodi:docname="semilla.svg"
   inkscape:export-filename="/home/cristian/Documentos/campamentosjuveniles/ExamenAsenso/imagenes/Pines/PNG/semilla.png"
   inkscape:export-xdpi="93.669998"
   inkscape:export-ydpi="93.669998">
  <defs
     id="defs14264" />
  <sodipodi:namedview
     id="base"
     pagecolor="#ffffff"
     bordercolor="#666666"
     borderopacity="1.0"
     inkscape:pageopacity="0.0"
     inkscape:pageshadow="2"
     inkscape:zoom="1.979899"
     inkscape:cx="119.53895"
     inkscape:cy="63.535156"
     inkscape:document-units="px"
     inkscape:current-layer="layer1"
     showgrid="false"
     fit-margin-top="0"
     fit-margin-left="0"
     fit-margin-right="0"
     fit-margin-bottom="0"
     inkscape:window-width="1366"
     inkscape:window-height="680"
     inkscape:window-x="0"
     inkscape:window-y="27"
     inkscape:window-maximized="1" />
  <metadata
     id="metadata14267">
    <rdf:RDF>
      <cc:Work
         rdf:about="">
        <dc:format>image/svg+xml</dc:format>
        <dc:type
           rdf:resource="http://purl.org/dc/dcmitype/StillImage" />
        <dc:title></dc:title>
      </cc:Work>
    </rdf:RDF>
  </metadata>
  <g
     inkscape:label="Capa 1"
     inkscape:groupmode="layer"
     id="layer1"
     transform="translate(-287.77146,-390.69679)"
     style="opacity:0.2">
    <g
       id="g12385"
       transform="matrix(1.25,0,0,-1.25,277.11496,975.88004)"
       style="">
      <path
         d="m 40.0459,364.9105 -31.5207,44.7933 49.034,58.4428 22.9215,-0.2149 48.1816,-57.0526 -6.6906,-9.5451 -25.17,-36.4235 -56.7558,0 z"
         style="fill:#949698;fill-opacity:1;fill-rule:nonzero;stroke:none"
         id="path12387"
         inkscape:connector-curvature="0" />
      <path
         d="m 120.4342,403.1161 -24.9639,-35.6015 -53.8262,0 -6.1668,8.7716 66.0155,0 18.9414,26.8299 z"
         style="fill:#3c63a8;fill-opacity:1;fill-rule:nonzero;stroke:none"
         id="path12389"
         inkscape:connector-curvature="0" />
      <path
         d="m 65.8604,465.3119 0,-2.0803 -49.7092,-59.4511 -4.047,5.7558 46.8465,55.7756 6.9097,0 z"
         style="fill:#3c63a8;fill-opacity:1;fill-rule:nonzero;stroke:none"
         id="path12391"
         inkscape:connector-curvature="0" />
      <path
         d="m 60.8346,441.8164 -30.3616,-37.5857 12.5303,-17.2369 20.0338,0 0,-10.7076 -27.5598,0 -19.3261,27.4943 49.7092,59.4511 0,-21.4152 -5.0258,0 z"
         style="fill:#dc2f33;fill-opacity:1;fill-rule:nonzero;stroke:none"
         id="path12393"
         inkscape:connector-curvature="0" />
      <path
         d="m 125.7531,410.7033 -4.646,-6.6299 -49.8098,59.1582 -1.0794,0 0,2.0803 9.4402,0 46.095,-54.6086 z"
         style="fill:#3c63a8;fill-opacity:1;fill-rule:nonzero;stroke:none"
         id="path12395"
         inkscape:connector-curvature="0" />
      <path
         d="m 106.1167,405.0655 -11.8353,-18.0717 -21.2708,0 0,-10.7076 -9.9735,0 0,10.7076 -20.0338,0 -12.5303,17.2369 30.3616,37.5857 5.0258,0 0,23.4955 4.3575,0 0,-23.4955 5.5635,0 30.3353,-36.7509 z"
         style="fill:#ffffff;fill-opacity:1;fill-rule:nonzero;stroke:none"
         id="path12397"
         inkscape:connector-curvature="0" />
      <path
         d="m 121.1071,404.0734 -0.4456,-0.6339 -0.2273,-0.3234 -18.9414,-26.8299 -28.4822,0 0,10.7076 21.2708,0 11.8353,18.0717 -30.3353,36.7509 -5.5635,0 0,21.4152 1.0794,0 49.8098,-59.1582 z"
         style="fill:#dc2f33;fill-opacity:1;fill-rule:nonzero;stroke:none"
         id="path12399"
         inkscape:connector-curvature="0" />
      <g
         id="g12401"
         style="" />
      <g
         id="g12403"
         style="" />
      <g
         id="g12405"
         style="">
        <g
           id="g12407"
           style="">
          <path
             d="m 26.8747,420.0976 c 0.1108,-0.0924 0.2086,-0.22 0.2925,-0.3821 0.0837,-0.1624 0.1387,-0.3543 0.1656,-0.5754 0.0266,-0.2211 0.0034,-0.4553 -0.0709,-0.7025 -0.0742,-0.2469 -0.2123,-0.4918 -0.4144,-0.7347 -0.1534,-0.184 -0.3098,-0.3368 -0.47,-0.4589 -0.1604,-0.1214 -0.3288,-0.2135 -0.5048,-0.275 -0.1761,-0.0612 -0.3677,-0.0935 -0.5741,-0.0964 -0.1856,-8e-4 -0.3736,0.0224 -0.5635,0.0706 -0.1899,0.0479 -0.375,0.1194 -0.5564,0.2149 -0.1806,0.0955 -0.358,0.2157 -0.531,0.3594 -0.2809,0.2336 -0.4986,0.4839 -0.6525,0.7503 -0.1542,0.2665 -0.2463,0.542 -0.2775,0.8255 -0.0315,0.2837 -0.0031,0.5624 0.0845,0.8359 0.0878,0.2733 0.2279,0.5259 0.4209,0.7577 0.235,0.2824 0.5009,0.4867 0.7968,0.6137 0.2965,0.1267 0.5766,0.18 0.8399,0.1596 0.2637,-0.0207 0.4692,-0.0924 0.6163,-0.2151 0.0811,-0.0675 0.1293,-0.1557 0.1429,-0.2639 0.015,-0.1089 -0.0119,-0.2036 -0.0788,-0.2843 -0.0757,-0.0905 -0.1534,-0.1406 -0.2336,-0.1506 -0.0805,-0.009 -0.1967,0.002 -0.3473,0.0335 -0.2494,0.0516 -0.4694,0.051 -0.6582,-0.002 -0.1896,-0.0533 -0.3605,-0.1709 -0.5122,-0.3535 -0.2421,-0.2902 -0.3237,-0.6137 -0.246,-0.9691 0.0771,-0.3558 0.3186,-0.703 0.7251,-1.0409 0.2712,-0.2259 0.5286,-0.3753 0.7724,-0.449 0.2429,-0.0737 0.4677,-0.078 0.6727,-0.0122 0.2049,0.0658 0.3852,0.1922 0.5411,0.3793 0.1689,0.2032 0.2616,0.4169 0.2778,0.6412 0.0162,0.2242 -0.0439,0.4535 -0.1797,0.6874 -0.0669,0.1063 -0.1109,0.2063 -0.1313,0.2987 -0.0215,0.0927 0.0088,0.1883 0.0907,0.2866 0.0701,0.0842 0.1596,0.1321 0.2685,0.1432 0.1088,0.0116 0.2069,-0.019 0.2945,-0.0916"
             style="fill:#ffffff;fill-opacity:1;fill-rule:nonzero;stroke:none"
             id="path12409"
             inkscape:connector-curvature="0" />
          <path
             d="m 29.8996,422.2947 -0.5766,0.1979 -1.1806,-1.4187 0.3089,-0.5392 c 0.1202,-0.2103 0.1919,-0.3637 0.2146,-0.4606 0.0224,-0.0967 -0.0096,-0.1973 -0.0966,-0.3022 -0.074,-0.089 -0.1718,-0.1406 -0.2934,-0.1545 -0.1219,-0.0142 -0.224,0.0131 -0.3067,0.0817 -0.0479,0.0396 -0.0902,0.0887 -0.1276,0.1468 -0.0374,0.0578 -0.0865,0.1429 -0.1465,0.2548 l -1.5237,2.7783 c -0.0436,0.0793 -0.0963,0.1749 -0.1581,0.2865 -0.061,0.1117 -0.1052,0.2129 -0.1319,0.3036 -0.0266,0.0907 -0.0314,0.1846 -0.0136,0.2809 0.0173,0.0973 0.0664,0.1942 0.1466,0.2912 0.0819,0.0983 0.1689,0.1647 0.2616,0.1992 0.0916,0.0352 0.1843,0.0485 0.2767,0.0403 0.0921,-0.009 0.1837,-0.0272 0.2738,-0.0553 0.0904,-0.0286 0.2101,-0.068 0.3586,-0.119 l 3.0107,-0.9624 c 0.2304,-0.0711 0.3849,-0.1392 0.4626,-0.2038 0.0808,-0.0675 0.1267,-0.1627 0.1383,-0.2863 0.0114,-0.1239 -0.0227,-0.2327 -0.102,-0.328 -0.0462,-0.0555 -0.0956,-0.0949 -0.1483,-0.1182 -0.0533,-0.0232 -0.108,-0.034 -0.1644,-0.0326 -0.0567,0.001 -0.1329,0.0162 -0.2293,0.044 -0.0967,0.0275 -0.1811,0.053 -0.2531,0.0756 z m -2.1331,-0.5935 0,0 0.8674,1.0425 -1.8782,0.6724 1.0108,-1.7149 z"
             style="fill:#ffffff;fill-opacity:1;fill-rule:nonzero;stroke:none"
             id="path12411"
             inkscape:connector-curvature="0" />
          <path
             d="m 31.7404,424.7722 -2.6895,1.2909 2.4088,-2.0044 c 0.1338,-0.1111 0.209,-0.2242 0.226,-0.3393 0.017,-0.1145 -0.0153,-0.2211 -0.0975,-0.3194 -0.0791,-0.0956 -0.1766,-0.1457 -0.2926,-0.1511 -0.1156,-0.006 -0.2412,0.0476 -0.3764,0.1599 l -2.761,2.2977 c -0.1525,0.1267 -0.2219,0.2517 -0.2094,0.3756 0.013,0.1236 0.0756,0.2526 0.1879,0.3875 l 0.1823,0.2191 c 0.1094,0.1318 0.2012,0.2174 0.2741,0.2571 0.074,0.0397 0.1528,0.0482 0.2384,0.025 0.0859,-0.023 0.2134,-0.074 0.3838,-0.1537 l 2.3335,-1.0837 -1.4897,2.0977 c -0.1091,0.1525 -0.1831,0.269 -0.2211,0.3489 -0.0385,0.0803 -0.0439,0.1599 -0.0189,0.2393 0.0263,0.0791 0.0935,0.1848 0.2032,0.3166 l 0.1823,0.2188 c 0.1122,0.135 0.2279,0.22 0.3466,0.2552 0.1199,0.0348 0.2552,-0.0108 0.4077,-0.1375 l 2.7609,-2.2978 c 0.1335,-0.1108 0.2086,-0.2242 0.2259,-0.339 0.0168,-0.1151 -0.0158,-0.2222 -0.0992,-0.3223 -0.0779,-0.0936 -0.1754,-0.1429 -0.2919,-0.1477 -0.1168,-0.005 -0.2418,0.0482 -0.3756,0.159 l -2.4089,2.0044 1.7586,-2.4094 c 0.1139,-0.1565 0.195,-0.2744 0.2432,-0.3532 0.0482,-0.0797 0.0743,-0.1732 0.078,-0.281 0.0042,-0.1085 -0.0392,-0.2168 -0.1304,-0.3262 -0.0689,-0.0828 -0.1449,-0.1378 -0.2277,-0.1653 -0.0836,-0.0275 -0.1661,-0.0337 -0.248,-0.0195 -0.0819,0.0147 -0.1641,0.0405 -0.2466,0.0788 -0.0828,0.0379 -0.1687,0.0776 -0.2568,0.119"
             style="fill:#ffffff;fill-opacity:1;fill-rule:nonzero;stroke:none"
             id="path12413"
             inkscape:connector-curvature="0" />
          <path
             d="m 34.3633,429.62 -0.5386,-0.6474 0.9882,-0.8223 c 0.1411,-0.1177 0.2205,-0.2398 0.2381,-0.3674 0.0175,-0.1273 -0.0162,-0.2418 -0.1007,-0.3433 -0.0884,-0.1063 -0.1964,-0.1621 -0.3223,-0.1672 -0.1264,-0.005 -0.2593,0.051 -0.3991,0.1667 l -2.6898,2.2385 c -0.1553,0.1295 -0.2367,0.2576 -0.244,0.3844 -0.0071,0.1269 0.0541,0.2681 0.1836,0.4237 l 0.7546,0.9068 c 0.2231,0.2682 0.4153,0.4575 0.5769,0.5675 0.1584,0.1097 0.3271,0.1783 0.5054,0.2055 0.1789,0.0273 0.3569,0.0125 0.5352,-0.0445 0.178,-0.0569 0.3503,-0.1547 0.5173,-0.2931 0.3552,-0.2959 0.5335,-0.6295 0.5349,-1.0009 0.0011,-0.3719 -0.1792,-0.7738 -0.5397,-1.207 z m -1.7422,1.1597 0,0 -0.396,-0.4762 1.0667,-0.8876 0.396,0.476 c 0.1386,0.1669 0.237,0.3203 0.2948,0.4615 0.0589,0.1411 0.0725,0.2735 0.0419,0.3985 -0.0303,0.1247 -0.1102,0.2407 -0.2386,0.3478 -0.154,0.1279 -0.3167,0.1868 -0.4887,0.1772 -0.1874,-0.0162 -0.413,-0.1817 -0.6761,-0.4972"
             style="fill:#ffffff;fill-opacity:1;fill-rule:nonzero;stroke:none"
             id="path12415"
             inkscape:connector-curvature="0" />
          <path
             d="m 38.3386,432.436 -0.5763,0.1978 -1.1806,-1.4187 0.3092,-0.5389 c 0.1205,-0.2103 0.1917,-0.3639 0.2146,-0.4606 0.0221,-0.097 -0.0096,-0.1976 -0.0969,-0.3025 -0.074,-0.0887 -0.1718,-0.1403 -0.2934,-0.1545 -0.1222,-0.0144 -0.2237,0.0131 -0.3067,0.0817 -0.0476,0.0397 -0.0905,0.0887 -0.1279,0.1468 -0.0371,0.0578 -0.0861,0.1432 -0.1465,0.2546 l -1.5234,2.7788 c -0.0436,0.0793 -0.0963,0.1749 -0.1581,0.2863 -0.061,0.1119 -0.1055,0.2129 -0.1318,0.3038 -0.027,0.0905 -0.0312,0.1843 -0.0137,0.281 0.0173,0.0969 0.0661,0.1938 0.1469,0.2908 0.0819,0.0984 0.1689,0.1647 0.2611,0.1996 0.0921,0.0348 0.1842,0.0479 0.2766,0.0399 0.0921,-0.008 0.1843,-0.0272 0.2744,-0.055 0.0904,-0.0286 0.2101,-0.0683 0.358,-0.1193 l 3.011,-0.9624 c 0.2307,-0.0708 0.3852,-0.1389 0.4629,-0.2038 0.0805,-0.0672 0.1267,-0.1624 0.1377,-0.286 0.012,-0.1239 -0.0226,-0.233 -0.1014,-0.328 -0.0468,-0.0558 -0.0958,-0.0952 -0.1486,-0.1185 -0.053,-0.0232 -0.1077,-0.034 -0.1644,-0.0326 -0.0564,10e-4 -0.1332,0.0162 -0.2293,0.044 -0.0964,0.0278 -0.1809,0.053 -0.2534,0.0757 z m -2.1331,-0.5936 0,0 0.8677,1.0426 -1.878,0.6726 1.0103,-1.7152 z"
             style="fill:#ffffff;fill-opacity:1;fill-rule:nonzero;stroke:none"
             id="path12417"
             inkscape:connector-curvature="0" />
          <path
             d="m 40.1794,434.9134 -2.6892,1.2909 2.4089,-2.0043 c 0.1335,-0.1111 0.2086,-0.2243 0.2256,-0.3391 0.017,-0.1148 -0.0153,-0.2213 -0.0967,-0.3197 -0.0796,-0.0952 -0.1771,-0.1457 -0.2931,-0.1511 -0.1159,-0.006 -0.2415,0.0476 -0.3767,0.1599 l -2.7609,2.2977 c -0.1525,0.1268 -0.2214,0.252 -0.2092,0.3759 0.0127,0.1236 0.0756,0.2526 0.1879,0.3875 l 0.1823,0.2189 c 0.1097,0.1318 0.2009,0.2174 0.2738,0.2573 0.074,0.0397 0.1528,0.0479 0.2392,0.025 0.0856,-0.023 0.2132,-0.0743 0.383,-0.1539 l 2.3338,-1.0837 -1.4899,2.0976 c -0.1092,0.1525 -0.1826,0.269 -0.2206,0.349 -0.0388,0.0802 -0.0445,0.1598 -0.0192,0.2392 0.026,0.0791 0.0938,0.1848 0.2032,0.3166 l 0.1823,0.2192 c 0.1122,0.1346 0.2279,0.2196 0.3469,0.2548 0.1199,0.0349 0.2552,-0.0108 0.4077,-0.1375 l 2.7609,-2.2978 c 0.1335,-0.1108 0.2086,-0.2239 0.2256,-0.3387 0.0173,-0.1151 -0.0161,-0.2225 -0.0995,-0.3223 -0.0776,-0.0938 -0.1749,-0.1431 -0.2916,-0.148 -0.1168,-0.005 -0.2418,0.0482 -0.3753,0.1593 l -2.4089,2.0044 1.758,-2.4094 c 0.114,-0.1568 0.195,-0.2747 0.2432,-0.3535 0.0482,-0.0794 0.0749,-0.1729 0.0785,-0.2809 0.004,-0.1083 -0.0396,-0.2169 -0.1306,-0.3263 -0.0686,-0.0828 -0.1446,-0.1378 -0.2279,-0.1653 -0.0831,-0.0272 -0.1659,-0.0334 -0.2478,-0.0192 -0.0822,0.0144 -0.1638,0.0405 -0.2466,0.0785 -0.0825,0.0377 -0.1687,0.0777 -0.2571,0.119"
             style="fill:#ffffff;fill-opacity:1;fill-rule:nonzero;stroke:none"
             id="path12419"
             inkscape:connector-curvature="0" />
          <path
             d="m 42.0038,442.025 -1.3252,-1.5922 0.8572,-0.7129 1.2203,1.4661 c 0.0901,0.108 0.1814,0.168 0.2735,0.1811 0.093,0.013 0.1789,-0.0136 0.2583,-0.0794 0.0793,-0.0663 0.1219,-0.1463 0.129,-0.2404 0.0059,-0.0938 -0.0366,-0.1956 -0.1279,-0.305 l -1.2203,-1.4663 0.993,-0.826 1.3708,1.6472 c 0.0921,0.1111 0.1877,0.1734 0.2863,0.1871 0.0981,0.013 0.1905,-0.0159 0.2758,-0.0874 0.0828,-0.0686 0.1264,-0.1525 0.131,-0.2517 0.0048,-0.0992 -0.0391,-0.2046 -0.1316,-0.3155 l -1.5981,-1.921 c -0.1287,-0.1539 -0.2546,-0.2361 -0.379,-0.2469 -0.1245,-0.0102 -0.2625,0.0476 -0.4153,0.1746 l -2.6229,2.1827 c -0.1015,0.0847 -0.1718,0.1684 -0.2112,0.252 -0.0388,0.0836 -0.0465,0.1701 -0.0226,0.2585 0.0243,0.0887 0.0782,0.1831 0.1612,0.2832 l 1.5529,1.866 c 0.0938,0.1126 0.1887,0.1755 0.2843,0.1885 0.0952,0.0136 0.1834,-0.0136 0.2644,-0.0813 0.0825,-0.0683 0.1262,-0.1508 0.1302,-0.2472 0.0048,-0.0964 -0.04,-0.201 -0.1341,-0.3138"
             style="fill:#ffffff;fill-opacity:1;fill-rule:nonzero;stroke:none"
             id="path12421"
             inkscape:connector-curvature="0" />
          <path
             d="m 43.3131,443.9662 3.1876,-0.3524 -2.0758,1.7275 c -0.135,0.1119 -0.2112,0.225 -0.2311,0.3393 -0.0192,0.1139 0.0119,0.2202 0.0939,0.3186 0.0844,0.1017 0.1853,0.1536 0.301,0.1565 0.1171,0.002 0.2421,-0.0525 0.3767,-0.1645 l 2.7448,-2.2841 c 0.3064,-0.2551 0.3538,-0.5091 0.1426,-0.7628 -0.0527,-0.0638 -0.11,-0.1131 -0.1704,-0.1488 -0.0604,-0.0355 -0.1287,-0.059 -0.2055,-0.0706 -0.0768,-0.0114 -0.157,-0.0142 -0.2415,-0.008 -0.0856,0.007 -0.1718,0.0136 -0.2582,0.0215 l -3.1366,0.3662 2.0447,-1.7019 c 0.1332,-0.1105 0.2077,-0.2256 0.225,-0.3441 0.0165,-0.1185 -0.0153,-0.2265 -0.0958,-0.3232 -0.083,-0.1 -0.1848,-0.1513 -0.3033,-0.1544 -0.1196,-0.003 -0.2449,0.0507 -0.3764,0.1601 l -2.6918,2.2402 c -0.1145,0.095 -0.1945,0.1826 -0.2378,0.262 -0.0462,0.0895 -0.063,0.1879 -0.0499,0.2956 0.0127,0.1077 0.0524,0.2016 0.1199,0.2826 0.053,0.0635 0.1088,0.1092 0.1669,0.1375 0.0579,0.0278 0.1194,0.0442 0.1823,0.0496 0.0635,0.005 0.1378,0.002 0.2225,-0.008 0.0856,-0.0105 0.1744,-0.0218 0.2662,-0.034"
             style="fill:#ffffff;fill-opacity:1;fill-rule:nonzero;stroke:none"
             id="path12423"
             inkscape:connector-curvature="0" />
          <path
             d="m 47.6643,448.7499 -0.6415,-0.7713 2.535,-2.1098 c 0.146,-0.1213 0.2268,-0.2441 0.2435,-0.3679 0.0165,-0.1236 -0.0184,-0.237 -0.1043,-0.3402 -0.087,-0.1049 -0.1933,-0.1604 -0.32,-0.167 -0.1259,-0.006 -0.2614,0.0505 -0.4054,0.1704 l -2.5353,2.1098 -0.642,-0.7713 c -0.1001,-0.1205 -0.2013,-0.1882 -0.3031,-0.2024 -0.1023,-0.0147 -0.197,0.0145 -0.284,0.087 -0.0904,0.0752 -0.1372,0.1653 -0.138,0.2699 -0.0017,0.1049 0.0459,0.2149 0.1423,0.3308 l 1.8697,2.2473 c 0.1015,0.1219 0.2044,0.1902 0.3076,0.205 0.1037,0.0144 0.1995,-0.0145 0.2865,-0.0871 0.0871,-0.0725 0.1324,-0.1613 0.1353,-0.2656 0.0031,-0.1046 -0.046,-0.2171 -0.1463,-0.3376"
             style="fill:#ffffff;fill-opacity:1;fill-rule:nonzero;stroke:none"
             id="path12425"
             inkscape:connector-curvature="0" />
          <path
             d="m 48.8262,451.4533 c 0.3016,0.362 0.6335,0.6112 0.9958,0.7489 0.3631,0.1369 0.735,0.1599 1.1166,0.0684 0.3815,-0.0925 0.7548,-0.29 1.12,-0.5936 0.2695,-0.2248 0.4838,-0.4655 0.644,-0.7214 0.1601,-0.2571 0.2599,-0.5256 0.3005,-0.8065 0.0402,-0.2803 0.0144,-0.5627 -0.0766,-0.847 -0.0913,-0.2837 -0.2511,-0.5627 -0.4796,-0.8373 -0.2271,-0.2727 -0.4745,-0.4808 -0.7421,-0.6234 -0.2676,-0.1423 -0.5417,-0.2191 -0.8221,-0.2302 -0.2803,-0.011 -0.5638,0.0403 -0.8506,0.154 -0.2869,0.1139 -0.5613,0.2795 -0.8229,0.4974 -0.2685,0.2231 -0.4822,0.4666 -0.6424,0.7294 -0.1596,0.2636 -0.2574,0.5332 -0.2928,0.8099 -0.0354,0.2769 -0.0076,0.5547 0.0834,0.8333 0.0909,0.279 0.2471,0.5517 0.4688,0.8181 z m 2.6314,-0.4892 0,0 c -0.2557,0.2126 -0.5116,0.356 -0.7679,0.4291 -0.2557,0.0734 -0.4949,0.0732 -0.7186,0 -0.2236,-0.0731 -0.4178,-0.2089 -0.5831,-0.4073 -0.1173,-0.1412 -0.1992,-0.2937 -0.2457,-0.4578 -0.0465,-0.1638 -0.0553,-0.3317 -0.0258,-0.5029 0.03,-0.1706 0.1029,-0.3472 0.2191,-0.5283 0.1165,-0.1812 0.273,-0.3541 0.4697,-0.5177 0.1981,-0.1649 0.3988,-0.2894 0.6001,-0.3727 0.2024,-0.0836 0.3937,-0.1236 0.5751,-0.1202 0.1815,0.004 0.3473,0.0425 0.4984,0.1174 0.1508,0.0745 0.2846,0.1825 0.4025,0.3237 0.1502,0.1811 0.2432,0.3846 0.2795,0.6117 0.0351,0.2268 -0.0037,0.4635 -0.1182,0.7103 -0.1143,0.2469 -0.3093,0.4853 -0.5851,0.7147"
             style="fill:#ffffff;fill-opacity:1;fill-rule:nonzero;stroke:none"
             id="path12427"
             inkscape:connector-curvature="0" />
          <path
             d="m 55.4012,454.2659 c 0.2111,-0.1758 0.3557,-0.3878 0.4334,-0.6367 0.0777,-0.2483 0.0771,-0.5173 -0.002,-0.8059 -0.0794,-0.2886 -0.2384,-0.5766 -0.4774,-0.8637 -0.2868,-0.3444 -0.5879,-0.5743 -0.9045,-0.6897 -0.2253,-0.0808 -0.4575,-0.106 -0.6965,-0.0748 -0.2389,0.0306 -0.4325,0.1074 -0.5799,0.2304 -0.0856,0.0715 -0.1341,0.1622 -0.1457,0.2725 -0.0114,0.1105 0.0209,0.2114 0.0975,0.3035 0.0621,0.0746 0.138,0.118 0.2287,0.1302 0.091,0.0113 0.1979,-0.003 0.3221,-0.0446 0.1482,-0.0479 0.2809,-0.0773 0.3982,-0.0875 0.1174,-0.0108 0.2395,0.0104 0.3654,0.064 0.1267,0.0533 0.2534,0.1559 0.3804,0.3084 0.1741,0.2095 0.2668,0.4204 0.2778,0.6327 0.0119,0.2121 -0.0556,0.3787 -0.2015,0.5003 -0.1163,0.0964 -0.2393,0.1392 -0.3702,0.129 -0.1313,-0.0108 -0.2622,-0.0561 -0.3935,-0.1363 -0.1309,-0.0803 -0.2962,-0.1959 -0.4946,-0.3478 -0.2676,-0.2019 -0.5103,-0.3544 -0.7302,-0.4581 -0.2189,-0.1035 -0.438,-0.1486 -0.6554,-0.1349 -0.2186,0.0138 -0.4286,0.1048 -0.6302,0.2724 -0.1916,0.1596 -0.3186,0.3537 -0.3809,0.5828 -0.0621,0.229 -0.0505,0.4756 0.0346,0.7409 0.0847,0.2651 0.2383,0.5315 0.4617,0.8 0.1783,0.214 0.3592,0.3773 0.5423,0.4892 0.1837,0.1123 0.362,0.1832 0.5363,0.2129 0.1735,0.0301 0.3288,0.0284 0.4652,-0.005 0.1366,-0.0329 0.2503,-0.0879 0.3427,-0.1641 0.0839,-0.0703 0.1352,-0.163 0.1528,-0.2787 0.0181,-0.1156 -0.01,-0.218 -0.0837,-0.3067 -0.0674,-0.0811 -0.1391,-0.1259 -0.2143,-0.1341 -0.0759,-0.008 -0.1802,10e-4 -0.3129,0.0287 -0.1843,0.0462 -0.3509,0.0555 -0.4983,0.028 -0.1477,-0.0275 -0.3036,-0.1397 -0.4675,-0.3365 -0.1516,-0.1828 -0.2338,-0.3631 -0.2469,-0.5414 -0.013,-0.1788 0.0363,-0.3146 0.1494,-0.4087 0.0698,-0.0581 0.1466,-0.0893 0.2285,-0.0933 0.0825,-0.004 0.1695,0.0119 0.2616,0.0482 0.0922,0.036 0.1766,0.0797 0.2543,0.1307 0.0774,0.0516 0.2013,0.1389 0.3719,0.263 0.2095,0.1582 0.4085,0.2946 0.597,0.4077 0.1879,0.1131 0.3685,0.1927 0.5408,0.2383 0.1724,0.0463 0.3453,0.0499 0.5191,0.0114 0.1737,-0.0383 0.3486,-0.1307 0.5244,-0.2772"
             style="fill:#ffffff;fill-opacity:1;fill-rule:nonzero;stroke:none"
             id="path12429"
             inkscape:connector-curvature="0" />
        </g>
      </g>
      <g
         id="g12431"
         style="">
        <path
           d="m 86.94,453.2686 -1.8193,-1.5312 c -0.1579,-0.133 -0.2979,-0.239 -0.4195,-0.3189 -0.1222,-0.0797 -0.2599,-0.1438 -0.4133,-0.1919 -0.2577,-0.0817 -0.5165,-0.0769 -0.7758,0.015 -0.2591,0.0921 -0.4987,0.2684 -0.7181,0.5289 -0.1978,0.2353 -0.3259,0.4626 -0.384,0.6823 -0.0579,0.22 -0.0448,0.4479 0.0396,0.6835 0.0462,0.125 0.1131,0.2517 0.2019,0.3804 0.089,0.1287 0.1856,0.2372 0.2899,0.3245 0.1106,0.093 0.2212,0.1333 0.3311,0.1211 0.1103,-0.0125 0.2061,-0.0669 0.2875,-0.163 0.0785,-0.0933 0.1105,-0.1865 0.0966,-0.279 -0.0139,-0.0924 -0.0669,-0.1992 -0.159,-0.32 -0.0995,-0.1295 -0.1738,-0.2381 -0.2236,-0.326 -0.0505,-0.0881 -0.0752,-0.1856 -0.074,-0.2928 0.0014,-0.1069 0.0507,-0.2185 0.1494,-0.3356 0.2616,-0.311 0.621,-0.275 1.0774,0.1091 l 1.9213,1.6172 c 0.1423,0.1196 0.275,0.1783 0.3983,0.1757 0.1239,-0.002 0.2313,-0.0572 0.3217,-0.1649 0.0919,-0.1089 0.1284,-0.2257 0.1109,-0.349 -0.017,-0.1239 -0.0967,-0.2457 -0.239,-0.3654"
           style="fill:#ffffff;fill-opacity:1;fill-rule:nonzero;stroke:none"
           id="path12433"
           inkscape:connector-curvature="0" />
        <path
           d="m 85.8467,451.1778 1.6699,1.4057 c 0.1423,0.1196 0.2758,0.1774 0.4008,0.1732 0.125,-0.004 0.2319,-0.0581 0.3195,-0.1624 0.0915,-0.1089 0.1286,-0.2257 0.1111,-0.3493 -0.017,-0.1238 -0.0967,-0.2454 -0.239,-0.3651 l -1.7079,-1.4377 c -0.1941,-0.1633 -0.3381,-0.3217 -0.4322,-0.4748 -0.0936,-0.1531 -0.1299,-0.3155 -0.1086,-0.4864 0.021,-0.171 0.1154,-0.3558 0.2829,-0.555 0.231,-0.2747 0.468,-0.4077 0.7095,-0.3983 0.2415,0.009 0.5114,0.1386 0.8079,0.3886 l 1.7226,1.4494 c 0.1437,0.121 0.2772,0.1797 0.4005,0.1754 0.1239,-0.004 0.2302,-0.0586 0.3195,-0.1647 0.089,-0.1057 0.1258,-0.2211 0.1105,-0.3455 -0.015,-0.1247 -0.0944,-0.2478 -0.2384,-0.3688 l -1.6699,-1.4054 c -0.2718,-0.2288 -0.5212,-0.3929 -0.7469,-0.493 -0.2262,-0.1 -0.47,-0.1343 -0.731,-0.1031 -0.2234,0.028 -0.432,0.1031 -0.6271,0.225 -0.1941,0.1225 -0.3858,0.2957 -0.5745,0.5202 -0.2248,0.267 -0.3895,0.521 -0.4941,0.7619 -0.1043,0.2416 -0.1477,0.4737 -0.129,0.6968 0.0187,0.2237 0.0984,0.4428 0.2395,0.6588 0.1403,0.2154 0.3419,0.434 0.6044,0.6545"
           style="fill:#ffffff;fill-opacity:1;fill-rule:nonzero;stroke:none"
           id="path12435"
           inkscape:connector-curvature="0" />
        <path
           d="m 90.9431,448.4398 -1.6671,-2.7465 3.0099,1.1852 c 0.1573,0.0626 0.2695,0.1037 0.3344,0.1239 0.0658,0.0201 0.1378,0.0226 0.216,0.008 0.0791,-0.0144 0.1528,-0.0632 0.222,-0.1451 0.0507,-0.0601 0.0819,-0.1287 0.0955,-0.205 0.0133,-0.0768 0.0068,-0.1505 -0.0178,-0.2213 -0.0253,-0.0715 -0.0632,-0.1279 -0.114,-0.1707 -0.0346,-0.0292 -0.076,-0.0561 -0.1247,-0.0805 -0.0476,-0.0244 -0.0972,-0.0459 -0.148,-0.0643 -0.0507,-0.0182 -0.1026,-0.0375 -0.1553,-0.0579 l -2.9778,-1.0695 c -0.112,-0.0428 -0.22,-0.0819 -0.3237,-0.1182 -0.1032,-0.0354 -0.2013,-0.0587 -0.2931,-0.0689 -0.0924,-0.0102 -0.1857,10e-4 -0.2787,0.0349 -0.0927,0.0337 -0.1791,0.0978 -0.2591,0.1928 -0.0799,0.0946 -0.1284,0.1907 -0.1468,0.2871 -0.0184,0.0969 -0.0136,0.1911 0.0136,0.2826 0.0264,0.091 0.0663,0.1846 0.1182,0.2798 0.0522,0.095 0.1089,0.1942 0.1704,0.2973 l 1.5551,2.721 c 0.0294,0.0488 0.0572,0.0975 0.0839,0.1457 0.0272,0.0479 0.0592,0.0967 0.0963,0.1454 0.0369,0.0491 0.0715,0.0868 0.1029,0.1131 0.0808,0.0681 0.1815,0.0973 0.3022,0.0882 0.1208,-0.009 0.2228,-0.0621 0.3053,-0.1599 0.1009,-0.1202 0.1355,-0.2358 0.104,-0.3475 -0.0314,-0.1117 -0.106,-0.2611 -0.2236,-0.4493"
           style="fill:#ffffff;fill-opacity:1;fill-rule:nonzero;stroke:none"
           id="path12437"
           inkscape:connector-curvature="0" />
        <path
           d="m 95.0369,443.2921 -1.3337,1.5848 -0.8532,-0.7177 1.2282,-1.4593 c 0.0907,-0.1074 0.1338,-0.208 0.1304,-0.3013 -0.004,-0.0938 -0.0448,-0.1735 -0.1239,-0.2398 -0.0791,-0.0666 -0.1655,-0.0947 -0.2593,-0.0845 -0.0933,0.0102 -0.186,0.0698 -0.2776,0.1789 l -1.2282,1.4596 -0.9882,-0.8317 1.3799,-1.6396 c 0.093,-0.1105 0.1375,-0.2151 0.1336,-0.3146 -0.0046,-0.0992 -0.0491,-0.1849 -0.1344,-0.2566 -0.0825,-0.0691 -0.1729,-0.0972 -0.271,-0.0844 -0.0986,0.013 -0.1942,0.0745 -0.2874,0.1851 l -1.609,1.9119 c -0.129,0.1534 -0.1882,0.292 -0.1766,0.4164 0.0119,0.1242 0.0933,0.2503 0.2449,0.3782 l 2.6107,2.1968 c 0.1015,0.0856 0.1959,0.1395 0.2852,0.1636 0.089,0.0238 0.1758,0.0161 0.2585,-0.0235 0.0834,-0.0392 0.167,-0.1086 0.2506,-0.2081 l 1.563,-1.8575 c 0.0947,-0.112 0.1395,-0.2166 0.1358,-0.313 -0.0037,-0.0961 -0.0462,-0.1786 -0.1267,-0.2463 -0.0822,-0.0692 -0.1709,-0.0972 -0.2665,-0.0845 -0.0955,0.0125 -0.1904,0.0748 -0.2851,0.1871"
           style="fill:#ffffff;fill-opacity:1;fill-rule:nonzero;stroke:none"
           id="path12439"
           inkscape:connector-curvature="0" />
        <path
           d="m 96.717,441.6613 -0.9088,-3.0753 2.0662,1.7388 c 0.1343,0.1128 0.259,0.1686 0.375,0.1675 0.1154,-10e-4 0.2149,-0.0507 0.2971,-0.1485 0.085,-0.1012 0.1182,-0.2092 0.1009,-0.324 -0.0185,-0.1151 -0.0944,-0.2291 -0.2291,-0.3419 l -2.7317,-2.2992 c -0.3047,-0.2568 -0.5635,-0.2585 -0.7759,-0.006 -0.0535,0.0629 -0.0918,0.1278 -0.1162,0.1933 -0.0244,0.066 -0.036,0.1378 -0.0337,0.2151 0.0025,0.0774 0.0142,0.1574 0.0349,0.2396 0.0215,0.0825 0.0436,0.1661 0.0669,0.2506 l 0.9127,3.0225 -2.035,-1.7129 c -0.1326,-0.1117 -0.2591,-0.1653 -0.3784,-0.1608 -0.1199,0.005 -0.2208,0.055 -0.3016,0.1511 -0.0839,0.0998 -0.1168,0.2084 -0.0984,0.3263 0.0184,0.1179 0.093,0.2321 0.224,0.3421 l 2.6795,2.2553 c 0.1134,0.0955 0.2138,0.1581 0.2997,0.1873 0.0963,0.0295 0.1961,0.0287 0.2996,-0.003 0.1037,-0.0317 0.1893,-0.0879 0.2574,-0.1681 0.0533,-0.0632 0.0879,-0.1264 0.1057,-0.1882 0.017,-0.0626 0.0227,-0.1253 0.0167,-0.1885 -0.0065,-0.0632 -0.0221,-0.1361 -0.0476,-0.218 -0.0255,-0.0819 -0.0519,-0.1672 -0.0799,-0.2557"
           style="fill:#ffffff;fill-opacity:1;fill-rule:nonzero;stroke:none"
           id="path12441"
           inkscape:connector-curvature="0" />
        <path
           d="m 96.2609,436.6389 2.7363,2.3029 c 0.1423,0.1196 0.2761,0.1768 0.4016,0.172 0.1253,-0.005 0.2316,-0.0587 0.3184,-0.1613 0.0893,-0.1057 0.1258,-0.2214 0.1105,-0.3458 -0.015,-0.1247 -0.0941,-0.2477 -0.2381,-0.3688 l -2.7363,-2.3028 c -0.1437,-0.1208 -0.2789,-0.1783 -0.4048,-0.173 -0.1264,0.006 -0.2341,0.0618 -0.3231,0.1676 -0.0851,0.1009 -0.1196,0.2146 -0.1026,0.3407 0.0167,0.1261 0.0961,0.2489 0.2381,0.3685"
           style="fill:#ffffff;fill-opacity:1;fill-rule:nonzero;stroke:none"
           id="path12443"
           inkscape:connector-curvature="0" />
        <path
           d="m 100.7626,436.8447 -2.5282,-2.1277 1.2002,-1.4264 c 0.0958,-0.1137 0.1417,-0.2239 0.1374,-0.3316 -0.0042,-0.1072 -0.0482,-0.1962 -0.1318,-0.2665 -0.085,-0.0717 -0.1791,-0.1001 -0.2829,-0.0845 -0.1034,0.0156 -0.2038,0.0808 -0.3004,0.1959 l -1.4298,1.6991 c -0.129,0.1531 -0.188,0.292 -0.1764,0.4161 0.0114,0.1245 0.093,0.2503 0.2447,0.3782 l 2.6747,2.251 c 0.1421,0.1193 0.2756,0.1774 0.4003,0.1731 0.125,-0.004 0.2319,-0.0581 0.3197,-0.1627 0.0888,-0.1054 0.1256,-0.2211 0.1106,-0.3455 -0.015,-0.1247 -0.0944,-0.2478 -0.2381,-0.3685"
           style="fill:#ffffff;fill-opacity:1;fill-rule:nonzero;stroke:none"
           id="path12445"
           inkscape:connector-curvature="0" />
        <path
           d="m 104.33,432.2494 -1.3337,1.5849 -0.853,-0.7174 1.228,-1.4596 c 0.0901,-0.1074 0.1332,-0.2081 0.1304,-0.3013 -0.004,-0.0939 -0.0454,-0.1735 -0.1242,-0.2398 -0.079,-0.0667 -0.1652,-0.0947 -0.259,-0.0845 -0.0936,0.0102 -0.1857,0.07 -0.2776,0.1789 l -1.2282,1.4595 -0.9882,-0.8317 1.3799,-1.6395 c 0.093,-0.1106 0.1375,-0.2152 0.1336,-0.3147 -0.005,-0.0992 -0.0494,-0.1845 -0.1347,-0.2565 -0.0825,-0.0692 -0.1726,-0.0972 -0.2707,-0.0845 -0.0986,0.0131 -0.1942,0.0746 -0.2872,0.1851 l -1.6092,1.912 c -0.1292,0.1533 -0.1882,0.292 -0.1766,0.4164 0.0116,0.1242 0.093,0.2503 0.2447,0.3781 l 2.6107,2.1972 c 0.1014,0.0853 0.1961,0.1391 0.2854,0.1632 0.0893,0.0239 0.1758,0.0162 0.2588,-0.0235 0.0831,-0.0391 0.1664,-0.1086 0.2503,-0.208 l 1.563,-1.8576 c 0.0944,-0.112 0.1395,-0.2166 0.1358,-0.3129 -0.003,-0.0961 -0.0462,-0.1786 -0.1267,-0.2464 -0.0819,-0.0688 -0.1709,-0.0972 -0.2665,-0.0844 -0.0955,0.0124 -0.1907,0.0748 -0.2851,0.187"
           style="fill:#ffffff;fill-opacity:1;fill-rule:nonzero;stroke:none"
           id="path12447"
           inkscape:connector-curvature="0" />
        <path
           d="m 105.3913,427.1556 c -0.2101,-0.1766 -0.4445,-0.2815 -0.703,-0.3144 -0.2588,-0.0323 -0.523,0.0153 -0.7932,0.1443 -0.2701,0.1287 -0.5258,0.3359 -0.7659,0.6219 -0.2885,0.3427 -0.462,0.6801 -0.5198,1.012 -0.04,0.2361 -0.0233,0.4691 0.049,0.6985 0.0723,0.2298 0.1823,0.4064 0.3294,0.5303 0.085,0.0715 0.1831,0.1035 0.2936,0.0955 0.1106,-0.008 0.205,-0.0581 0.2818,-0.1493 0.0627,-0.0743 0.0916,-0.1571 0.0876,-0.2484 -0.005,-0.0912 -0.0383,-0.1944 -0.1003,-0.3089 -0.0737,-0.1372 -0.1262,-0.2628 -0.1565,-0.3768 -0.0315,-0.1139 -0.0318,-0.2375 -0.001,-0.3713 0.0297,-0.1335 0.1088,-0.2764 0.2364,-0.4283 0.1754,-0.2084 0.3668,-0.3368 0.5737,-0.385 0.2064,-0.049 0.3827,-0.0119 0.5278,0.1103 0.1154,0.097 0.1794,0.2109 0.1922,0.3419 0.0127,0.1304 -0.009,0.2676 -0.0646,0.411 -0.0559,0.1431 -0.1404,0.326 -0.2552,0.5482 -0.1516,0.2988 -0.259,0.565 -0.3223,0.7991 -0.0635,0.2339 -0.0691,0.4572 -0.017,0.6695 0.0516,0.2124 0.1783,0.4031 0.3787,0.5715 0.1911,0.161 0.4048,0.2517 0.641,0.2727 0.2364,0.0207 0.477,-0.0343 0.7236,-0.1644 0.2455,-0.1301 0.4811,-0.3288 0.7056,-0.5958 0.1794,-0.2132 0.3084,-0.4199 0.3863,-0.62 0.078,-0.2001 0.1163,-0.3886 0.1149,-0.5649 -0.001,-0.1763 -0.0298,-0.3288 -0.0862,-0.4573 -0.0567,-0.1284 -0.1307,-0.2315 -0.222,-0.3084 -0.0839,-0.0708 -0.1848,-0.1043 -0.3016,-0.1014 -0.1168,0.002 -0.2126,0.0481 -0.2868,0.1366 -0.0681,0.0805 -0.0995,0.1587 -0.0939,0.2344 0.005,0.0757 0.0323,0.1769 0.0828,0.303 0.078,0.1732 0.1162,0.3351 0.1151,0.4853 -3e-4,0.1505 -0.0836,0.3235 -0.2483,0.5193 -0.1534,0.1817 -0.3158,0.2948 -0.4896,0.3388 -0.1737,0.0439 -0.3158,0.0192 -0.4286,-0.0751 -0.0694,-0.0587 -0.1136,-0.1282 -0.1318,-0.2084 -0.0193,-0.0805 -0.0187,-0.1692 0.001,-0.2662 0.019,-0.0969 0.0468,-0.1879 0.0837,-0.2732 0.0368,-0.0851 0.1009,-0.2225 0.1936,-0.4119 0.1187,-0.2347 0.2171,-0.4544 0.2953,-0.6599 0.0786,-0.2052 0.125,-0.3969 0.1401,-0.5743 0.0144,-0.178 -0.0125,-0.349 -0.0808,-0.5131 -0.0683,-0.1638 -0.1899,-0.3197 -0.3651,-0.4674"
           style="fill:#ffffff;fill-opacity:1;fill-rule:nonzero;stroke:none"
           id="path12449"
           inkscape:connector-curvature="0" />
      </g>
      <g
         id="g12451"
         style="">
        <g
           id="g12453"
           style="">
          <path
             d="m 49.8022,371.1671 c 0,-0.1449 -0.0355,-0.3011 -0.1069,-0.4694 -0.0711,-0.1681 -0.1834,-0.3334 -0.3359,-0.4955 -0.1534,-0.1619 -0.3481,-0.2937 -0.5854,-0.3949 -0.2375,-0.1009 -0.5139,-0.1516 -0.8299,-0.1516 -0.2393,0 -0.4575,0.0229 -0.6534,0.068 -0.1962,0.0456 -0.3742,0.1165 -0.5344,0.2123 -0.1598,0.0958 -0.3067,0.2225 -0.4413,0.3793 -0.1193,0.1426 -0.222,0.3019 -0.3064,0.4785 -0.0845,0.1766 -0.148,0.3651 -0.1902,0.5649 -0.0423,0.2007 -0.0638,0.413 -0.0638,0.6384 0,0.3651 0.0536,0.6922 0.1596,0.9813 0.1063,0.2892 0.2588,0.5361 0.4569,0.7416 0.1979,0.2055 0.43,0.362 0.6965,0.4691 0.2662,0.1074 0.5502,0.1613 0.8518,0.1613 0.3677,0 0.6945,-0.0734 0.9816,-0.22 0.2869,-0.1465 0.5069,-0.3277 0.6594,-0.5434 0.1528,-0.2157 0.2293,-0.4195 0.2293,-0.6117 0,-0.1052 -0.0371,-0.1981 -0.1114,-0.2786 -0.0743,-0.0805 -0.1644,-0.1208 -0.2693,-0.1208 -0.1179,0 -0.2061,0.0281 -0.265,0.0836 -0.059,0.0559 -0.1242,0.1517 -0.1965,0.288 -0.1199,0.2251 -0.2608,0.3932 -0.4229,0.5049 -0.1621,0.1114 -0.362,0.1669 -0.5992,0.1669 -0.3776,0 -0.6787,-0.1431 -0.9026,-0.4303 -0.2242,-0.2868 -0.3359,-0.6947 -0.3359,-1.2231 0,-0.3532 0.0496,-0.6466 0.1485,-0.881 0.099,-0.2344 0.2396,-0.4093 0.4213,-0.525 0.1817,-0.1154 0.3943,-0.1732 0.638,-0.1732 0.2642,0 0.4873,0.0655 0.6699,0.1964 0.1831,0.1313 0.3208,0.3238 0.4138,0.5778 0.0391,0.1196 0.0879,0.2171 0.1454,0.2925 0.0576,0.0754 0.1508,0.1131 0.2787,0.1131 0.1094,0 0.2032,-0.0386 0.2818,-0.1145 0.0785,-0.0766 0.1179,-0.1715 0.1179,-0.2849"
             style="fill:#ffffff;fill-opacity:1;fill-rule:nonzero;stroke:none"
             id="path12455"
             inkscape:connector-curvature="0" />
          <path
             d="m 52.5186,374.3504 c 0.4708,0 0.8745,-0.0958 1.2121,-0.2866 0.3376,-0.1908 0.5933,-0.4623 0.7665,-0.8144 0.1735,-0.3518 0.2599,-0.7653 0.2599,-1.2401 0,-0.351 -0.0473,-0.6702 -0.142,-0.9567 -0.0952,-0.2872 -0.2378,-0.5361 -0.4277,-0.7464 -0.19,-0.2106 -0.423,-0.3719 -0.6993,-0.4833 -0.2773,-0.1114 -0.5939,-0.1672 -0.9511,-0.1672 -0.3551,0 -0.6732,0.0575 -0.9535,0.172 -0.2807,0.1143 -0.5151,0.2758 -0.7027,0.4847 -0.1885,0.2084 -0.3303,0.4593 -0.4261,0.7524 -0.0961,0.2931 -0.144,0.61 -0.144,0.9507 0,0.3487 0.0499,0.6687 0.15,0.9598 0.1003,0.2911 0.2452,0.5389 0.4354,0.7433 0.1899,0.2043 0.4212,0.3605 0.6933,0.4691 0.2727,0.1083 0.5823,0.1627 0.9292,0.1627 z m 1.3071,-2.3349 0,0 c 0,0.3322 -0.0539,0.6202 -0.1616,0.8637 -0.1072,0.2438 -0.2602,0.428 -0.4595,0.5528 -0.1996,0.125 -0.428,0.1873 -0.686,0.1873 -0.184,0 -0.3537,-0.0345 -0.5097,-0.1037 -0.1556,-0.0692 -0.2897,-0.1698 -0.4022,-0.3019 -0.1128,-0.1321 -0.2015,-0.3008 -0.2664,-0.506 -0.065,-0.2058 -0.0978,-0.4362 -0.0978,-0.6922 0,-0.2582 0.0328,-0.4915 0.0978,-0.6999 0.0649,-0.2086 0.157,-0.3815 0.2755,-0.5187 0.1188,-0.1375 0.2548,-0.2401 0.4085,-0.3081 0.1542,-0.0684 0.3228,-0.1021 0.5068,-0.1021 0.235,0 0.4515,0.059 0.6486,0.1763 0.1972,0.1177 0.3537,0.2996 0.4708,0.5451 0.1165,0.2458 0.1752,0.548 0.1752,0.9074"
             style="fill:#ffffff;fill-opacity:1;fill-rule:nonzero;stroke:none"
             id="path12457"
             inkscape:connector-curvature="0" />
          <path
             d="m 56.3369,373.7928 0,-3.304 1.864,0 c 0.1486,0 0.2631,-0.0363 0.3425,-0.1083 0.0793,-0.0726 0.119,-0.1633 0.119,-0.2724 0,-0.1117 -0.0394,-0.2021 -0.1179,-0.2713 -0.0779,-0.0692 -0.1928,-0.1035 -0.3436,-0.1035 l -2.22,0 c -0.2002,0 -0.3445,0.0442 -0.432,0.133 -0.0879,0.0887 -0.1319,0.2321 -0.1319,0.4306 l 0,3.4959 c 0,0.186 0.0417,0.3254 0.1256,0.4181 0.0836,0.0927 0.1936,0.1395 0.3297,0.1395 0.1386,0 0.2503,-0.0459 0.3362,-0.1381 0.0856,-0.0918 0.1284,-0.2315 0.1284,-0.4195"
             style="fill:#ffffff;fill-opacity:1;fill-rule:nonzero;stroke:none"
             id="path12459"
             inkscape:connector-curvature="0" />
          <path
             d="m 59.728,374.273 1.1985,0 c 0.3118,0 0.5794,-0.0289 0.8022,-0.0867 0.2228,-0.0579 0.4249,-0.1664 0.6066,-0.3254 0.4731,-0.4046 0.7095,-1.0197 0.7095,-1.8454 0,-0.2724 -0.0238,-0.5213 -0.0712,-0.7464 -0.0479,-0.225 -0.1207,-0.428 -0.2199,-0.6086 -0.0995,-0.1805 -0.2262,-0.3418 -0.381,-0.4844 -0.1219,-0.1094 -0.2548,-0.1973 -0.3994,-0.2633 -0.1446,-0.0661 -0.2999,-0.1126 -0.4663,-0.1392 -0.1661,-0.027 -0.3532,-0.0403 -0.5621,-0.0403 l -1.1982,0 c -0.1673,0 -0.2931,0.025 -0.3779,0.0757 -0.0845,0.0505 -0.1397,0.1219 -0.1655,0.2137 -0.0258,0.0919 -0.0391,0.2112 -0.0391,0.3578 l 0,3.3287 c 0,0.1984 0.0445,0.3416 0.1332,0.4306 0.089,0.0887 0.2327,0.1332 0.4306,0.1332 z m 0.3563,-0.7279 0,0 0,-3.081 0.6967,0 c 0.1528,0 0.2724,0.004 0.3589,0.0125 0.0873,0.008 0.1769,0.0286 0.2699,0.0618 0.0927,0.0331 0.1732,0.0793 0.2415,0.1394 0.3073,0.26 0.4615,0.7078 0.4615,1.3439 0,0.4479 -0.0681,0.7832 -0.2033,1.0063 -0.1349,0.2231 -0.3016,0.3651 -0.4997,0.4258 -0.1985,0.0607 -0.438,0.0913 -0.7186,0.0913 l -0.6069,0 z"
             style="fill:#ffffff;fill-opacity:1;fill-rule:nonzero;stroke:none"
             id="path12461"
             inkscape:connector-curvature="0" />
          <path
             d="m 66.7366,373.5638 -2.0715,0 0,-1.1149 1.9071,0 c 0.1406,0 0.2455,-0.0315 0.3147,-0.0944 0.0691,-0.0632 0.1037,-0.146 0.1037,-0.2494 0,-0.1029 -0.034,-0.1871 -0.1026,-0.2523 -0.0677,-0.0649 -0.1732,-0.0975 -0.3158,-0.0975 l -1.9071,0 0,-1.2912 2.143,0 c 0.144,0 0.2531,-0.0337 0.3262,-0.1006 0.0734,-0.0672 0.1103,-0.1565 0.1103,-0.2679 0,-0.1074 -0.0369,-0.1947 -0.1103,-0.2616 -0.0731,-0.0672 -0.1822,-0.1007 -0.3262,-0.1007 l -2.4996,0 c -0.2002,0 -0.3439,0.0442 -0.4317,0.133 -0.0876,0.0887 -0.1316,0.2321 -0.1316,0.4306 l 0,3.4123 c 0,0.1321 0.0196,0.2401 0.059,0.3237 0.0391,0.0836 0.1006,0.1446 0.184,0.1828 0.0836,0.038 0.1907,0.0573 0.3203,0.0573 l 2.4281,0 c 0.1463,0 0.2551,-0.0326 0.3266,-0.0978 0.0711,-0.0649 0.1071,-0.1502 0.1071,-0.2554 0,-0.1071 -0.036,-0.1936 -0.1071,-0.2585 -0.0715,-0.0649 -0.1803,-0.0975 -0.3266,-0.0975"
             style="fill:#ffffff;fill-opacity:1;fill-rule:nonzero;stroke:none"
             id="path12463"
             inkscape:connector-curvature="0" />
          <path
             d="m 69.6291,371.5013 -0.8422,0 0,-1.285 c 0,-0.1836 -0.0433,-0.3231 -0.1301,-0.4181 -0.0867,-0.0949 -0.1964,-0.1425 -0.3282,-0.1425 -0.1384,0 -0.2498,0.047 -0.3345,0.1408 -0.0848,0.0941 -0.127,0.2319 -0.127,0.4136 l 0,3.4991 c 0,0.2024 0.0468,0.347 0.1392,0.4337 0.0929,0.0867 0.2406,0.1301 0.443,0.1301 l 1.1798,0 c 0.3492,0 0.6177,-0.0269 0.8053,-0.0808 0.1857,-0.0516 0.3461,-0.1372 0.4816,-0.2568 0.1352,-0.1199 0.2376,-0.2662 0.3082,-0.4397 0.0697,-0.1734 0.1051,-0.3687 0.1051,-0.5853 0,-0.4626 -0.1426,-0.813 -0.4274,-1.0514 -0.2849,-0.2387 -0.709,-0.3577 -1.2728,-0.3577 z m -0.2228,2.0809 0,0 -0.6194,0 0,-1.3873 0.6194,0 c 0.2168,0 0.3977,0.023 0.5434,0.0683 0.1454,0.0454 0.2563,0.1197 0.3328,0.2228 0.0765,0.1032 0.1148,0.2387 0.1148,0.4057 0,0.2004 -0.059,0.3634 -0.1766,0.4892 -0.1324,0.1344 -0.4037,0.2013 -0.8144,0.2013"
             style="fill:#ffffff;fill-opacity:1;fill-rule:nonzero;stroke:none"
             id="path12465"
             inkscape:connector-curvature="0" />
          <path
             d="m 73.9871,374.3504 c 0.4708,0 0.8745,-0.0958 1.2121,-0.2866 0.3376,-0.1908 0.5933,-0.4623 0.7665,-0.8144 0.1734,-0.3518 0.2599,-0.7653 0.2599,-1.2401 0,-0.351 -0.0473,-0.6702 -0.142,-0.9567 -0.0953,-0.2872 -0.2378,-0.5361 -0.4278,-0.7464 -0.1899,-0.2106 -0.4229,-0.3719 -0.6995,-0.4833 -0.2767,-0.1114 -0.5936,-0.1672 -0.9508,-0.1672 -0.3552,0 -0.6729,0.0575 -0.9536,0.172 -0.2809,0.1143 -0.515,0.2758 -0.703,0.4847 -0.1882,0.2084 -0.3299,0.4593 -0.4257,0.7524 -0.0961,0.2931 -0.144,0.61 -0.144,0.9507 0,0.3487 0.0499,0.6687 0.1499,0.9598 0.1004,0.2911 0.2455,0.5389 0.4352,0.7433 0.1899,0.2043 0.4215,0.3605 0.6939,0.4691 0.2724,0.1083 0.5819,0.1627 0.9289,0.1627 z m 1.3068,-2.3349 0,0 c 0,0.3322 -0.0536,0.6202 -0.1613,0.8637 -0.1072,0.2438 -0.2603,0.428 -0.4595,0.5528 -0.1993,0.125 -0.4283,0.1873 -0.686,0.1873 -0.184,0 -0.3538,-0.0345 -0.5097,-0.1037 -0.1556,-0.0692 -0.2897,-0.1698 -0.4025,-0.3019 -0.1125,-0.1321 -0.2013,-0.3008 -0.2662,-0.506 -0.0649,-0.2058 -0.0978,-0.4362 -0.0978,-0.6922 0,-0.2582 0.0329,-0.4915 0.0978,-0.6999 0.0649,-0.2086 0.1571,-0.3815 0.2758,-0.5187 0.1185,-0.1375 0.2549,-0.2401 0.4085,-0.3081 0.1539,-0.0684 0.3226,-0.1021 0.5066,-0.1021 0.2352,0 0.4515,0.059 0.6485,0.1763 0.1973,0.1177 0.3541,0.2996 0.4709,0.5451 0.1165,0.2458 0.1749,0.548 0.1749,0.9074"
             style="fill:#ffffff;fill-opacity:1;fill-rule:nonzero;stroke:none"
             id="path12467"
             inkscape:connector-curvature="0" />
          <path
             d="m 78.1398,371.6748 -0.3223,0 0,-1.4585 c 0,-0.1921 -0.0422,-0.3336 -0.1267,-0.4243 -0.0847,-0.0907 -0.195,-0.1363 -0.3316,-0.1363 -0.1463,0 -0.26,0.0476 -0.3405,0.1425 -0.0802,0.095 -0.1207,0.2345 -0.1207,0.4181 l 0,3.4929 c 0,0.1984 0.0442,0.3416 0.1329,0.4306 0.089,0.0887 0.2328,0.1332 0.4309,0.1332 l 1.4956,0 c 0.2063,0 0.3826,-0.009 0.5295,-0.0264 0.1465,-0.0175 0.2786,-0.0532 0.3965,-0.1068 0.142,-0.0598 0.2679,-0.1457 0.3776,-0.2571 0.1094,-0.1114 0.1925,-0.2413 0.2492,-0.3887 0.0569,-0.1476 0.085,-0.3041 0.085,-0.4691 0,-0.3384 -0.0949,-0.6092 -0.2863,-0.8113 -0.1908,-0.2024 -0.4805,-0.3458 -0.8685,-0.4305 0.163,-0.0868 0.3189,-0.2146 0.4677,-0.3839 0.1485,-0.1692 0.2812,-0.3495 0.3977,-0.5402 0.1168,-0.1911 0.2075,-0.3634 0.273,-0.5174 0.0646,-0.1536 0.0972,-0.2596 0.0972,-0.3174 0,-0.0599 -0.0193,-0.1191 -0.0573,-0.1778 -0.0385,-0.0589 -0.0904,-0.1054 -0.1567,-0.1394 -0.0655,-0.0343 -0.142,-0.0513 -0.2285,-0.0513 -0.1035,0 -0.1905,0.0243 -0.2605,0.0728 -0.07,0.0485 -0.1307,0.11 -0.1811,0.1843 -0.0508,0.0742 -0.1194,0.1836 -0.2061,0.3282 l -0.3682,0.6131 c -0.1324,0.2251 -0.2506,0.3963 -0.3546,0.5142 -0.1041,0.1174 -0.2101,0.1982 -0.3178,0.2416 -0.1072,0.0433 -0.2424,0.0649 -0.4054,0.0649 z m 0.5264,1.9074 0,0 -0.8487,0 0,-1.2478 0.8238,0 c 0.2211,0 0.4068,0.019 0.5576,0.0573 0.1505,0.0382 0.2659,0.1031 0.3452,0.195 0.0794,0.0918 0.1194,0.2182 0.1194,0.3795 0,0.1259 -0.0321,0.237 -0.0958,0.3328 -0.0641,0.0958 -0.1528,0.1676 -0.2665,0.2152 -0.1074,0.0456 -0.3192,0.068 -0.635,0.068"
             style="fill:#ffffff;fill-opacity:1;fill-rule:nonzero;stroke:none"
             id="path12469"
             inkscape:connector-curvature="0" />
          <path
             d="m 83.9897,373.5142 -1.0035,0 0,-3.2979 c 0,-0.1899 -0.0422,-0.331 -0.1267,-0.4229 -0.085,-0.0915 -0.1941,-0.1377 -0.3282,-0.1377 -0.1361,0 -0.2475,0.0464 -0.3328,0.1394 -0.0859,0.093 -0.1287,0.2333 -0.1287,0.4212 l 0,3.2979 -1.0035,0 c -0.1567,0 -0.2735,0.0346 -0.3498,0.1037 -0.0765,0.0692 -0.1145,0.1605 -0.1145,0.2741 0,0.1177 0.0397,0.2106 0.1191,0.2787 0.0793,0.0683 0.1947,0.1023 0.3452,0.1023 l 2.9234,0 c 0.159,0 0.2772,-0.0351 0.3546,-0.1054 0.0771,-0.0701 0.1162,-0.1622 0.1162,-0.2756 0,-0.1136 -0.0394,-0.2049 -0.1179,-0.2741 -0.0785,-0.0691 -0.1959,-0.1037 -0.3529,-0.1037"
             style="fill:#ffffff;fill-opacity:1;fill-rule:nonzero;stroke:none"
             id="path12471"
             inkscape:connector-curvature="0" />
          <path
             d="m 87.8893,373.5638 -2.0718,0 0,-1.1149 1.9074,0 c 0.1406,0 0.2455,-0.0315 0.3147,-0.0944 0.0691,-0.0632 0.1037,-0.146 0.1037,-0.2494 0,-0.1029 -0.0343,-0.1871 -0.1023,-0.2523 -0.0681,-0.0649 -0.1735,-0.0975 -0.3161,-0.0975 l -1.9074,0 0,-1.2912 2.143,0 c 0.1443,0 0.2531,-0.0337 0.3265,-0.1006 0.0734,-0.0672 0.1103,-0.1565 0.1103,-0.2679 0,-0.1074 -0.0369,-0.1947 -0.1103,-0.2616 -0.0734,-0.0672 -0.1822,-0.1007 -0.3265,-0.1007 l -2.4993,0 c -0.2002,0 -0.3439,0.0442 -0.432,0.133 -0.0873,0.0887 -0.1313,0.2321 -0.1313,0.4306 l 0,3.4123 c 0,0.1321 0.0196,0.2401 0.0587,0.3237 0.0394,0.0836 0.1009,0.1446 0.184,0.1828 0.0836,0.038 0.1907,0.0573 0.3206,0.0573 l 2.4281,0 c 0.1463,0 0.2551,-0.0326 0.3266,-0.0978 0.0711,-0.0649 0.1071,-0.1502 0.1071,-0.2554 0,-0.1071 -0.036,-0.1936 -0.1071,-0.2585 -0.0715,-0.0649 -0.1803,-0.0975 -0.3266,-0.0975"
             style="fill:#ffffff;fill-opacity:1;fill-rule:nonzero;stroke:none"
             id="path12473"
             inkscape:connector-curvature="0" />
          <path
             d="m 92.4695,371.0957 c 0,-0.2747 -0.0705,-0.5213 -0.212,-0.7399 -0.1417,-0.2191 -0.3486,-0.3903 -0.6208,-0.5142 -0.273,-0.1242 -0.5958,-0.1859 -0.9694,-0.1859 -0.4482,0 -0.8178,0.0847 -1.1089,0.2539 -0.2061,0.1219 -0.3736,0.2846 -0.5029,0.4879 -0.129,0.2032 -0.1936,0.4011 -0.1936,0.5927 0,0.1117 0.0391,0.2072 0.1162,0.2869 0.0774,0.0793 0.1758,0.119 0.2957,0.119 0.0969,0 0.1788,-0.0312 0.2463,-0.093 0.0669,-0.0617 0.1242,-0.1539 0.1715,-0.2755 0.0581,-0.1445 0.1205,-0.2653 0.1874,-0.3622 0.0671,-0.0973 0.1618,-0.1772 0.2834,-0.2401 0.1222,-0.063 0.2818,-0.0944 0.4802,-0.0944 0.2724,0 0.4938,0.0635 0.6642,0.1905 0.1701,0.1269 0.2557,0.2851 0.2557,0.4753 0,0.1505 -0.0462,0.273 -0.1381,0.3668 -0.0915,0.0939 -0.2106,0.1656 -0.3563,0.2155 -0.1454,0.0493 -0.3402,0.102 -0.5834,0.1579 -0.3265,0.0762 -0.5992,0.1655 -0.8192,0.2678 -0.2197,0.1021 -0.3943,0.2415 -0.5235,0.4179 -0.129,0.1765 -0.1934,0.396 -0.1934,0.6579 0,0.25 0.0683,0.4719 0.2044,0.6658 0.1364,0.1942 0.3334,0.3436 0.5916,0.4476 0.2577,0.1043 0.5613,0.1565 0.9105,0.1565 0.2786,0 0.5193,-0.0346 0.7228,-0.1038 0.2033,-0.0691 0.3722,-0.1612 0.5063,-0.2758 0.1344,-0.1145 0.2321,-0.2347 0.2945,-0.3605 0.0618,-0.1259 0.0924,-0.2489 0.0924,-0.3685 0,-0.1095 -0.0385,-0.2081 -0.1159,-0.296 -0.0771,-0.0876 -0.1738,-0.1312 -0.2894,-0.1312 -0.1055,0 -0.1854,0.0261 -0.2404,0.0788 -0.0544,0.0524 -0.114,0.1389 -0.178,0.2585 -0.0822,0.1712 -0.1812,0.305 -0.2968,0.4008 -0.1157,0.0961 -0.3019,0.1443 -0.5576,0.1443 -0.2378,0 -0.4289,-0.0521 -0.5743,-0.1565 -0.1457,-0.1043 -0.2185,-0.2299 -0.2185,-0.3764 0,-0.0907 0.0246,-0.1692 0.0742,-0.2353 0.0493,-0.0657 0.1177,-0.1227 0.2044,-0.1703 0.0865,-0.0474 0.1746,-0.0845 0.2633,-0.1114 0.0888,-0.027 0.2353,-0.0661 0.4397,-0.1177 0.256,-0.0598 0.4878,-0.1258 0.6951,-0.1981 0.2074,-0.0723 0.3843,-0.1599 0.5297,-0.2634 0.1455,-0.1031 0.2591,-0.2335 0.3408,-0.3914 0.0813,-0.1579 0.1221,-0.3515 0.1221,-0.5808"
             style="fill:#ffffff;fill-opacity:1;fill-rule:nonzero;stroke:none"
             id="path12475"
             inkscape:connector-curvature="0" />
        </g>
      </g>
      <g
         id="g12477"
         style="">
        <g
           id="g12479"
           style="">
          <path
             d="m 80.2437,416.2671 c 0,-1.0156 -0.0623,-2.0174 -0.1865,-2.9845 -0.0621,-0.4904 -0.1383,-0.9808 -0.235,-1.4576 -1.5545,-0.2835 -4.3937,-0.6494 -5.5338,0.2211 -1.6163,1.2296 -4.9462,4.221 -4.9462,4.221 0,0 0.0482,-5.5269 3.0603,-7.0605 2.9982,-1.5335 4.5321,-1.1469 6.4318,-0.9326 -1.6302,-4.394 -4.5734,-7.7445 -8.1243,-9.14 -1.0296,-0.4076 -2.107,-0.6423 -3.2194,-0.6976 -0.1658,-0.007 -0.3248,-0.0139 -0.4906,-0.0139 -1.7547,0 -3.4266,0.4629 -4.9601,1.2988 -1.0434,0.5596 -2.0174,1.2986 -2.9018,2.183 -3.2675,3.2539 -5.3816,8.4767 -5.3816,14.3628 0,4.4765 1.2161,8.5598 3.2332,11.689 0.1244,0.2007 0.2557,0.394 0.3937,0.5805 2.4109,3.4404 5.8238,5.582 9.6166,5.582 2.5494,0 4.9328,-0.974 6.957,-2.6665 1.9412,-1.6166 3.5578,-3.8965 4.6562,-6.6048 1.0364,-2.5424 1.6305,-5.4714 1.6305,-8.5802"
             style="fill:#f8941d;fill-opacity:1;fill-rule:nonzero;stroke:none"
             id="path12481"
             inkscape:connector-curvature="0" />
          <path
             d="m 67.0005,398.0769 c -1.7685,0 -3.4937,0.451 -5.1261,1.3411 -1.0565,0.5667 -2.06,1.3215 -2.9801,2.2422 -3.4846,3.4693 -5.4836,8.7937 -5.4836,14.6069 0,4.3682 1.1679,8.5865 3.289,11.8764 0.1256,0.2029 0.2625,0.4045 0.4054,0.5984 2.584,3.6873 6.1004,5.7223 9.8954,5.7223 2.5467,0 5.0287,-0.9502 7.1776,-2.7474 1.997,-1.6622 3.6411,-3.9926 4.7549,-6.7396 1.0837,-2.6575 1.6563,-5.6693 1.6563,-8.7101 0,-1.0286 -0.0641,-2.0474 -0.1894,-3.0282 -0.0697,-0.5505 -0.148,-1.0361 -0.239,-1.4828 l -0.0467,-0.229 -0.2299,-0.042 c -0.8252,-0.1505 -2.0455,-0.3294 -3.1743,-0.3294 -1.2103,0 -2.0962,0.2072 -2.6311,0.6157 -1.1987,0.9119 -3.2935,2.7507 -4.3401,3.6794 0.1457,-1.5517 0.7024,-4.858 2.8202,-5.9361 1.4896,-0.7619 2.7167,-1.1018 3.981,-1.1018 0.5876,0 1.1403,0.0686 1.7251,0.1409 l 1.0888,0.1264 -0.1956,-0.5264 c -1.6764,-4.517 -4.7097,-7.9217 -8.3219,-9.341 -1.0647,-0.4218 -2.1847,-0.6647 -3.3287,-0.7217 -0.1976,-0.008 -0.3501,-0.0142 -0.5072,-0.0142 z m 0,35.6962 0,0 c -3.5637,0 -6.8782,-1.9301 -9.3347,-5.4352 -0.1369,-0.1854 -0.2631,-0.371 -0.3824,-0.5635 -2.0532,-3.185 -3.1819,-7.2703 -3.1819,-11.5073 0,-5.5479 1.974,-10.8257 5.2806,-14.1179 0.8731,-0.8736 1.8222,-1.588 2.8208,-2.1237 1.669,-0.9097 3.4311,-1.3181 5.2359,-1.2456 1.1032,0.0545 2.1495,0.2815 3.1439,0.6752 3.289,1.2924 6.08,4.3399 7.7224,8.4073 -0.5905,-0.0728 -1.1506,-0.14 -1.7651,-0.14 -1.3797,0 -2.704,0.3628 -4.2948,1.1769 -3.1615,1.6098 -3.2465,7.1309 -3.2485,7.3647 l -0.0068,0.7841 0.5831,-0.5238 c 0.0329,-0.0301 3.3381,-2.9963 4.9249,-4.2033 0.4068,-0.3106 1.1713,-0.4742 2.2121,-0.4742 0.9769,0 2.0353,0.142 2.8188,0.2769 0.0689,0.3663 0.1301,0.762 0.1857,1.2022 0.1219,0.9522 0.184,1.9418 0.184,2.9412 0,2.9518 -0.5554,5.874 -1.605,8.4498 -1.0721,2.6425 -2.6481,4.8793 -4.5581,6.4696 -2.0234,1.6922 -4.3521,2.5866 -6.7349,2.5866"
             style="fill:#e5c896;fill-opacity:1;fill-rule:nonzero;stroke:none"
             id="path12483"
             inkscape:connector-curvature="0" />
        </g>
        <g
           id="g12485"
           style="">
          <path
             d="m 66.655,398.0883 c -0.112,0 -0.2222,0.0547 -0.288,0.1553 -2.0234,3.0674 -4.0643,7.035 -4.0643,8.9847 0,1.3422 1.0633,2.8715 2.2943,4.642 1.9259,2.7686 4.1074,5.9069 3.0206,9.2977 -0.3257,1.0173 -0.5607,2.2167 -0.6981,3.566 -0.1041,1.0346 -0.1486,2.1727 -0.133,3.3831 0.0284,2.3624 0.2841,4.5819 0.4938,6.0282 0.0278,0.189 0.2072,0.3245 0.392,0.2919 0.1883,-0.0272 0.3192,-0.2024 0.2923,-0.3912 -0.2072,-1.4255 -0.4595,-3.6127 -0.4873,-5.9371 -0.0156,-1.1855 0.0284,-2.2969 0.1287,-3.3055 0.133,-1.3005 0.3586,-2.4534 0.6701,-3.4245 1.1909,-3.7163 -1.1948,-7.1465 -3.1113,-9.9029 -1.1653,-1.6752 -2.1713,-3.122 -2.1713,-4.2477 0,-1.7969 2.0477,-5.7197 3.9495,-8.604 0.1052,-0.1593 0.0612,-0.3736 -0.0978,-0.479 -0.0587,-0.0383 -0.1247,-0.057 -0.1902,-0.057"
             style="fill:#e5c896;fill-opacity:1;fill-rule:nonzero;stroke:none"
             id="path12487"
             inkscape:connector-curvature="0" />
        </g>
        <g
           id="g12489"
           style="">
          <path
             d="m 62.3789,399.1938 c -0.1153,0 -0.2287,0.0584 -0.2939,0.1647 -0.7855,1.2764 -3.3472,5.6174 -3.3472,7.8698 0,1.3422 1.0619,2.8709 2.2918,4.6415 1.9236,2.7686 4.104,5.9068 3.0164,9.2982 -0.3569,1.118 -0.5993,2.4222 -0.7197,3.8763 -0.0919,0.978 -0.127,2.0299 -0.1046,3.1241 0.0294,2.2133 0.2508,4.2304 0.4317,5.5324 0.0255,0.1891 0.2112,0.3223 0.3892,0.2945 0.1891,-0.0258 0.3211,-0.2007 0.2948,-0.3895 -0.178,-1.2827 -0.396,-3.2692 -0.4249,-5.4493 -0.0224,-1.0701 0.0119,-2.0956 0.1017,-3.0509 0.1168,-1.4063 0.349,-2.6589 0.6903,-3.727 1.1908,-3.716 -1.192,-7.1467 -3.1074,-9.9031 -1.1639,-1.675 -2.1685,-3.1215 -2.1685,-4.2472 0,-1.6458 1.6759,-4.9575 3.2446,-7.5081 0.0997,-0.1624 0.049,-0.375 -0.1134,-0.4751 -0.0561,-0.0346 -0.1188,-0.0513 -0.1809,-0.0513"
             style="fill:#e5c896;fill-opacity:1;fill-rule:nonzero;stroke:none"
             id="path12491"
             inkscape:connector-curvature="0" />
        </g>
        <g
           id="g12493"
           style="">
          <path
             d="m 67.8951,410.6894 c 0,0 0.6832,7.4189 -2.3153,8.0201 -2.9982,0.6018 -3.8191,-0.555 -4.411,-2.0319 -0.5921,-1.4768 2.5155,-7.0911 5.3229,-9.7979 2.8069,-2.7071 3.7653,-6.0109 5.893,-6.9154 2.1274,-0.9046 5.4459,-0.203 5.1902,0.5992 -0.2557,0.8022 -1.9976,0.462 -2.6617,0.6015 -0.6645,0.1395 -2.5285,2.4061 -2.5285,2.4061 0,0 1.3252,0.1003 2.5285,1.0026 1.203,0.9022 -0.9465,1.7044 -2.5285,1.8045 -1.5821,0.1004 -4.5411,3.4149 -4.4896,4.3112"
             style="fill:#f8941d;fill-opacity:1;fill-rule:nonzero;stroke:none"
             id="path12495"
             inkscape:connector-curvature="0" />
          <path
             d="m 74.736,399.1938 c -0.6491,0 -1.607,0.0788 -2.4863,0.4527 -1.2696,0.5394 -2.1245,1.8244 -3.1133,3.3123 -0.7752,1.1647 -1.6537,2.4851 -2.8842,3.6723 -2.7635,2.6637 -6.0843,8.4806 -5.404,10.1749 0.4675,1.167 1.1455,2.4114 3.2789,2.4114 0.4498,0 0.9612,-0.0566 1.5213,-0.1689 3.2647,-0.6551 2.6195,-8.0751 2.5906,-8.3908 -0.0377,-0.6568 2.7196,-3.843 4.1672,-3.9348 1.0857,-0.0686 2.9058,-0.508 3.1711,-1.3944 0.0627,-0.2103 0.087,-0.6239 -0.4566,-1.0312 -0.7558,-0.5664 -1.5506,-0.8362 -2.0829,-0.9627 0.7886,-0.9068 1.6673,-1.773 1.9465,-1.8317 0.1437,-0.03 0.3912,-0.0323 0.612,-0.0323 l 0.2475,3e-4 c 0.7186,0 1.8048,0 2.0602,-0.8025 0.0643,-0.201 0.0252,-0.4133 -0.1091,-0.5973 -0.4405,-0.6026 -1.8944,-0.8773 -3.0589,-0.8773 z m -10.6089,19.3328 0,0 c -1.5432,0 -2.1354,-0.7251 -2.638,-1.9774 -0.4799,-1.1965 2.3712,-6.6529 5.2421,-9.4209 1.2853,-1.2391 2.1858,-2.5926 2.9798,-3.7869 0.9287,-1.3954 1.73,-2.6005 2.8086,-3.0594 0.7727,-0.3282 1.6313,-0.3971 2.2164,-0.3971 1.4944,0 2.4369,0.4263 2.5098,0.6083 -0.1026,0.2869 -0.9805,0.2869 -1.402,0.2869 l -0.2475,-3e-4 c -0.2786,0 -0.5454,0.003 -0.7537,0.047 -0.7274,0.1528 -2.2689,1.9712 -2.7244,2.5249 l -0.4209,0.511 0.6604,0.0528 c 0.0131,10e-4 1.2461,0.108 2.3485,0.9343 0.0562,0.0422 0.237,0.1868 0.2092,0.2812 -0.102,0.3398 -1.2994,0.8234 -2.5523,0.9028 -1.7748,0.112 -4.8736,3.6181 -4.8129,4.6752 0.1822,1.9896 0.1701,7.219 -2.0381,7.662 -0.5148,0.1032 -0.9808,0.1556 -1.385,0.1556"
             style="fill:#e5c896;fill-opacity:1;fill-rule:nonzero;stroke:none"
             id="path12497"
             inkscape:connector-curvature="0" />
        </g>
        <g
           id="g12499"
           style="">
          <path
             d="m 81.4249,395.5484 c 0,0 -2.3071,-1.3056 -6.6183,-4.0138 -4.3109,-2.708 -3.4058,2.2039 -3.4058,2.2039 l -3.9102,4.6979 c 1.1124,0.0553 2.1898,0.29 3.2194,0.6976 l 2.7428,-3.689 c 0,0 1.7546,0.7047 4.96,1.3056 3.2128,0.601 3.0121,-1.2022 3.0121,-1.2022"
             style="fill:#f8941d;fill-opacity:1;fill-rule:nonzero;stroke:none"
             id="path12501"
             inkscape:connector-curvature="0" />
          <path
             d="m 72.6809,390.3746 c -0.489,0 -0.8997,0.1837 -1.1894,0.531 -0.6625,0.7959 -0.529,2.2289 -0.4561,2.7329 l -4.2523,5.1086 0.6908,0.0343 c 1.0681,0.053 2.1144,0.28 3.1088,0.6737 l 0.2469,0.0978 2.7453,-3.6935 c 0.5942,0.2143 2.2235,0.7523 4.7744,1.2305 1.4757,0.2764 2.5058,0.1035 3.0487,-0.5031 0.4238,-0.4734 0.3773,-1.0162 0.3708,-1.0766 l -0.0199,-0.1755 -0.1539,-0.0867 c -0.0227,-0.0134 -2.3516,-1.334 -6.6047,-4.0057 -0.9289,-0.5836 -1.6847,-0.8677 -2.3094,-0.8677 z m -4.4992,7.7721 0,0 3.5887,-4.3115 -0.0292,-0.159 c -0.0831,-0.4544 -0.1945,-1.7581 0.2818,-2.3293 0.4257,-0.5108 1.3218,-0.3223 2.6005,0.4805 3.5895,2.2552 5.8161,3.5527 6.4468,3.9155 -0.0201,0.1083 -0.07,0.2562 -0.1942,0.3912 -0.3642,0.3968 -1.2186,0.4975 -2.3998,0.2769 -3.1269,-0.5865 -4.8778,-1.2798 -4.8946,-1.2866 l -0.2469,-0.0992 -2.7459,3.6929 c -0.7784,-0.286 -1.5854,-0.477 -2.4072,-0.5714"
             style="fill:#e5c896;fill-opacity:1;fill-rule:nonzero;stroke:none"
             id="path12503"
             inkscape:connector-curvature="0" />
        </g>
        <g
           id="g12505"
           style="">
          <path
             d="m 62.6686,390.7193 c -2.1971,-0.1862 -5.3059,2.9226 -5.3059,2.9226 l -2.2039,1.6302 c 0,0 -0.4005,1.2781 0.6012,1.976 0.8221,0.5802 2.7287,3.6062 3.3781,4.6562 0.8844,-0.8844 1.8584,-1.6234 2.9018,-2.183 -0.6219,-0.5666 -3.4336,-3.1986 -2.9361,-4.0762 0.5663,-0.974 1.9273,-2.8046 2.7978,-3.005 0.8776,-0.2004 2.9707,-1.7272 0.767,-1.9208"
             style="fill:#f8941d;fill-opacity:1;fill-rule:nonzero;stroke:none"
             id="path12507"
             inkscape:connector-curvature="0" />
          <path
             d="m 62.4742,390.3659 c -2.2972,0 -5.2322,2.9077 -5.3555,3.0316 l -2.2561,1.6637 -0.0337,0.1077 c -0.019,0.0621 -0.4629,1.5296 0.7333,2.3624 0.5162,0.3637 1.7433,2.067 3.2828,4.5547 l 0.2296,0.3713 0.3081,-0.3087 c 0.8725,-0.873 1.8216,-1.5874 2.8202,-2.1231 l 0.4306,-0.2308 -0.3612,-0.3288 c -2.2453,-2.0466 -3.0291,-3.3667 -2.8686,-3.6504 0.616,-1.0582 1.889,-2.681 2.5758,-2.8389 0.6409,-0.1466 2.0654,-0.9737 2.0092,-1.7881 -0.0326,-0.4672 -0.4663,-0.741 -1.29,-0.813 -0.0749,-0.006 -0.1491,-0.01 -0.2245,-0.01 z m -7.0104,5.1103 0,0 2.1042,-1.5568 c 0.0694,-0.0632 3.0447,-3.0184 5.0714,-2.8559 0.5647,0.0499 0.6625,0.1811 0.6631,0.1822 0.0102,0.2322 -0.8839,0.9219 -1.4775,1.0576 -1.1092,0.2549 -2.5886,2.4273 -3.0203,3.1683 -0.5088,0.8975 1.0826,2.7068 2.6527,4.1814 -0.788,0.466 -1.5429,1.0375 -2.2521,1.705 -0.972,-1.5531 -2.4894,-3.8579 -3.2466,-4.3925 -0.6429,-0.4476 -0.553,-1.2127 -0.4949,-1.4893"
             style="fill:#e5c896;fill-opacity:1;fill-rule:nonzero;stroke:none"
             id="path12509"
             inkscape:connector-curvature="0" />
        </g>
        <path
           d="m 76.7271,423.5003 c 0,-0.767 -0.0964,-1.4924 -0.2761,-2.1554 l -2.9569,0 c -0.0759,0.4008 -0.1173,0.8359 -0.1173,1.2849 0,2.0795 0.8841,3.7653 1.9757,3.7653 0.387,0 0.7461,-0.2143 1.05,-0.5874 0.2075,-0.6976 0.3246,-1.4783 0.3246,-2.3074"
           style="fill:#231f20;fill-opacity:1;fill-rule:nonzero;stroke:none"
           id="path12511"
           inkscape:connector-curvature="0" />
        <path
           d="m 76.4025,425.8077 c -0.3039,0.3731 -0.663,0.5874 -1.05,0.5874 -1.0916,0 -1.9757,-1.6858 -1.9757,-3.7653 0,-0.449 0.0414,-0.8841 0.1173,-1.2849 l -3.1847,0 c -0.1797,0.663 -0.2766,1.3884 -0.2766,2.1554 0,2.9843 1.4992,5.4023 3.344,5.4023 1.3402,0 2.4939,-1.264 3.0257,-3.0949"
           style="fill:#ffffff;fill-opacity:1;fill-rule:nonzero;stroke:none"
           id="path12513"
           inkscape:connector-curvature="0" />
        <g
           id="g12515"
           style="">
          <path
             d="m 79.8222,411.825 c -0.1797,-0.9672 -0.4215,-1.9001 -0.7186,-2.791 -0.0827,-0.2557 -0.1726,-0.5114 -0.2693,-0.76 -1.8997,-0.2143 -3.4336,-0.6009 -6.4318,0.9326 -3.0121,1.5336 -3.0603,7.0605 -3.0603,7.0605 0,0 3.3299,-2.9914 4.9462,-4.221 1.1401,-0.8705 3.9793,-0.5046 5.5338,-0.2211"
             style="fill:#ffffff;fill-opacity:1;fill-rule:nonzero;stroke:none"
             id="path12517"
             inkscape:connector-curvature="0" />
          <path
             d="m 76.54,407.7224 c -1.3797,0 -2.704,0.3628 -4.2948,1.1769 -3.1615,1.6098 -3.2465,7.1309 -3.2485,7.3647 l -0.0068,0.7841 0.5831,-0.5238 c 0.0329,-0.0301 3.3381,-2.9963 4.9249,-4.2033 0.4068,-0.3104 1.1713,-0.4742 2.2121,-0.4742 1.0775,0 2.2533,0.1726 3.0501,0.3178 l 0.4933,0.0895 -0.0919,-0.4923 c -0.1794,-0.9703 -0.4255,-1.925 -0.7299,-2.8369 -0.0845,-0.2591 -0.176,-0.5213 -0.2753,-0.7756 l -0.0754,-0.195 -0.7316,-0.0862 C 77.743,407.793 77.1701,407.7224 76.54,407.7224 Z m -6.8012,7.7284 0,0 c 0.1457,-1.5517 0.7024,-4.858 2.8202,-5.9361 1.4896,-0.7619 2.7167,-1.1018 3.981,-1.1018 0.5876,0 1.1403,0.0686 1.7251,0.1409 l 0.3203,0.0383 c 0.0669,0.1808 0.1304,0.3648 0.1897,0.5488 0.2443,0.7307 0.4487,1.4881 0.6106,2.2586 -0.7773,-0.1253 -1.7567,-0.2438 -2.6757,-0.2438 -1.2109,0 -2.0962,0.2072 -2.6311,0.6157 -1.1987,0.9119 -3.2935,2.7507 -4.3401,3.6794"
             style="fill:#e5c896;fill-opacity:1;fill-rule:nonzero;stroke:none"
             id="path12519"
             inkscape:connector-curvature="0" />
        </g>
        <path
           d="m 78.8414,414.2546 -0.0071,0"
           style="fill:none;stroke:#231f20;stroke-width:1.00010002;stroke-linecap:butt;stroke-linejoin:miter;stroke-miterlimit:10.00000286;stroke-dasharray:none;stroke-opacity:1"
           id="path12521"
           inkscape:connector-curvature="0" />
      </g>
    </g>
  </g>
</svg>
