<?xml version="1.0" encoding="UTF-8" standalone="no"?>
<!-- Created with Inkscape (http://www.inkscape.org/) -->

<svg
   xmlns:dc="http://purl.org/dc/elements/1.1/"
   xmlns:cc="http://creativecommons.org/ns#"
   xmlns:rdf="http://www.w3.org/1999/02/22-rdf-syntax-ns#"
   xmlns:svg="http://www.w3.org/2000/svg"
   xmlns="http://www.w3.org/2000/svg"
   xmlns:sodipodi="http://sodipodi.sourceforge.net/DTD/sodipodi-0.dtd"
   xmlns:inkscape="http://www.inkscape.org/namespaces/inkscape"
   width="42.381805mm"
   height="36.419403mm"
   viewBox="0 0 150.17175 129.04513"
   id="svg18001"
   version="1.1"
   inkscape:version="0.91 r13725"
   sodipodi:docname="flor.svg">
  <defs
     id="defs18003" />
  <sodipodi:namedview
     id="base"
     pagecolor="#ffffff"
     bordercolor="#666666"
     borderopacity="1.0"
     inkscape:pageopacity="0.0"
     inkscape:pageshadow="2"
     inkscape:zoom="0.35"
     inkscape:cx="-602.77127"
     inkscape:cy="-132.62029"
     inkscape:document-units="px"
     inkscape:current-layer="layer1"
     showgrid="false"
     fit-margin-top="0"
     fit-margin-left="0"
     fit-margin-right="0"
     fit-margin-bottom="0"
     inkscape:window-width="1366"
     inkscape:window-height="744"
     inkscape:window-x="0"
     inkscape:window-y="24"
     inkscape:window-maximized="1" />
  <metadata
     id="metadata18006">
    <rdf:RDF>
      <cc:Work
         rdf:about="">
        <dc:format>image/svg+xml</dc:format>
        <dc:type
           rdf:resource="http://purl.org/dc/dcmitype/StillImage" />
        <dc:title></dc:title>
      </cc:Work>
    </rdf:RDF>
  </metadata>
  <g
     inkscape:label="Capa 1"
     inkscape:groupmode="layer"
     id="layer1"
     transform="translate(-442.05698,-270.69678)">
    <g
       transform="matrix(1.25,0,0,-1.25,-217.46977,850.89141)"
       id="g11449">
      <path
         d="m 559.1424,360.9196 -31.521,44.7933 49.0343,58.4428 22.9215,-0.2149 48.1816,-57.0526 -6.6906,-9.5451 -25.17,-36.4235 -56.7558,0 z"
         style="fill:#949698;fill-opacity:1;fill-rule:nonzero;stroke:none"
         id="path11451"
         inkscape:connector-curvature="0" />
      <path
         d="m 639.5306,399.1255 -24.9638,-35.6018 -53.8265,0 -6.1665,8.7716 66.0155,0 18.9413,26.8302 z"
         style="fill:#3c63a8;fill-opacity:1;fill-rule:nonzero;stroke:none"
         id="path11453"
         inkscape:connector-curvature="0" />
      <path
         d="m 584.9569,461.321 0,-2.0803 -49.7095,-59.4511 -4.047,5.7561 46.8468,55.7753 6.9097,0 z"
         style="fill:#3c63a8;fill-opacity:1;fill-rule:nonzero;stroke:none"
         id="path11455"
         inkscape:connector-curvature="0" />
      <path
         d="m 579.9308,437.8255 -30.3613,-37.5857 12.53,-17.2369 20.0341,0 0,-10.7076 -27.5598,0 -19.3264,27.4943 49.7095,59.4511 0,-21.4152 -5.0261,0 z"
         style="fill:#dc2f33;fill-opacity:1;fill-rule:nonzero;stroke:none"
         id="path11457"
         inkscape:connector-curvature="0" />
      <path
         d="m 644.8496,406.7124 -4.646,-6.6299 -49.8098,59.1582 -1.0795,0 0,2.0803 9.4403,0 46.095,-54.6086 z"
         style="fill:#3c63a8;fill-opacity:1;fill-rule:nonzero;stroke:none"
         id="path11459"
         inkscape:connector-curvature="0" />
      <path
         d="m 625.2131,401.0746 -11.8352,-18.0717 -21.2709,0 0,-10.7076 -9.9734,0 0,10.7076 -20.0341,0 -12.53,17.2369 30.3613,37.5857 5.0261,0 0,23.4955 4.3574,0 0,-23.4955 5.5636,0 30.3352,-36.7509 z"
         style="fill:#ffffff;fill-opacity:1;fill-rule:nonzero;stroke:none"
         id="path11461"
         inkscape:connector-curvature="0" />
      <path
         d="m 640.2036,400.0825 -0.4456,-0.6339 -0.2274,-0.3231 -18.9413,-26.8302 -28.4823,0 0,10.7076 21.2709,0 11.8352,18.0717 -30.3352,36.7509 -5.5636,0 0,21.4152 1.0795,0 49.8098,-59.1582 z"
         style="fill:#dc2f33;fill-opacity:1;fill-rule:nonzero;stroke:none"
         id="path11463"
         inkscape:connector-curvature="0" />
      <g
         id="g11465" />
      <g
         id="g11467" />
      <g
         id="g11469">
        <g
           id="g11471">
          <path
             d="m 545.9712,416.1067 c 0.1108,-0.0924 0.2086,-0.22 0.2922,-0.3824 0.0837,-0.1621 0.1386,-0.3543 0.1656,-0.5751 0.0269,-0.2211 0.003,-0.4553 -0.0709,-0.7025 -0.0743,-0.2471 -0.212,-0.4918 -0.4144,-0.7347 -0.1531,-0.1843 -0.3098,-0.337 -0.4697,-0.4589 -0.1605,-0.1216 -0.3288,-0.2135 -0.5051,-0.275 -0.1758,-0.0615 -0.3674,-0.0935 -0.5741,-0.0964 -0.1856,-8e-4 -0.3733,0.0224 -0.5632,0.0703 -0.1899,0.0479 -0.3753,0.1197 -0.5567,0.2152 -0.1803,0.0952 -0.358,0.2154 -0.531,0.3594 -0.2806,0.2336 -0.4983,0.4836 -0.6525,0.7503 -0.1539,0.2665 -0.246,0.5417 -0.2775,0.8255 -0.0315,0.2837 -0.003,0.5621 0.0845,0.8356 0.0881,0.2736 0.2282,0.5262 0.4209,0.7577 0.2353,0.2824 0.5012,0.487 0.7968,0.6137 0.2968,0.1268 0.5769,0.18 0.8399,0.1596 0.2639,-0.0207 0.4692,-0.0924 0.6166,-0.2148 0.081,-0.0678 0.1292,-0.1556 0.1428,-0.2642 0.0151,-0.1089 -0.0119,-0.2033 -0.0788,-0.284 -0.0757,-0.0908 -0.1533,-0.1409 -0.2335,-0.1506 -0.0808,-0.01 -0.1968,0.002 -0.3476,0.0332 -0.2491,0.0516 -0.4694,0.0513 -0.6579,-0.002 -0.1896,-0.0536 -0.3608,-0.1709 -0.5122,-0.3535 -0.2421,-0.2905 -0.324,-0.6137 -0.2463,-0.9694 0.0771,-0.3555 0.3189,-0.7027 0.7251,-1.0409 0.2715,-0.2256 0.5286,-0.3753 0.7727,-0.449 0.2426,-0.0734 0.4674,-0.0777 0.6724,-0.0122 0.2049,0.0658 0.3855,0.1925 0.5411,0.3796 0.1692,0.2032 0.2616,0.4167 0.2781,0.6412 0.0161,0.2242 -0.0442,0.4532 -0.1797,0.6871 -0.0672,0.1066 -0.1112,0.2063 -0.1316,0.299 -0.0212,0.0927 0.009,0.188 0.0907,0.2863 0.0701,0.0842 0.1599,0.1321 0.2688,0.1435 0.1088,0.0116 0.2069,-0.0193 0.2945,-0.0916"
             style="fill:#ffffff;fill-opacity:1;fill-rule:nonzero;stroke:none"
             id="path11473"
             inkscape:connector-curvature="0" />
          <path
             d="m 548.9957,418.3038 -0.5765,0.1979 -1.1806,-1.4187 0.3092,-0.5392 c 0.1202,-0.2103 0.1919,-0.364 0.2146,-0.4606 0.0221,-0.0967 -0.01,-0.1976 -0.097,-0.3022 -0.0737,-0.089 -0.1714,-0.1406 -0.2931,-0.1545 -0.1221,-0.0144 -0.2242,0.0131 -0.3069,0.0817 -0.0477,0.0396 -0.0899,0.0884 -0.1276,0.1465 -0.0371,0.0581 -0.0862,0.1429 -0.1463,0.2548 l -1.5239,2.7786 c -0.0433,0.0793 -0.0964,0.1746 -0.1579,0.2865 -0.0609,0.1117 -0.1054,0.2126 -0.1318,0.3034 -0.0269,0.0907 -0.0314,0.1848 -0.0136,0.2811 0.017,0.097 0.0661,0.1939 0.1463,0.2909 0.0819,0.0983 0.1692,0.165 0.2616,0.1995 0.0919,0.0352 0.1843,0.0482 0.2767,0.04 0.0921,-0.008 0.184,-0.0269 0.2738,-0.055 0.0907,-0.0286 0.2101,-0.068 0.3586,-0.119 l 3.0107,-0.9624 c 0.2304,-0.0711 0.3849,-0.1395 0.4626,-0.2041 0.0808,-0.0672 0.127,-0.1627 0.1383,-0.286 0.0116,-0.1239 -0.0227,-0.233 -0.102,-0.3283 -0.046,-0.0552 -0.0956,-0.0946 -0.148,-0.1182 -0.0533,-0.0229 -0.108,-0.0337 -0.1644,-0.0326 -0.0567,0.002 -0.1332,0.0165 -0.2296,0.044 -0.0964,0.0278 -0.1809,0.0533 -0.2532,0.0759 z m -2.133,-0.5938 0,0 0.8677,1.0426 -1.8786,0.6726 1.0109,-1.7152 z"
             style="fill:#ffffff;fill-opacity:1;fill-rule:nonzero;stroke:none"
             id="path11475"
             inkscape:connector-curvature="0" />
          <path
             d="m 550.8366,420.7813 -2.6893,1.2909 2.4089,-2.0044 c 0.1335,-0.1111 0.2087,-0.2245 0.2259,-0.3393 0.0168,-0.1148 -0.0155,-0.2214 -0.0975,-0.3197 -0.0793,-0.0953 -0.1766,-0.1454 -0.2928,-0.1511 -0.1156,-0.006 -0.2412,0.0479 -0.3764,0.1602 l -2.761,2.2977 c -0.1522,0.1267 -0.2219,0.2515 -0.2095,0.3756 0.0131,0.1236 0.076,0.2526 0.1883,0.3875 l 0.1822,0.2188 c 0.1092,0.1321 0.201,0.2175 0.2741,0.2574 0.0737,0.0394 0.1528,0.0482 0.2384,0.0247 0.0859,-0.0227 0.2135,-0.074 0.3836,-0.1536 l 2.3334,-1.0834 -1.4896,2.0973 c -0.1091,0.1528 -0.1831,0.269 -0.2211,0.3492 -0.0382,0.0803 -0.0439,0.1599 -0.0187,0.2393 0.0261,0.0791 0.0936,0.1848 0.2033,0.3163 l 0.1822,0.2191 c 0.1123,0.135 0.2279,0.22 0.3467,0.2552 0.1199,0.0348 0.2551,-0.0108 0.4074,-0.1378 l 2.7609,-2.2975 c 0.1338,-0.1111 0.2089,-0.2242 0.2259,-0.3393 0.017,-0.1148 -0.0159,-0.2219 -0.0992,-0.322 -0.0779,-0.0938 -0.1752,-0.1432 -0.2917,-0.148 -0.117,-0.005 -0.2421,0.0482 -0.3756,0.1593 l -2.4088,2.0044 1.7583,-2.4094 c 0.1139,-0.1568 0.195,-0.2744 0.2432,-0.3535 0.0485,-0.0794 0.0743,-0.1729 0.0782,-0.2809 0.004,-0.1083 -0.0394,-0.2166 -0.1306,-0.3263 -0.0686,-0.0825 -0.1446,-0.1375 -0.2277,-0.165 -0.0836,-0.0275 -0.1658,-0.0337 -0.2477,-0.0195 -0.0819,0.0144 -0.1644,0.0405 -0.2466,0.0785 -0.0831,0.038 -0.1687,0.0777 -0.2571,0.1193"
             style="fill:#ffffff;fill-opacity:1;fill-rule:nonzero;stroke:none"
             id="path11477"
             inkscape:connector-curvature="0" />
          <path
             d="m 553.4597,425.6289 -0.5385,-0.6475 0.9878,-0.8223 c 0.1415,-0.1174 0.2209,-0.2398 0.2381,-0.3674 0.0176,-0.1273 -0.0161,-0.2415 -0.1006,-0.343 -0.0884,-0.1063 -0.1964,-0.1621 -0.3223,-0.1672 -0.1261,-0.005 -0.2593,0.0507 -0.3988,0.1667 l -2.6898,2.2382 c -0.1553,0.1298 -0.237,0.2579 -0.2441,0.3847 -0.007,0.1269 0.0542,0.2681 0.1834,0.4235 l 0.7546,0.907 c 0.2234,0.2682 0.4153,0.4573 0.5771,0.5675 0.1585,0.1097 0.3269,0.178 0.5052,0.2055 0.1788,0.0273 0.3569,0.0125 0.5354,-0.0445 0.1778,-0.0569 0.3504,-0.1547 0.5171,-0.2933 0.3552,-0.296 0.5335,-0.6293 0.5349,-1.001 10e-4,-0.3716 -0.1789,-0.7738 -0.5395,-1.2069 z m -1.7421,1.1596 0,0 -0.3963,-0.4762 1.0667,-0.8875 0.3963,0.4762 c 0.1386,0.1667 0.2366,0.3203 0.2948,0.4615 0.0589,0.1408 0.0725,0.2735 0.0419,0.3982 -0.0306,0.125 -0.1103,0.241 -0.2387,0.3478 -0.1542,0.1282 -0.3166,0.1871 -0.4887,0.1772 -0.1873,-0.0159 -0.413,-0.1817 -0.676,-0.4972"
             style="fill:#ffffff;fill-opacity:1;fill-rule:nonzero;stroke:none"
             id="path11479"
             inkscape:connector-curvature="0" />
          <path
             d="m 557.4351,428.4451 -0.5763,0.1978 -1.1809,-1.4187 0.3092,-0.5389 c 0.1205,-0.2106 0.1916,-0.3642 0.2149,-0.4609 0.0221,-0.0967 -0.01,-0.1976 -0.097,-0.3022 -0.0742,-0.089 -0.172,-0.1406 -0.2936,-0.1545 -0.1222,-0.0144 -0.2237,0.0131 -0.3065,0.0817 -0.0479,0.0397 -0.0904,0.0887 -0.1278,0.1468 -0.0374,0.0578 -0.0865,0.1429 -0.1465,0.2546 l -1.5234,2.7788 c -0.0439,0.0793 -0.0964,0.1746 -0.1584,0.2863 -0.061,0.1117 -0.1052,0.2126 -0.1319,0.3036 -0.0266,0.0904 -0.0311,0.1845 -0.0136,0.2809 0.0176,0.0969 0.0661,0.1942 0.1469,0.2908 0.0819,0.0984 0.1689,0.165 0.2613,0.1999 0.0922,0.0348 0.1843,0.0479 0.2764,0.0396 0.0924,-0.008 0.1845,-0.0269 0.2747,-0.055 0.0904,-0.0286 0.2097,-0.068 0.358,-0.119 l 3.011,-0.9624 c 0.2304,-0.0708 0.3849,-0.1392 0.4626,-0.2038 0.0808,-0.0672 0.1267,-0.1627 0.1377,-0.2863 0.0122,-0.1236 -0.0224,-0.2327 -0.1014,-0.3279 -0.0465,-0.0559 -0.0956,-0.095 -0.1486,-0.1185 -0.053,-0.023 -0.1074,-0.0338 -0.1644,-0.0324 -0.0561,0.002 -0.1329,0.0162 -0.229,0.044 -0.0964,0.0278 -0.1812,0.053 -0.2534,0.0757 z m -2.1334,-0.5939 0,0 0.8677,1.0426 -1.8777,0.6729 1.01,-1.7155 z"
             style="fill:#ffffff;fill-opacity:1;fill-rule:nonzero;stroke:none"
             id="path11481"
             inkscape:connector-curvature="0" />
          <path
             d="m 559.2759,430.9226 -2.6895,1.2908 2.4088,-2.0046 c 0.1336,-0.1108 0.209,-0.2239 0.226,-0.3388 0.017,-0.115 -0.0153,-0.2216 -0.097,-0.32 -0.0793,-0.0949 -0.1771,-0.1454 -0.2928,-0.1511 -0.1159,-0.006 -0.2415,0.0477 -0.3767,0.1602 l -2.761,2.2978 c -0.1525,0.1267 -0.2216,0.2517 -0.2092,0.3755 0.0128,0.1236 0.0754,0.2529 0.1877,0.3878 l 0.1823,0.2189 c 0.1097,0.1318 0.2009,0.2171 0.2741,0.2571 0.0737,0.0396 0.1528,0.0481 0.2389,0.0249 0.0859,-0.0227 0.2135,-0.0743 0.3833,-0.1539 l 2.3337,-1.0834 -1.4899,2.0976 c -0.1094,0.1525 -0.1828,0.2687 -0.2208,0.349 -0.0388,0.0802 -0.0442,0.1598 -0.0192,0.2392 0.026,0.0791 0.0941,0.1848 0.2032,0.3164 l 0.1823,0.2191 c 0.1122,0.1346 0.2279,0.2199 0.3469,0.2551 0.1199,0.0349 0.2554,-0.0111 0.4076,-0.1378 l 2.761,-2.2975 c 0.1338,-0.1111 0.2089,-0.2242 0.2259,-0.339 0.017,-0.1151 -0.0161,-0.2222 -0.0995,-0.3223 -0.0777,-0.0935 -0.1749,-0.1431 -0.292,-0.1477 -0.1165,-0.005 -0.2415,0.0482 -0.3753,0.1591 l -2.4086,2.0046 1.7581,-2.4094 c 0.1137,-0.1568 0.195,-0.2747 0.2432,-0.3538 0.0482,-0.0791 0.0746,-0.1726 0.0785,-0.2806 0.004,-0.1086 -0.0397,-0.2169 -0.1307,-0.3266 -0.0688,-0.0825 -0.1445,-0.1375 -0.2279,-0.1649 -0.083,-0.0273 -0.1661,-0.0338 -0.248,-0.0193 -0.0819,0.0141 -0.1638,0.0405 -0.2466,0.0785 -0.0822,0.0377 -0.1687,0.0777 -0.2568,0.1191"
             style="fill:#ffffff;fill-opacity:1;fill-rule:nonzero;stroke:none"
             id="path11483"
             inkscape:connector-curvature="0" />
          <path
             d="m 561.1003,438.0341 -1.3252,-1.5925 0.8569,-0.7129 1.2203,1.4664 c 0.0901,0.108 0.1814,0.168 0.2735,0.1811 0.0933,0.013 0.1789,-0.0136 0.2583,-0.0797 0.0793,-0.066 0.1221,-0.1462 0.1289,-0.2403 0.006,-0.0936 -0.0362,-0.1953 -0.1275,-0.3051 l -1.2203,-1.466 0.9927,-0.826 1.3708,1.6472 c 0.0924,0.1108 0.1879,0.1734 0.2866,0.1868 0.0981,0.0133 0.1902,-0.0156 0.2755,-0.0871 0.0828,-0.0686 0.1264,-0.1525 0.1312,-0.2517 0.005,-0.0992 -0.0394,-0.2046 -0.1315,-0.3157 l -1.5984,-1.9208 c -0.1284,-0.1539 -0.2543,-0.2361 -0.379,-0.2469 -0.1242,-0.0105 -0.2625,0.0473 -0.4153,0.1743 l -2.6226,2.1827 c -0.1018,0.0848 -0.1721,0.1684 -0.2112,0.2523 -0.0388,0.0836 -0.0468,0.1698 -0.0227,0.2585 0.0244,0.0887 0.078,0.1831 0.1613,0.2832 l 1.5528,1.866 c 0.0939,0.1126 0.1885,0.1755 0.2841,0.1885 0.0952,0.0134 0.1836,-0.0138 0.2647,-0.0813 0.0822,-0.0686 0.1259,-0.1508 0.1301,-0.2472 0.005,-0.0967 -0.0402,-0.2013 -0.134,-0.3138"
             style="fill:#ffffff;fill-opacity:1;fill-rule:nonzero;stroke:none"
             id="path11485"
             inkscape:connector-curvature="0" />
          <path
             d="m 562.4093,439.9753 3.1878,-0.3524 -2.0761,1.7275 c -0.1349,0.1119 -0.2111,0.225 -0.2307,0.3393 -0.0193,0.1139 0.0119,0.2202 0.0938,0.3186 0.0845,0.1015 0.1851,0.1536 0.3011,0.1565 0.1168,0.002 0.2418,-0.0528 0.3767,-0.1647 l 2.7448,-2.2839 c 0.3064,-0.2551 0.3537,-0.5091 0.1426,-0.7628 -0.053,-0.0638 -0.1103,-0.1131 -0.1704,-0.1488 -0.0607,-0.0355 -0.129,-0.0593 -0.2058,-0.0706 -0.0768,-0.0116 -0.157,-0.0142 -0.2415,-0.008 -0.0853,0.006 -0.1715,0.0133 -0.2582,0.0215 l -3.1366,0.366 2.0449,-1.7017 c 0.133,-0.1108 0.2078,-0.2256 0.2248,-0.3444 0.0167,-0.1185 -0.0153,-0.2262 -0.0955,-0.3229 -0.0833,-0.1 -0.1848,-0.1516 -0.3036,-0.1544 -0.1193,-0.003 -0.2449,0.0504 -0.3764,0.1598 l -2.6918,2.2405 c -0.1143,0.095 -0.1942,0.1826 -0.2376,0.262 -0.0462,0.0895 -0.0629,0.1879 -0.0499,0.2956 0.0128,0.1074 0.0522,0.2016 0.12,0.2823 0.0527,0.0638 0.1085,0.1092 0.1666,0.1375 0.0581,0.0281 0.1197,0.0445 0.1823,0.0499 0.0635,0.005 0.138,0.002 0.2228,-0.008 0.0853,-0.0105 0.174,-0.0215 0.2659,-0.0337"
             style="fill:#ffffff;fill-opacity:1;fill-rule:nonzero;stroke:none"
             id="path11487"
             inkscape:connector-curvature="0" />
          <path
             d="m 566.7605,444.7587 -0.6415,-0.7713 2.5353,-2.1095 c 0.146,-0.1213 0.2265,-0.2444 0.2432,-0.3679 0.0167,-0.1239 -0.0184,-0.237 -0.104,-0.3405 -0.0873,-0.1049 -0.1933,-0.1604 -0.3203,-0.1667 -0.1259,-0.006 -0.2611,0.0505 -0.4054,0.1704 l -2.535,2.1095 -0.6421,-0.771 c -0.1003,-0.1207 -0.2015,-0.1882 -0.303,-0.2027 -0.1026,-0.0144 -0.197,0.0145 -0.2843,0.0871 -0.0904,0.0754 -0.1369,0.1655 -0.1378,0.2701 -0.002,0.1046 0.0457,0.2149 0.1421,0.3308 l 1.8697,2.247 c 0.1017,0.1222 0.2046,0.1902 0.3078,0.205 0.1038,0.0147 0.1993,-0.0145 0.2863,-0.087 0.0873,-0.0726 0.1324,-0.1611 0.1355,-0.2657 0.003,-0.1046 -0.0462,-0.2168 -0.1465,-0.3376"
             style="fill:#ffffff;fill-opacity:1;fill-rule:nonzero;stroke:none"
             id="path11489"
             inkscape:connector-curvature="0" />
          <path
             d="m 567.9227,447.4621 c 0.3013,0.362 0.6335,0.6115 0.9958,0.749 0.3631,0.1372 0.735,0.1598 1.1166,0.0683 0.3815,-0.0922 0.7548,-0.2897 1.1199,-0.5933 0.2696,-0.2248 0.4839,-0.4655 0.6441,-0.7217 0.1598,-0.2568 0.2599,-0.5253 0.3004,-0.8062 0.04,-0.2806 0.0145,-0.5627 -0.0765,-0.847 -0.0913,-0.2837 -0.2514,-0.5627 -0.4796,-0.8373 -0.2271,-0.273 -0.4748,-0.4808 -0.7424,-0.6234 -0.2676,-0.1426 -0.5414,-0.2194 -0.8218,-0.2302 -0.2806,-0.0113 -0.5638,0.0403 -0.8507,0.154 -0.2868,0.1136 -0.5612,0.2795 -0.8229,0.4972 -0.2687,0.2233 -0.4824,0.4668 -0.6423,0.7296 -0.1596,0.2633 -0.2574,0.5332 -0.2928,0.8099 -0.0354,0.2766 -0.008,0.5544 0.083,0.8333 0.091,0.279 0.2472,0.5514 0.4692,0.8178 z m 2.6311,-0.4889 0,0 c -0.2554,0.2126 -0.5117,0.3557 -0.7676,0.4288 -0.2557,0.0735 -0.4952,0.0732 -0.7189,3e-4 -0.2236,-0.0734 -0.4178,-0.2089 -0.5828,-0.4073 -0.1174,-0.1412 -0.1996,-0.294 -0.2458,-0.4581 -0.0467,-0.1638 -0.0552,-0.3314 -0.0258,-0.5026 0.0298,-0.1709 0.1029,-0.3472 0.2189,-0.5283 0.1168,-0.1812 0.2732,-0.3541 0.47,-0.5179 0.1981,-0.1647 0.3985,-0.2895 0.6001,-0.3725 0.2024,-0.0836 0.3934,-0.1236 0.5748,-0.1202 0.1814,0.004 0.3476,0.0425 0.4986,0.1174 0.1506,0.0745 0.2846,0.1825 0.4026,0.3237 0.1502,0.1811 0.2432,0.3846 0.2795,0.6114 0.0348,0.2268 -0.004,0.4638 -0.1183,0.7104 -0.1145,0.2469 -0.3095,0.4853 -0.5853,0.7149"
             style="fill:#ffffff;fill-opacity:1;fill-rule:nonzero;stroke:none"
             id="path11491"
             inkscape:connector-curvature="0" />
          <path
             d="m 574.4976,450.2747 c 0.2112,-0.1758 0.3555,-0.3878 0.4332,-0.6364 0.0776,-0.2483 0.0771,-0.5173 -0.002,-0.8059 -0.0794,-0.2888 -0.2387,-0.5766 -0.4777,-0.864 -0.2865,-0.3441 -0.5876,-0.5743 -0.9042,-0.6897 -0.2254,-0.0805 -0.4578,-0.1057 -0.6968,-0.0748 -0.2389,0.0309 -0.4323,0.1077 -0.5799,0.2307 -0.0854,0.0712 -0.1338,0.1622 -0.1455,0.2725 -0.0116,0.1102 0.0207,0.2114 0.0973,0.3035 0.0623,0.0743 0.1383,0.1177 0.2287,0.1299 0.091,0.0116 0.1982,-0.003 0.3223,-0.0445 0.148,-0.0479 0.2809,-0.0771 0.3983,-0.0876 0.1173,-0.0108 0.2395,0.0107 0.3654,0.0643 0.1267,0.0533 0.2534,0.1559 0.3801,0.3084 0.174,0.2095 0.2667,0.4201 0.2778,0.6327 0.0122,0.2118 -0.0556,0.3787 -0.2013,0.5001 -0.1162,0.0966 -0.2395,0.1394 -0.3702,0.1289 -0.1315,-0.0105 -0.2625,-0.0558 -0.3934,-0.136 -0.131,-0.0802 -0.2962,-0.1959 -0.4947,-0.3478 -0.2676,-0.2021 -0.5105,-0.3547 -0.7302,-0.4581 -0.2191,-0.1038 -0.4379,-0.1486 -0.6556,-0.1349 -0.2186,0.0138 -0.4286,0.1046 -0.6299,0.2721 -0.1916,0.1596 -0.3189,0.354 -0.3812,0.5831 -0.0618,0.229 -0.0502,0.4756 0.0345,0.7407 0.0851,0.2653 0.2387,0.5317 0.4618,0.7999 0.1786,0.2143 0.3594,0.3773 0.5426,0.4893 0.1834,0.1122 0.3619,0.1831 0.536,0.2131 0.1738,0.0298 0.3291,0.0281 0.4652,-0.005 0.1366,-0.0332 0.2505,-0.0879 0.3427,-0.1644 0.0842,-0.07 0.1352,-0.163 0.1528,-0.2784 0.0184,-0.1159 -0.01,-0.2183 -0.0837,-0.307 -0.0674,-0.0808 -0.1392,-0.1256 -0.2143,-0.1341 -0.0759,-0.008 -0.18,0.002 -0.3126,0.0287 -0.1846,0.0465 -0.351,0.0555 -0.4986,0.028 -0.1477,-0.0272 -0.3036,-0.1394 -0.4672,-0.3362 -0.1516,-0.1828 -0.2341,-0.3631 -0.2469,-0.5414 -0.0133,-0.1788 0.0363,-0.3149 0.1494,-0.4087 0.0697,-0.0581 0.1465,-0.0896 0.2285,-0.0933 0.0822,-0.004 0.1692,0.0116 0.2616,0.0479 0.0921,0.0363 0.1766,0.08 0.2543,0.131 0.0774,0.0513 0.2009,0.1389 0.3716,0.2628 0.2098,0.1584 0.4085,0.2945 0.5973,0.4076 0.1876,0.1131 0.3682,0.1927 0.5408,0.2387 0.1724,0.0462 0.3453,0.0496 0.5187,0.0113 0.1738,-0.0383 0.3487,-0.131 0.5247,-0.2775"
             style="fill:#ffffff;fill-opacity:1;fill-rule:nonzero;stroke:none"
             id="path11493"
             inkscape:connector-curvature="0" />
        </g>
      </g>
      <g
         id="g11495">
        <path
           d="m 606.0368,449.278 -1.8193,-1.5315 c -0.1579,-0.133 -0.2979,-0.239 -0.4195,-0.3192 -0.1222,-0.0794 -0.26,-0.1435 -0.4133,-0.1916 -0.2577,-0.082 -0.5165,-0.0769 -0.7759,0.015 -0.2591,0.0921 -0.4986,0.2684 -0.718,0.5286 -0.1979,0.2359 -0.326,0.4632 -0.3841,0.6826 -0.0581,0.2197 -0.0448,0.4476 0.0397,0.6832 0.0462,0.1253 0.1131,0.252 0.2021,0.3807 0.0887,0.1284 0.1854,0.2369 0.2897,0.3245 0.1106,0.093 0.2211,0.1333 0.3311,0.1211 0.1103,-0.0128 0.2061,-0.0669 0.2874,-0.163 0.0785,-0.0933 0.1103,-0.1865 0.0967,-0.279 -0.0139,-0.0924 -0.0669,-0.1995 -0.159,-0.3203 -0.0995,-0.1292 -0.1738,-0.2378 -0.2237,-0.3254 -0.0504,-0.0884 -0.0751,-0.1857 -0.074,-0.2931 10e-4,-0.1069 0.051,-0.2188 0.1494,-0.3356 0.2616,-0.3113 0.6211,-0.275 1.0775,0.1091 l 1.9213,1.6172 c 0.142,0.1196 0.2747,0.1783 0.3982,0.1757 0.1236,-0.002 0.2314,-0.0575 0.3218,-0.1649 0.0918,-0.1089 0.1284,-0.2257 0.1108,-0.3493 -0.0167,-0.1238 -0.0966,-0.2454 -0.2389,-0.3648"
           style="fill:#ffffff;fill-opacity:1;fill-rule:nonzero;stroke:none"
           id="path11497"
           inkscape:connector-curvature="0" />
        <path
           d="m 604.9434,447.1869 1.6699,1.4057 c 0.1423,0.1193 0.2758,0.1774 0.4008,0.1732 0.1253,-0.004 0.2319,-0.0581 0.3192,-0.1627 0.0919,-0.1089 0.129,-0.2254 0.1114,-0.349 -0.017,-0.1238 -0.0966,-0.2454 -0.2389,-0.3651 l -1.7079,-1.4377 c -0.1945,-0.1636 -0.3382,-0.322 -0.4326,-0.4748 -0.0932,-0.1531 -0.1295,-0.3152 -0.1083,-0.4864 0.021,-0.1707 0.1154,-0.3561 0.2829,-0.5548 0.2311,-0.2749 0.468,-0.4076 0.7095,-0.3988 0.2416,0.009 0.5111,0.1389 0.8079,0.3889 l 1.7226,1.4494 c 0.1438,0.1207 0.2773,0.1797 0.4009,0.1754 0.1235,-0.004 0.2298,-0.0589 0.3191,-0.1647 0.0893,-0.106 0.1259,-0.2211 0.1106,-0.3458 -0.015,-0.1244 -0.0944,-0.2474 -0.2381,-0.3682 l -1.6702,-1.406 c -0.2718,-0.2287 -0.5213,-0.3926 -0.7469,-0.4924 -0.2262,-0.1003 -0.47,-0.1343 -0.7311,-0.1034 -0.2231,0.0283 -0.432,0.1034 -0.627,0.225 -0.1942,0.1225 -0.3858,0.2957 -0.5743,0.5202 -0.2251,0.2667 -0.3898,0.5213 -0.4944,0.762 -0.104,0.2415 -0.1476,0.4736 -0.1289,0.697 0.0187,0.2231 0.098,0.4425 0.2395,0.6585 0.1403,0.2154 0.3418,0.434 0.6043,0.6545"
           style="fill:#ffffff;fill-opacity:1;fill-rule:nonzero;stroke:none"
           id="path11499"
           inkscape:connector-curvature="0" />
        <path
           d="m 610.0398,444.4492 -1.667,-2.7465 3.0098,1.1846 c 0.1573,0.0629 0.2696,0.1043 0.3345,0.1244 0.0658,0.0199 0.138,0.0227 0.216,0.008 0.0788,-0.0145 0.1528,-0.0632 0.222,-0.1457 0.0507,-0.0595 0.0819,-0.1284 0.0955,-0.2047 0.0133,-0.0771 0.007,-0.1508 -0.0179,-0.2216 -0.0252,-0.0712 -0.0632,-0.1276 -0.1139,-0.1704 -0.0346,-0.0295 -0.076,-0.0561 -0.1248,-0.0805 -0.0476,-0.0244 -0.0972,-0.0462 -0.1479,-0.0641 -0.0508,-0.0184 -0.1026,-0.0379 -0.1554,-0.0581 l -2.9778,-1.0695 c -0.1119,-0.0425 -0.2196,-0.0819 -0.3237,-0.1182 -0.1032,-0.0354 -0.2012,-0.0584 -0.2931,-0.0689 -0.0927,-0.0102 -0.1856,0.001 -0.2786,0.0346 -0.0927,0.0337 -0.1792,0.0984 -0.2591,0.1931 -0.0797,0.0946 -0.1284,0.1907 -0.1468,0.2871 -0.0182,0.0969 -0.0136,0.1908 0.0136,0.2826 0.0266,0.091 0.0663,0.1846 0.1182,0.2795 0.0521,0.0953 0.1088,0.1945 0.1703,0.2977 l 1.5554,2.7206 c 0.0292,0.0491 0.057,0.0978 0.0836,0.146 0.0272,0.0479 0.0593,0.0967 0.0964,0.1457 0.0369,0.0488 0.0714,0.0865 0.1029,0.1131 0.0808,0.0678 0.1814,0.097 0.3022,0.0879 0.1207,-0.009 0.2228,-0.0618 0.305,-0.1602 0.1012,-0.1199 0.1358,-0.2355 0.1043,-0.3475 -0.0315,-0.1111 -0.106,-0.2605 -0.2237,-0.4487"
           style="fill:#ffffff;fill-opacity:1;fill-rule:nonzero;stroke:none"
           id="path11501"
           inkscape:connector-curvature="0" />
        <path
           d="m 614.1336,439.3009 -1.3337,1.5851 -0.8532,-0.7177 1.2283,-1.4593 c 0.0907,-0.1074 0.1338,-0.2083 0.1304,-0.3013 -0.004,-0.0938 -0.0451,-0.1732 -0.1239,-0.2398 -0.0788,-0.0666 -0.1656,-0.0947 -0.2597,-0.0845 -0.0929,0.0102 -0.1854,0.07 -0.2772,0.1789 l -1.2283,1.4596 -0.9881,-0.8317 1.3799,-1.6396 c 0.093,-0.1105 0.1375,-0.2149 0.1335,-0.3143 -0.005,-0.0995 -0.049,-0.1852 -0.1344,-0.2566 -0.0824,-0.0697 -0.1729,-0.0975 -0.2709,-0.0847 -0.0987,0.013 -0.1942,0.0745 -0.2872,0.1848 l -1.6092,1.9122 c -0.129,0.1531 -0.1882,0.292 -0.1766,0.4167 0.0119,0.1239 0.0935,0.25 0.2449,0.3779 l 2.6107,2.1968 c 0.1015,0.0854 0.1959,0.1395 0.2852,0.1636 0.0893,0.0238 0.1757,0.0161 0.2585,-0.0235 0.0833,-0.0394 0.1669,-0.1083 0.2506,-0.2078 l 1.563,-1.8576 c 0.0947,-0.1122 0.1395,-0.2168 0.1358,-0.3132 -0.003,-0.0961 -0.0462,-0.1786 -0.127,-0.2463 -0.0817,-0.0692 -0.1707,-0.0972 -0.2662,-0.0845 -0.0955,0.0125 -0.1902,0.0746 -0.2852,0.1868"
           style="fill:#ffffff;fill-opacity:1;fill-rule:nonzero;stroke:none"
           id="path11503"
           inkscape:connector-curvature="0" />
        <path
           d="m 615.8137,437.6707 -0.9088,-3.0756 2.0662,1.7388 c 0.1344,0.1128 0.2591,0.1687 0.375,0.1678 0.1154,-0.002 0.2149,-0.0507 0.2971,-0.1488 0.0851,-0.1015 0.1182,-0.2095 0.1009,-0.324 -0.0184,-0.1148 -0.0944,-0.2291 -0.229,-0.3422 l -2.7318,-2.2989 c -0.3047,-0.2565 -0.5635,-0.2582 -0.7761,-0.006 -0.0533,0.0632 -0.0915,0.1275 -0.1159,0.1933 -0.0244,0.066 -0.0357,0.1378 -0.0338,0.2151 0.003,0.0771 0.0142,0.1571 0.0352,0.2393 0.0213,0.083 0.0434,0.1661 0.0663,0.2509 l 0.9131,3.0225 -2.035,-1.7129 c -0.1327,-0.1117 -0.2591,-0.1653 -0.3787,-0.1608 -0.1199,0.005 -0.2206,0.055 -0.3011,0.1508 -0.0842,0.1001 -0.117,0.209 -0.0986,0.3263 0.0181,0.1182 0.093,0.2322 0.2239,0.3422 l 2.6796,2.2552 c 0.1134,0.0958 0.2137,0.1585 0.2993,0.1874 0.0967,0.03 0.1965,0.0286 0.2999,-0.003 0.1035,-0.0315 0.1894,-0.0879 0.2572,-0.1681 0.0535,-0.0632 0.0881,-0.1264 0.106,-0.1882 0.017,-0.0626 0.0226,-0.1253 0.0167,-0.1885 -0.006,-0.0632 -0.0224,-0.1358 -0.0473,-0.2177 -0.0258,-0.0819 -0.0522,-0.1675 -0.0803,-0.2557"
           style="fill:#ffffff;fill-opacity:1;fill-rule:nonzero;stroke:none"
           id="path11505"
           inkscape:connector-curvature="0" />
        <path
           d="m 615.3579,432.648 2.736,2.3031 c 0.142,0.1197 0.2761,0.1766 0.4017,0.1718 0.1256,-0.005 0.2319,-0.0586 0.3183,-0.1613 0.0893,-0.1057 0.1259,-0.2213 0.1106,-0.3461 -0.0148,-0.1244 -0.0941,-0.2474 -0.2381,-0.3682 l -2.7363,-2.3031 c -0.1437,-0.1208 -0.2792,-0.1783 -0.4051,-0.1727 -0.1261,0.005 -0.2339,0.0613 -0.3229,0.1673 -0.085,0.1012 -0.1196,0.2146 -0.1026,0.3407 0.0168,0.1261 0.0961,0.2492 0.2384,0.3685"
           style="fill:#ffffff;fill-opacity:1;fill-rule:nonzero;stroke:none"
           id="path11507"
           inkscape:connector-curvature="0" />
        <path
           d="m 619.8593,432.8538 -2.5279,-2.1277 1.1999,-1.4264 c 0.0958,-0.1137 0.1417,-0.2239 0.1375,-0.3314 -0.004,-0.1071 -0.0482,-0.1964 -0.1318,-0.267 -0.0851,-0.0714 -0.1792,-0.0998 -0.2829,-0.0844 -0.1035,0.0158 -0.2035,0.081 -0.3005,0.1964 l -1.4298,1.6985 c -0.129,0.1534 -0.1876,0.292 -0.1763,0.4167 0.0116,0.1242 0.093,0.25 0.2446,0.3779 l 2.6748,2.2507 c 0.142,0.1196 0.2758,0.1774 0.4002,0.1735 0.1251,-0.005 0.2316,-0.0582 0.3198,-0.1628 0.0887,-0.1054 0.1253,-0.2211 0.1105,-0.3458 -0.015,-0.1244 -0.0943,-0.2474 -0.2381,-0.3682"
           style="fill:#ffffff;fill-opacity:1;fill-rule:nonzero;stroke:none"
           id="path11509"
           inkscape:connector-curvature="0" />
        <path
           d="m 623.4267,428.2583 -1.3337,1.5851 -0.8532,-0.7177 1.2285,-1.4593 c 0.0899,-0.1074 0.1333,-0.2081 0.1302,-0.3013 -0.004,-0.0939 -0.0454,-0.1732 -0.1242,-0.2398 -0.0791,-0.0667 -0.1653,-0.0947 -0.2591,-0.0845 -0.0935,0.0102 -0.1857,0.07 -0.2775,0.1789 l -1.2283,1.4595 -0.9881,-0.8317 1.3799,-1.6395 c 0.093,-0.1106 0.1375,-0.2149 0.1335,-0.3144 -0.005,-0.0995 -0.0493,-0.1848 -0.1346,-0.2565 -0.0825,-0.0698 -0.1727,-0.0975 -0.2707,-0.0848 -0.0987,0.0131 -0.1942,0.0746 -0.2872,0.1851 l -1.6092,1.912 c -0.1293,0.1533 -0.1882,0.292 -0.1766,0.4167 0.0116,0.1241 0.093,0.25 0.2446,0.3781 l 2.6107,2.1966 c 0.1015,0.0853 0.1962,0.1395 0.2855,0.1635 0.0893,0.0239 0.176,0.0162 0.2588,-0.0235 0.083,-0.0391 0.1664,-0.1083 0.2503,-0.2078 l 1.563,-1.8578 c 0.0944,-0.112 0.1397,-0.2166 0.1358,-0.3129 -0.003,-0.0961 -0.0462,-0.1786 -0.1267,-0.2464 -0.082,-0.0691 -0.1707,-0.0972 -0.2665,-0.0844 -0.0955,0.0124 -0.1908,0.0745 -0.2852,0.1868"
           style="fill:#ffffff;fill-opacity:1;fill-rule:nonzero;stroke:none"
           id="path11511"
           inkscape:connector-curvature="0" />
        <path
           d="m 624.4877,423.1644 c -0.2097,-0.1766 -0.4441,-0.2812 -0.7027,-0.3138 -0.2588,-0.0326 -0.523,0.0153 -0.7931,0.144 -0.2701,0.1284 -0.5258,0.3359 -0.7662,0.6219 -0.2883,0.3427 -0.4618,0.6801 -0.5196,1.012 -0.04,0.2361 -0.0232,0.4691 0.049,0.6987 0.0726,0.2297 0.1823,0.4062 0.3294,0.5301 0.0851,0.0717 0.1832,0.1035 0.2937,0.0956 0.1106,-0.008 0.2049,-0.0582 0.2818,-0.1494 0.0626,-0.0743 0.0915,-0.1571 0.0873,-0.2484 -0.004,-0.0912 -0.038,-0.1941 -0.1004,-0.3089 -0.0731,-0.1372 -0.1258,-0.2631 -0.1562,-0.3765 -0.0314,-0.1142 -0.0317,-0.2378 -10e-4,-0.3713 0.0298,-0.1335 0.1089,-0.2767 0.2364,-0.4286 0.1755,-0.2084 0.3665,-0.3368 0.5737,-0.3849 0.2064,-0.0491 0.3827,-0.012 0.5279,0.1102 0.1153,0.0972 0.1791,0.2112 0.1921,0.3416 0.0128,0.1307 -0.009,0.2676 -0.0643,0.411 -0.0561,0.1434 -0.1406,0.3263 -0.2554,0.5485 -0.1517,0.2988 -0.2591,0.5652 -0.3223,0.7991 -0.0635,0.2339 -0.0692,0.4575 -0.017,0.6696 0.0516,0.2125 0.1786,0.4028 0.3784,0.5714 0.1914,0.161 0.4054,0.252 0.6412,0.2727 0.2364,0.0207 0.4771,-0.034 0.724,-0.1641 0.2455,-0.1304 0.4807,-0.3291 0.7052,-0.5959 0.1795,-0.2134 0.3085,-0.4201 0.3864,-0.6202 0.0782,-0.2001 0.1159,-0.3883 0.1148,-0.5649 -10e-4,-0.1763 -0.0298,-0.3288 -0.0862,-0.4573 -0.0567,-0.1284 -0.1306,-0.2313 -0.2219,-0.3086 -0.0842,-0.0703 -0.1848,-0.1041 -0.3016,-0.101 -0.1168,0.003 -0.2126,0.0477 -0.2869,0.1364 -0.068,0.0802 -0.0995,0.1587 -0.0938,0.2344 0.005,0.076 0.0323,0.1766 0.0825,0.303 0.0782,0.1732 0.1168,0.3351 0.1153,0.4853 -2e-4,0.1505 -0.0836,0.3235 -0.2483,0.5193 -0.1533,0.1815 -0.3158,0.2946 -0.4895,0.3391 -0.1738,0.0439 -0.3158,0.0192 -0.4286,-0.0757 -0.0695,-0.0584 -0.1134,-0.1279 -0.1318,-0.2081 -0.0193,-0.0805 -0.0187,-0.1692 10e-4,-0.2659 0.0193,-0.0975 0.0471,-0.1885 0.0836,-0.2738 0.0374,-0.0848 0.1015,-0.2222 0.1939,-0.4119 0.1188,-0.2347 0.2174,-0.4541 0.2954,-0.6596 0.0785,-0.2049 0.125,-0.3969 0.14,-0.574 0.0145,-0.178 -0.0125,-0.3492 -0.0808,-0.5131 -0.0683,-0.1644 -0.1899,-0.3203 -0.3654,-0.468"
           style="fill:#ffffff;fill-opacity:1;fill-rule:nonzero;stroke:none"
           id="path11513"
           inkscape:connector-curvature="0" />
      </g>
      <g
         id="g11515">
        <g
           id="g11517">
          <path
             d="m 568.8989,367.1762 c 0,-0.1449 -0.0354,-0.3008 -0.1068,-0.4694 -0.0715,-0.1681 -0.1834,-0.3331 -0.3359,-0.4952 -0.1531,-0.1622 -0.3484,-0.294 -0.5854,-0.3949 -0.2375,-0.1012 -0.5139,-0.1519 -0.8297,-0.1519 -0.2395,0 -0.4578,0.0229 -0.6537,0.0683 -0.1964,0.0453 -0.3741,0.1162 -0.5343,0.212 -0.1599,0.0961 -0.3067,0.2225 -0.4414,0.3796 -0.1193,0.1423 -0.2219,0.3019 -0.3064,0.4784 -0.0844,0.1764 -0.1479,0.3649 -0.1902,0.565 -0.0422,0.2004 -0.0638,0.413 -0.0638,0.6381 0,0.3654 0.0536,0.6925 0.1599,0.9816 0.1063,0.2889 0.2585,0.536 0.4567,0.7416 0.1978,0.2052 0.43,0.3617 0.6964,0.4691 0.2662,0.1074 0.5503,0.161 0.8519,0.161 0.3673,0 0.6944,-0.0734 0.9816,-0.22 0.2869,-0.1465 0.5065,-0.3274 0.6593,-0.5434 0.1531,-0.2157 0.2294,-0.4195 0.2294,-0.6117 0,-0.1052 -0.0372,-0.1981 -0.1114,-0.2784 -0.0743,-0.0807 -0.1645,-0.121 -0.2693,-0.121 -0.118,0 -0.2061,0.0281 -0.2651,0.0836 -0.0589,0.0559 -0.1241,0.152 -0.1964,0.288 -0.1199,0.2251 -0.2608,0.3932 -0.4229,0.5049 -0.1622,0.1114 -0.362,0.1672 -0.5993,0.1672 -0.3776,0 -0.6786,-0.1434 -0.9025,-0.4306 -0.2243,-0.2868 -0.3359,-0.6944 -0.3359,-1.2231 0,-0.3529 0.0493,-0.6466 0.1485,-0.881 0.0989,-0.2342 0.2392,-0.4093 0.4212,-0.525 0.1817,-0.1154 0.3943,-0.1732 0.6381,-0.1732 0.2642,0 0.4873,0.0655 0.6701,0.1965 0.1831,0.1312 0.3203,0.324 0.4136,0.5777 0.0391,0.1199 0.0879,0.2174 0.1454,0.2925 0.0575,0.0754 0.1508,0.1131 0.2786,0.1131 0.1095,0 0.2033,-0.0383 0.2818,-0.1145 0.0785,-0.0763 0.1179,-0.1712 0.1179,-0.2849"
             style="fill:#ffffff;fill-opacity:1;fill-rule:nonzero;stroke:none"
             id="path11519"
             inkscape:connector-curvature="0" />
          <path
             d="m 571.6154,370.3595 c 0.4708,0 0.8745,-0.0955 1.2121,-0.2863 0.3376,-0.1911 0.5933,-0.4626 0.7665,-0.8147 0.1731,-0.3518 0.2599,-0.7651 0.2599,-1.2401 0,-0.351 -0.0473,-0.6701 -0.142,-0.9567 -0.0953,-0.2872 -0.2379,-0.5361 -0.4278,-0.7464 -0.1899,-0.2106 -0.4229,-0.3716 -0.6996,-0.483 -0.2769,-0.1117 -0.5935,-0.1675 -0.9507,-0.1675 -0.3552,0 -0.6732,0.0575 -0.9536,0.1723 -0.2809,0.1142 -0.515,0.2758 -0.703,0.4844 -0.1879,0.2084 -0.3296,0.4593 -0.4257,0.7524 -0.0961,0.2931 -0.144,0.61 -0.144,0.9507 0,0.3489 0.0501,0.669 0.1499,0.9598 0.1001,0.2914 0.2455,0.5392 0.4354,0.7435 0.1899,0.2041 0.4212,0.3606 0.6934,0.4689 0.2729,0.1086 0.5822,0.1627 0.9292,0.1627 z m 1.3067,-2.3349 0,0 c 0,0.3322 -0.0535,0.6205 -0.1612,0.864 -0.1072,0.2435 -0.2603,0.4277 -0.4598,0.5525 -0.199,0.1253 -0.4278,0.1876 -0.6857,0.1876 -0.184,0 -0.3538,-0.0346 -0.5097,-0.1037 -0.1556,-0.0692 -0.2897,-0.1698 -0.4022,-0.3022 -0.1129,-0.1321 -0.2016,-0.3008 -0.2665,-0.506 -0.0649,-0.2055 -0.0978,-0.4362 -0.0978,-0.6922 0,-0.2582 0.0329,-0.4912 0.0978,-0.6999 0.0649,-0.2086 0.157,-0.3812 0.2758,-0.5184 0.1185,-0.1375 0.2546,-0.2401 0.4085,-0.3082 0.1539,-0.0683 0.3226,-0.1023 0.5065,-0.1023 0.235,0 0.4516,0.059 0.6489,0.1766 0.197,0.1176 0.3538,0.2993 0.4705,0.5448 0.1165,0.2458 0.1749,0.548 0.1749,0.9074"
             style="fill:#ffffff;fill-opacity:1;fill-rule:nonzero;stroke:none"
             id="path11521"
             inkscape:connector-curvature="0" />
          <path
             d="m 575.4336,369.8022 0,-3.3041 1.8641,0 c 0.1485,0 0.2631,-0.0362 0.3424,-0.1085 0.0794,-0.0723 0.1191,-0.1633 0.1191,-0.2724 0,-0.1117 -0.0394,-0.2019 -0.1179,-0.271 -0.078,-0.0692 -0.1928,-0.1038 -0.3436,-0.1038 l -2.2201,0 c -0.2001,0 -0.3444,0.0445 -0.432,0.133 -0.0879,0.089 -0.1318,0.2324 -0.1318,0.4306 l 0,3.4962 c 0,0.186 0.0417,0.3251 0.1256,0.4181 0.0836,0.0927 0.1936,0.1392 0.3299,0.1392 0.1381,0 0.25,-0.0459 0.3356,-0.1378 0.0859,-0.0918 0.1287,-0.2318 0.1287,-0.4195"
             style="fill:#ffffff;fill-opacity:1;fill-rule:nonzero;stroke:none"
             id="path11523"
             inkscape:connector-curvature="0" />
          <path
             d="m 578.825,370.2821 1.1985,0 c 0.3112,0 0.5791,-0.0289 0.8019,-0.0867 0.2228,-0.0579 0.4249,-0.1661 0.6069,-0.3252 0.4728,-0.4045 0.7092,-1.0199 0.7092,-1.8456 0,-0.2724 -0.0238,-0.5213 -0.0711,-0.7464 -0.0479,-0.225 -0.121,-0.4277 -0.22,-0.6083 -0.0995,-0.1808 -0.2262,-0.3421 -0.3812,-0.4847 -0.1214,-0.1094 -0.2546,-0.1973 -0.3994,-0.2631 -0.1443,-0.0663 -0.2997,-0.1128 -0.4661,-0.1394 -0.1658,-0.027 -0.3534,-0.0403 -0.5621,-0.0403 l -1.1985,0 c -0.1666,0 -0.2928,0.0253 -0.3775,0.076 -0.0845,0.0502 -0.1398,0.1216 -0.1656,0.2134 -0.0255,0.0919 -0.0388,0.2112 -0.0388,0.3578 l 0,3.329 c 0,0.1981 0.0442,0.3416 0.1332,0.4303 0.0887,0.0887 0.2325,0.1332 0.4306,0.1332 z m 0.3558,-0.7279 0,0 0,-3.081 0.697,0 c 0.1528,0 0.2724,0.004 0.3589,0.0125 0.0873,0.008 0.1768,0.0289 0.2698,0.0618 0.0927,0.0331 0.1732,0.0796 0.2415,0.1394 0.3073,0.26 0.4615,0.7081 0.4615,1.3439 0,0.4479 -0.0677,0.7835 -0.2032,1.0066 -0.135,0.2228 -0.3016,0.3648 -0.4998,0.4255 -0.1984,0.0609 -0.4379,0.0913 -0.7188,0.0913 l -0.6069,0 z"
             style="fill:#ffffff;fill-opacity:1;fill-rule:nonzero;stroke:none"
             id="path11525"
             inkscape:connector-curvature="0" />
          <path
             d="m 585.8334,369.5729 -2.0716,0 0,-1.1149 1.9072,0 c 0.1406,0 0.2455,-0.0314 0.3146,-0.0944 0.0692,-0.0629 0.1038,-0.146 0.1038,-0.2491 0,-0.1032 -0.034,-0.1874 -0.1024,-0.2523 -0.068,-0.0652 -0.1734,-0.0978 -0.316,-0.0978 l -1.9072,0 0,-1.2912 2.143,0 c 0.144,0 0.2529,-0.0337 0.3263,-0.1006 0.0734,-0.0672 0.1103,-0.1565 0.1103,-0.2679 0,-0.1074 -0.0369,-0.1947 -0.1103,-0.2616 -0.0734,-0.0672 -0.1823,-0.1007 -0.3263,-0.1007 l -2.4996,0 c -0.2001,0 -0.3438,0.0445 -0.4317,0.133 -0.0876,0.089 -0.1315,0.2324 -0.1315,0.4306 l 0,3.4126 c 0,0.1318 0.0195,0.2401 0.0589,0.3237 0.0392,0.0833 0.1007,0.1443 0.184,0.1826 0.0836,0.0382 0.1908,0.0572 0.3203,0.0572 l 2.4282,0 c 0.1463,0 0.2554,-0.0326 0.3265,-0.0975 0.0712,-0.0652 0.1072,-0.1502 0.1072,-0.2554 0,-0.1074 -0.036,-0.1936 -0.1072,-0.2588 -0.0711,-0.0649 -0.1802,-0.0975 -0.3265,-0.0975"
             style="fill:#ffffff;fill-opacity:1;fill-rule:nonzero;stroke:none"
             id="path11527"
             inkscape:connector-curvature="0" />
          <path
             d="m 588.7259,367.5107 -0.8422,0 0,-1.2853 c 0,-0.1836 -0.0437,-0.3231 -0.1301,-0.4181 -0.0868,-0.0949 -0.1965,-0.1425 -0.3283,-0.1425 -0.1383,0 -0.2497,0.047 -0.3345,0.1408 -0.0844,0.0944 -0.1267,0.2319 -0.1267,0.4136 l 0,3.4994 c 0,0.2021 0.0465,0.3467 0.1389,0.4334 0.0933,0.0867 0.241,0.1301 0.4431,0.1301 l 1.1798,0 c 0.3489,0 0.6176,-0.0269 0.8053,-0.0805 0.1857,-0.0516 0.3461,-0.1375 0.4813,-0.2568 0.1355,-0.1199 0.2378,-0.2665 0.3081,-0.4399 0.07,-0.1735 0.1055,-0.3686 0.1055,-0.5854 0,-0.4623 -0.1423,-0.8127 -0.4275,-1.0511 -0.2849,-0.2387 -0.7089,-0.3577 -1.2727,-0.3577 z m -0.2228,2.0809 0,0 -0.6194,0 0,-1.3873 0.6194,0 c 0.2168,0 0.3977,0.0227 0.5434,0.068 0.1454,0.0454 0.2565,0.1197 0.3327,0.2228 0.0766,0.1035 0.1148,0.2387 0.1148,0.4057 0,0.2004 -0.0589,0.3634 -0.1766,0.4895 -0.1323,0.1341 -0.4039,0.2013 -0.8143,0.2013"
             style="fill:#ffffff;fill-opacity:1;fill-rule:nonzero;stroke:none"
             id="path11529"
             inkscape:connector-curvature="0" />
          <path
             d="m 593.0838,370.3595 c 0.4709,0 0.8745,-0.0955 1.2121,-0.2863 0.3376,-0.1911 0.5933,-0.4626 0.7665,-0.8147 0.1735,-0.3518 0.26,-0.7651 0.26,-1.2401 0,-0.351 -0.0474,-0.6701 -0.1421,-0.9567 -0.0952,-0.2872 -0.2378,-0.5361 -0.4277,-0.7464 -0.1899,-0.2106 -0.4229,-0.3716 -0.6993,-0.483 -0.2772,-0.1117 -0.5939,-0.1675 -0.951,-0.1675 -0.3552,0 -0.6733,0.0575 -0.9536,0.1723 -0.2806,0.1142 -0.5151,0.2758 -0.7027,0.4844 -0.1885,0.2084 -0.33,0.4593 -0.4261,0.7524 -0.0961,0.2931 -0.144,0.61 -0.144,0.9507 0,0.3489 0.0499,0.669 0.15,0.9598 0.1003,0.2914 0.2455,0.5392 0.4354,0.7435 0.1899,0.2041 0.4212,0.3606 0.6933,0.4689 0.2727,0.1086 0.5823,0.1627 0.9292,0.1627 z m 1.3071,-2.3349 0,0 c 0,0.3322 -0.0539,0.6205 -0.1613,0.864 -0.1071,0.2435 -0.2605,0.4277 -0.4598,0.5525 -0.1995,0.1253 -0.428,0.1876 -0.686,0.1876 -0.1839,0 -0.3537,-0.0346 -0.5096,-0.1037 -0.1556,-0.0692 -0.2897,-0.1698 -0.4023,-0.3022 -0.1128,-0.1321 -0.2015,-0.3008 -0.2664,-0.506 -0.0649,-0.2055 -0.0978,-0.4362 -0.0978,-0.6922 0,-0.2582 0.0329,-0.4912 0.0978,-0.6999 0.0649,-0.2086 0.157,-0.3812 0.2755,-0.5184 0.1188,-0.1375 0.2548,-0.2401 0.4085,-0.3082 0.1542,-0.0683 0.3228,-0.1023 0.5068,-0.1023 0.235,0 0.4516,0.059 0.6486,0.1766 0.1973,0.1176 0.3537,0.2993 0.4708,0.5448 0.1165,0.2458 0.1752,0.548 0.1752,0.9074"
             style="fill:#ffffff;fill-opacity:1;fill-rule:nonzero;stroke:none"
             id="path11531"
             inkscape:connector-curvature="0" />
          <path
             d="m 597.2366,367.6839 -0.322,0 0,-1.4585 c 0,-0.1919 -0.0423,-0.3333 -0.127,-0.424 -0.0848,-0.091 -0.195,-0.1366 -0.3314,-0.1366 -0.1465,0 -0.2599,0.0476 -0.3407,0.1425 -0.0802,0.095 -0.1208,0.2345 -0.1208,0.4181 l 0,3.4932 c 0,0.1981 0.0443,0.3416 0.133,0.4303 0.089,0.0887 0.2327,0.1332 0.4309,0.1332 l 1.4955,0 c 0.2064,0 0.3827,-0.009 0.5295,-0.0264 0.1463,-0.0175 0.2787,-0.053 0.3966,-0.1068 0.142,-0.0598 0.2679,-0.1454 0.3776,-0.2571 0.1094,-0.1114 0.1927,-0.241 0.2494,-0.3884 0.0567,-0.1477 0.0848,-0.3041 0.0848,-0.4694 0,-0.3384 -0.0953,-0.6089 -0.2863,-0.8113 -0.1908,-0.2024 -0.4808,-0.3458 -0.8686,-0.4305 0.163,-0.0865 0.3189,-0.2146 0.4678,-0.3839 0.1485,-0.1692 0.2811,-0.3495 0.3979,-0.5402 0.1163,-0.1911 0.2072,-0.3634 0.2727,-0.5174 0.0649,-0.1536 0.0973,-0.2593 0.0973,-0.3172 0,-0.0601 -0.0193,-0.1193 -0.0573,-0.178 -0.0383,-0.0589 -0.0904,-0.1054 -0.1568,-0.1394 -0.0654,-0.0341 -0.142,-0.0513 -0.2284,-0.0513 -0.1035,0 -0.1905,0.0246 -0.2605,0.0728 -0.0701,0.0485 -0.1307,0.11 -0.1809,0.1845 -0.0507,0.0743 -0.1196,0.1837 -0.2061,0.328 l -0.3685,0.6131 c -0.1323,0.2251 -0.2506,0.3966 -0.3546,0.5142 -0.1043,0.1177 -0.21,0.1982 -0.3177,0.2416 -0.1069,0.0433 -0.2421,0.0649 -0.4054,0.0649 z m 0.5261,1.9077 0,0 -0.8481,0 0,-1.2481 0.8237,0 c 0.2208,0 0.4065,0.0193 0.5573,0.0575 0.1505,0.038 0.2659,0.1029 0.3453,0.1948 0.0794,0.0918 0.1196,0.2185 0.1196,0.3795 0,0.1259 -0.0323,0.237 -0.0964,0.3328 -0.0638,0.0961 -0.1525,0.1678 -0.2661,0.2155 -0.1075,0.0453 -0.3192,0.068 -0.6353,0.068"
             style="fill:#ffffff;fill-opacity:1;fill-rule:nonzero;stroke:none"
             id="path11533"
             inkscape:connector-curvature="0" />
          <path
             d="m 603.0865,369.5236 -1.0035,0 0,-3.2982 c 0,-0.1899 -0.0422,-0.3308 -0.1267,-0.4226 -0.0851,-0.0918 -0.1942,-0.138 -0.3283,-0.138 -0.136,0 -0.2474,0.0467 -0.333,0.1394 -0.0856,0.093 -0.1284,0.2333 -0.1284,0.4212 l 0,3.2982 -1.0032,0 c -0.1574,0 -0.2739,0.0345 -0.3501,0.1034 -0.0765,0.0692 -0.1145,0.1605 -0.1145,0.2741 0,0.1177 0.0397,0.2106 0.1193,0.2787 0.0791,0.0683 0.1945,0.1023 0.3453,0.1023 l 2.9231,0 c 0.159,0 0.2772,-0.0351 0.3546,-0.1052 0.0774,-0.0703 0.1159,-0.1621 0.1159,-0.2758 0,-0.1136 -0.0391,-0.2049 -0.1176,-0.2741 -0.0785,-0.0689 -0.1959,-0.1034 -0.3529,-0.1034"
             style="fill:#ffffff;fill-opacity:1;fill-rule:nonzero;stroke:none"
             id="path11535"
             inkscape:connector-curvature="0" />
          <path
             d="m 606.9861,369.5729 -2.0719,0 0,-1.1149 1.9075,0 c 0.1406,0 0.2454,-0.0314 0.3146,-0.0944 0.0692,-0.0629 0.1038,-0.146 0.1038,-0.2491 0,-0.1032 -0.0343,-0.1874 -0.1027,-0.2523 -0.0677,-0.0652 -0.1731,-0.0978 -0.3157,-0.0978 l -1.9075,0 0,-1.2912 2.143,0 c 0.1443,0 0.2532,-0.0337 0.3266,-0.1006 0.0734,-0.0672 0.1102,-0.1565 0.1102,-0.2679 0,-0.1074 -0.0368,-0.1947 -0.1102,-0.2616 -0.0734,-0.0672 -0.1823,-0.1007 -0.3266,-0.1007 l -2.4993,0 c -0.2001,0 -0.3438,0.0445 -0.432,0.133 -0.0873,0.089 -0.1312,0.2324 -0.1312,0.4306 l 0,3.4126 c 0,0.1318 0.0195,0.2401 0.0589,0.3237 0.0392,0.0833 0.1007,0.1443 0.184,0.1826 0.0836,0.0382 0.1908,0.0572 0.3203,0.0572 l 2.4282,0 c 0.1465,0 0.2551,-0.0326 0.3265,-0.0975 0.0712,-0.0652 0.1072,-0.1502 0.1072,-0.2554 0,-0.1074 -0.036,-0.1936 -0.1072,-0.2588 -0.0714,-0.0649 -0.18,-0.0975 -0.3265,-0.0975"
             style="fill:#ffffff;fill-opacity:1;fill-rule:nonzero;stroke:none"
             id="path11537"
             inkscape:connector-curvature="0" />
          <path
             d="m 611.5666,367.105 c 0,-0.2746 -0.0709,-0.5213 -0.212,-0.7401 -0.1418,-0.2188 -0.349,-0.3903 -0.6211,-0.5142 -0.273,-0.1239 -0.5959,-0.1859 -0.9695,-0.1859 -0.4481,0 -0.8178,0.0847 -1.1086,0.2539 -0.2064,0.1219 -0.3739,0.2846 -0.5034,0.4879 -0.1287,0.2032 -0.1934,0.4011 -0.1934,0.593 0,0.1117 0.0389,0.2069 0.1163,0.2866 0.0771,0.0793 0.1757,0.119 0.2956,0.119 0.097,0 0.1789,-0.0309 0.2464,-0.0929 0.0671,-0.0618 0.1241,-0.154 0.1717,-0.2753 0.0579,-0.1448 0.1202,-0.2656 0.1871,-0.3625 0.0672,-0.097 0.1619,-0.1772 0.2835,-0.2401 0.1222,-0.063 0.2817,-0.0944 0.4802,-0.0944 0.2721,0 0.4938,0.0635 0.6641,0.1905 0.1701,0.1269 0.2554,0.2854 0.2554,0.4753 0,0.1508 -0.0459,0.273 -0.1377,0.3671 -0.0916,0.0938 -0.2106,0.1656 -0.3563,0.2152 -0.1455,0.0496 -0.3402,0.102 -0.5834,0.1579 -0.3266,0.0762 -0.5993,0.1655 -0.8192,0.2678 -0.2197,0.1021 -0.3943,0.2415 -0.5236,0.4181 -0.129,0.1764 -0.1933,0.3958 -0.1933,0.658 0,0.2497 0.0683,0.4716 0.2044,0.6658 0.1363,0.1939 0.3333,0.3433 0.5916,0.4473 0.2579,0.1043 0.5612,0.1565 0.9104,0.1565 0.2787,0 0.5193,-0.0346 0.7229,-0.1038 0.2032,-0.0691 0.3722,-0.161 0.5062,-0.2755 0.1344,-0.1148 0.2322,-0.235 0.2946,-0.3608 0.0618,-0.1259 0.0927,-0.2489 0.0927,-0.3685 0,-0.1095 -0.0392,-0.2081 -0.1163,-0.296 -0.0773,-0.0876 -0.1737,-0.1312 -0.2894,-0.1312 -0.1054,0 -0.1851,0.0261 -0.2404,0.0791 -0.0544,0.0521 -0.1139,0.1386 -0.1777,0.2582 -0.0825,0.1715 -0.1814,0.3053 -0.2971,0.4011 -0.1159,0.0961 -0.3019,0.144 -0.5575,0.144 -0.2376,0 -0.4289,-0.0521 -0.5743,-0.1565 -0.1457,-0.104 -0.2186,-0.2296 -0.2186,-0.3761 0,-0.091 0.0247,-0.1692 0.0743,-0.2353 0.0496,-0.066 0.1176,-0.123 0.2044,-0.1704 0.0867,-0.0473 0.1746,-0.0844 0.2633,-0.1114 0.0887,-0.0269 0.235,-0.0663 0.4397,-0.1179 0.2559,-0.0598 0.4878,-0.1258 0.695,-0.1978 0.2075,-0.0726 0.3844,-0.1602 0.5298,-0.2634 0.1457,-0.1034 0.2591,-0.2338 0.3407,-0.3917 0.0814,-0.1579 0.1225,-0.3515 0.1225,-0.5806"
             style="fill:#ffffff;fill-opacity:1;fill-rule:nonzero;stroke:none"
             id="path11539"
             inkscape:connector-curvature="0" />
        </g>
      </g>
      <g
         id="g11541">
        <g
           id="g11543">
          <path
             d="m 590.0264,415.0168 c -0.3274,0 -0.593,-0.2656 -0.593,-0.593 0,-0.3274 0.2656,-0.593 0.593,-0.593 0.3271,0 0.593,0.2656 0.593,0.593 0,0.3274 -0.2659,0.593 -0.593,0.593 m 0,0 c -0.3274,0 -0.593,-0.2656 -0.593,-0.593 0,-0.3274 0.2656,-0.593 0.593,-0.593 0.3271,0 0.593,0.2656 0.593,0.593 0,0.3274 -0.2659,0.593 -0.593,0.593 z m -1.7507,4.7489 0,0 c -0.0711,0.005 -0.1423,0.009 -0.2183,0.009 -0.0617,0.005 -0.1281,0.005 -0.1896,0.005 -3.2689,0 -5.9207,-2.6521 -5.9207,-5.9207 0,-0.3557 0.0332,-0.7069 0.0949,-1.0485 0.0377,-0.2325 0.0947,-0.4601 0.1611,-0.6783 0.7166,-2.3579 2.861,-4.0941 5.4275,-4.1891 0.0759,-0.01 0.1564,-0.01 0.2372,-0.01 0.1375,0 0.275,0.005 0.4079,0.0144 2.6566,0.18 4.8297,2.111 5.3847,4.6443 0.0615,0.3036 0.1043,0.6168 0.1233,0.9346 0.005,0.1094 0.01,0.2183 0.01,0.3322 0,3.1312 -2.4339,5.6977 -5.5177,5.9066 z m -4.5119,-5.3419 0,0 c 0,0.1468 0.019,0.2939 0.0476,0.4317 0.2325,0.9632 1.1767,1.6889 1.874,1.6889 0.2373,0 0.5029,-0.0853 0.7543,-0.2418 0.5834,-0.356 1.1101,-1.0627 1.1101,-1.8788 0,-1.1719 -0.6925,-2.1206 -1.8644,-2.1206 -1.1718,0 -1.9216,0.9487 -1.9216,2.1206 z m 6.0395,-2.1206 0,0 c -1.1718,0 -1.8692,0.9487 -1.8692,2.1206 0,0.8161 0.5267,1.5228 1.1149,1.8788 0.2514,0.1565 0.517,0.2418 0.7543,0.2418 0.6928,0 1.6367,-0.7257 1.8692,-1.6889 0.0286,-0.1378 0.0476,-0.2849 0.0476,-0.4317 0,-1.1719 -0.7498,-2.1206 -1.9168,-2.1206 z m 0.2231,2.7136 0,0 c -0.3274,0 -0.593,-0.2656 -0.593,-0.593 0,-0.3274 0.2656,-0.593 0.593,-0.593 0.3271,0 0.593,0.2656 0.593,0.593 0,0.3274 -0.2659,0.593 -0.593,0.593 z m -3.9759,-0.593 0,0 c 0,0.3274 -0.2656,0.593 -0.5927,0.593 -0.3274,0 -0.5885,-0.2656 -0.5885,-0.593 0,-0.3274 0.2611,-0.593 0.5885,-0.593 0.3271,0 0.5927,0.2656 0.5927,0.593"
             style="fill:#fec141;fill-opacity:1;fill-rule:nonzero;stroke:none"
             id="path11545"
             inkscape:connector-curvature="0" />
          <path
             d="m 587.8678,407.6963 c -0.091,0 -0.1817,6e-4 -0.2673,0.0116 -2.5931,0.0947 -4.8617,1.8457 -5.6242,4.3552 -0.0768,0.2523 -0.1318,0.4844 -0.1684,0.7095 -0.0652,0.3574 -0.0981,0.7248 -0.0981,1.0865 0,3.3956 2.7624,6.158 6.158,6.158 0.0672,0 0.14,-3e-4 0.2075,-0.005 0.0621,0 0.1332,-0.004 0.2064,-0.009 3.2281,-0.2185 5.7489,-2.9168 5.7489,-6.1438 0,-0.112 -0.005,-0.2194 -0.009,-0.3271 -0.0198,-0.3368 -0.0629,-0.6625 -0.1286,-0.9867 -0.5834,-2.6638 -2.8866,-4.65 -5.6013,-4.8342 -0.1375,-0.01 -0.2804,-0.0148 -0.4238,-0.0148 z m 0.0148,11.8463 0,0 c -0.005,0 -0.01,0 -0.0148,0 -3.1343,0 -5.6837,-2.5495 -5.6837,-5.6835 0,-0.3336 0.0306,-0.6721 0.0915,-1.006 0.0338,-0.2083 0.0839,-0.4198 0.1545,-0.652 0.7039,-2.3159 2.7972,-3.9316 5.2092,-4.0209 0.0879,-0.0102 0.1565,-0.009 0.2285,-0.009 0.1318,0 0.2639,0.005 0.3909,0.0136 2.5064,0.1701 4.6321,2.0036 5.1701,4.4589 0.0604,0.2991 0.1006,0.6021 0.1182,0.8978 0.005,0.1119 0.009,0.2129 0.009,0.318 0,2.9781 -2.3264,5.4689 -5.2965,5.6699 -0.0718,0.005 -0.135,0.009 -0.2022,0.009 -0.0671,0.005 -0.1233,0.005 -0.1748,0.005 z m 1.9207,-7.4767 0,0 c -1.0746,0 -1.8683,0.728 -2.0611,1.8258 -0.1924,-1.0978 -0.9847,-1.8258 -2.0571,-1.8258 -1.2506,0 -2.1583,0.9916 -2.1583,2.3576 0,0.1508 0.0176,0.3124 0.0525,0.4802 0.2676,1.1097 1.3243,1.8779 2.1058,1.8779 0.2838,0 0.5879,-0.0961 0.8802,-0.278 0.4751,-0.2895 1.0188,-0.8706 1.1769,-1.6376 0.1582,0.7687 0.705,1.3498 1.1841,1.6393 0.2891,0.1802 0.5935,0.2763 0.877,0.2763 0.7798,0 1.8337,-0.7682 2.0996,-1.8705 0.0369,-0.1752 0.0542,-0.3368 0.0542,-0.4876 0,-1.366 -0.9057,-2.3576 -2.1538,-2.3576 z m 0,4.2412 0,0 c -0.1919,0 -0.4153,-0.0731 -0.629,-0.2061 -0.4637,-0.2806 -1.0029,-0.8869 -1.0029,-1.6775 0,-0.9374 0.5046,-1.8831 1.6319,-1.8831 0.989,0 1.6795,0.7745 1.6795,1.8831 0,0.1182 -0.0144,0.2475 -0.0425,0.3838 -0.2032,0.8416 -1.0474,1.4998 -1.637,1.4998 z m -4.1182,0 0,0 c -0.5913,0 -1.438,-0.6582 -1.6429,-1.5072 -0.0267,-0.1289 -0.0408,-0.2582 -0.0408,-0.3764 0,-1.1086 0.6925,-1.8831 1.6837,-1.8831 1.1245,0 1.6274,0.9457 1.6274,1.8831 0,0.7384 -0.5,1.3739 -0.9961,1.6764 -0.2157,0.1341 -0.4391,0.2072 -0.6313,0.2072 z m 4.341,-2.7136 0,0 c -0.4575,0 -0.83,0.3725 -0.83,0.83 0,0.4578 0.3725,0.8303 0.83,0.8303 0.4578,0 0.8303,-0.3725 0.8303,-0.8303 0,-0.4575 -0.3725,-0.83 -0.8303,-0.83 z m -0.3557,0.83 0,0 c 0,-0.1962 0.1596,-0.3555 0.3557,-0.3555 0.1962,0 0.356,0.1593 0.356,0.3555 0,0.1964 -0.1598,0.356 -0.356,0.356 -0.1961,0 -0.3557,-0.1596 -0.3557,-0.356 z m -4.2129,-0.83 0,0 c -0.4552,0 -0.8252,0.3725 -0.8252,0.83 0,0.4578 0.37,0.8303 0.8252,0.8303 0.4578,0 0.8303,-0.3725 0.8303,-0.8303 0,-0.4575 -0.3725,-0.83 -0.8303,-0.83 z m 0,1.186 0,0 c -0.1933,0 -0.3506,-0.1596 -0.3506,-0.356 0,-0.1962 0.1573,-0.3555 0.3506,-0.3555 0.1962,0 0.356,0.1593 0.356,0.3555 0,0.1964 -0.1598,0.356 -0.356,0.356"
             style="fill:#c87815;fill-opacity:1;fill-rule:nonzero;stroke:none"
             id="path11547"
             inkscape:connector-curvature="0" />
        </g>
        <g
           id="g11549">
          <path
             d="m 599.0306,415.4057 c -2.6234,-2.0588 -4.4356,-2.0494 -5.2469,-1.8788 0.005,0.1094 0.01,0.2183 0.01,0.3322 0,3.1312 -2.4339,5.6977 -5.5177,5.9066 0.6832,1.7175 2.2346,4.7772 4.6874,5.1378 3.4254,0.5076 5.7878,1.5752 6.4613,2.6427 0.6738,1.0675 1.4615,-1.855 1.5182,-3.4824 0.057,-1.6319 1.7411,-5.7926 -1.912,-8.6581"
             style="fill:#fbb040;fill-opacity:1;fill-rule:nonzero;stroke:none"
             id="path11551"
             inkscape:connector-curvature="0" />
          <path
             d="m 594.4864,413.2208 c -0.265,0 -0.5179,0.0249 -0.7514,0.0739 l -0.1968,0.0417 0.009,0.2007 c 0.005,0.1159 0.009,0.2169 0.009,0.322 0,2.9781 -2.3264,5.4689 -5.2965,5.6699 l -0.3246,0.0221 0.1202,0.3022 c 0.7208,1.8121 2.3125,4.9084 4.8733,5.2852 3.147,0.4663 5.618,1.4609 6.2955,2.5341 0.1423,0.2254 0.3121,0.3396 0.5051,0.3396 0.9091,0 1.4125,-2.855 1.4508,-3.9401 0.01,-0.292 0.0776,-0.6835 0.1559,-1.1373 0.3427,-1.9837 0.9159,-5.3039 -2.1586,-7.7159 -2.1044,-1.6515 -3.7125,-1.9981 -4.6908,-1.9981 z m -0.4578,0.5045 0,0 c 0.1454,-0.0198 0.2991,-0.0303 0.4578,-0.0303 0.9034,0 2.3998,0.3294 4.3983,1.8975 2.8513,2.2368 2.3292,5.2605 1.9836,7.2615 -0.0813,0.4709 -0.151,0.8771 -0.1627,1.2013 -0.055,1.5713 -0.678,3.4325 -0.9776,3.4824 8e-4,-8e-4 -0.0394,-0.0176 -0.1029,-0.1182 -0.7594,-1.2033 -3.299,-2.2572 -6.6274,-2.7505 -2.1974,-0.3231 -3.6519,-2.959 -4.3815,-4.6973 3.0614,-0.3707 5.4144,-2.995 5.4144,-6.1126 0,-0.0453 -8e-4,-0.0898 -0.002,-0.1338"
             style="fill:#c87815;fill-opacity:1;fill-rule:nonzero;stroke:none"
             id="path11553"
             inkscape:connector-curvature="0" />
        </g>
        <g
           id="g11555">
          <path
             d="m 588.0574,419.775 c -0.0617,0.005 -0.1281,0.005 -0.1896,0.005 -3.2689,0 -5.9207,-2.6521 -5.9207,-5.9207 0,-0.3557 0.0332,-0.7069 0.0949,-1.0485 -0.9158,-0.0663 -2.1492,0.0618 -3.7527,0.6358 -4.3742,1.5656 -4.0848,6.0443 -4.5451,7.6096 -0.4649,1.5656 -0.6404,4.5831 0.337,3.786 0.9771,-0.8017 3.5533,-1.0676 6.9693,-0.4649 3.0124,0.5312 6.2858,-3.6247 7.0069,-4.6021"
             style="fill:#fbb040;fill-opacity:1;fill-rule:nonzero;stroke:none"
             id="path11557"
             inkscape:connector-curvature="0" />
          <path
             d="m 581.5925,412.5574 c -1.0117,0 -2.1498,0.224 -3.3832,0.6656 -3.6813,1.3176 -4.1828,4.648 -4.4824,6.6376 -0.0686,0.4553 -0.1278,0.8484 -0.21,1.1285 -0.3096,1.0417 -0.6248,3.3372 -0.1242,4.0082 0.1318,0.1766 0.2897,0.2134 0.3991,0.2134 0.1429,0 0.2863,-0.0606 0.4391,-0.1848 0.574,-0.4711 1.8062,-0.741 3.3814,-0.741 1.0296,0 2.1725,0.1097 3.3968,0.3255 0.1894,0.0337 0.3855,0.0507 0.5828,0.0507 2.9279,0 5.8351,-3.632 6.6563,-4.7449 l 0.3073,-0.4164 -0.5159,0.0388 c -0.0559,0.004 -0.1165,0.004 -0.1718,0.004 -3.1343,0 -5.6837,-2.5495 -5.6837,-5.6835 0,-0.3336 0.0306,-0.6721 0.0915,-1.006 l 0.0468,-0.2599 -0.2633,-0.019 c -0.1477,-0.0108 -0.3034,-0.0168 -0.4666,-0.0168 z m -7.8007,12.1791 0,0 c -0.2662,-0.1392 -0.2687,-2.103 0.18,-3.613 0.0916,-0.3118 0.1531,-0.7198 0.2242,-1.192 0.3022,-2.0069 0.7589,-5.0397 4.1732,-6.2617 1.2549,-0.4496 2.4182,-0.6656 3.397,-0.6353 -0.0374,0.2747 -0.0564,0.5511 -0.0564,0.8246 0,3.299 2.6073,6.0001 5.8697,6.1512 -0.953,1.2127 -3.5342,4.1763 -5.9876,4.1763 -0.1698,0 -0.3385,-0.0145 -0.5003,-0.0431 -1.2515,-0.2208 -2.4219,-0.3328 -3.4793,-0.3328 -1.7078,0 -3.0154,0.301 -3.6816,0.8479 -0.0947,0.0771 -0.1383,0.0779 -0.1389,0.0779"
             style="fill:#c87815;fill-opacity:1;fill-rule:nonzero;stroke:none"
             id="path11559"
             inkscape:connector-curvature="0" />
        </g>
        <g
           id="g11561">
          <path
             d="m 587.175,403.4171 c -0.3084,-0.7591 -0.7639,-1.5514 -1.4233,-2.3292 -0.5028,-0.5885 -1.034,-1.0295 -1.5797,-1.3521 -2.7232,-1.6178 -5.7881,-0.3226 -7.1447,-0.2231 -1.6274,0.1188 -4.5165,1.0199 -3.4206,1.6509 1.0913,0.631 2.2487,2.9509 2.8891,6.3573 0.4935,2.6331 4.0943,4.0895 5.7073,4.6114 0.7166,-2.3579 2.861,-4.0941 5.4275,-4.1891 0.1612,-0.8209 0.3367,-2.5761 -0.4556,-4.5261"
             style="fill:#fbb040;fill-opacity:1;fill-rule:nonzero;stroke:none"
             id="path11563"
             inkscape:connector-curvature="0" />
          <path
             d="m 581.0403,398.6906 c -1.0848,0 -2.0917,0.2138 -2.9004,0.3858 -0.4499,0.0959 -0.8388,0.1781 -1.1302,0.1996 -0.989,0.0723 -3.6777,0.6358 -3.8701,1.4774 -0.0315,0.1369 -0.0278,0.3991 0.3486,0.616 1.097,0.6344 2.1864,3.0662 2.7749,6.1954 0.5212,2.7811 4.2766,4.2786 5.8671,4.7931 l 0.2299,0.0743 0.07,-0.2311 c 0.7039,-2.3159 2.7972,-3.9316 5.2092,-4.0209 l 0.1877,-0.007 0.0363,-0.1845 c 0.1735,-0.8833 0.3433,-2.6632 -0.4683,-4.6608 -0.3461,-0.8521 -0.8379,-1.6571 -1.4624,-2.3935 -0.4966,-0.5814 -1.048,-1.0528 -1.6398,-1.4029 -0.9525,-0.5658 -2.0166,-0.8411 -3.2525,-0.8411 z m 1.0111,13.1415 0,0 c -1.6112,-0.5485 -4.8702,-1.9421 -5.3223,-4.3549 -0.6222,-3.3095 -1.7731,-5.8073 -3.0036,-6.5186 -0.1083,-0.0623 -0.1239,-0.1029 -0.1242,-0.1034 0.0383,-0.2968 1.8754,-0.9916 3.443,-1.1061 0.324,-0.0235 0.7271,-0.1094 1.1942,-0.2086 0.7872,-0.1673 1.7669,-0.3753 2.8018,-0.3753 1.1486,0 2.1333,0.2534 3.0104,0.7744 0.5473,0.3237 1.0587,0.7619 1.521,1.3022 0.5908,0.6973 1.0568,1.4596 1.3834,2.2646 0.7134,1.7555 0.6233,3.3307 0.4756,4.2098 -2.4525,0.1672 -4.5717,1.7906 -5.3793,4.1159"
             style="fill:#c87815;fill-opacity:1;fill-rule:nonzero;stroke:none"
             id="path11565"
             inkscape:connector-curvature="0" />
        </g>
        <g
           id="g11567">
          <path
             d="m 598.9408,399.9399 c -1.186,-0.0856 -3.6768,-1.0914 -6.1058,-0.2611 -0.9063,0.3084 -1.8029,0.8728 -2.619,1.836 -0.1374,0.1661 -0.2704,0.3274 -0.3889,0.4935 -1.7127,2.3244 -1.7175,4.6871 -1.5514,5.9397 2.6566,0.18 4.8297,2.111 5.3847,4.6443 1.5559,-0.4932 5.3087,-1.9545 5.8116,-4.6443 0.6406,-3.4064 1.798,-5.7265 2.8939,-6.3572 1.0913,-0.631 -1.798,-1.5324 -3.4251,-1.6509"
             style="fill:#fbb040;fill-opacity:1;fill-rule:nonzero;stroke:none"
             id="path11569"
             inkscape:connector-curvature="0" />
          <path
             d="m 594.9204,399.115 c -0.7875,0 -1.4947,0.1111 -2.162,0.3393 -1.0324,0.3512 -1.9485,0.993 -2.7232,1.9071 -0.1432,0.1727 -0.2792,0.3385 -0.4011,0.5089 -1.7722,2.4052 -1.7592,4.8597 -1.5937,6.1089 l 0.0256,0.1922 0.1936,0.0133 c 2.5055,0.1698 4.6312,2.0033 5.1692,4.4586 l 0.0553,0.2537 0.2477,-0.0785 c 1.6209,-0.5139 5.4471,-2.0126 5.9735,-4.8271 0.5885,-3.13 1.6795,-5.5619 2.7791,-6.1951 0.3747,-0.2169 0.3781,-0.4785 0.3467,-0.6154 -0.1806,-0.7866 -2.6536,-1.389 -3.8733,-1.4777 -0.2928,-0.021 -0.6837,-0.1043 -1.1364,-0.201 -0.809,-0.1723 -1.8162,-0.3872 -2.901,-0.3872 z m -6.4321,8.6128 0,0 c -0.1304,-1.2252 -0.0604,-3.4209 1.5296,-5.5792 0.1173,-0.1644 0.2472,-0.3209 0.381,-0.4824 0.7166,-0.8459 1.5624,-1.4397 2.5126,-1.7629 0.6174,-0.2112 1.2745,-0.3138 2.0089,-0.3138 1.0349,0 2.0146,0.2089 2.8021,0.3767 0.4699,0.1001 0.8756,0.1868 1.201,0.2101 1.5684,0.1145 3.4061,0.8093 3.4452,1.1117 -10e-4,0 -0.0204,0.0389 -0.1216,0.0975 -1.2328,0.7098 -2.3859,3.2077 -3.0081,6.5186 -0.4558,2.4364 -3.761,3.8324 -5.4082,4.3835 -0.6528,-2.4681 -2.8004,-4.3044 -5.3425,-4.5598"
             style="fill:#c87815;fill-opacity:1;fill-rule:nonzero;stroke:none"
             id="path11571"
             inkscape:connector-curvature="0" />
        </g>
        <g
           id="g11573">
          <path
             d="m 591.6725,414.8555 c -0.9394,0.4459 -2.0778,1.0911 -2.6235,1.4471 -0.5882,-0.356 -1.1149,-1.0627 -1.1149,-1.8788 0,-1.1719 0.6974,-2.1206 1.8692,-2.1206 1.167,0 1.9168,0.9487 1.9168,2.1206 0,0.1468 -0.019,0.2939 -0.0476,0.4317 z m -1.6461,-1.0247 0,0 c -0.3274,0 -0.593,0.2656 -0.593,0.593 0,0.3274 0.2656,0.593 0.593,0.593 0.3271,0 0.593,-0.2656 0.593,-0.593 0,-0.3274 -0.2659,-0.593 -0.593,-0.593"
             style="fill:#ffffff;fill-opacity:1;fill-rule:nonzero;stroke:none"
             id="path11575"
             inkscape:connector-curvature="0" />
          <path
             d="m 589.8033,412.0659 c -1.2402,0 -2.1064,0.9695 -2.1064,2.3576 0,0.9879 0.6624,1.7391 1.2294,2.0818 l 0.1278,0.0771 0.1245,-0.0814 c 0.5513,-0.3597 1.673,-0.9933 2.5956,-1.4312 l 0.1066,-0.0505 0.0241,-0.1156 c 0.0349,-0.1678 0.0522,-0.3294 0.0522,-0.4802 0,-1.366 -0.9057,-2.3576 -2.1538,-2.3576 z m -0.7526,3.9538 0,0 c -0.4297,-0.3059 -0.8793,-0.8742 -0.8793,-1.5962 0,-0.9374 0.5046,-1.8831 1.6319,-1.8831 0.989,0 1.6795,0.7745 1.6795,1.8831 0,0.0853 -0.007,0.1755 -0.0221,0.2704 -0.8495,0.4102 -1.8371,0.9647 -2.41,1.3258 z m 0.9754,-2.4262 0,0 c -0.4575,0 -0.83,0.3725 -0.83,0.83 0,0.4578 0.3725,0.8303 0.83,0.8303 0.4578,0 0.8303,-0.3725 0.8303,-0.8303 0,-0.4575 -0.3725,-0.83 -0.8303,-0.83 z m 0,1.186 0,0 c -0.1961,0 -0.3557,-0.1596 -0.3557,-0.356 0,-0.1962 0.1596,-0.3555 0.3557,-0.3555 0.1962,0 0.356,0.1593 0.356,0.3555 0,0.1964 -0.1598,0.356 -0.356,0.356"
             style="fill:#f8941d;fill-opacity:1;fill-rule:nonzero;stroke:none"
             id="path11577"
             inkscape:connector-curvature="0" />
        </g>
        <path
           d="m 590.6194,414.4238 c 0,-0.3274 -0.2659,-0.593 -0.593,-0.593 -0.3274,0 -0.593,0.2656 -0.593,0.593 0,0.3274 0.2656,0.593 0.593,0.593 0.3271,0 0.593,-0.2656 0.593,-0.593 z"
           style="fill:none;stroke:#231f20;stroke-width:1.00010002;stroke-linecap:butt;stroke-linejoin:miter;stroke-miterlimit:10.00000286;stroke-dasharray:none;stroke-opacity:1"
           id="path11579"
           inkscape:connector-curvature="0" />
        <path
           d="m 590.6194,414.4238 c 0,-0.3274 -0.2659,-0.593 -0.593,-0.593 -0.3274,0 -0.593,0.2656 -0.593,0.593 0,0.3274 0.2656,0.593 0.593,0.593 0.3271,0 0.593,-0.2656 0.593,-0.593"
           style="fill:#231f20;fill-opacity:1;fill-rule:nonzero;stroke:none"
           id="path11581"
           inkscape:connector-curvature="0" />
        <g
           id="g11583">
          <path
             d="m 586.4397,416.3026 c -0.5457,-0.3512 -1.684,-1.0012 -2.6283,-1.4471 -0.0286,-0.1378 -0.0476,-0.2849 -0.0476,-0.4317 0,-1.1719 0.7498,-2.1206 1.9216,-2.1206 1.1719,0 1.8644,0.9487 1.8644,2.1206 0,0.8161 -0.5267,1.5228 -1.1101,1.8788 z m -0.9819,-2.4718 0,0 c -0.3274,0 -0.5885,0.2656 -0.5885,0.593 0,0.3274 0.2611,0.593 0.5885,0.593 0.3271,0 0.5927,-0.2656 0.5927,-0.593 0,-0.3274 -0.2656,-0.593 -0.5927,-0.593"
             style="fill:#ffffff;fill-opacity:1;fill-rule:nonzero;stroke:none"
             id="path11585"
             inkscape:connector-curvature="0" />
          <path
             d="m 585.6851,412.0659 c -1.2506,0 -2.1583,0.9916 -2.1583,2.3576 0,0.1508 0.0176,0.3124 0.0525,0.4802 l 0.0241,0.1159 0.1068,0.0502 c 0.9735,0.4601 2.107,1.1143 2.6014,1.4321 l 0.125,0.0802 0.1267,-0.0771 c 0.5647,-0.3444 1.2237,-1.0959 1.2237,-2.0815 0,-1.3881 -0.8643,-2.3576 -2.1019,-2.3576 z m -1.6619,2.6277 0,0 c -0.0145,-0.0946 -0.0218,-0.1851 -0.0218,-0.2701 0,-1.1086 0.6925,-1.8831 1.6837,-1.8831 1.1245,0 1.6274,0.9457 1.6274,1.8831 0,0.6783 -0.4224,1.2699 -0.8756,1.5962 -0.5976,-0.3731 -1.5939,-0.9315 -2.4137,-1.3261 z m 1.4343,-1.1001 0,0 c -0.4552,0 -0.8252,0.3725 -0.8252,0.83 0,0.4578 0.37,0.8303 0.8252,0.8303 0.4578,0 0.8303,-0.3725 0.8303,-0.8303 0,-0.4575 -0.3725,-0.83 -0.8303,-0.83 z m 0,1.186 0,0 c -0.1933,0 -0.3506,-0.1596 -0.3506,-0.356 0,-0.1962 0.1573,-0.3555 0.3506,-0.3555 0.1962,0 0.356,0.1593 0.356,0.3555 0,0.1964 -0.1598,0.356 -0.356,0.356"
             style="fill:#f8941d;fill-opacity:1;fill-rule:nonzero;stroke:none"
             id="path11587"
             inkscape:connector-curvature="0" />
        </g>
        <path
           d="m 586.0505,414.4238 c 0,-0.3274 -0.2656,-0.593 -0.5927,-0.593 -0.3274,0 -0.5885,0.2656 -0.5885,0.593 0,0.3274 0.2611,0.593 0.5885,0.593 0.3271,0 0.5927,-0.2656 0.5927,-0.593 z"
           style="fill:none;stroke:#231f20;stroke-width:1.00010002;stroke-linecap:butt;stroke-linejoin:miter;stroke-miterlimit:10.00000286;stroke-dasharray:none;stroke-opacity:1"
           id="path11589"
           inkscape:connector-curvature="0" />
        <path
           d="m 586.0505,414.4238 c 0,-0.3274 -0.2656,-0.593 -0.5927,-0.593 -0.3274,0 -0.5885,0.2656 -0.5885,0.593 0,0.3274 0.2611,0.593 0.5885,0.593 0.3271,0 0.5927,-0.2656 0.5927,-0.593"
           style="fill:#231f20;fill-opacity:1;fill-rule:nonzero;stroke:none"
           id="path11591"
           inkscape:connector-curvature="0" />
        <g
           id="g11593">
          <path
             d="m 588.092,409.354 c -1.2617,0.0272 -2.0721,0.7829 -2.5072,1.429 0.5845,-0.3141 1.4695,-0.669 2.4984,-0.6806 l 6e-4,0 c 0.8308,0 1.4794,0.242 1.9468,0.5156 -0.3926,-0.6044 -1.0227,-1.2646 -1.8997,-1.2646 l -0.0389,6e-4 z"
             style="fill:#c87815;fill-opacity:1;fill-rule:nonzero;stroke:none"
             id="path11595"
             inkscape:connector-curvature="0" />
          <path
             d="m 586.5245,410.1265 c 0.4603,-0.148 0.9873,-0.2549 1.5562,-0.2611 l 0.0479,-3e-4 c 0.3937,0 0.7495,0.0541 1.0667,0.1409 -0.2957,-0.2441 -0.6503,-0.415 -1.0644,-0.415 l -0.0338,3e-4 c -0.65,0.0139 -1.1701,0.2372 -1.5726,0.5352 z m 4.2253,1.3966 0,0 c 0,0 -0.8935,-1.1835 -2.6212,-1.1835 -0.0142,0 -0.0283,0 -0.0425,0 -1.7555,0.0199 -3.0955,1.1047 -3.0955,1.1047 0.2367,-0.7889 1.2623,-2.2879 3.0966,-2.3275 0.0148,-3e-4 0.0292,-3e-4 0.0437,-3e-4 1.8034,0 2.6189,2.4066 2.6189,2.4066"
             style="fill:#c87815;fill-opacity:1;fill-rule:nonzero;stroke:none"
             id="path11597"
             inkscape:connector-curvature="0" />
        </g>
        <g
           id="g11599">
          <path
             d="m 587.175,403.4171 0,-6.3524 -2.505,0.4839 -0.498,-0.4366 0,2.6238 c 0.5457,0.3226 1.0769,0.7636 1.5797,1.3521 0.6594,0.7778 1.1149,1.5701 1.4233,2.3292"
             style="fill:#fbb040;fill-opacity:1;fill-rule:nonzero;stroke:none"
             id="path11601"
             inkscape:connector-curvature="0" />
          <path
             d="m 583.9347,396.5888 0,3.2822 0.1165,0.0689 c 0.5468,0.3234 1.0582,0.7616 1.5205,1.3019 0.5908,0.6973 1.0568,1.4596 1.3834,2.2646 l 0.4572,1.1254 0,-7.8545 -2.6734,0.5164 -0.8042,-0.7049 z m 0.6662,1.2146 0,0 2.3369,-0.4513 0,5.0261 c -0.2818,-0.5042 -0.618,-0.9873 -1.0052,-1.4436 -0.4637,-0.5429 -0.9757,-0.9905 -1.5233,-1.3323 l 0,-1.9667 0.1916,0.1678 z"
             style="fill:#c87815;fill-opacity:1;fill-rule:nonzero;stroke:none"
             id="path11603"
             inkscape:connector-curvature="0" />
        </g>
        <g
           id="g11605">
          <path
             d="m 592.835,399.6788 0,-2.4432 -0.3606,0.313 -2.6473,-0.5123 0,4.972 c 0.1185,-0.1661 0.2515,-0.3274 0.3889,-0.4935 0.8161,-0.9632 1.7127,-1.5276 2.619,-1.836"
             style="fill:#fbb040;fill-opacity:1;fill-rule:nonzero;stroke:none"
             id="path11607"
             inkscape:connector-curvature="0" />
          <path
             d="m 593.0722,396.7155 -0.6661,0.5782 -2.8162,-0.5448 0,5.9995 0.43,-0.6023 c 0.1153,-0.1619 0.2452,-0.3184 0.379,-0.4799 0.7166,-0.8459 1.5624,-1.4397 2.5126,-1.7629 l 0.1607,-0.055 0,-3.1328 z m -3.0081,4.6119 0,0 0,-4.0036 2.4786,0.4796 0.055,-0.0479 0,1.7561 c -0.9541,0.3568 -1.8057,0.9671 -2.5336,1.8158"
             style="fill:#c87815;fill-opacity:1;fill-rule:nonzero;stroke:none"
             id="path11609"
             inkscape:connector-curvature="0" />
        </g>
        <path
           d="m 589.8271,397.0363 0,-0.318 0.009,0"
           style="fill:none;stroke:#231f20;stroke-width:1.00010002;stroke-linecap:butt;stroke-linejoin:miter;stroke-miterlimit:10.00000286;stroke-dasharray:none;stroke-opacity:1"
           id="path11611"
           inkscape:connector-curvature="0" />
        <g
           id="g11613">
          <path
             d="m 587.175,392.8473 c 0,0 0.3181,0.313 0,-0.1616 -0.3177,-0.4742 -1.224,-0.5502 -1.224,-0.5502 l 0,0.3558 c -2.1776,-2.0968 -4.151,-2.3341 -4.151,-2.3341 -4.2319,-0.3937 -2.3723,2.8086 -2.3723,2.8086 l 4.7443,4.1462 0.498,0.4366 2.505,-0.4839 0.1423,-0.0284 -0.1423,-4.189 z"
             style="fill:#231f20;fill-opacity:1;fill-rule:nonzero;stroke:none"
             id="path11615"
             inkscape:connector-curvature="0" />
          <path
             d="m 581.1242,389.8862 c -1.0885,0 -1.8094,0.2931 -2.1419,0.8714 -0.5468,0.9499 0.2081,2.2714 0.2401,2.3273 l 0.0491,0.0595 5.3294,4.659 2.9605,-0.574 -0.1375,-4.0436 0.0267,0 0.0739,-0.1293 c 0.0817,-0.1534 -0.0167,-0.2999 -0.1522,-0.5026 -0.3708,-0.5533 -1.2971,-0.6463 -1.4014,-0.6545 l -0.2571,-0.0218 0,0.0737 c -2.0438,-1.7895 -3.807,-2.0203 -3.8858,-2.0296 -0.2525,-0.0238 -0.4875,-0.0355 -0.7038,-0.0355 z m -1.5086,2.9285 0,0 c -0.1018,-0.1899 -0.5936,-1.1772 -0.2217,-1.8215 0.2957,-0.512 1.0678,-0.7232 2.384,-0.5998 0.0121,0.002 1.9221,0.2596 4.0087,2.2688 l 0.4017,0.3869 0,-0.6369 c 0.2508,0.0533 0.5777,0.161 0.7466,0.3504 l 0.1384,4.0801 -2.3344,0.451 -5.1233,-4.479 z"
             style="fill:#231f20;fill-opacity:1;fill-rule:nonzero;stroke:none"
             id="path11617"
             inkscape:connector-curvature="0" />
        </g>
        <g
           id="g11619">
          <path
             d="m 595.3445,390.1572 c 0,0 -1.9735,0.2373 -4.1511,2.3341 l 0,-0.3558 c 0,0 -0.9062,0.076 -1.224,0.5502 -0.3177,0.4746 0,0.1616 0,0.1616 l -0.1329,3.871 -0.009,0.318 2.6473,0.5123 0.3606,-0.313 4.8815,-4.2698 c 0,0 1.8598,-3.2023 -2.372,-2.8086"
             style="fill:#231f20;fill-opacity:1;fill-rule:nonzero;stroke:none"
             id="path11621"
             inkscape:connector-curvature="0" />
          <path
             d="m 596.0203,389.8862 c -0.2166,0 -0.4513,0.0117 -0.6979,0.0346 -0.0845,0.0102 -1.8479,0.2412 -3.892,2.0305 l 0,-0.0737 -0.2571,0.0218 c -0.1043,0.008 -1.0304,0.1012 -1.4009,0.6545 -0.1358,0.2027 -0.2338,0.3492 -0.1522,0.5026 l 0.0669,0.1256 0.0334,5e-4 -0.1369,4.0482 2.9591,0.5726 5.379,-4.7185 c 0.0323,-0.0559 0.7869,-1.3774 0.2401,-2.3276 -0.333,-0.578 -1.0533,-0.8711 -2.1415,-0.8711 z m -5.0641,3.1629 0,0 0.4013,-0.3869 c 2.0869,-2.0092 3.9966,-2.2671 4.0156,-2.2697 1.2793,-0.1179 2.0823,0.089 2.3774,0.6018 0.3305,0.5737 -0.0314,1.4766 -0.2205,1.8196 l -5.1239,4.4798 -2.3358,-0.4521 0.1395,-4.079 c 0.1687,-0.188 0.4978,-0.2963 0.7464,-0.3498 l 0,0.6363 z"
             style="fill:#231f20;fill-opacity:1;fill-rule:nonzero;stroke:none"
             id="path11623"
             inkscape:connector-curvature="0" />
        </g>
        <g
           id="g11625">
          <path
             d="m 591.6725,414.8555 c -0.9394,0.4459 -2.0778,1.0911 -2.6235,1.4471 0.2514,0.1565 0.517,0.2418 0.7543,0.2418 0.6928,0 1.6367,-0.7257 1.8692,-1.6889"
             style="fill:#c87815;fill-opacity:1;fill-rule:nonzero;stroke:none"
             id="path11627"
             inkscape:connector-curvature="0" />
          <path
             d="m 592.0197,414.428 -0.449,0.2132 c -0.9405,0.4467 -2.0866,1.0942 -2.651,1.4624 l -0.3118,0.2035 0.3158,0.1965 c 0.2917,0.1819 0.5961,0.278 0.8796,0.278 0.7798,0 1.8337,-0.7682 2.0996,-1.8705 l 0.1168,-0.4831 z m -2.4707,1.842 0,0 c 0.4539,-0.2738 1.0667,-0.6171 1.6617,-0.9218 -0.3472,0.568 -0.953,0.9589 -1.4074,0.9589 -0.0805,0 -0.1661,-0.0125 -0.2543,-0.0371"
             style="fill:#c87815;fill-opacity:1;fill-rule:nonzero;stroke:none"
             id="path11629"
             inkscape:connector-curvature="0" />
        </g>
        <g
           id="g11631">
          <path
             d="m 586.4397,416.3026 c -0.5457,-0.3512 -1.684,-1.0012 -2.6283,-1.4471 0.2325,0.9632 1.1767,1.6889 1.874,1.6889 0.2373,0 0.5029,-0.0853 0.7543,-0.2418"
             style="fill:#c87815;fill-opacity:1;fill-rule:nonzero;stroke:none"
             id="path11633"
             inkscape:connector-curvature="0" />
          <path
             d="m 583.4648,414.4292 0.1162,0.4819 c 0.2659,1.1023 1.3226,1.8705 2.1041,1.8705 0.2838,0 0.5879,-0.0961 0.8802,-0.278 l 0.318,-0.1982 -0.3152,-0.2027 c -0.5975,-0.3843 -1.7543,-1.036 -2.6552,-1.4618 l -0.4481,-0.2117 z m 2.2203,1.8779 0,0 c -0.4558,0 -1.0638,-0.3914 -1.4122,-0.9595 0.6112,0.3124 1.2257,0.6599 1.6642,0.923 -0.0873,0.024 -0.1723,0.0365 -0.252,0.0365"
             style="fill:#c87815;fill-opacity:1;fill-rule:nonzero;stroke:none"
             id="path11635"
             inkscape:connector-curvature="0" />
        </g>
        <g
           id="g11637">
          <path
             d="m 591.3493,416.9823 c -0.0924,0 -0.1805,0.0545 -0.2185,0.1452 -0.008,0.017 -0.2166,0.468 -0.8975,0.5689 -0.697,0.1037 -1.3357,-0.6251 -1.3419,-0.6321 -0.0862,-0.0995 -0.2358,-0.1097 -0.3348,-0.0244 -0.0992,0.0856 -0.1097,0.2355 -0.0243,0.3347 0.0331,0.038 0.822,0.9295 1.7705,0.7912 0.955,-0.1417 1.2529,-0.8255 1.2651,-0.8544 0.0507,-0.1207 -0.006,-0.2596 -0.1265,-0.3106 -0.0303,-0.0125 -0.0612,-0.0185 -0.0921,-0.0185"
             style="fill:#c87815;fill-opacity:1;fill-rule:nonzero;stroke:none"
             id="path11639"
             inkscape:connector-curvature="0" />
        </g>
        <g
           id="g11641">
          <path
             d="m 584.3384,416.9823 c -0.0309,0 -0.0621,0.006 -0.0921,0.0185 -0.1205,0.051 -0.1775,0.1899 -0.1267,0.3106 0.0121,0.0289 0.3101,0.7127 1.2653,0.8544 0.9508,0.138 1.7374,-0.7535 1.7703,-0.7912 0.0856,-0.0992 0.0745,-0.2483 -0.0244,-0.3342 -0.0981,-0.0858 -0.2483,-0.0751 -0.3342,0.0236 -0.006,0.007 -0.6508,0.7333 -1.3422,0.6324 -0.6826,-0.1012 -0.8955,-0.5644 -0.8975,-0.5689 -0.0382,-0.0907 -0.1261,-0.1452 -0.2185,-0.1452"
             style="fill:#c87815;fill-opacity:1;fill-rule:nonzero;stroke:none"
             id="path11643"
             inkscape:connector-curvature="0" />
        </g>
      </g>
    </g>
  </g>
</svg>
