<?xml version="1.0" encoding="UTF-8" standalone="no"?>
<!-- Created with Inkscape (http://www.inkscape.org/) -->

<svg
   xmlns:dc="http://purl.org/dc/elements/1.1/"
   xmlns:cc="http://creativecommons.org/ns#"
   xmlns:rdf="http://www.w3.org/1999/02/22-rdf-syntax-ns#"
   xmlns:svg="http://www.w3.org/2000/svg"
   xmlns="http://www.w3.org/2000/svg"
   xmlns:sodipodi="http://sodipodi.sourceforge.net/DTD/sodipodi-0.dtd"
   xmlns:inkscape="http://www.inkscape.org/namespaces/inkscape"
   width="42.381699mm"
   height="36.419403mm"
   viewBox="0 0 150.17137 129.04513"
   id="svg18874"
   version="1.1"
   inkscape:version="0.91 r13725"
   sodipodi:docname="fruto.svg">
  <defs
     id="defs18876" />
  <sodipodi:namedview
     id="base"
     pagecolor="#ffffff"
     bordercolor="#666666"
     borderopacity="1.0"
     inkscape:pageopacity="0.0"
     inkscape:pageshadow="2"
     inkscape:zoom="0.35"
     inkscape:cx="-374.20003"
     inkscape:cy="-152.62029"
     inkscape:document-units="px"
     inkscape:current-layer="layer1"
     showgrid="false"
     fit-margin-top="0"
     fit-margin-left="0"
     fit-margin-right="0"
     fit-margin-bottom="0"
     inkscape:window-width="1366"
     inkscape:window-height="744"
     inkscape:window-x="0"
     inkscape:window-y="24"
     inkscape:window-maximized="1" />
  <metadata
     id="metadata18879">
    <rdf:RDF>
      <cc:Work
         rdf:about="">
        <dc:format>image/svg+xml</dc:format>
        <dc:type
           rdf:resource="http://purl.org/dc/dcmitype/StillImage" />
        <dc:title></dc:title>
      </cc:Work>
    </rdf:RDF>
  </metadata>
  <g
     inkscape:label="Capa 1"
     inkscape:groupmode="layer"
     id="layer1"
     transform="translate(-213.48574,-250.69678)">
    <g
       transform="matrix(1.25,0,0,-1.25,-608.91476,830.89141)"
       id="g11773">
      <path
         d="m 689.4414,360.9196 -31.521,44.7933 49.034,58.4428 22.9215,-0.2149 48.1816,-57.0526 -6.6906,-9.5451 -25.17,-36.4235 -56.7555,0 z"
         style="fill:#949698;fill-opacity:1;fill-rule:nonzero;stroke:none"
         id="path11775"
         inkscape:connector-curvature="0" />
      <path
         d="m 769.8294,399.1255 -24.9639,-35.6018 -53.8262,0 -6.1668,8.7716 66.0155,0 18.9414,26.8302 z"
         style="fill:#3c63a8;fill-opacity:1;fill-rule:nonzero;stroke:none"
         id="path11777"
         inkscape:connector-curvature="0" />
      <path
         d="m 715.2557,461.321 0,-2.0803 -49.7092,-59.4511 -4.0471,5.7561 46.8468,55.7753 6.9095,0 z"
         style="fill:#3c63a8;fill-opacity:1;fill-rule:nonzero;stroke:none"
         id="path11779"
         inkscape:connector-curvature="0" />
      <path
         d="m 710.2298,437.8255 -30.3616,-37.5857 12.53,-17.2369 20.0344,0 0,-10.7076 -27.5601,0 -19.326,27.4943 49.7092,59.4511 0,-21.4152 -5.0259,0 z"
         style="fill:#dc2f33;fill-opacity:1;fill-rule:nonzero;stroke:none"
         id="path11781"
         inkscape:connector-curvature="0" />
      <path
         d="m 775.1483,406.7124 -4.6457,-6.6299 -49.8101,59.1582 -1.0794,0 0,2.0803 9.4402,0 46.095,-54.6086 z"
         style="fill:#3c63a8;fill-opacity:1;fill-rule:nonzero;stroke:none"
         id="path11783"
         inkscape:connector-curvature="0" />
      <path
         d="m 755.5119,401.0746 -11.8352,-18.0717 -21.2709,0 0,-10.7076 -9.9732,0 0,10.7076 -20.0344,0 -12.53,17.2369 30.3616,37.5857 5.0259,0 0,23.4955 4.3574,0 0,-23.4955 5.5635,0 30.3353,-36.7509 z"
         style="fill:#ffffff;fill-opacity:1;fill-rule:nonzero;stroke:none"
         id="path11785"
         inkscape:connector-curvature="0" />
      <path
         d="m 770.5026,400.0825 -0.4459,-0.6339 -0.2273,-0.3231 -18.9414,-26.8302 -28.4822,0 0,10.7076 21.2709,0 11.8352,18.0717 -30.3353,36.7509 -5.5635,0 0,21.4152 1.0794,0 49.8101,-59.1582 z"
         style="fill:#dc2f33;fill-opacity:1;fill-rule:nonzero;stroke:none"
         id="path11787"
         inkscape:connector-curvature="0" />
      <g
         id="g11789" />
      <g
         id="g11791" />
      <g
         id="g11793">
        <g
           id="g11795">
          <path
             d="m 676.2699,416.1067 c 0.1109,-0.0924 0.2087,-0.22 0.2923,-0.3824 0.0836,-0.1621 0.1386,-0.3543 0.1655,-0.5751 0.0269,-0.2211 0.003,-0.4553 -0.0708,-0.7025 -0.0743,-0.2471 -0.2121,-0.4918 -0.4145,-0.7347 -0.153,-0.1843 -0.3098,-0.337 -0.47,-0.4589 -0.1604,-0.1216 -0.3285,-0.2135 -0.5048,-0.275 -0.1758,-0.0615 -0.3674,-0.0935 -0.574,-0.0964 -0.1857,-8e-4 -0.3733,0.0224 -0.5633,0.0703 -0.1899,0.0479 -0.3753,0.1197 -0.5567,0.2152 -0.1806,0.0952 -0.358,0.2154 -0.5309,0.3594 -0.2807,0.2336 -0.4984,0.4836 -0.6526,0.7503 -0.1542,0.2665 -0.2463,0.5417 -0.2772,0.8255 -0.0317,0.2837 -0.003,0.5621 0.0845,0.8356 0.0876,0.2736 0.2276,0.5262 0.4206,0.7577 0.2353,0.2824 0.5012,0.487 0.7969,0.6137 0.2968,0.1268 0.5765,0.18 0.8399,0.1596 0.2639,-0.0207 0.4691,-0.0924 0.6162,-0.2148 0.0814,-0.0678 0.1296,-0.1556 0.1432,-0.2642 0.015,-0.1089 -0.0119,-0.2033 -0.0791,-0.284 -0.0754,-0.0908 -0.1531,-0.1409 -0.2333,-0.1506 -0.0808,-0.01 -0.197,0.002 -0.3475,0.0332 -0.2492,0.0516 -0.4694,0.0513 -0.6582,-0.002 -0.1894,-0.0536 -0.3606,-0.1709 -0.512,-0.3535 -0.2421,-0.2905 -0.324,-0.6137 -0.2463,-0.9694 0.0774,-0.3555 0.3189,-0.7027 0.7251,-1.0409 0.2713,-0.2256 0.5289,-0.3753 0.7724,-0.449 0.243,-0.0734 0.468,-0.0777 0.6727,-0.0122 0.2049,0.0658 0.3855,0.1925 0.5411,0.3796 0.1693,0.2032 0.2617,0.4167 0.2778,0.6412 0.0165,0.2242 -0.0436,0.4532 -0.1794,0.6871 -0.0672,0.1066 -0.1111,0.2063 -0.1315,0.299 -0.0213,0.0927 0.009,0.188 0.091,0.2863 0.07,0.0842 0.1596,0.1321 0.2684,0.1435 0.1086,0.0116 0.2069,-0.0193 0.2945,-0.0916"
             style="fill:#ffffff;fill-opacity:1;fill-rule:nonzero;stroke:none"
             id="path11797"
             inkscape:connector-curvature="0" />
          <path
             d="m 679.2945,418.3038 -0.5766,0.1979 -1.1806,-1.4187 0.309,-0.5392 c 0.1204,-0.2103 0.1922,-0.364 0.2148,-0.4606 0.0221,-0.0967 -0.01,-0.1976 -0.0969,-0.3022 -0.0737,-0.089 -0.1715,-0.1406 -0.2931,-0.1545 -0.1222,-0.0144 -0.2242,0.0131 -0.307,0.0817 -0.0479,0.0396 -0.0901,0.0884 -0.1276,0.1465 -0.0371,0.0581 -0.0861,0.1429 -0.1465,0.2548 l -1.5236,2.7786 c -0.0434,0.0793 -0.0964,0.1746 -0.1579,0.2865 -0.061,0.1117 -0.1055,0.2126 -0.1318,0.3034 -0.027,0.0907 -0.0318,0.1848 -0.0136,0.2811 0.017,0.097 0.066,0.1939 0.1462,0.2909 0.0819,0.0983 0.169,0.165 0.2617,0.1995 0.0918,0.0352 0.1845,0.0482 0.2766,0.04 0.0921,-0.008 0.184,-0.0269 0.2741,-0.055 0.0905,-0.0286 0.2098,-0.068 0.3583,-0.119 l 3.0107,-0.9624 c 0.2305,-0.0711 0.385,-0.1395 0.4626,-0.2041 0.0808,-0.0672 0.1267,-0.1627 0.1384,-0.286 0.0116,-0.1239 -0.0227,-0.233 -0.1021,-0.3283 -0.0462,-0.0552 -0.0955,-0.0946 -0.148,-0.1182 -0.0535,-0.0229 -0.108,-0.0337 -0.1644,-0.0326 -0.0567,0.002 -0.1332,0.0165 -0.2296,0.044 -0.0964,0.0278 -0.1808,0.0533 -0.2531,0.0759 z m -2.1331,-0.5938 0,0 0.8677,1.0426 -1.8782,0.6726 1.0105,-1.7152 z"
             style="fill:#ffffff;fill-opacity:1;fill-rule:nonzero;stroke:none"
             id="path11799"
             inkscape:connector-curvature="0" />
          <path
             d="m 681.1353,420.7813 -2.6892,1.2909 2.4089,-2.0044 c 0.1335,-0.1111 0.2086,-0.2245 0.2256,-0.3393 0.0173,-0.1148 -0.0153,-0.2214 -0.0972,-0.3197 -0.0794,-0.0953 -0.1766,-0.1454 -0.2928,-0.1511 -0.1157,-0.006 -0.241,0.0479 -0.3765,0.1602 l -2.7609,2.2977 c -0.1525,0.1267 -0.222,0.2515 -0.2095,0.3756 0.0133,0.1236 0.076,0.2526 0.1882,0.3875 l 0.1823,0.2188 c 0.1091,0.1321 0.2009,0.2175 0.2738,0.2574 0.074,0.0394 0.1528,0.0482 0.2387,0.0247 0.0859,-0.0227 0.2134,-0.074 0.3838,-0.1536 l 2.3332,-1.0834 -1.4896,2.0973 c -0.1092,0.1528 -0.1831,0.269 -0.2211,0.3492 -0.0383,0.0803 -0.044,0.1599 -0.0187,0.2393 0.026,0.0791 0.0935,0.1848 0.2032,0.3163 l 0.1823,0.2191 c 0.1122,0.135 0.2279,0.22 0.3464,0.2552 0.1199,0.0348 0.2554,-0.0108 0.4076,-0.1378 l 2.7609,-2.2975 c 0.1338,-0.1111 0.209,-0.2242 0.226,-0.3393 0.017,-0.1148 -0.0159,-0.2219 -0.099,-0.322 -0.0782,-0.0938 -0.1754,-0.1432 -0.2919,-0.148 -0.1171,-0.005 -0.2421,0.0482 -0.3759,0.1593 l -2.4086,2.0044 1.7583,-2.4094 c 0.114,-0.1568 0.195,-0.2744 0.2432,-0.3535 0.0482,-0.0794 0.0743,-0.1729 0.0783,-0.2809 0.004,-0.1083 -0.0394,-0.2166 -0.1307,-0.3263 -0.0689,-0.0825 -0.1446,-0.1375 -0.2273,-0.165 -0.0837,-0.0275 -0.1662,-0.0337 -0.2481,-0.0195 -0.0819,0.0144 -0.1644,0.0405 -0.2469,0.0785 -0.0827,0.038 -0.1684,0.0777 -0.2568,0.1193"
             style="fill:#ffffff;fill-opacity:1;fill-rule:nonzero;stroke:none"
             id="path11801"
             inkscape:connector-curvature="0" />
          <path
             d="m 683.7585,425.6289 -0.5386,-0.6475 0.9879,-0.8223 c 0.1414,-0.1174 0.2208,-0.2398 0.2384,-0.3674 0.0173,-0.1273 -0.0165,-0.2415 -0.1009,-0.343 -0.0885,-0.1063 -0.1962,-0.1621 -0.3221,-0.1672 -0.1264,-0.005 -0.2596,0.0507 -0.3994,0.1667 l -2.6895,2.2382 c -0.1553,0.1298 -0.2369,0.2579 -0.244,0.3847 -0.007,0.1269 0.0541,0.2681 0.1834,0.4235 l 0.7546,0.907 c 0.2233,0.2682 0.4152,0.4573 0.5771,0.5675 0.1582,0.1097 0.3268,0.178 0.5051,0.2055 0.1789,0.0273 0.3569,0.0125 0.5352,-0.0445 0.1783,-0.0569 0.3504,-0.1547 0.5173,-0.2933 0.3552,-0.296 0.5335,-0.6293 0.5349,-1.001 10e-4,-0.3716 -0.1788,-0.7738 -0.5394,-1.2069 z m -1.7422,1.1596 0,0 -0.396,-0.4762 1.0664,-0.8875 0.396,0.4762 c 0.1389,0.1667 0.237,0.3203 0.2951,0.4615 0.059,0.1408 0.0726,0.2735 0.0417,0.3982 -0.0301,0.125 -0.11,0.241 -0.2387,0.3478 -0.1539,0.1282 -0.3166,0.1871 -0.4884,0.1772 -0.1874,-0.0159 -0.4133,-0.1817 -0.6761,-0.4972"
             style="fill:#ffffff;fill-opacity:1;fill-rule:nonzero;stroke:none"
             id="path11803"
             inkscape:connector-curvature="0" />
          <path
             d="m 687.7335,428.4451 -0.576,0.1978 -1.1809,-1.4187 0.3093,-0.5389 c 0.1204,-0.2106 0.1916,-0.3642 0.2148,-0.4609 0.0221,-0.0967 -0.01,-0.1976 -0.0969,-0.3022 -0.0743,-0.089 -0.1721,-0.1406 -0.2937,-0.1545 -0.1222,-0.0144 -0.2236,0.0131 -0.3064,0.0817 -0.0479,0.0397 -0.0904,0.0887 -0.1281,0.1468 -0.0372,0.0578 -0.0862,0.1429 -0.1463,0.2546 l -1.5233,2.7788 c -0.044,0.0793 -0.0964,0.1746 -0.1582,0.2863 -0.0612,0.1117 -0.1055,0.2126 -0.1321,0.3036 -0.0269,0.0904 -0.0309,0.1845 -0.0136,0.2809 0.0176,0.0969 0.0663,0.1942 0.1468,0.2908 0.0819,0.0984 0.169,0.165 0.2611,0.1999 0.0921,0.0348 0.1845,0.0479 0.2766,0.0396 0.0922,-0.008 0.1846,-0.0269 0.2744,-0.055 0.0905,-0.0286 0.2101,-0.068 0.3581,-0.119 l 3.0112,-0.9624 c 0.2305,-0.0708 0.3849,-0.1392 0.4626,-0.2038 0.0808,-0.0672 0.1267,-0.1627 0.1378,-0.2863 0.0119,-0.1236 -0.0227,-0.2327 -0.1015,-0.3279 -0.0465,-0.0559 -0.0955,-0.095 -0.1485,-0.1185 -0.053,-0.023 -0.1075,-0.0338 -0.1642,-0.0324 -0.0564,0.002 -0.1332,0.0162 -0.2293,0.044 -0.0964,0.0278 -0.1808,0.053 -0.2537,0.0757 z m -2.1331,-0.5939 0,0 0.8677,1.0426 -1.8779,0.6729 1.0102,-1.7155 z"
             style="fill:#ffffff;fill-opacity:1;fill-rule:nonzero;stroke:none"
             id="path11805"
             inkscape:connector-curvature="0" />
          <path
             d="m 689.5743,430.9226 -2.6892,1.2908 2.4089,-2.0046 c 0.1338,-0.1108 0.2086,-0.2239 0.2259,-0.3388 0.017,-0.115 -0.0153,-0.2216 -0.0969,-0.32 -0.0794,-0.0949 -0.1772,-0.1454 -0.2929,-0.1511 -0.1162,-0.006 -0.2415,0.0477 -0.377,0.1602 l -2.7609,2.2978 c -0.1522,0.1267 -0.2214,0.2517 -0.2089,0.3755 0.0127,0.1236 0.0754,0.2529 0.1876,0.3878 l 0.1823,0.2189 c 0.1097,0.1318 0.201,0.2171 0.2741,0.2571 0.0737,0.0396 0.1528,0.0481 0.239,0.0249 0.0856,-0.0227 0.2134,-0.0743 0.3832,-0.1539 l 2.3338,-1.0834 -1.4899,2.0976 c -0.1094,0.1525 -0.1828,0.2687 -0.2208,0.349 -0.0389,0.0802 -0.0445,0.1598 -0.0193,0.2392 0.0261,0.0791 0.0938,0.1848 0.2032,0.3164 l 0.1823,0.2191 c 0.1123,0.1346 0.2279,0.2199 0.347,0.2551 0.1199,0.0349 0.2551,-0.0111 0.4076,-0.1378 l 2.7609,-2.2975 c 0.1335,-0.1111 0.2087,-0.2242 0.226,-0.339 0.017,-0.1151 -0.0165,-0.2222 -0.0995,-0.3223 -0.0777,-0.0935 -0.1749,-0.1431 -0.292,-0.1477 -0.1165,-0.005 -0.2415,0.0482 -0.375,0.1591 l -2.4089,2.0046 1.7577,-2.4094 c 0.114,-0.1568 0.1951,-0.2747 0.2435,-0.3538 0.0482,-0.0791 0.0746,-0.1726 0.0786,-0.2806 0.004,-0.1086 -0.04,-0.2169 -0.1307,-0.3266 -0.0686,-0.0825 -0.1449,-0.1375 -0.2279,-0.1649 -0.0834,-0.0273 -0.1661,-0.0338 -0.2481,-0.0193 -0.0819,0.0141 -0.1638,0.0405 -0.2466,0.0785 -0.0825,0.0377 -0.1686,0.0777 -0.2571,0.1191"
             style="fill:#ffffff;fill-opacity:1;fill-rule:nonzero;stroke:none"
             id="path11807"
             inkscape:connector-curvature="0" />
          <path
             d="m 691.399,438.0341 -1.3252,-1.5925 0.8569,-0.7129 1.2203,1.4664 c 0.0902,0.108 0.1814,0.168 0.2736,0.1811 0.0929,0.013 0.1788,-0.0136 0.2582,-0.0797 0.0794,-0.066 0.1222,-0.1462 0.129,-0.2403 0.006,-0.0936 -0.0363,-0.1953 -0.1276,-0.3051 l -1.2203,-1.466 0.9927,-0.826 1.3708,1.6472 c 0.0922,0.1108 0.188,0.1734 0.2866,0.1868 0.0981,0.0133 0.1902,-0.0156 0.2755,-0.0871 0.0828,-0.0686 0.1265,-0.1525 0.131,-0.2517 0.005,-0.0992 -0.0391,-0.2046 -0.1312,-0.3157 l -1.5985,-1.9208 c -0.1284,-0.1539 -0.2543,-0.2361 -0.379,-0.2469 -0.1241,-0.0105 -0.2625,0.0473 -0.4153,0.1743 l -2.6226,2.1827 c -0.1017,0.0848 -0.172,0.1684 -0.2114,0.2523 -0.0389,0.0836 -0.0465,0.1698 -0.0224,0.2585 0.0241,0.0887 0.0779,0.1831 0.1613,0.2832 l 1.5525,1.866 c 0.0941,0.1126 0.1888,0.1755 0.2843,0.1885 0.0952,0.0134 0.1837,-0.0138 0.2648,-0.0813 0.0822,-0.0686 0.1258,-0.1508 0.1301,-0.2472 0.005,-0.0967 -0.0403,-0.2013 -0.1341,-0.3138"
             style="fill:#ffffff;fill-opacity:1;fill-rule:nonzero;stroke:none"
             id="path11809"
             inkscape:connector-curvature="0" />
          <path
             d="m 692.708,439.9753 3.1879,-0.3524 -2.0761,1.7275 c -0.1347,0.1119 -0.2112,0.225 -0.231,0.3393 -0.019,0.1139 0.0121,0.2202 0.0941,0.3186 0.0844,0.1015 0.1854,0.1536 0.3007,0.1565 0.1171,0.002 0.2421,-0.0528 0.377,-0.1647 l 2.7448,-2.2839 c 0.3064,-0.2551 0.3538,-0.5091 0.1423,-0.7628 -0.0527,-0.0638 -0.11,-0.1131 -0.1701,-0.1488 -0.0606,-0.0355 -0.1289,-0.0593 -0.2058,-0.0706 -0.0768,-0.0116 -0.157,-0.0142 -0.2415,-0.008 -0.0853,0.006 -0.1715,0.0133 -0.2582,0.0215 l -3.1365,0.366 2.0446,-1.7017 c 0.1332,-0.1108 0.2081,-0.2256 0.2251,-0.3444 0.0167,-0.1185 -0.0153,-0.2262 -0.0956,-0.3229 -0.0833,-0.1 -0.1848,-0.1516 -0.3036,-0.1544 -0.1193,-0.003 -0.2449,0.0504 -0.3764,0.1598 l -2.6918,2.2405 c -0.1142,0.095 -0.1942,0.1826 -0.2378,0.262 -0.0459,0.0895 -0.0627,0.1879 -0.0499,0.2956 0.0128,0.1074 0.0527,0.2016 0.1199,0.2823 0.053,0.0638 0.1089,0.1092 0.167,0.1375 0.0581,0.0281 0.1196,0.0445 0.1822,0.0499 0.0635,0.005 0.1378,0.002 0.2228,-0.008 0.0854,-0.0105 0.1741,-0.0215 0.2659,-0.0337"
             style="fill:#ffffff;fill-opacity:1;fill-rule:nonzero;stroke:none"
             id="path11811"
             inkscape:connector-curvature="0" />
          <path
             d="m 697.0592,444.7587 -0.6415,-0.7713 2.5353,-2.1095 c 0.146,-0.1213 0.2265,-0.2444 0.2433,-0.3679 0.0164,-0.1239 -0.0185,-0.237 -0.1044,-0.3405 -0.0867,-0.1049 -0.193,-0.1604 -0.32,-0.1667 -0.1259,-0.006 -0.2611,0.0505 -0.4053,0.1704 l -2.5354,2.1095 -0.6417,-0.771 c -0.1004,-0.1207 -0.2016,-0.1882 -0.303,-0.2027 -0.1024,-0.0144 -0.1973,0.0145 -0.2844,0.0871 -0.0904,0.0754 -0.1369,0.1655 -0.1377,0.2701 -0.002,0.1046 0.0456,0.2149 0.142,0.3308 l 1.8697,2.247 c 0.1018,0.1222 0.2047,0.1902 0.3079,0.205 0.1037,0.0147 0.1992,-0.0145 0.2863,-0.087 0.087,-0.0726 0.1323,-0.1611 0.1352,-0.2657 0.003,-0.1046 -0.0459,-0.2168 -0.1463,-0.3376"
             style="fill:#ffffff;fill-opacity:1;fill-rule:nonzero;stroke:none"
             id="path11813"
             inkscape:connector-curvature="0" />
          <path
             d="m 698.2214,447.4621 c 0.3013,0.362 0.6333,0.6115 0.9958,0.749 0.3631,0.1372 0.7348,0.1598 1.1163,0.0683 0.3816,-0.0922 0.7552,-0.2897 1.12,-0.5933 0.2698,-0.2248 0.4841,-0.4655 0.644,-0.7217 0.1602,-0.2568 0.2599,-0.5253 0.3005,-0.8062 0.0402,-0.2806 0.0144,-0.5627 -0.0763,-0.847 -0.0912,-0.2837 -0.2514,-0.5627 -0.4799,-0.8373 -0.227,-0.273 -0.4745,-0.4808 -0.7421,-0.6234 -0.2676,-0.1426 -0.5417,-0.2194 -0.822,-0.2302 -0.2804,-0.0113 -0.5638,0.0403 -0.8504,0.154 -0.2869,0.1136 -0.5613,0.2795 -0.8229,0.4972 -0.2685,0.2233 -0.4825,0.4668 -0.6424,0.7296 -0.1598,0.2633 -0.2576,0.5332 -0.2928,0.8099 -0.0354,0.2766 -0.008,0.5544 0.0831,0.8333 0.091,0.279 0.2472,0.5514 0.4691,0.8178 z m 2.6314,-0.4889 0,0 c -0.2557,0.2126 -0.5119,0.3557 -0.7679,0.4288 -0.2557,0.0735 -0.4952,0.0732 -0.7189,3e-4 -0.2236,-0.0734 -0.4178,-0.2089 -0.583,-0.4073 -0.1174,-0.1412 -0.1993,-0.294 -0.2458,-0.4581 -0.0465,-0.1638 -0.055,-0.3314 -0.0255,-0.5026 0.0297,-0.1709 0.1029,-0.3472 0.2188,-0.5283 0.1165,-0.1812 0.2733,-0.3541 0.47,-0.5179 0.1981,-0.1647 0.3986,-0.2895 0.6001,-0.3725 0.2021,-0.0836 0.3934,-0.1236 0.5749,-0.1202 0.1814,0.004 0.3475,0.0425 0.4986,0.1174 0.1505,0.0745 0.2846,0.1825 0.4022,0.3237 0.1503,0.1811 0.2435,0.3846 0.2798,0.6114 0.0349,0.2268 -0.004,0.4638 -0.1182,0.7104 -0.1145,0.2469 -0.3096,0.4853 -0.5851,0.7149"
             style="fill:#ffffff;fill-opacity:1;fill-rule:nonzero;stroke:none"
             id="path11815"
             inkscape:connector-curvature="0" />
          <path
             d="m 704.7964,450.2747 c 0.2112,-0.1758 0.3554,-0.3878 0.4331,-0.6364 0.0777,-0.2483 0.0774,-0.5173 -0.002,-0.8059 -0.0794,-0.2888 -0.2387,-0.5766 -0.4776,-0.864 -0.2869,-0.3441 -0.5876,-0.5743 -0.9043,-0.6897 -0.2253,-0.0805 -0.4575,-0.1057 -0.6965,-0.0748 -0.2392,0.0309 -0.4325,0.1077 -0.5802,0.2307 -0.0853,0.0712 -0.1341,0.1622 -0.1454,0.2725 -0.0116,0.1102 0.021,0.2114 0.0972,0.3035 0.0624,0.0743 0.1383,0.1177 0.2288,0.1299 0.091,0.0116 0.1978,-0.003 0.3223,-0.0445 0.1479,-0.0479 0.2809,-0.0771 0.3979,-0.0876 0.1177,-0.0108 0.2396,0.0107 0.3654,0.0643 0.1267,0.0533 0.2537,0.1559 0.3804,0.3084 0.1741,0.2095 0.2668,0.4201 0.2778,0.6327 0.0119,0.2118 -0.0552,0.3787 -0.2012,0.5001 -0.1162,0.0966 -0.2395,0.1394 -0.3702,0.1289 -0.1313,-0.0105 -0.2625,-0.0558 -0.3935,-0.136 -0.1309,-0.0802 -0.2962,-0.1959 -0.4946,-0.3478 -0.2676,-0.2021 -0.5105,-0.3547 -0.7302,-0.4581 -0.2191,-0.1038 -0.438,-0.1486 -0.6557,-0.1349 -0.2185,0.0138 -0.4286,0.1046 -0.6301,0.2721 -0.1916,0.1596 -0.3186,0.354 -0.381,0.5831 -0.0618,0.229 -0.0505,0.4756 0.0346,0.7407 0.0847,0.2653 0.2387,0.5317 0.4617,0.7999 0.1783,0.2143 0.3595,0.3773 0.5426,0.4893 0.1834,0.1122 0.362,0.1831 0.536,0.2131 0.1738,0.0298 0.3291,0.0281 0.4652,-0.005 0.1366,-0.0332 0.2506,-0.0879 0.3427,-0.1644 0.0842,-0.07 0.1352,-0.163 0.1528,-0.2784 0.0184,-0.1159 -0.01,-0.2183 -0.0836,-0.307 -0.0675,-0.0808 -0.1392,-0.1256 -0.2143,-0.1341 -0.076,-0.008 -0.18,0.002 -0.313,0.0287 -0.1842,0.0465 -0.3506,0.0555 -0.4983,0.028 -0.1477,-0.0272 -0.3033,-0.1394 -0.4674,-0.3362 -0.1514,-0.1828 -0.2339,-0.3631 -0.2467,-0.5414 -0.0133,-0.1788 0.0363,-0.3149 0.1494,-0.4087 0.0695,-0.0581 0.1463,-0.0896 0.2285,-0.0933 0.0822,-0.004 0.1692,0.0116 0.2614,0.0479 0.0921,0.0363 0.1768,0.08 0.2545,0.131 0.0771,0.0513 0.201,0.1389 0.3716,0.2628 0.2098,0.1584 0.4085,0.2945 0.5973,0.4076 0.1876,0.1131 0.3682,0.1927 0.5406,0.2387 0.1726,0.0462 0.3452,0.0496 0.519,0.0113 0.1737,-0.0383 0.3486,-0.131 0.5247,-0.2775"
             style="fill:#ffffff;fill-opacity:1;fill-rule:nonzero;stroke:none"
             id="path11817"
             inkscape:connector-curvature="0" />
        </g>
      </g>
      <g
         id="g11819">
        <path
           d="m 736.3355,449.278 -1.8193,-1.5315 c -0.1582,-0.133 -0.2979,-0.239 -0.4198,-0.3192 -0.1219,-0.0794 -0.2599,-0.1435 -0.413,-0.1916 -0.2577,-0.082 -0.5165,-0.0769 -0.7758,0.015 -0.2591,0.0921 -0.4987,0.2684 -0.7181,0.5286 -0.1978,0.2359 -0.3259,0.4632 -0.3841,0.6826 -0.0578,0.2197 -0.0447,0.4476 0.0397,0.6832 0.0462,0.1253 0.1131,0.252 0.2019,0.3807 0.089,0.1284 0.1856,0.2369 0.2899,0.3245 0.1106,0.093 0.2211,0.1333 0.3311,0.1211 0.1103,-0.0128 0.2061,-0.0669 0.2872,-0.163 0.0785,-0.0933 0.1108,-0.1865 0.0969,-0.279 -0.0139,-0.0924 -0.0669,-0.1995 -0.1593,-0.3203 -0.0992,-0.1292 -0.1735,-0.2378 -0.2234,-0.3254 -0.0504,-0.0884 -0.0751,-0.1857 -0.0739,-0.2931 10e-4,-0.1069 0.0507,-0.2188 0.1494,-0.3356 0.2616,-0.3113 0.621,-0.275 1.0771,0.1091 l 1.9216,1.6172 c 0.142,0.1196 0.275,0.1783 0.3983,0.1757 0.1236,-0.002 0.2313,-0.0575 0.3217,-0.1649 0.0919,-0.1089 0.1284,-0.2257 0.1111,-0.3493 -0.0173,-0.1238 -0.0969,-0.2454 -0.2392,-0.3648"
           style="fill:#ffffff;fill-opacity:1;fill-rule:nonzero;stroke:none"
           id="path11821"
           inkscape:connector-curvature="0" />
        <path
           d="m 735.2422,447.1869 1.6699,1.4057 c 0.1423,0.1193 0.2758,0.1774 0.4008,0.1732 0.125,-0.004 0.2319,-0.0581 0.3194,-0.1627 0.0916,-0.1089 0.1287,-0.2254 0.1112,-0.349 -0.017,-0.1238 -0.0967,-0.2454 -0.239,-0.3651 l -1.7082,-1.4377 c -0.1938,-0.1636 -0.3378,-0.322 -0.4322,-0.4748 -0.0933,-0.1531 -0.1296,-0.3152 -0.1083,-0.4864 0.021,-0.1707 0.1151,-0.3561 0.2829,-0.5548 0.231,-0.2749 0.4677,-0.4076 0.7095,-0.3988 0.2415,0.009 0.5111,0.1389 0.8079,0.3889 l 1.7226,1.4494 c 0.1437,0.1207 0.2772,0.1797 0.4005,0.1754 0.1239,-0.004 0.2302,-0.0589 0.3195,-0.1647 0.089,-0.106 0.1258,-0.2211 0.1102,-0.3458 -0.0147,-0.1244 -0.0941,-0.2474 -0.2378,-0.3682 l -1.6702,-1.406 c -0.2718,-0.2287 -0.521,-0.3926 -0.7469,-0.4924 -0.2262,-0.1003 -0.47,-0.1343 -0.731,-0.1034 -0.2234,0.0283 -0.432,0.1034 -0.6271,0.225 -0.1941,0.1225 -0.3858,0.2957 -0.5745,0.5202 -0.2248,0.2667 -0.3895,0.5213 -0.4941,0.762 -0.1043,0.2415 -0.1477,0.4736 -0.129,0.697 0.0187,0.2231 0.0981,0.4425 0.2395,0.6585 0.1403,0.2154 0.3419,0.434 0.6044,0.6545"
           style="fill:#ffffff;fill-opacity:1;fill-rule:nonzero;stroke:none"
           id="path11823"
           inkscape:connector-curvature="0" />
        <path
           d="m 740.3386,444.4492 -1.6671,-2.7465 3.0096,1.1846 c 0.1576,0.0629 0.2698,0.1043 0.3347,0.1244 0.0658,0.0199 0.1378,0.0227 0.216,0.008 0.0791,-0.0145 0.1528,-0.0632 0.222,-0.1457 0.0507,-0.0595 0.0819,-0.1284 0.0955,-0.2047 0.0133,-0.0771 0.007,-0.1508 -0.0178,-0.2216 -0.0253,-0.0712 -0.0632,-0.1276 -0.114,-0.1704 -0.0346,-0.0295 -0.076,-0.0561 -0.1247,-0.0805 -0.0479,-0.0244 -0.0972,-0.0462 -0.148,-0.0641 -0.0507,-0.0184 -0.1026,-0.0379 -0.1553,-0.0581 l -2.9778,-1.0695 c -0.112,-0.0425 -0.22,-0.0819 -0.3234,-0.1182 -0.1035,-0.0354 -0.2016,-0.0584 -0.2934,-0.0689 -0.0927,-0.0102 -0.1857,0.001 -0.2787,0.0346 -0.0927,0.0337 -0.1794,0.0984 -0.2591,0.1931 -0.0799,0.0946 -0.1284,0.1907 -0.1468,0.2871 -0.0184,0.0969 -0.0136,0.1908 0.0136,0.2826 0.0267,0.091 0.0661,0.1846 0.1182,0.2795 0.0522,0.0953 0.1089,0.1945 0.1704,0.2977 l 1.5553,2.7206 c 0.0295,0.0491 0.057,0.0978 0.0837,0.146 0.0272,0.0479 0.0592,0.0967 0.0963,0.1457 0.0366,0.0488 0.0712,0.0865 0.1029,0.1131 0.0805,0.0678 0.1815,0.097 0.3022,0.0879 0.1208,-0.009 0.2228,-0.0618 0.3053,-0.1602 0.1009,-0.1199 0.1355,-0.2355 0.104,-0.3475 -0.0317,-0.1111 -0.106,-0.2605 -0.2236,-0.4487"
           style="fill:#ffffff;fill-opacity:1;fill-rule:nonzero;stroke:none"
           id="path11825"
           inkscape:connector-curvature="0" />
        <path
           d="m 744.4324,439.3009 -1.3337,1.5851 -0.8533,-0.7177 1.2286,-1.4593 c 0.0904,-0.1074 0.1335,-0.2083 0.1298,-0.3013 -0.004,-0.0938 -0.0445,-0.1732 -0.1236,-0.2398 -0.0791,-0.0666 -0.1655,-0.0947 -0.2593,-0.0845 -0.0933,0.0102 -0.1857,0.07 -0.2776,0.1789 l -1.2285,1.4596 -0.9879,-0.8317 1.3799,-1.6396 c 0.093,-0.1105 0.1372,-0.2149 0.1335,-0.3143 -0.005,-0.0995 -0.049,-0.1852 -0.1343,-0.2566 -0.0825,-0.0697 -0.1729,-0.0975 -0.2713,-0.0847 -0.0984,0.013 -0.1939,0.0745 -0.2871,0.1848 l -1.609,1.9122 c -0.129,0.1531 -0.1882,0.292 -0.1766,0.4167 0.0119,0.1239 0.0933,0.25 0.2449,0.3779 l 2.6107,2.1968 c 0.1015,0.0854 0.1959,0.1395 0.2852,0.1636 0.089,0.0238 0.1758,0.0161 0.2585,-0.0235 0.0834,-0.0394 0.167,-0.1083 0.2506,-0.2078 l 1.563,-1.8576 c 0.0947,-0.1122 0.1395,-0.2168 0.1358,-0.3132 -0.003,-0.0961 -0.0462,-0.1786 -0.127,-0.2463 -0.0819,-0.0692 -0.1706,-0.0972 -0.2662,-0.0845 -0.0955,0.0125 -0.1904,0.0746 -0.2851,0.1868"
           style="fill:#ffffff;fill-opacity:1;fill-rule:nonzero;stroke:none"
           id="path11827"
           inkscape:connector-curvature="0" />
        <path
           d="m 746.1122,437.6707 -0.9085,-3.0756 2.0662,1.7388 c 0.1343,0.1128 0.2588,0.1687 0.375,0.1678 0.1154,-0.002 0.2146,-0.0507 0.2971,-0.1488 0.085,-0.1015 0.1182,-0.2095 0.1006,-0.324 -0.0182,-0.1148 -0.0941,-0.2291 -0.2288,-0.3422 l -2.7317,-2.2989 c -0.3047,-0.2565 -0.5635,-0.2582 -0.7759,-0.006 -0.0535,0.0632 -0.0918,0.1275 -0.1162,0.1933 -0.0244,0.066 -0.036,0.1378 -0.0337,0.2151 0.003,0.0771 0.0142,0.1571 0.0348,0.2393 0.0216,0.083 0.0437,0.1661 0.0667,0.2509 l 0.913,3.0225 -2.035,-1.7129 c -0.1327,-0.1117 -0.2591,-0.1653 -0.3787,-0.1608 -0.1199,0.005 -0.2205,0.055 -0.3013,0.1508 -0.0839,0.1001 -0.1168,0.209 -0.0987,0.3263 0.0185,0.1182 0.0933,0.2322 0.2243,0.3422 l 2.6793,2.2552 c 0.1136,0.0958 0.214,0.1585 0.2999,0.1874 0.0963,0.03 0.1961,0.0286 0.2993,-0.003 0.1038,-0.0315 0.1896,-0.0879 0.2577,-0.1681 0.0533,-0.0632 0.0876,-0.1264 0.1057,-0.1882 0.017,-0.0626 0.0227,-0.1253 0.0164,-0.1885 -0.006,-0.0632 -0.0221,-0.1358 -0.0473,-0.2177 -0.0255,-0.0819 -0.0519,-0.1675 -0.0802,-0.2557"
           style="fill:#ffffff;fill-opacity:1;fill-rule:nonzero;stroke:none"
           id="path11829"
           inkscape:connector-curvature="0" />
        <path
           d="m 745.6564,432.648 2.7363,2.3031 c 0.1423,0.1197 0.2761,0.1766 0.4016,0.1718 0.1256,-0.005 0.2319,-0.0586 0.3184,-0.1613 0.0893,-0.1057 0.1258,-0.2213 0.1105,-0.3461 -0.015,-0.1244 -0.0944,-0.2474 -0.2381,-0.3682 l -2.7363,-2.3031 c -0.1437,-0.1208 -0.2789,-0.1783 -0.4051,-0.1727 -0.1264,0.005 -0.2338,0.0613 -0.3231,0.1673 -0.0848,0.1012 -0.1193,0.2146 -0.1023,0.3407 0.0167,0.1261 0.0961,0.2492 0.2381,0.3685"
           style="fill:#ffffff;fill-opacity:1;fill-rule:nonzero;stroke:none"
           id="path11831"
           inkscape:connector-curvature="0" />
        <path
           d="m 750.1578,432.8538 -2.5279,-2.1277 1.2004,-1.4264 c 0.0956,-0.1137 0.1415,-0.2239 0.1372,-0.3314 -0.004,-0.1071 -0.0482,-0.1964 -0.1318,-0.267 -0.085,-0.0714 -0.1794,-0.0998 -0.2829,-0.0844 -0.1032,0.0158 -0.2035,0.081 -0.3005,0.1964 l -1.4297,1.6985 c -0.129,0.1534 -0.188,0.292 -0.1764,0.4167 0.0117,0.1242 0.093,0.25 0.2447,0.3779 l 2.6745,2.2507 c 0.1423,0.1196 0.2758,0.1774 0.4005,0.1735 0.125,-0.005 0.2319,-0.0582 0.3195,-0.1628 0.089,-0.1054 0.1255,-0.2211 0.1108,-0.3458 -0.015,-0.1244 -0.0944,-0.2474 -0.2384,-0.3682"
           style="fill:#ffffff;fill-opacity:1;fill-rule:nonzero;stroke:none"
           id="path11833"
           inkscape:connector-curvature="0" />
        <path
           d="m 753.7255,428.2583 -1.3337,1.5851 -0.8532,-0.7177 1.2282,-1.4593 c 0.0901,-0.1074 0.1332,-0.2081 0.1304,-0.3013 -0.004,-0.0939 -0.0454,-0.1732 -0.1244,-0.2398 -0.0788,-0.0667 -0.165,-0.0947 -0.2588,-0.0845 -0.0936,0.0102 -0.1857,0.07 -0.2776,0.1789 l -1.2282,1.4595 -0.9882,-0.8317 1.3799,-1.6395 c 0.093,-0.1106 0.1375,-0.2149 0.1335,-0.3144 -0.005,-0.0995 -0.0496,-0.1848 -0.1349,-0.2565 -0.0822,-0.0698 -0.1723,-0.0975 -0.2704,-0.0848 -0.0987,0.0131 -0.1942,0.0746 -0.2874,0.1851 l -1.609,1.912 c -0.1292,0.1533 -0.1882,0.292 -0.1766,0.4167 0.0114,0.1241 0.093,0.25 0.2446,0.3781 l 2.6108,2.1966 c 0.1014,0.0853 0.1961,0.1395 0.2854,0.1635 0.0893,0.0239 0.1758,0.0162 0.2585,-0.0235 0.0834,-0.0391 0.1667,-0.1083 0.2506,-0.2078 l 1.563,-1.8578 c 0.0944,-0.112 0.1395,-0.2166 0.1358,-0.3129 -0.003,-0.0961 -0.0462,-0.1786 -0.1267,-0.2464 -0.0822,-0.0691 -0.1709,-0.0972 -0.2665,-0.0844 -0.0955,0.0124 -0.1907,0.0745 -0.2851,0.1868"
           style="fill:#ffffff;fill-opacity:1;fill-rule:nonzero;stroke:none"
           id="path11835"
           inkscape:connector-curvature="0" />
        <path
           d="m 754.7865,423.1644 c -0.2101,-0.1766 -0.4442,-0.2812 -0.703,-0.3138 -0.2585,-0.0326 -0.5227,0.0153 -0.7929,0.144 -0.2701,0.1284 -0.5258,0.3359 -0.7662,0.6219 -0.2885,0.3427 -0.4617,0.6801 -0.5198,1.012 -0.0397,0.2361 -0.023,0.4691 0.049,0.6987 0.0729,0.2297 0.1823,0.4062 0.3297,0.5301 0.085,0.0717 0.1831,0.1035 0.2936,0.0956 0.1106,-0.008 0.205,-0.0582 0.2818,-0.1494 0.0627,-0.0743 0.0916,-0.1571 0.0873,-0.2484 -0.004,-0.0912 -0.038,-0.1941 -0.1,-0.3089 -0.0737,-0.1372 -0.1262,-0.2631 -0.1565,-0.3765 -0.0315,-0.1142 -0.0321,-0.2378 -10e-4,-0.3713 0.0298,-0.1335 0.1089,-0.2767 0.2365,-0.4286 0.1754,-0.2084 0.3665,-0.3368 0.5734,-0.3849 0.2067,-0.0491 0.383,-0.012 0.5281,0.1102 0.1154,0.0972 0.1794,0.2112 0.1922,0.3416 0.0127,0.1307 -0.009,0.2676 -0.0646,0.411 -0.0559,0.1434 -0.1404,0.3263 -0.2552,0.5485 -0.1513,0.2988 -0.259,0.5652 -0.3223,0.7991 -0.0635,0.2339 -0.0691,0.4575 -0.017,0.6696 0.0516,0.2125 0.1783,0.4028 0.3787,0.5714 0.1911,0.161 0.4048,0.252 0.641,0.2727 0.2364,0.0207 0.477,-0.034 0.7236,-0.1641 0.2455,-0.1304 0.4814,-0.3291 0.7056,-0.5959 0.1794,-0.2134 0.3081,-0.4201 0.3863,-0.6202 0.078,-0.2001 0.1163,-0.3883 0.1148,-0.5649 -10e-4,-0.1763 -0.0297,-0.3288 -0.0861,-0.4573 -0.057,-0.1284 -0.1307,-0.2313 -0.222,-0.3086 -0.0842,-0.0703 -0.1848,-0.1041 -0.3019,-0.101 -0.1165,0.003 -0.2123,0.0477 -0.2865,0.1364 -0.0681,0.0802 -0.0995,0.1587 -0.0942,0.2344 0.005,0.076 0.0326,0.1766 0.0831,0.303 0.0779,0.1732 0.1162,0.3351 0.1151,0.4853 -6e-4,0.1505 -0.0836,0.3235 -0.2483,0.5193 -0.1534,0.1815 -0.3161,0.2946 -0.4896,0.3391 -0.1737,0.0439 -0.3158,0.0192 -0.4286,-0.0757 -0.0694,-0.0584 -0.1134,-0.1279 -0.1318,-0.2081 -0.0193,-0.0805 -0.019,-0.1692 10e-4,-0.2659 0.0193,-0.0975 0.0471,-0.1885 0.0837,-0.2738 0.0371,-0.0848 0.1012,-0.2222 0.1939,-0.4119 0.1184,-0.2347 0.2171,-0.4541 0.2953,-0.6596 0.0785,-0.2049 0.125,-0.3969 0.1401,-0.574 0.0144,-0.178 -0.0125,-0.3492 -0.0808,-0.5131 -0.0683,-0.1644 -0.1899,-0.3203 -0.3654,-0.468"
           style="fill:#ffffff;fill-opacity:1;fill-rule:nonzero;stroke:none"
           id="path11837"
           inkscape:connector-curvature="0" />
      </g>
      <g
         id="g11839">
        <g
           id="g11841">
          <path
             d="m 699.1974,367.1762 c 0,-0.1449 -0.0354,-0.3008 -0.1066,-0.4694 -0.0711,-0.1681 -0.1834,-0.3331 -0.3359,-0.4952 -0.1531,-0.1622 -0.3481,-0.294 -0.5856,-0.3949 -0.2373,-0.1012 -0.514,-0.1519 -0.8297,-0.1519 -0.2393,0 -0.4576,0.0229 -0.6534,0.0683 -0.1962,0.0453 -0.3742,0.1162 -0.5344,0.212 -0.1601,0.0961 -0.3069,0.2225 -0.4413,0.3796 -0.1196,0.1423 -0.222,0.3019 -0.3064,0.4784 -0.0845,0.1764 -0.148,0.3649 -0.1902,0.565 -0.0423,0.2004 -0.0638,0.413 -0.0638,0.6381 0,0.3654 0.0533,0.6925 0.1596,0.9816 0.1063,0.2889 0.2588,0.536 0.4566,0.7416 0.1982,0.2052 0.4303,0.3617 0.6968,0.4691 0.2662,0.1074 0.5499,0.161 0.8518,0.161 0.3674,0 0.6945,-0.0734 0.9816,-0.22 0.2869,-0.1465 0.5066,-0.3274 0.6594,-0.5434 0.1528,-0.2157 0.2293,-0.4195 0.2293,-0.6117 0,-0.1052 -0.0371,-0.1981 -0.1114,-0.2784 -0.0743,-0.0807 -0.1644,-0.121 -0.2693,-0.121 -0.1179,0 -0.2061,0.0281 -0.265,0.0836 -0.059,0.0559 -0.1242,0.152 -0.1965,0.288 -0.1199,0.2251 -0.2608,0.3932 -0.4229,0.5049 -0.1621,0.1114 -0.362,0.1672 -0.5992,0.1672 -0.3779,0 -0.6787,-0.1434 -0.9026,-0.4306 -0.2242,-0.2868 -0.3359,-0.6944 -0.3359,-1.2231 0,-0.3529 0.0493,-0.6466 0.1485,-0.881 0.099,-0.2342 0.2393,-0.4093 0.4213,-0.525 0.1817,-0.1154 0.3943,-0.1732 0.638,-0.1732 0.2642,0 0.4873,0.0655 0.6699,0.1965 0.1831,0.1312 0.3206,0.324 0.4135,0.5777 0.0394,0.1199 0.0882,0.2174 0.1457,0.2925 0.0576,0.0754 0.1506,0.1131 0.2787,0.1131 0.1094,0 0.2032,-0.0383 0.2817,-0.1145 0.0786,-0.0763 0.1177,-0.1712 0.1177,-0.2849"
             style="fill:#ffffff;fill-opacity:1;fill-rule:nonzero;stroke:none"
             id="path11843"
             inkscape:connector-curvature="0" />
          <path
             d="m 701.9141,370.3595 c 0.4708,0 0.8745,-0.0955 1.2121,-0.2863 0.3376,-0.1911 0.5933,-0.4626 0.7665,-0.8147 0.1735,-0.3518 0.2599,-0.7651 0.2599,-1.2401 0,-0.351 -0.0473,-0.6701 -0.142,-0.9567 -0.0952,-0.2872 -0.2378,-0.5361 -0.4277,-0.7464 -0.19,-0.2106 -0.423,-0.3716 -0.6996,-0.483 -0.277,-0.1117 -0.5936,-0.1675 -0.9508,-0.1675 -0.3551,0 -0.6732,0.0575 -0.9535,0.1723 -0.281,0.1142 -0.5151,0.2758 -0.703,0.4844 -0.1883,0.2084 -0.33,0.4593 -0.4258,0.7524 -0.0961,0.2931 -0.144,0.61 -0.144,0.9507 0,0.3489 0.0499,0.669 0.15,0.9598 0.1003,0.2914 0.2452,0.5392 0.4351,0.7435 0.1899,0.2041 0.4215,0.3606 0.6936,0.4689 0.2727,0.1086 0.5822,0.1627 0.9292,0.1627 z m 1.3068,-2.3349 0,0 c 0,0.3322 -0.0539,0.6205 -0.1613,0.864 -0.1072,0.2435 -0.2602,0.4277 -0.4595,0.5525 -0.1996,0.1253 -0.4283,0.1876 -0.686,0.1876 -0.184,0 -0.3538,-0.0346 -0.5097,-0.1037 -0.1556,-0.0692 -0.2897,-0.1698 -0.4025,-0.3022 -0.1125,-0.1321 -0.2012,-0.3008 -0.2662,-0.506 -0.0649,-0.2055 -0.0977,-0.4362 -0.0977,-0.6922 0,-0.2582 0.0328,-0.4912 0.0977,-0.6999 0.065,-0.2086 0.1571,-0.3812 0.2756,-0.5184 0.1187,-0.1375 0.2548,-0.2401 0.4084,-0.3082 0.1543,-0.0683 0.3229,-0.1023 0.5066,-0.1023 0.2353,0 0.4516,0.059 0.6488,0.1766 0.1973,0.1176 0.3538,0.2993 0.4709,0.5448 0.1165,0.2458 0.1749,0.548 0.1749,0.9074"
             style="fill:#ffffff;fill-opacity:1;fill-rule:nonzero;stroke:none"
             id="path11845"
             inkscape:connector-curvature="0" />
          <path
             d="m 705.7321,369.8022 0,-3.3041 1.8643,0 c 0.1486,0 0.2631,-0.0362 0.3425,-0.1085 0.0793,-0.0723 0.119,-0.1633 0.119,-0.2724 0,-0.1117 -0.0391,-0.2019 -0.1179,-0.271 -0.078,-0.0692 -0.1928,-0.1038 -0.3436,-0.1038 l -2.2201,0 c -0.2001,0 -0.3444,0.0445 -0.432,0.133 -0.0878,0.089 -0.1318,0.2324 -0.1318,0.4306 l 0,3.4962 c 0,0.186 0.042,0.3251 0.1256,0.4181 0.0836,0.0927 0.1936,0.1392 0.3297,0.1392 0.1383,0 0.2503,-0.0459 0.3359,-0.1378 0.0859,-0.0918 0.1284,-0.2318 0.1284,-0.4195"
             style="fill:#ffffff;fill-opacity:1;fill-rule:nonzero;stroke:none"
             id="path11847"
             inkscape:connector-curvature="0" />
          <path
             d="m 709.1237,370.2821 1.1983,0 c 0.3118,0 0.5794,-0.0289 0.8019,-0.0867 0.2231,-0.0579 0.4252,-0.1661 0.6072,-0.3252 0.4728,-0.4045 0.7092,-1.0199 0.7092,-1.8456 0,-0.2724 -0.0238,-0.5213 -0.0712,-0.7464 -0.0479,-0.225 -0.1207,-0.4277 -0.2199,-0.6083 -0.0995,-0.1808 -0.2262,-0.3421 -0.381,-0.4847 -0.1219,-0.1094 -0.2548,-0.1973 -0.3997,-0.2631 -0.1443,-0.0663 -0.2996,-0.1128 -0.466,-0.1394 -0.1661,-0.027 -0.3532,-0.0403 -0.5621,-0.0403 l -1.1985,0 c -0.167,0 -0.2928,0.0253 -0.3776,0.076 -0.0845,0.0502 -0.1394,0.1216 -0.1655,0.2134 -0.0258,0.0919 -0.0389,0.2112 -0.0389,0.3578 l 0,3.329 c 0,0.1981 0.0443,0.3416 0.133,0.4303 0.0887,0.0887 0.2327,0.1332 0.4308,0.1332 z m 0.3558,-0.7279 0,0 0,-3.081 0.697,0 c 0.1528,0 0.2724,0.004 0.3589,0.0125 0.087,0.008 0.1769,0.0289 0.2699,0.0618 0.0924,0.0331 0.1732,0.0796 0.2415,0.1394 0.3072,0.26 0.4615,0.7081 0.4615,1.3439 0,0.4479 -0.0681,0.7835 -0.2033,1.0066 -0.1349,0.2228 -0.3019,0.3648 -0.4997,0.4255 -0.1985,0.0609 -0.438,0.0913 -0.7189,0.0913 l -0.6069,0 z"
             style="fill:#ffffff;fill-opacity:1;fill-rule:nonzero;stroke:none"
             id="path11849"
             inkscape:connector-curvature="0" />
          <path
             d="m 716.1321,369.5729 -2.0718,0 0,-1.1149 1.9074,0 c 0.1406,0 0.2455,-0.0314 0.3147,-0.0944 0.0691,-0.0629 0.1037,-0.146 0.1037,-0.2491 0,-0.1032 -0.0343,-0.1874 -0.1026,-0.2523 -0.0678,-0.0652 -0.1732,-0.0978 -0.3158,-0.0978 l -1.9074,0 0,-1.2912 2.143,0 c 0.1443,0 0.2531,-0.0337 0.3265,-0.1006 0.0734,-0.0672 0.1103,-0.1565 0.1103,-0.2679 0,-0.1074 -0.0369,-0.1947 -0.1103,-0.2616 -0.0734,-0.0672 -0.1822,-0.1007 -0.3265,-0.1007 l -2.4993,0 c -0.2002,0 -0.3439,0.0445 -0.432,0.133 -0.0873,0.089 -0.1313,0.2324 -0.1313,0.4306 l 0,3.4126 c 0,0.1318 0.0196,0.2401 0.059,0.3237 0.0391,0.0833 0.1006,0.1443 0.184,0.1826 0.0836,0.0382 0.1904,0.0572 0.3203,0.0572 l 2.4281,0 c 0.1466,0 0.2551,-0.0326 0.3266,-0.0975 0.0711,-0.0652 0.1071,-0.1502 0.1071,-0.2554 0,-0.1074 -0.036,-0.1936 -0.1071,-0.2588 -0.0715,-0.0649 -0.18,-0.0975 -0.3266,-0.0975"
             style="fill:#ffffff;fill-opacity:1;fill-rule:nonzero;stroke:none"
             id="path11851"
             inkscape:connector-curvature="0" />
          <path
             d="m 719.0246,367.5107 -0.8422,0 0,-1.2853 c 0,-0.1836 -0.0433,-0.3231 -0.1301,-0.4181 -0.0867,-0.0949 -0.1964,-0.1425 -0.3282,-0.1425 -0.1384,0 -0.2498,0.047 -0.3345,0.1408 -0.0848,0.0944 -0.127,0.2319 -0.127,0.4136 l 0,3.4994 c 0,0.2021 0.0465,0.3467 0.1392,0.4334 0.0929,0.0867 0.2406,0.1301 0.443,0.1301 l 1.1798,0 c 0.3489,0 0.6174,-0.0269 0.8053,-0.0805 0.1857,-0.0516 0.3461,-0.1375 0.4813,-0.2568 0.1353,-0.1199 0.2379,-0.2665 0.3085,-0.4399 0.0697,-0.1735 0.1051,-0.3686 0.1051,-0.5854 0,-0.4623 -0.1426,-0.8127 -0.4274,-1.0511 -0.2849,-0.2387 -0.709,-0.3577 -1.2728,-0.3577 z m -0.2228,2.0809 0,0 -0.6194,0 0,-1.3873 0.6194,0 c 0.2168,0 0.3977,0.0227 0.5434,0.068 0.1454,0.0454 0.2562,0.1197 0.3328,0.2228 0.0762,0.1035 0.1148,0.2387 0.1148,0.4057 0,0.2004 -0.059,0.3634 -0.1769,0.4895 -0.1321,0.1341 -0.4036,0.2013 -0.8141,0.2013"
             style="fill:#ffffff;fill-opacity:1;fill-rule:nonzero;stroke:none"
             id="path11853"
             inkscape:connector-curvature="0" />
          <path
             d="m 723.3826,370.3595 c 0.4708,0 0.8745,-0.0955 1.2121,-0.2863 0.3376,-0.1911 0.5933,-0.4626 0.7665,-0.8147 0.1732,-0.3518 0.2599,-0.7651 0.2599,-1.2401 0,-0.351 -0.0473,-0.6701 -0.142,-0.9567 -0.0953,-0.2872 -0.2378,-0.5361 -0.4278,-0.7464 -0.1899,-0.2106 -0.4229,-0.3716 -0.6996,-0.483 -0.2769,-0.1117 -0.5935,-0.1675 -0.9507,-0.1675 -0.3552,0 -0.6732,0.0575 -0.9536,0.1723 -0.2809,0.1142 -0.515,0.2758 -0.703,0.4844 -0.1882,0.2084 -0.3296,0.4593 -0.4257,0.7524 -0.0961,0.2931 -0.144,0.61 -0.144,0.9507 0,0.3489 0.0502,0.669 0.1499,0.9598 0.1004,0.2914 0.2455,0.5392 0.4354,0.7435 0.19,0.2041 0.421,0.3606 0.6934,0.4689 0.2727,0.1086 0.5822,0.1627 0.9292,0.1627 z m 1.3068,-2.3349 0,0 c 0,0.3322 -0.0536,0.6205 -0.1613,0.864 -0.1072,0.2435 -0.2603,0.4277 -0.4598,0.5525 -0.199,0.1253 -0.428,0.1876 -0.6857,0.1876 -0.184,0 -0.3538,-0.0346 -0.5097,-0.1037 -0.1556,-0.0692 -0.2897,-0.1698 -0.4025,-0.3022 -0.1125,-0.1321 -0.2013,-0.3008 -0.2662,-0.506 -0.0649,-0.2055 -0.0978,-0.4362 -0.0978,-0.6922 0,-0.2582 0.0329,-0.4912 0.0978,-0.6999 0.0649,-0.2086 0.1571,-0.3812 0.2758,-0.5184 0.1185,-0.1375 0.2549,-0.2401 0.4085,-0.3082 0.1539,-0.0683 0.3226,-0.1023 0.5066,-0.1023 0.2349,0 0.4515,0.059 0.6485,0.1766 0.1973,0.1176 0.3541,0.2993 0.4709,0.5448 0.1165,0.2458 0.1749,0.548 0.1749,0.9074"
             style="fill:#ffffff;fill-opacity:1;fill-rule:nonzero;stroke:none"
             id="path11855"
             inkscape:connector-curvature="0" />
          <path
             d="m 727.5353,367.6839 -0.3223,0 0,-1.4585 c 0,-0.1919 -0.0422,-0.3333 -0.1267,-0.424 -0.085,-0.091 -0.195,-0.1366 -0.3316,-0.1366 -0.1463,0 -0.26,0.0476 -0.3405,0.1425 -0.0802,0.095 -0.1207,0.2345 -0.1207,0.4181 l 0,3.4932 c 0,0.1981 0.0442,0.3416 0.1332,0.4303 0.0884,0.0887 0.2324,0.1332 0.4306,0.1332 l 1.4953,0 c 0.2066,0 0.3829,-0.009 0.5298,-0.0264 0.1462,-0.0175 0.2786,-0.053 0.3965,-0.1068 0.142,-0.0598 0.2679,-0.1454 0.3776,-0.2571 0.1094,-0.1114 0.1925,-0.241 0.2492,-0.3884 0.0569,-0.1477 0.085,-0.3041 0.085,-0.4694 0,-0.3384 -0.0952,-0.6089 -0.2863,-0.8113 -0.1908,-0.2024 -0.4805,-0.3458 -0.8685,-0.4305 0.163,-0.0865 0.3189,-0.2146 0.4677,-0.3839 0.1485,-0.1692 0.2812,-0.3495 0.3977,-0.5402 0.1165,-0.1911 0.2075,-0.3634 0.2727,-0.5174 0.0649,-0.1536 0.0975,-0.2593 0.0975,-0.3172 0,-0.0601 -0.0193,-0.1193 -0.0573,-0.178 -0.0385,-0.0589 -0.0904,-0.1054 -0.1567,-0.1394 -0.0658,-0.0341 -0.142,-0.0513 -0.2288,-0.0513 -0.1032,0 -0.1902,0.0246 -0.2602,0.0728 -0.07,0.0485 -0.1307,0.11 -0.1808,0.1845 -0.0511,0.0743 -0.1197,0.1837 -0.2064,0.328 l -0.3682,0.6131 c -0.1324,0.2251 -0.2506,0.3966 -0.3546,0.5142 -0.1044,0.1177 -0.2101,0.1982 -0.3175,0.2416 -0.1075,0.0433 -0.2427,0.0649 -0.4057,0.0649 z m 0.5264,1.9077 0,0 -0.8487,0 0,-1.2481 0.8238,0 c 0.2211,0 0.4068,0.0193 0.5573,0.0575 0.1508,0.038 0.2662,0.1029 0.3455,0.1948 0.0794,0.0918 0.1194,0.2185 0.1194,0.3795 0,0.1259 -0.0318,0.237 -0.0959,0.3328 -0.064,0.0961 -0.153,0.1678 -0.2664,0.2155 -0.1074,0.0453 -0.3192,0.068 -0.635,0.068"
             style="fill:#ffffff;fill-opacity:1;fill-rule:nonzero;stroke:none"
             id="path11857"
             inkscape:connector-curvature="0" />
          <path
             d="m 733.3849,369.5236 -1.0032,0 0,-3.2982 c 0,-0.1899 -0.0422,-0.3308 -0.1267,-0.4226 -0.085,-0.0918 -0.1944,-0.138 -0.3282,-0.138 -0.1361,0 -0.2478,0.0467 -0.3331,0.1394 -0.0856,0.093 -0.1284,0.2333 -0.1284,0.4212 l 0,3.2982 -1.0035,0 c -0.157,0 -0.2735,0.0345 -0.3498,0.1034 -0.0765,0.0692 -0.1145,0.1605 -0.1145,0.2741 0,0.1177 0.0397,0.2106 0.1191,0.2787 0.0793,0.0683 0.1947,0.1023 0.3452,0.1023 l 2.9231,0 c 0.1593,0 0.2775,-0.0351 0.3549,-0.1052 0.0771,-0.0703 0.1159,-0.1621 0.1159,-0.2758 0,-0.1136 -0.0391,-0.2049 -0.1176,-0.2741 -0.0785,-0.0689 -0.1959,-0.1034 -0.3532,-0.1034"
             style="fill:#ffffff;fill-opacity:1;fill-rule:nonzero;stroke:none"
             id="path11859"
             inkscape:connector-curvature="0" />
          <path
             d="m 737.2848,369.5729 -2.0718,0 0,-1.1149 1.9074,0 c 0.1403,0 0.2455,-0.0314 0.3147,-0.0944 0.0691,-0.0629 0.1037,-0.146 0.1037,-0.2491 0,-0.1032 -0.0343,-0.1874 -0.1026,-0.2523 -0.0678,-0.0652 -0.1732,-0.0978 -0.3158,-0.0978 l -1.9074,0 0,-1.2912 2.143,0 c 0.1443,0 0.2531,-0.0337 0.3265,-0.1006 0.0734,-0.0672 0.1103,-0.1565 0.1103,-0.2679 0,-0.1074 -0.0369,-0.1947 -0.1103,-0.2616 -0.0734,-0.0672 -0.1822,-0.1007 -0.3265,-0.1007 l -2.4993,0 c -0.2002,0 -0.3442,0.0445 -0.4318,0.133 -0.0875,0.089 -0.1315,0.2324 -0.1315,0.4306 l 0,3.4126 c 0,0.1318 0.0196,0.2401 0.0587,0.3237 0.0394,0.0833 0.1009,0.1443 0.184,0.1826 0.0836,0.0382 0.1907,0.0572 0.3206,0.0572 l 2.4281,0 c 0.1463,0 0.2551,-0.0326 0.3266,-0.0975 0.0711,-0.0652 0.1071,-0.1502 0.1071,-0.2554 0,-0.1074 -0.036,-0.1936 -0.1071,-0.2588 -0.0715,-0.0649 -0.1803,-0.0975 -0.3266,-0.0975"
             style="fill:#ffffff;fill-opacity:1;fill-rule:nonzero;stroke:none"
             id="path11861"
             inkscape:connector-curvature="0" />
          <path
             d="m 741.8653,367.105 c 0,-0.2746 -0.0708,-0.5213 -0.2123,-0.7401 -0.1417,-0.2188 -0.3487,-0.3903 -0.6211,-0.5142 -0.2727,-0.1239 -0.5955,-0.1859 -0.9691,-0.1859 -0.4482,0 -0.8178,0.0847 -1.1089,0.2539 -0.2061,0.1219 -0.3739,0.2846 -0.5032,0.4879 -0.1287,0.2032 -0.1933,0.4011 -0.1933,0.593 0,0.1117 0.0388,0.2069 0.1162,0.2866 0.0771,0.0793 0.1758,0.119 0.2957,0.119 0.0969,0 0.1788,-0.0309 0.2463,-0.0929 0.0669,-0.0618 0.1241,-0.154 0.1715,-0.2753 0.0581,-0.1448 0.1205,-0.2656 0.1874,-0.3625 0.0669,-0.097 0.1618,-0.1772 0.2834,-0.2401 0.1219,-0.063 0.2818,-0.0944 0.4802,-0.0944 0.2724,0 0.4938,0.0635 0.6642,0.1905 0.17,0.1269 0.2557,0.2854 0.2557,0.4753 0,0.1508 -0.0463,0.273 -0.1381,0.3671 -0.0918,0.0938 -0.2109,0.1656 -0.3563,0.2152 -0.1454,0.0496 -0.3402,0.102 -0.5834,0.1579 -0.3265,0.0762 -0.5992,0.1655 -0.8192,0.2678 -0.2197,0.1021 -0.3943,0.2415 -0.5236,0.4181 -0.1289,0.1764 -0.1933,0.3958 -0.1933,0.658 0,0.2497 0.0683,0.4716 0.2044,0.6658 0.1361,0.1939 0.3334,0.3433 0.5916,0.4473 0.2577,0.1043 0.5613,0.1565 0.9105,0.1565 0.2786,0 0.5193,-0.0346 0.7228,-0.1038 0.2033,-0.0691 0.3722,-0.161 0.5063,-0.2755 0.1343,-0.1148 0.2321,-0.235 0.2945,-0.3608 0.0618,-0.1259 0.0924,-0.2489 0.0924,-0.3685 0,-0.1095 -0.0385,-0.2081 -0.1159,-0.296 -0.0774,-0.0876 -0.1738,-0.1312 -0.2894,-0.1312 -0.1055,0 -0.1851,0.0261 -0.2404,0.0791 -0.0544,0.0521 -0.114,0.1386 -0.178,0.2582 -0.0822,0.1715 -0.1812,0.3053 -0.2971,0.4011 -0.1154,0.0961 -0.3016,0.144 -0.5573,0.144 -0.2378,0 -0.4289,-0.0521 -0.5743,-0.1565 -0.1457,-0.104 -0.2185,-0.2296 -0.2185,-0.3761 0,-0.091 0.0246,-0.1692 0.0739,-0.2353 0.0496,-0.066 0.118,-0.123 0.2047,-0.1704 0.0865,-0.0473 0.1746,-0.0844 0.2633,-0.1114 0.0888,-0.0269 0.2353,-0.0663 0.4397,-0.1179 0.256,-0.0598 0.4876,-0.1258 0.695,-0.1978 0.2075,-0.0726 0.3841,-0.1602 0.5298,-0.2634 0.1455,-0.1034 0.2591,-0.2338 0.3405,-0.3917 0.0816,-0.1579 0.1227,-0.3515 0.1227,-0.5806"
             style="fill:#ffffff;fill-opacity:1;fill-rule:nonzero;stroke:none"
             id="path11863"
             inkscape:connector-curvature="0" />
        </g>
      </g>
      <g
         id="g11865">
        <g
           id="g11867">
          <path
             d="m 728.5728,411.5716 c 0,-0.8422 -0.0516,-1.673 -0.1548,-2.475 -0.1547,-1.2316 -0.4181,-2.4176 -0.7903,-3.5232 -1.2948,-3.9299 -3.8213,-6.9604 -6.9205,-8.1921 -0.8421,-0.3379 -1.7243,-0.5386 -2.641,-0.5902 -0.1548,-0.0113 -0.3152,-0.017 -0.4754,-0.017 -1.4896,0 -2.9046,0.4009 -4.1992,1.1228 -0.8535,0.4697 -1.6501,1.0885 -2.3718,1.8162 -1.3118,1.3232 -2.3947,3.0246 -3.1566,4.9955 -0.8019,2.0506 -1.2546,4.388 -1.2546,6.863 0,3.2023 0.7506,6.1582 2.0282,8.5759 0.2063,0.3895 0.4237,0.7619 0.6531,1.1171 0.1029,0.1661 0.212,0.3266 0.3265,0.4811 0.8878,1.2662 1.9364,2.3201 3.1107,3.105 0.8193,0.5443 1.7014,0.9567 2.6238,1.2144 0.0859,0.023 0.1774,0.0462 0.2633,0.0689 0.6418,0.1604 1.3006,0.2406 1.9766,0.2406 0.3895,0 0.7677,-0.0286 1.1458,-0.0802 1.6784,-0.235 3.2539,-0.9853 4.623,-2.1311 1.6098,-1.3405 2.9503,-3.2312 3.8614,-5.4765 0.8592,-2.1084 1.3518,-4.5374 1.3518,-7.1152"
             style="fill:#4d0b00;fill-opacity:1;fill-rule:nonzero;stroke:none"
             id="path11869"
             inkscape:connector-curvature="0" />
          <path
             d="m 717.5906,396.4876 c -1.4993,0 -2.9589,0.39 -4.3385,1.159 -0.8558,0.4712 -1.6761,1.099 -2.4358,1.8647 -1.3411,1.353 -2.4542,3.1144 -3.2201,5.0938 -0.8331,2.1306 -1.2739,4.54 -1.2739,6.9665 0,3.1467 0.7126,6.1585 2.061,8.7097 0.2092,0.3946 0.4329,0.7775 0.6659,1.1384 0.1049,0.1689 0.218,0.3359 0.337,0.4966 0.9148,1.3045 1.9868,2.3743 3.1816,3.1723 0.8561,0.5686 1.7657,0.9898 2.7057,1.2523 l 0.2662,0.0697 c 1.0366,0.2588 2.0934,0.3229 3.2354,0.1679 1.685,-0.2362 3.3336,-0.995 4.7688,-2.1958 1.6548,-1.3782 3.018,-3.3111 3.9424,-5.5885 0.898,-2.2031 1.3728,-4.7007 1.3728,-7.2226 0,-0.8561 -0.0524,-1.7011 -0.1565,-2.5115 -0.159,-1.262 -0.4294,-2.4662 -0.8033,-3.5782 -1.3379,-4.0587 -3.9209,-7.109 -7.0863,-8.3668 -0.8765,-0.352 -1.7958,-0.5572 -2.7304,-0.6097 -0.1564,-0.0119 -0.324,-0.0178 -0.492,-0.0178 z m 0,29.6005 0,0 c -0.65,0 -1.2915,-0.078 -1.9072,-0.2319 l -0.2588,-0.0678 c -0.8785,-0.2454 -1.7337,-0.6414 -2.5393,-1.1763 -1.1347,-0.7586 -2.1563,-1.7782 -3.0347,-3.0308 -0.1146,-0.1548 -0.2186,-0.3087 -0.3175,-0.468 -0.2262,-0.351 -0.4422,-0.7198 -0.6435,-1.0999 -1.3048,-2.469 -1.9945,-5.3881 -1.9945,-8.4418 0,-2.3559 0.4269,-4.6931 1.2354,-6.7587 0.7373,-1.9074 1.8068,-3.6011 3.0932,-4.8983 0.7205,-0.7268 1.4964,-1.3212 2.3059,-1.7668 1.2946,-0.7217 2.6606,-1.0874 4.061,-1.0874 0.1533,0 0.3067,0.005 0.4538,0.0168 0.8784,0.0493 1.7365,0.2409 2.5563,0.57 3.0087,1.1954 5.4703,4.1171 6.7552,8.0158 0.3626,1.0775 0.6239,2.2439 0.7781,3.4693 0.1012,0.7872 0.1522,1.6076 0.1522,2.4393 0,2.4482 -0.4597,4.8713 -1.3303,7.0072 -0.8889,2.1903 -2.196,4.0456 -3.7797,5.3646 -1.3527,1.1318 -2.9018,1.8465 -4.4796,2.0676 -0.3815,0.0516 -0.7432,0.0771 -1.106,0.0771"
             style="fill:#9a4439;fill-opacity:1;fill-rule:nonzero;stroke:none"
             id="path11871"
             inkscape:connector-curvature="0" />
        </g>
        <g
           id="g11873">
          <path
             d="m 716.6781,396.6497 c -1.442,2.289 -2.9829,5.2917 -2.9829,6.8556 0,0.6503 0.2948,1.4043 0.9555,2.4452 0.281,0.4453 0.6067,0.9136 0.9457,1.402 0.739,1.0635 1.5763,2.2694 2.1211,3.5144 0.6733,1.5355 0.7991,2.9086 0.3853,4.1975 -0.2705,0.8436 -0.4652,1.8386 -0.5791,2.9574 -0.0865,0.8629 -0.1234,1.8048 -0.1103,2.8052 0.0235,1.9797 0.3084,4.4299 0.4722,5.5658 l 0.5673,-0.0822 c -0.1625,-1.1217 -0.4437,-3.5405 -0.4666,-5.4907 -0.0125,-0.9791 0.0235,-1.8992 0.1068,-2.7349 0.1103,-1.0842 0.2971,-2.0401 0.5556,-2.8454 0.4581,-1.4278 0.3249,-2.9333 -0.4062,-4.6023 -0.5672,-1.2966 -1.4216,-2.5266 -2.1759,-3.6119 -0.3339,-0.4808 -0.655,-0.9423 -0.932,-1.3814 -0.5913,-0.9317 -0.8665,-1.6112 -0.8665,-2.1387 0,-1.4437 1.559,-4.4308 2.8947,-6.55 l -0.4847,-0.3056 z"
             style="fill:#9a4439;fill-opacity:1;fill-rule:nonzero;stroke:none"
             id="path11875"
             inkscape:connector-curvature="0" />
        </g>
        <g
           id="g11877">
          <path
             d="m 713.101,397.679 c -0.0368,0.0518 -0.0737,0.1111 -0.1034,0.17 -0.8382,1.4485 -2.2587,4.1313 -2.2587,5.6563 0,1.1149 0.883,2.3862 1.9052,3.8579 0.2092,0.3011 0.4235,0.6095 0.6355,0.9253 0.9941,1.4788 1.9335,3.0838 2.0784,4.7965 0.0621,0.6766 -0.0105,1.3416 -0.2166,1.9788 -0.2965,0.9278 -0.4975,2.0098 -0.5975,3.2154 l -10e-4,0.0581 c -0.0748,0.7758 -0.104,1.6367 -0.0856,2.5322 0.0241,1.7954 0.2081,3.9994 0.3694,5.1607 l 0.5672,-0.0788 c -0.1587,-1.144 -0.3402,-3.3174 -0.3637,-5.0918 -0.0184,-0.8754 0.0102,-1.7144 0.0845,-2.4954 l 10e-4,-0.0615 c 0.0955,-1.139 0.288,-2.1776 0.5712,-3.0634 0.2293,-0.7106 0.3107,-1.4525 0.2418,-2.2045 -0.1556,-1.8411 -1.1364,-3.5229 -2.1733,-5.0661 -0.2138,-0.318 -0.4298,-0.629 -0.6407,-0.932 -0.9674,-1.393 -1.8025,-2.5963 -1.8025,-3.5314 0,-1.0012 0.8184,-3.0144 2.1895,-5.3847 0.0246,-0.0482 0.0459,-0.0805 0.066,-0.1089 l -0.4666,-0.3327 z"
             style="fill:#9a4439;fill-opacity:1;fill-rule:nonzero;stroke:none"
             id="path11879"
             inkscape:connector-curvature="0" />
        </g>
        <path
           d="m 728.3489,408.8112 c -0.1548,-1.2317 -0.4181,-2.4177 -0.7906,-3.5232 -1.3748,-0.4241 -3.4257,-0.1777 -5.3277,0.4754 -2.4117,0.8308 -4.5544,4.7721 -3.1623,5.1559 1.3977,0.3838 2.2915,-0.9967 2.2915,-0.9967 0,0 0.7849,-1.3348 2.8531,-1.163 1.2143,0.0975 2.9273,0.0802 4.136,0.0516"
           style="fill:#ffffff;fill-opacity:1;fill-rule:nonzero;stroke:none"
           id="path11881"
           inkscape:connector-curvature="0" />
        <path
           d="m 726.2527,417.4092 c 0,-1.5239 -1.4894,-2.7612 -3.3285,-2.7612 -1.8388,0 -3.3284,1.2373 -3.3284,2.7612 0,0.2004 0.0286,0.4008 0.0802,0.5899 0.9567,-0.0286 1.965,-0.0343 2.956,-0.0229 -0.057,-0.1775 -0.0859,-0.3666 -0.0859,-0.567 0,-0.9453 0.6704,-1.7129 1.4953,-1.7129 0.8308,0 1.5009,0.7676 1.5009,1.7129 0,0.2174 -0.0343,0.4295 -0.1032,0.6185 0.2463,0.006 0.487,0.0173 0.716,0.0287 0.0633,-0.2061 0.0976,-0.4241 0.0976,-0.6472"
           style="fill:#ffffff;fill-opacity:1;fill-rule:nonzero;stroke:none"
           id="path11883"
           inkscape:connector-curvature="0" />
        <path
           d="m 725.5423,417.3185 c 0,-1.0834 -0.7682,-1.9635 -1.7203,-1.9635 -0.9457,0 -1.7142,0.8801 -1.7142,1.9635 0,0.2299 0.0329,0.4468 0.0987,0.6503 1.1098,0 2.2062,0.0195 3.2176,0.0589 0.0788,-0.2165 0.1182,-0.4594 0.1182,-0.7092"
           style="fill:#231f20;fill-opacity:1;fill-rule:nonzero;stroke:none"
           id="path11885"
           inkscape:connector-curvature="0" />
        <path
           d="m 720.1287,429.8978 c -0.0516,-0.189 -0.6704,-2.2399 -1.3921,-3.6034 -0.3781,0.0516 -0.7563,0.0802 -1.1458,0.0802 -0.676,0 -1.3348,-0.0802 -1.9766,-0.2406 -0.0859,-0.0227 -0.1774,-0.0459 -0.2633,-0.0689 -0.0746,0.3495 -0.1261,0.7506 -0.0918,1.146 0.0515,0.6242 0.3208,1.2201 1.0485,1.5353 1.9077,0.8249 3.0705,0.252 3.8211,1.1514"
           style="fill:#009444;fill-opacity:1;fill-rule:nonzero;stroke:none"
           id="path11887"
           inkscape:connector-curvature="0" />
        <path
           d="m 715.6142,426.134 c -0.0859,-0.0227 -0.1774,-0.0459 -0.2633,-0.0689 -0.9224,-0.2577 -1.8045,-0.6701 -2.6238,-1.2144 -1.3634,0.8765 -3.1509,2.8302 -3.1509,2.8302 1.0768,-0.4927 1.8618,0.5442 3.9529,0.6471 0.8881,0.0459 1.415,-0.487 1.73,-1.1169 0.1777,-0.3551 0.2865,-0.7449 0.3551,-1.0771"
           style="fill:#009444;fill-opacity:1;fill-rule:nonzero;stroke:none"
           id="path11889"
           inkscape:connector-curvature="0" />
        <g
           id="g11891">
          <path
             d="m 718.2247,406.3079 c 0,0 0.5663,6.152 -1.9199,6.6509 -2.4863,0.4986 -3.1669,-0.4606 -3.6579,-1.6852 -0.4909,-1.2245 2.086,-5.8802 4.4139,-8.1249 2.3278,-2.2445 3.1226,-4.9842 4.8869,-5.7342 1.764,-0.7503 4.5156,-0.1684 4.3038,0.4969 -0.212,0.665 -1.6565,0.383 -2.2073,0.4986 -0.5508,0.1157 -2.0965,1.9953 -2.0965,1.9953 0,0 1.099,0.0831 2.0965,0.8314 0.9975,0.7481 -0.7849,1.4134 -2.0965,1.4964 -1.3122,0.0831 -3.7658,2.8316 -3.723,3.5748"
             style="fill:#4d0b00;fill-opacity:1;fill-rule:nonzero;stroke:none"
             id="path11893"
             inkscape:connector-curvature="0" />
          <path
             d="m 723.8974,396.7756 c -0.5381,0 -1.3326,0.0652 -2.0617,0.3753 -1.0528,0.4473 -1.7617,1.5128 -2.5818,2.7465 -0.6429,0.966 -1.3711,2.0607 -2.3916,3.0452 -2.2915,2.2091 -5.0445,7.0328 -4.4813,8.4376 0.3878,0.9675 0.9499,1.9993 2.7185,1.9993 0.373,0 0.7974,-0.0468 1.2614,-0.14 2.7079,-0.5432 2.173,-6.696 2.1489,-6.9577 -0.0312,-0.5448 2.2553,-3.187 3.4557,-3.2629 0.9003,-0.057 2.4098,-0.4213 2.6289,-1.1563 0.0522,-0.1743 0.0723,-0.5173 -0.3787,-0.8552 -0.6259,-0.4697 -1.285,-0.6934 -1.7263,-0.7982 0.6539,-0.7521 1.3822,-1.4704 1.6132,-1.5191 0.1193,-0.025 0.3245,-0.0267 0.508,-0.0267 l 0.2055,3e-4 c 0.5958,0 1.4964,0 1.7084,-0.6656 0.053,-0.1666 0.0207,-0.3427 -0.0907,-0.4952 -0.3654,-0.4997 -1.571,-0.7273 -2.5364,-0.7273 z m -8.7979,16.0313 0,0 c -1.279,0 -1.7703,-0.6012 -2.187,-1.6398 -0.3977,-0.9919 1.9664,-5.5165 4.347,-7.812 1.0658,-1.0276 1.8127,-2.1501 2.4712,-3.1405 0.7696,-1.1572 1.4343,-2.1564 2.329,-2.5368 0.6403,-0.2721 1.3526,-0.3296 1.8377,-0.3296 1.2393,0 2.0208,0.3537 2.0812,0.5048 -0.0851,0.2378 -0.813,0.2378 -1.1625,0.2378 l -0.2055,-5e-4 c -0.2308,0 -0.4525,0.003 -0.6254,0.0394 -0.6026,0.1267 -1.881,1.6344 -2.2586,2.0936 l -0.3484,0.4235 0.5471,0.044 c 0.0105,8e-4 1.0329,0.0898 1.9468,0.775 0.0465,0.0348 0.197,0.1547 0.1735,0.2327 -0.0839,0.282 -1.0769,0.6829 -2.1158,0.7486 -1.472,0.0933 -4.0416,3.0008 -3.9912,3.8772 0.1511,1.6495 0.1409,5.9863 -1.6905,6.3533 -0.4269,0.0859 -0.8136,0.1293 -1.1486,0.1293"
             style="fill:#9a4439;fill-opacity:1;fill-rule:nonzero;stroke:none"
             id="path11895"
             inkscape:connector-curvature="0" />
        </g>
        <g
           id="g11897">
          <path
             d="m 729.5295,394.4942 c 0,0 -1.9077,-1.0828 -5.4881,-3.3287 -3.5748,-2.2399 -2.8242,1.8332 -2.8242,1.8332 l -3.151,3.7924 c 0.9167,0.0516 1.7989,0.2523 2.641,0.5902 l 2.217,-2.9732 c 0,0 1.455,0.5845 4.1134,1.0828 2.658,0.4983 2.4919,-0.9967 2.4919,-0.9967"
             style="fill:#4d0b00;fill-opacity:1;fill-rule:nonzero;stroke:none"
             id="path11899"
             inkscape:connector-curvature="0" />
          <path
             d="m 722.281,390.2066 c -0.4059,0 -0.7477,0.1525 -0.9878,0.441 -0.5505,0.6608 -0.4397,1.8502 -0.3793,2.2683 l -3.0682,3.6924 c -0.0686,0.0834 -0.0856,0.1982 -0.042,0.2974 0.0431,0.0992 0.1383,0.1658 0.2463,0.1715 0.8728,0.0493 1.7309,0.2409 2.5507,0.57 0.1202,0.0482 0.2596,0.01 0.3359,-0.0947 l 2.0885,-2.8006 c 0.493,0.1775 1.844,0.6239 3.9598,1.0202 1.2186,0.229 2.0724,0.0862 2.5222,-0.4164 0.3512,-0.3926 0.3127,-0.8433 0.307,-0.8932 -0.0102,-0.0916 -0.0638,-0.1724 -0.1431,-0.2177 -0.019,-0.0108 -1.9449,-1.1064 -5.4777,-3.3219 -0.7693,-0.4819 -1.3947,-0.7163 -1.9123,-0.7163 z m -3.6459,6.3479 0,0 2.8023,-3.3727 c 0.0545,-0.0652 0.0769,-0.1514 0.0616,-0.2347 -0.0689,-0.377 -0.161,-1.4593 0.2344,-1.9332 0.3529,-0.4244 1.0956,-0.269 2.1555,0.3945 2.982,1.8698 4.8248,2.9461 5.3464,3.2468 -0.0165,0.0899 -0.0579,0.2129 -0.1613,0.3249 -0.3011,0.328 -1.006,0.411 -1.984,0.229 -2.5928,-0.4861 -4.0447,-1.061 -4.0586,-1.0666 -0.1208,-0.0488 -0.2591,-0.01 -0.3362,0.0944 l -2.0875,2.7989 c -0.6397,-0.2384 -1.3005,-0.3997 -1.9726,-0.4813"
             style="fill:#9a4439;fill-opacity:1;fill-rule:nonzero;stroke:none"
             id="path11901"
             inkscape:connector-curvature="0" />
        </g>
        <g
           id="g11903">
          <path
             d="m 713.9818,390.4954 c -1.8275,-0.1604 -4.4056,2.4174 -4.4056,2.4174 l -1.8273,1.3521 c 0,0 -0.3325,1.0599 0.4984,1.6441 0.6701,0.4697 2.2113,2.8874 2.7725,3.8041 0.7217,-0.7277 1.5183,-1.3465 2.3718,-1.8162 -0.6072,-0.5615 -2.7669,-2.6237 -2.3661,-3.3227 0.464,-0.8079 1.5985,-2.3259 2.3202,-2.492 0.722,-0.1661 2.4633,-1.4323 0.6361,-1.5868"
             style="fill:#4d0b00;fill-opacity:1;fill-rule:nonzero;stroke:none"
             id="path11905"
             inkscape:connector-curvature="0" />
          <path
             d="m 713.8145,390.2017 c -1.9105,0 -4.3387,2.4061 -4.441,2.5084 l -1.7955,1.3246 c -0.0485,0.036 -0.0842,0.0868 -0.1026,0.1446 -0.0159,0.0513 -0.3832,1.2671 0.6069,1.9641 0.5012,0.3512 1.7135,2.1206 2.6932,3.7191 0.0465,0.0748 0.1242,0.1247 0.2115,0.1349 0.0873,0.0119 0.1746,-0.0201 0.2361,-0.0828 0.7211,-0.7268 1.497,-1.3212 2.3065,-1.7668 0.0808,-0.0445 0.135,-0.1247 0.146,-0.2163 0.0111,-0.0912 -0.0224,-0.1822 -0.0896,-0.2449 -1.9116,-1.768 -2.4324,-2.7598 -2.3119,-2.9696 0.5156,-0.8968 1.5775,-2.2271 2.1359,-2.3556 0.5318,-0.1227 1.713,-0.8098 1.6648,-1.483 -0.0275,-0.3858 -0.3869,-0.6106 -1.0692,-0.6684 -0.0618,-0.006 -0.127,-0.008 -0.1911,-0.008 z m -5.813,4.2324 0,0 1.7453,-1.2911 c 0.057,-0.0525 2.5175,-2.5155 4.2097,-2.3621 0.4672,0.0394 0.5494,0.1465 0.55,0.1476 0.005,0.1905 -0.7362,0.762 -1.2252,0.8745 -0.8648,0.1993 -2.0605,1.857 -2.5041,2.6286 -0.3402,0.5921 0.3787,1.7388 2.137,3.4106 -0.6395,0.387 -1.2557,0.8615 -1.8388,1.4157 -0.57,-0.9125 -1.9794,-3.1037 -2.6634,-3.5833 -0.5332,-0.375 -0.4584,-1.0109 -0.4105,-1.2405"
             style="fill:#9a4439;fill-opacity:1;fill-rule:nonzero;stroke:none"
             id="path11907"
             inkscape:connector-curvature="0" />
        </g>
        <g
           id="g11909">
          <path
             d="m 706.6086,411.5716 c 0,-2.475 0.4527,-4.8124 1.2546,-6.863 -0.6015,-0.235 -1.4434,-0.4586 -2.6065,-0.5732 -3.3284,-0.3322 -4.159,0.8309 -4.9898,2.7443 -0.8306,1.9133 1.1631,4.3939 1.1631,4.3939 l 0,5.9981 c 0,0 -0.1662,4.3252 3.5744,4.5715 1.971,0.1318 3.0538,-0.7906 3.6324,-1.6957 -1.2776,-2.4177 -2.0282,-5.3736 -2.0282,-8.5759"
             style="fill:#4d0b00;fill-opacity:1;fill-rule:nonzero;stroke:none"
             id="path11911"
             inkscape:connector-curvature="0" />
          <path
             d="m 704.2088,403.7924 c -2.6995,0 -3.4731,1.2887 -4.205,2.9733 -0.8112,1.8694 0.7889,4.1423 1.1396,4.6057 l 0,5.9003 c -0.002,0.0349 -0.131,4.5959 3.8423,4.8572 2.1646,0.1454 3.3205,-0.9323 3.892,-1.8275 l 0.0901,-0.1403 -0.0776,-0.1477 c -1.3054,-2.469 -1.9951,-5.3881 -1.9951,-8.4418 0,-2.3559 0.4269,-4.6931 1.2354,-6.7587 l 0.104,-0.267 -0.267,-0.1043 c -0.7432,-0.2903 -1.6464,-0.489 -2.683,-0.591 -0.3844,-0.0383 -0.7464,-0.0582 -1.0757,-0.0582 z m 1.1675,17.7767 0,0 c -0.1142,0 -0.2318,-0.004 -0.3526,-0.0119 -3.4237,-0.2251 -3.3143,-4.1091 -3.3074,-4.2744 l 0,-6.1098 -0.0633,-0.0788 c -0.0184,-0.0235 -1.8745,-2.3698 -1.1233,-4.1003 0.6894,-1.5877 1.3175,-2.6283 3.6791,-2.6283 0.3103,0 0.6533,0.0184 1.0193,0.055 0.8626,0.0848 1.6223,0.2384 2.2646,0.4575 -0.7665,2.0628 -1.1704,4.3702 -1.1704,6.6935 0,3.0843 0.6848,6.0395 1.982,8.5578 -0.6685,0.9555 -1.6526,1.4397 -2.928,1.4397"
             style="fill:#9a4439;fill-opacity:1;fill-rule:nonzero;stroke:none"
             id="path11913"
             inkscape:connector-curvature="0" />
        </g>
        <g
           id="g11915">
          <path
             d="m 734.6052,421.2646 c 0,0 -3.2425,-2.2915 -5.1559,-2.8644 -0.4011,-0.1202 -1.1974,-0.212 -2.2283,-0.2866 -0.3322,-0.0226 -0.6877,-0.0399 -1.0659,-0.0572 -0.229,-0.0114 -5.5224,-0.0859 -6.4791,-0.0573 -1.7135,0.0326 -3.2729,0.1117 -4.3186,0.2333 -0.4226,0.049 -1.8346,0.438 -2.3162,0.6358 -1.292,0.5307 -2.783,1.3017 -3.7513,1.8235 0.1029,0.1662 0.212,0.3266 0.3265,0.4811 2.3488,-0.1605 7.0005,-0.4524 7.9744,-0.3665 1.3119,0.1145 2.9291,2.4854 3.8381,2.7499 0.9094,0.2644 1.3405,0.1088 1.9307,0.0343 2.6238,-0.3036 4.3251,-2.0109 6.6626,-2.3259 2.8644,-0.3838 4.583,0 4.583,0"
             style="fill:#4d0b00;fill-opacity:1;fill-rule:nonzero;stroke:none"
             id="path11917"
             inkscape:connector-curvature="0" />
          <path
             d="m 720.4232,417.7063 c -0.3373,0 -0.6021,0.002 -0.7557,0.006 -1.7881,0.0343 -3.3316,0.118 -4.3432,0.2353 -0.4465,0.0522 -1.8769,0.4439 -2.3916,0.6554 -1.2901,0.5301 -2.7669,1.2912 -3.7792,1.8363 -0.0692,0.0377 -0.1207,0.1023 -0.1409,0.1785 -0.0201,0.0766 -0.008,0.1579 0.0335,0.2251 0.108,0.1726 0.2211,0.3396 0.3401,0.5003 0.0581,0.0786 0.1534,0.1219 0.2498,0.1154 1.4734,-0.1003 6.8845,-0.4561 7.9293,-0.3671 0.6594,0.0576 1.4862,0.8462 2.2156,1.5418 0.5998,0.5723 1.1177,1.0667 1.5684,1.1976 0.6902,0.2004 1.2597,0.1644 1.7538,0.0868 0.0949,-0.0153 0.191,-0.0304 0.2925,-0.0431 1.4125,-0.1633 2.5549,-0.7155 3.6598,-1.249 0.9933,-0.4796 1.9307,-0.9329 3.0048,-1.0774 0.8319,-0.1114 1.6477,-0.1681 2.423,-0.1681 1.3039,0 2.0526,0.1624 2.0599,0.1641 0.1321,0.0289 0.2685,-0.0388 0.324,-0.1641 0.0553,-0.1247 0.0151,-0.271 -0.0969,-0.3495 -0.1335,-0.0947 -3.3029,-2.3256 -5.2387,-2.905 -0.3915,-0.1176 -1.1407,-0.2148 -2.2895,-0.2976 -0.3354,-0.0233 -0.6928,-0.0405 -1.0738,-0.0581 -0.1885,-0.009 -3.9407,-0.0638 -5.745,-0.0638 z m -10.7229,3.0906 0,0 c 0.9805,-0.5224 2.2949,-1.1888 3.4501,-1.6639 0.4626,-0.1899 1.8445,-0.5701 2.2399,-0.6163 0.9935,-0.1151 2.5177,-0.1973 4.2911,-0.2313 0.1533,-0.004 0.4116,-0.006 0.7418,-0.006 1.7337,0 5.533,0.0541 5.7175,0.0635 0.3773,0.0173 0.7302,0.034 1.0607,0.057 1.0905,0.0785 1.8193,0.1712 2.1657,0.2749 1.2078,0.3617 2.9914,1.4482 4.0907,2.1634 -0.2804,-0.0181 -0.6058,-0.0306 -0.974,-0.0306 -6e-4,0 0,0 -6e-4,0 -0.8011,0 -1.6421,0.0581 -2.499,0.1732 -1.1648,0.1568 -2.1886,0.6514 -3.1782,1.1296 -1.0619,0.5128 -2.16,1.0432 -3.4793,1.1959 -0.1102,0.0136 -0.212,0.0298 -0.3126,0.0457 -0.466,0.0731 -0.9102,0.1017 -1.5049,-0.0709 -0.3164,-0.0918 -0.8331,-0.5851 -1.3326,-1.0618 -0.798,-0.7609 -1.7019,-1.6232 -2.5614,-1.698 -0.1264,-0.0113 -0.3126,-0.0167 -0.5465,-0.0167 -1.6659,0 -5.8329,0.2715 -7.3137,0.3719 -0.0184,-0.0264 -0.0368,-0.0527 -0.0547,-0.0794"
             style="fill:#9a4439;fill-opacity:1;fill-rule:nonzero;stroke:none"
             id="path11919"
             inkscape:connector-curvature="0" />
        </g>
        <g
           id="g11921">
          <path
             d="m 704.3012,415.6251 c 0.538,-0.0439 1.1934,-0.0116 1.8269,0.2418 l -0.6392,-8.0759 c 0,0 -2.0914,-0.9876 -2.7306,0 -0.639,0.9879 0,8.0759 0,8.0759 0,0 0.8475,-0.1848 1.5429,-0.2418"
             style="fill:#4d0b00;fill-opacity:1;fill-rule:nonzero;stroke:none"
             id="path11923"
             inkscape:connector-curvature="0" />
          <path
             d="m 703.7504,407.0656 c -0.7138,0 -1.0638,0.3098 -1.2322,0.5701 -0.6596,1.0187 -0.1531,7.0571 -0.0451,8.257 0.007,0.0819 0.0499,0.1567 0.1159,0.2052 0.0667,0.0488 0.15,0.0666 0.2305,0.0488 0.009,-0.002 0.8368,-0.1814 1.5055,-0.2361 0.1187,-0.01 0.2438,-0.0156 0.3739,-0.0156 0.4833,0 0.9283,0.0799 1.3229,0.2381 0.0918,0.0371 0.1959,0.0235 0.2764,-0.0355 0.0793,-0.0586 0.123,-0.1545 0.1153,-0.2531 l -0.6389,-8.0762 c -0.008,-0.1023 -0.07,-0.1925 -0.163,-0.2364 -0.0408,-0.019 -0.9978,-0.4663 -1.8612,-0.4663 z m -0.7345,8.4572 0,0 c -0.2321,-2.7258 -0.4274,-6.9424 -0.017,-7.5759 0.1344,-0.2075 0.3802,-0.3084 0.7515,-0.3084 0.5522,0 1.1843,0.2313 1.4669,0.3469 l 0.5913,7.475 c -0.3466,-0.0918 -0.7188,-0.1383 -1.1097,-0.1383 -0.1463,0 -0.2866,0.007 -0.421,0.0173 -0.447,0.0365 -0.9459,0.123 -1.262,0.1834"
             style="fill:#9a4439;fill-opacity:1;fill-rule:nonzero;stroke:none"
             id="path11925"
             inkscape:connector-curvature="0" />
        </g>
        <g
           id="g11927">
          <path
             d="m 702.6214,414.1264 c 0.3268,-0.0859 0.7392,-0.1774 1.1973,-0.2347 0.3495,-0.0516 0.7277,-0.0802 1.1115,-0.0745 0.3495,0.006 0.699,0.0399 1.0426,0.1145 l -3.3514,0.1947 z"
             style="fill:#5b1600;fill-opacity:1;fill-rule:nonzero;stroke:none"
             id="path11929"
             inkscape:connector-curvature="0" />
          <path
             d="m 704.8335,413.6734 c -0.3418,0 -0.6897,0.0256 -1.0355,0.0763 -0.3875,0.0488 -0.7968,0.129 -1.2129,0.2384 -0.0766,0.0201 -0.1225,0.0984 -0.1024,0.1746 0.0207,0.0763 0.0961,0.1236 0.1752,0.1023 0.4045,-0.1063 0.8005,-0.1839 1.1787,-0.2313 0.3671,-0.0541 0.7373,-0.0785 1.0916,-0.0734 0.3591,0.006 0.7001,0.0434 1.0142,0.1114 0.0766,0.017 0.1534,-0.0326 0.1701,-0.1094 0.0167,-0.0774 -0.032,-0.1534 -0.1097,-0.1704 -0.3317,-0.072 -0.6919,-0.1119 -1.0701,-0.1182 -0.0331,-3e-4 -0.066,-3e-4 -0.0992,-3e-4"
             style="fill:#9a4439;fill-opacity:1;fill-rule:nonzero;stroke:none"
             id="path11931"
             inkscape:connector-curvature="0" />
        </g>
        <g
           id="g11933">
          <path
             d="m 702.5641,413.1754 c 0.3095,-0.0859 0.7276,-0.1891 1.1973,-0.2577 0.3496,-0.0572 0.7277,-0.0918 1.1172,-0.0975 0.3325,0 0.676,0.0173 1.0142,0.0802 l -3.3287,0.275 z"
             style="fill:#5b1600;fill-opacity:1;fill-rule:nonzero;stroke:none"
             id="path11935"
             inkscape:connector-curvature="0" />
          <path
             d="m 704.8789,412.6771 c -0.3909,0.006 -0.7742,0.0394 -1.1401,0.0995 -0.3855,0.0558 -0.7827,0.1414 -1.2124,0.261 -0.0768,0.021 -0.1208,0.0998 -0.1001,0.1764 0.0219,0.0765 0.1029,0.121 0.1761,0.0994 0.4186,-0.1162 0.8044,-0.1992 1.18,-0.2537 0.3546,-0.0583 0.7237,-0.0907 1.0987,-0.0963 0.3861,0 0.6999,0.0246 0.9851,0.0779 0.0813,0.0165 0.1528,-0.0371 0.1675,-0.1145 0.0145,-0.0777 -0.0371,-0.1528 -0.1148,-0.167 -0.3033,-0.0567 -0.6333,-0.0827 -1.04,-0.0827"
             style="fill:#9a4439;fill-opacity:1;fill-rule:nonzero;stroke:none"
             id="path11937"
             inkscape:connector-curvature="0" />
        </g>
        <g
           id="g11939">
          <path
             d="m 702.5068,411.9897 c 0.3152,-0.0859 0.739,-0.1891 1.209,-0.258 0.3492,-0.0513 0.7274,-0.0859 1.1169,-0.0859 0.3208,0 0.6474,0.023 0.9683,0.0802 l -3.2942,0.2637 z"
             style="fill:#5b1600;fill-opacity:1;fill-rule:nonzero;stroke:none"
             id="path11941"
             inkscape:connector-curvature="0" />
          <path
             d="m 704.8329,411.5027 c -0.3619,0 -0.7446,0.0295 -1.1378,0.0873 -0.3883,0.057 -0.7894,0.1423 -1.2257,0.2616 -0.0768,0.0207 -0.1216,0.0995 -0.1006,0.1761 0.0212,0.0754 0.0998,0.1193 0.1755,0.1003 0.4257,-0.1162 0.8155,-0.1993 1.1922,-0.2543 0.7469,-0.1105 1.4494,-0.1117 2.039,-0.006 0.0768,0.0139 0.1522,-0.0377 0.1664,-0.1159 0.0138,-0.0777 -0.0383,-0.1522 -0.116,-0.1661 -0.3058,-0.0547 -0.64,-0.0825 -0.993,-0.0825"
             style="fill:#9a4439;fill-opacity:1;fill-rule:nonzero;stroke:none"
             id="path11943"
             inkscape:connector-curvature="0" />
        </g>
        <g
           id="g11945">
          <path
             d="m 702.4782,411.0673 c 0.3152,-0.0916 0.739,-0.1948 1.2203,-0.2577 0.3495,-0.0573 0.7274,-0.0918 1.1172,-0.0918 0.3035,0 0.6128,0.0173 0.9107,0.0688 l -3.2482,0.2807 z"
             style="fill:#5b1600;fill-opacity:1;fill-rule:nonzero;stroke:none"
             id="path11947"
             inkscape:connector-curvature="0" />
          <path
             d="m 704.8157,410.5746 c -0.3776,0 -0.7614,0.0315 -1.1401,0.0938 -0.4062,0.0528 -0.8241,0.1412 -1.2376,0.2614 -0.0754,0.0224 -0.1191,0.1018 -0.0973,0.1777 0.0221,0.0763 0.1024,0.1174 0.1778,0.0975 0.3996,-0.1162 0.8022,-0.2015 1.1984,-0.2534 0.7098,-0.1162 1.4457,-0.1173 1.9849,-0.0238 0.0819,0.0136 0.1522,-0.0391 0.1655,-0.1168 0.0136,-0.0779 -0.0385,-0.1519 -0.1162,-0.1658 -0.2764,-0.0473 -0.582,-0.0706 -0.9354,-0.0706"
             style="fill:#9a4439;fill-opacity:1;fill-rule:nonzero;stroke:none"
             id="path11949"
             inkscape:connector-curvature="0" />
        </g>
        <g
           id="g11951">
          <path
             d="m 702.4782,409.9275 c 0.3552,-0.0803 0.7736,-0.1548 1.2203,-0.1951 0.3552,-0.0343 0.7333,-0.0456 1.1172,-0.017 0.2806,0.023 0.5615,0.063 0.8365,0.1375 l -3.174,0.0746 z"
             style="fill:#5b1600;fill-opacity:1;fill-rule:nonzero;stroke:none"
             id="path11953"
             inkscape:connector-curvature="0" />
          <path
             d="m 704.372,409.5561 c -0.2233,0 -0.4532,0.0114 -0.6874,0.0338 -0.3991,0.036 -0.8158,0.1026 -1.2376,0.1978 -0.0771,0.0173 -0.1258,0.0941 -0.1085,0.1712 0.0172,0.0766 0.0918,0.1267 0.1712,0.108 0.4096,-0.0924 0.8141,-0.157 1.2016,-0.1916 0.3832,-0.0368 0.7506,-0.0431 1.0936,-0.017 0.3056,0.0247 0.5706,0.0683 0.8096,0.1327 0.0793,0.0212 0.155,-0.0244 0.1757,-0.1007 0.0207,-0.0762 -0.0247,-0.155 -0.1006,-0.1754 -0.2557,-0.0692 -0.5378,-0.116 -0.8623,-0.1423 -0.1483,-0.0111 -0.3002,-0.0165 -0.4553,-0.0165"
             style="fill:#9a4439;fill-opacity:1;fill-rule:nonzero;stroke:none"
             id="path11955"
             inkscape:connector-curvature="0" />
        </g>
        <g
           id="g11957">
          <path
             d="m 702.5128,408.9878 c 0.3608,-0.0802 0.7903,-0.1545 1.243,-0.1948 0.3608,-0.0286 0.739,-0.0343 1.1171,0 0.235,0.023 0.4754,0.0573 0.7047,0.1146 l -3.0648,0.0802 z"
             style="fill:#5b1600;fill-opacity:1;fill-rule:nonzero;stroke:none"
             id="path11959"
             inkscape:connector-curvature="0" />
          <path
             d="m 704.3335,408.6264 c -0.1902,0 -0.3867,0.008 -0.5885,0.0241 -0.4102,0.036 -0.8342,0.1026 -1.2634,0.1972 -0.0771,0.0171 -0.1264,0.0939 -0.1091,0.171 0.0167,0.0768 0.0958,0.1244 0.1706,0.1088 0.4176,-0.0924 0.8297,-0.1567 1.2257,-0.1919 0.3872,-0.0306 0.7543,-0.0306 1.0911,0 0.2633,0.0258 0.4872,0.0621 0.6831,0.1111 0.0777,0.0193 0.1542,-0.028 0.1732,-0.1043 0.0199,-0.0765 -0.0272,-0.1545 -0.104,-0.1737 -0.2092,-0.0522 -0.4468,-0.091 -0.7254,-0.1182 -0.1774,-0.0162 -0.362,-0.0241 -0.5533,-0.0241"
             style="fill:#9a4439;fill-opacity:1;fill-rule:nonzero;stroke:none"
             id="path11961"
             inkscape:connector-curvature="0" />
        </g>
        <g
           id="g11963">
          <path
             d="m 704.9302,413.8172 c -0.0173,-0.2634 -0.0343,-0.6072 -0.0516,-0.997 -0.017,-0.3608 -0.0343,-0.7619 -0.0459,-1.1744 -0.0114,-0.3092 -0.017,-0.6242 -0.017,-0.928 -0.006,-0.3493 -0.006,-0.6874 0,-1.0024 0.0113,-0.3495 0.0286,-0.6704 0.0572,-0.9224 l 0.0573,5.0242 z"
             style="fill:#5b1600;fill-opacity:1;fill-rule:nonzero;stroke:none"
             id="path11965"
             inkscape:connector-curvature="0" />
          <path
             d="m 704.8726,408.6499 c -0.072,0 -0.134,0.0538 -0.142,0.127 -0.0263,0.2321 -0.0453,0.5377 -0.0581,0.9337 -0.006,0.3186 -0.006,0.6585 0,1.0094 0,0.3033 0.005,0.6203 0.0173,0.9312 0.0111,0.4125 0.0283,0.8141 0.0459,1.1758 0.0167,0.3904 0.034,0.7353 0.0519,0.9998 0.005,0.0782 0.0587,0.1403 0.1522,0.1332 0.0788,-0.005 0.1389,-0.0731 0.1332,-0.1522 -0.0167,-0.2628 -0.0343,-0.6055 -0.051,-0.9938 -0.0173,-0.3606 -0.0346,-0.7606 -0.0459,-1.1719 -0.0116,-0.3092 -0.0173,-0.6222 -0.0173,-0.9243 -0.006,-0.3498 -0.006,-0.6863 0,-1.0001 0.0122,-0.3864 0.0309,-0.6846 0.0561,-0.9085 0.009,-0.0785 -0.0476,-0.1497 -0.1258,-0.1585 -0.006,-8e-4 -0.0114,-8e-4 -0.0165,-8e-4"
             style="fill:#9a4439;fill-opacity:1;fill-rule:nonzero;stroke:none"
             id="path11967"
             inkscape:connector-curvature="0" />
        </g>
        <g
           id="g11969">
          <path
             d="m 703.8187,413.8917 c -0.017,-0.2463 -0.0343,-0.5845 -0.0573,-0.974 -0.0113,-0.3608 -0.0286,-0.7676 -0.0456,-1.186 -0.006,-0.3033 -0.0173,-0.6185 -0.0173,-0.9221 -0.006,-0.3725 -0.006,-0.739 0,-1.0772 0.0114,-0.3608 0.0286,-0.6817 0.0573,-0.9394 l 0.0629,5.0987 z"
             style="fill:#5b1600;fill-opacity:1;fill-rule:nonzero;stroke:none"
             id="path11971"
             inkscape:connector-curvature="0" />
          <path
             d="m 703.7561,408.6499 c -0.0723,0 -0.1344,0.0538 -0.1421,0.1273 -0.0269,0.2335 -0.0453,0.5354 -0.0586,0.9507 -0.006,0.3416 -0.006,0.7098 0,1.084 0,0.1995 0.005,0.4067 0.01,0.6123 l 0.007,0.3101 c 0.0173,0.4212 0.034,0.8274 0.0456,1.1883 l 0.0235,0.409 c 0.0125,0.2202 0.023,0.4138 0.0343,0.57 0.005,0.0788 0.072,0.1421 0.1525,0.133 0.0791,-0.006 0.1384,-0.0743 0.1327,-0.1531 -0.0108,-0.155 -0.0213,-0.3475 -0.0335,-0.5658 l -0.0229,-0.4062 c -0.0116,-0.3577 -0.0286,-0.7651 -0.0459,-1.1835 l -0.007,-0.3092 c -0.005,-0.203 -0.0102,-0.4076 -0.0102,-0.6072 -0.006,-0.373 -0.006,-0.7381 0,-1.0746 0.0133,-0.4048 0.0314,-0.6999 0.0564,-0.9261 0.009,-0.0785 -0.0474,-0.1494 -0.1259,-0.1582 -0.006,-8e-4 -0.011,-8e-4 -0.0161,-8e-4"
             style="fill:#9a4439;fill-opacity:1;fill-rule:nonzero;stroke:none"
             id="path11973"
             inkscape:connector-curvature="0" />
        </g>
        <g
           id="g11975">
          <path
             d="m 706.5196,417.2964 c -2.4951,0 -4.3195,0.716 -5.0417,1.0542 -0.0715,0.0335 -0.1024,0.1191 -0.0689,0.1905 0.0343,0.0723 0.1187,0.1023 0.191,0.0692 0.796,-0.3734 2.971,-1.2161 5.9026,-0.9896 0.0868,0.0147 0.1483,-0.053 0.1539,-0.1318 0.006,-0.0788 -0.0524,-0.1477 -0.1315,-0.1537 -0.3458,-0.0266 -0.6814,-0.0388 -1.0054,-0.0388"
             style="fill:#9a4439;fill-opacity:1;fill-rule:nonzero;stroke:none"
             id="path11977"
             inkscape:connector-curvature="0" />
        </g>
        <g
           id="g11979">
          <path
             d="m 706.5142,417.8245 c -2.2967,0 -4.0292,0.6049 -4.9255,1.0063 -0.072,0.0323 -0.104,0.1171 -0.072,0.1894 0.0329,0.0722 0.1173,0.1054 0.1896,0.072 1.0205,-0.4567 3.153,-1.1849 5.984,-0.9275 0.0887,0.009 0.1479,-0.0516 0.1553,-0.1299 0.007,-0.0785 -0.0507,-0.1482 -0.1298,-0.1556 -0.415,-0.0377 -0.8161,-0.0547 -1.2016,-0.0547"
             style="fill:#9a4439;fill-opacity:1;fill-rule:nonzero;stroke:none"
             id="path11981"
             inkscape:connector-curvature="0" />
        </g>
        <g
           id="g11983">
          <path
             d="m 703.6739,405.5017 c -1.2958,0 -2.3179,0.1435 -2.9645,0.269 -0.078,0.0153 -0.1281,0.0905 -0.1131,0.1684 0.0144,0.0774 0.0862,0.1281 0.1678,0.1131 1.1653,-0.2265 3.5782,-0.5116 6.6172,0.1253 0.0805,0.0176 0.1533,-0.0337 0.1701,-0.1105 0.0161,-0.0777 -0.0338,-0.1534 -0.1109,-0.1696 -1.4068,-0.295 -2.6824,-0.3957 -3.7666,-0.3957"
             style="fill:#9a4439;fill-opacity:1;fill-rule:nonzero;stroke:none"
             id="path11985"
             inkscape:connector-curvature="0" />
        </g>
        <g
           id="g11987">
          <path
             d="m 703.571,405.9972 c -1.3765,0 -2.4565,0.1616 -3.1326,0.3014 -0.0771,0.0158 -0.127,0.0915 -0.1111,0.1689 0.0156,0.0774 0.0876,0.1281 0.1692,0.1111 1.1835,-0.244 3.6343,-0.5581 6.7479,0.0859 0.0808,0.0187 0.153,-0.0334 0.1695,-0.1108 0.0156,-0.0777 -0.0343,-0.1534 -0.1114,-0.1693 -1.3907,-0.288 -2.6524,-0.3872 -3.7315,-0.3872"
             style="fill:#9a4439;fill-opacity:1;fill-rule:nonzero;stroke:none"
             id="path11989"
             inkscape:connector-curvature="0" />
        </g>
      </g>
    </g>
  </g>
</svg>
