<?xml version="1.0" encoding="UTF-8" standalone="no"?>
<!-- Created with Inkscape (http://www.inkscape.org/) -->

<svg
   xmlns:dc="http://purl.org/dc/elements/1.1/"
   xmlns:cc="http://creativecommons.org/ns#"
   xmlns:rdf="http://www.w3.org/1999/02/22-rdf-syntax-ns#"
   xmlns:svg="http://www.w3.org/2000/svg"
   xmlns="http://www.w3.org/2000/svg"
   xmlns:sodipodi="http://sodipodi.sourceforge.net/DTD/sodipodi-0.dtd"
   xmlns:inkscape="http://www.inkscape.org/namespaces/inkscape"
   width="42.381805mm"
   height="36.419403mm"
   viewBox="0 0 150.17175 129.04513"
   id="svg17233"
   version="1.1"
   inkscape:version="0.91 r13725"
   sodipodi:docname="hoja.svg">
  <defs
     id="defs17235" />
  <sodipodi:namedview
     id="base"
     pagecolor="#ffffff"
     bordercolor="#666666"
     borderopacity="1.0"
     inkscape:pageopacity="0.0"
     inkscape:pageshadow="2"
     inkscape:zoom="0.35"
     inkscape:cx="-505.6284"
     inkscape:cy="-198.33458"
     inkscape:document-units="px"
     inkscape:current-layer="layer1"
     showgrid="false"
     fit-margin-top="0"
     fit-margin-left="0"
     fit-margin-right="0"
     fit-margin-bottom="0"
     inkscape:window-width="1366"
     inkscape:window-height="744"
     inkscape:window-x="0"
     inkscape:window-y="24"
     inkscape:window-maximized="1" />
  <metadata
     id="metadata17238">
    <rdf:RDF>
      <cc:Work
         rdf:about="">
        <dc:format>image/svg+xml</dc:format>
        <dc:type
           rdf:resource="http://purl.org/dc/dcmitype/StillImage" />
        <dc:title></dc:title>
      </cc:Work>
    </rdf:RDF>
  </metadata>
  <g
     inkscape:label="Capa 1"
     inkscape:groupmode="layer"
     id="layer1"
     transform="translate(-344.91412,-204.98249)">
    <g
       transform="matrix(1.25,0,0,-1.25,-160.93801,785.17712)"
       id="g12027">
      <path
         d="m 436.2026,360.9196 -31.5209,44.7933 49.0342,58.4428 22.9215,-0.2149 48.1817,-57.0526 -6.6907,-9.5451 -25.1699,-36.4235 -56.7559,0 z"
         style="fill:#949698;fill-opacity:1;fill-rule:nonzero;stroke:none"
         id="path12029"
         inkscape:connector-curvature="0" />
      <path
         d="m 516.5909,399.1255 -24.9638,-35.6018 -53.8266,0 -6.1665,8.7716 66.0155,0 18.9414,26.8302 z"
         style="fill:#3c63a8;fill-opacity:1;fill-rule:nonzero;stroke:none"
         id="path12031"
         inkscape:connector-curvature="0" />
      <path
         d="m 462.0172,461.321 0,-2.0803 -49.7095,-59.4511 -4.047,5.7561 46.8468,55.7753 6.9097,0 z"
         style="fill:#3c63a8;fill-opacity:1;fill-rule:nonzero;stroke:none"
         id="path12033"
         inkscape:connector-curvature="0" />
      <path
         d="m 456.9911,437.8255 -30.3613,-37.5857 12.5299,-17.2369 20.0342,0 0,-10.7076 -27.5599,0 -19.3263,27.4943 49.7095,59.4511 0,-21.4152 -5.0261,0 z"
         style="fill:#dc2f33;fill-opacity:1;fill-rule:nonzero;stroke:none"
         id="path12035"
         inkscape:connector-curvature="0" />
      <path
         d="m 521.9099,406.7124 -4.646,-6.6299 -49.8099,59.1582 -1.0794,0 0,2.0803 9.4402,0 46.0951,-54.6086 z"
         style="fill:#3c63a8;fill-opacity:1;fill-rule:nonzero;stroke:none"
         id="path12037"
         inkscape:connector-curvature="0" />
      <path
         d="m 502.2734,401.0746 -11.8352,-18.0717 -21.2709,0 0,-10.7076 -9.9734,0 0,10.7076 -20.0342,0 -12.5299,17.2369 30.3613,37.5857 5.0261,0 0,23.4955 4.3574,0 0,-23.4955 5.5636,0 30.3352,-36.7509 z"
         style="fill:#ffffff;fill-opacity:1;fill-rule:nonzero;stroke:none"
         id="path12039"
         inkscape:connector-curvature="0" />
      <path
         d="m 517.2639,400.0825 -0.4456,-0.6339 -0.2274,-0.3231 -18.9414,-26.8302 -28.4822,0 0,10.7076 21.2709,0 11.8352,18.0717 -30.3352,36.7509 -5.5636,0 0,21.4152 1.0794,0 49.8099,-59.1582 z"
         style="fill:#dc2f33;fill-opacity:1;fill-rule:nonzero;stroke:none"
         id="path12041"
         inkscape:connector-curvature="0" />
      <g
         id="g12043" />
      <g
         id="g12045" />
      <g
         id="g12047">
        <g
           id="g12049">
          <path
             d="m 423.0315,416.1067 c 0.1111,-0.0924 0.2089,-0.22 0.2925,-0.3824 0.0836,-0.1621 0.1386,-0.3543 0.1655,-0.5751 0.027,-0.2211 0.003,-0.4553 -0.0708,-0.7025 -0.0743,-0.2471 -0.2121,-0.4918 -0.4144,-0.7347 -0.1531,-0.1843 -0.3099,-0.337 -0.47,-0.4589 -0.1605,-0.1216 -0.3286,-0.2135 -0.5049,-0.275 -0.1757,-0.0615 -0.3674,-0.0935 -0.574,-0.0964 -0.1857,-8e-4 -0.3733,0.0224 -0.5632,0.0703 -0.19,0.0479 -0.3753,0.1197 -0.5568,0.2152 -0.1805,0.0952 -0.358,0.2154 -0.5309,0.3594 -0.2809,0.2336 -0.4983,0.4836 -0.6525,0.7503 -0.1542,0.2665 -0.2464,0.5417 -0.2775,0.8255 -0.0315,0.2837 -0.003,0.5621 0.0844,0.8356 0.0882,0.2736 0.2282,0.5262 0.421,0.7577 0.2352,0.2824 0.5009,0.487 0.7968,0.6137 0.2965,0.1268 0.5766,0.18 0.8399,0.1596 0.2639,-0.0207 0.4691,-0.0924 0.6165,-0.2148 0.0808,-0.0678 0.129,-0.1556 0.1429,-0.2642 0.0147,-0.1089 -0.0122,-0.2033 -0.0791,-0.284 -0.0757,-0.0908 -0.1533,-0.1409 -0.2333,-0.1506 -0.0808,-0.01 -0.1967,0.002 -0.3475,0.0332 -0.2492,0.0516 -0.4694,0.0513 -0.6582,-0.002 -0.1894,-0.0536 -0.3606,-0.1709 -0.5122,-0.3535 -0.2418,-0.2905 -0.3237,-0.6137 -0.2461,-0.9694 0.0771,-0.3555 0.3189,-0.7027 0.7251,-1.0409 0.2716,-0.2256 0.5287,-0.3753 0.7725,-0.449 0.2429,-0.0734 0.4677,-0.0777 0.6726,-0.0122 0.205,0.0658 0.3853,0.1925 0.5412,0.3796 0.1689,0.2032 0.2616,0.4167 0.2778,0.6412 0.0164,0.2242 -0.044,0.4532 -0.1798,0.6871 -0.0669,0.1066 -0.1108,0.2063 -0.1312,0.299 -0.0215,0.0927 0.009,0.188 0.0907,0.2863 0.07,0.0842 0.1596,0.1321 0.2684,0.1435 0.1089,0.0116 0.2073,-0.0193 0.2946,-0.0916"
             style="fill:#ffffff;fill-opacity:1;fill-rule:nonzero;stroke:none"
             id="path12051"
             inkscape:connector-curvature="0" />
          <path
             d="m 426.0563,418.3038 -0.5766,0.1979 -1.1806,-1.4187 0.309,-0.5392 c 0.1205,-0.2103 0.1922,-0.364 0.2149,-0.4606 0.0221,-0.0967 -0.01,-0.1976 -0.097,-0.3022 -0.074,-0.089 -0.1718,-0.1406 -0.2934,-0.1545 -0.1219,-0.0144 -0.2239,0.0131 -0.3067,0.0817 -0.0479,0.0396 -0.0901,0.0884 -0.1275,0.1465 -0.0375,0.0581 -0.0865,0.1429 -0.1466,0.2548 l -1.5236,2.7786 c -0.0437,0.0793 -0.0964,0.1746 -0.1579,0.2865 -0.0609,0.1117 -0.1054,0.2126 -0.1318,0.3034 -0.0269,0.0907 -0.0318,0.1848 -0.0139,0.2811 0.0173,0.097 0.0663,0.1939 0.1465,0.2909 0.082,0.0983 0.169,0.165 0.2617,0.1995 0.0915,0.0352 0.1842,0.0482 0.2766,0.04 0.0922,-0.008 0.184,-0.0269 0.2739,-0.055 0.0904,-0.0286 0.21,-0.068 0.3586,-0.119 l 3.0106,-0.9624 c 0.2305,-0.0711 0.385,-0.1395 0.4626,-0.2041 0.0808,-0.0672 0.1268,-0.1627 0.1384,-0.286 0.0113,-0.1239 -0.0227,-0.233 -0.1021,-0.3283 -0.0459,-0.0552 -0.0955,-0.0946 -0.1482,-0.1182 -0.0533,-0.0229 -0.1077,-0.0337 -0.1641,-0.0326 -0.0567,0.002 -0.1333,0.0165 -0.2297,0.044 -0.0963,0.0278 -0.1808,0.0533 -0.2531,0.0759 z m -2.1331,-0.5938 0,0 0.8677,1.0426 -1.8785,0.6726 1.0108,-1.7152 z"
             style="fill:#ffffff;fill-opacity:1;fill-rule:nonzero;stroke:none"
             id="path12053"
             inkscape:connector-curvature="0" />
          <path
             d="m 427.8971,420.7813 -2.6892,1.2909 2.4089,-2.0044 c 0.1335,-0.1111 0.2086,-0.2245 0.2256,-0.3393 0.017,-0.1148 -0.0153,-0.2214 -0.0972,-0.3197 -0.0794,-0.0953 -0.1769,-0.1454 -0.2928,-0.1511 -0.1157,-0.006 -0.2413,0.0479 -0.3765,0.1602 l -2.7609,2.2977 c -0.1522,0.1267 -0.222,0.2515 -0.2095,0.3756 0.0131,0.1236 0.076,0.2526 0.1879,0.3875 l 0.1823,0.2188 c 0.1094,0.1321 0.2013,0.2175 0.2741,0.2574 0.074,0.0394 0.1528,0.0482 0.2387,0.0247 0.0856,-0.0227 0.2132,-0.074 0.3835,-0.1536 l 2.3335,-1.0834 -1.4896,2.0973 c -0.1091,0.1528 -0.1831,0.269 -0.2211,0.3492 -0.0385,0.0803 -0.0439,0.1599 -0.0187,0.2393 0.0261,0.0791 0.0935,0.1848 0.2032,0.3163 l 0.1823,0.2191 c 0.1123,0.135 0.2276,0.22 0.3464,0.2552 0.1199,0.0348 0.2551,-0.0108 0.4076,-0.1378 l 2.761,-2.2975 c 0.1335,-0.1111 0.2086,-0.2242 0.2259,-0.3393 0.017,-0.1148 -0.0159,-0.2219 -0.0992,-0.322 -0.078,-0.0938 -0.1752,-0.1432 -0.292,-0.148 -0.1168,-0.005 -0.2418,0.0482 -0.3753,0.1593 l -2.4092,2.0044 1.7586,-2.4094 c 0.114,-0.1568 0.1951,-0.2744 0.2433,-0.3535 0.0482,-0.0794 0.0742,-0.1729 0.0779,-0.2809 0.005,-0.1083 -0.0391,-0.2166 -0.1304,-0.3263 -0.0686,-0.0825 -0.1448,-0.1375 -0.2276,-0.165 -0.0836,-0.0275 -0.1658,-0.0337 -0.248,-0.0195 -0.082,0.0144 -0.1642,0.0405 -0.2466,0.0785 -0.0828,0.038 -0.1687,0.0777 -0.2569,0.1193"
             style="fill:#ffffff;fill-opacity:1;fill-rule:nonzero;stroke:none"
             id="path12055"
             inkscape:connector-curvature="0" />
          <path
             d="m 430.5203,425.6289 -0.5389,-0.6475 0.9882,-0.8223 c 0.1415,-0.1174 0.2208,-0.2398 0.2381,-0.3674 0.0176,-0.1273 -0.0161,-0.2415 -0.1006,-0.343 -0.0885,-0.1063 -0.1965,-0.1621 -0.3223,-0.1672 -0.1264,-0.005 -0.2594,0.0507 -0.3988,0.1667 l -2.6898,2.2382 c -0.1554,0.1298 -0.237,0.2579 -0.2444,0.3847 -0.007,0.1269 0.0542,0.2681 0.1837,0.4235 l 0.7546,0.907 c 0.2231,0.2682 0.4153,0.4573 0.5771,0.5675 0.1582,0.1097 0.3268,0.178 0.5051,0.2055 0.1789,0.0273 0.3569,0.0125 0.5352,-0.0445 0.178,-0.0569 0.3507,-0.1547 0.5174,-0.2933 0.3551,-0.296 0.5334,-0.6293 0.5348,-1.001 10e-4,-0.3716 -0.1788,-0.7738 -0.5394,-1.2069 z m -1.7422,1.1596 0,0 -0.3962,-0.4762 1.0666,-0.8875 0.396,0.4762 c 0.1389,0.1667 0.237,0.3203 0.2951,0.4615 0.0587,0.1408 0.0723,0.2735 0.0417,0.3982 -0.0303,0.125 -0.1103,0.241 -0.2384,0.3478 -0.1542,0.1282 -0.3169,0.1871 -0.4887,0.1772 -0.1876,-0.0159 -0.4133,-0.1817 -0.6761,-0.4972"
             style="fill:#ffffff;fill-opacity:1;fill-rule:nonzero;stroke:none"
             id="path12057"
             inkscape:connector-curvature="0" />
          <path
             d="m 434.4953,428.4451 -0.5762,0.1978 -1.1807,-1.4187 0.3093,-0.5389 c 0.1205,-0.2106 0.1916,-0.3642 0.2146,-0.4609 0.0224,-0.0967 -0.01,-0.1976 -0.097,-0.3022 -0.074,-0.089 -0.1718,-0.1406 -0.2934,-0.1545 -0.1221,-0.0144 -0.2236,0.0131 -0.3064,0.0817 -0.0479,0.0397 -0.0907,0.0887 -0.1281,0.1468 -0.0371,0.0578 -0.0862,0.1429 -0.1466,0.2546 l -1.523,2.7788 c -0.044,0.0793 -0.0967,0.1746 -0.1585,0.2863 -0.0609,0.1117 -0.1054,0.2126 -0.1318,0.3036 -0.0269,0.0904 -0.0312,0.1845 -0.0136,0.2809 0.0176,0.0969 0.0661,0.1942 0.1468,0.2908 0.082,0.0984 0.169,0.165 0.2611,0.1999 0.0924,0.0348 0.1845,0.0479 0.2767,0.0396 0.0921,-0.008 0.1842,-0.0269 0.2744,-0.055 0.0904,-0.0286 0.21,-0.068 0.3583,-0.119 l 3.0109,-0.9624 c 0.2305,-0.0708 0.385,-0.1392 0.4626,-0.2038 0.0805,-0.0672 0.1267,-0.1627 0.1378,-0.2863 0.0119,-0.1236 -0.0227,-0.2327 -0.1015,-0.3279 -0.0465,-0.0559 -0.0958,-0.095 -0.1485,-0.1185 -0.053,-0.023 -0.1077,-0.0338 -0.1644,-0.0324 -0.0564,0.002 -0.133,0.0162 -0.2291,0.044 -0.0966,0.0278 -0.1811,0.053 -0.2537,0.0757 z m -2.133,-0.5939 0,0 0.8677,1.0426 -1.878,0.6729 1.0103,-1.7155 z"
             style="fill:#ffffff;fill-opacity:1;fill-rule:nonzero;stroke:none"
             id="path12059"
             inkscape:connector-curvature="0" />
          <path
             d="m 436.3362,430.9226 -2.6893,1.2908 2.4089,-2.0046 c 0.1335,-0.1108 0.2086,-0.2239 0.2256,-0.3388 0.0173,-0.115 -0.0153,-0.2216 -0.0966,-0.32 -0.0794,-0.0949 -0.1772,-0.1454 -0.2928,-0.1511 -0.1163,-0.006 -0.2415,0.0477 -0.377,0.1602 l -2.761,2.2978 c -0.1522,0.1267 -0.2214,0.2517 -0.2092,0.3755 0.0131,0.1236 0.0757,0.2529 0.188,0.3878 l 0.1822,0.2189 c 0.1097,0.1318 0.201,0.2171 0.2741,0.2571 0.0737,0.0396 0.1525,0.0481 0.239,0.0249 0.0856,-0.0227 0.2134,-0.0743 0.3832,-0.1539 l 2.3338,-1.0834 -1.4899,2.0976 c -0.1094,0.1525 -0.1828,0.2687 -0.2208,0.349 -0.0388,0.0802 -0.0445,0.1598 -0.0193,0.2392 0.0261,0.0791 0.0941,0.1848 0.2033,0.3164 l 0.1822,0.2191 c 0.1123,0.1346 0.2279,0.2199 0.347,0.2551 0.1199,0.0349 0.2554,-0.0111 0.4076,-0.1378 l 2.761,-2.2975 c 0.1335,-0.1111 0.2086,-0.2242 0.2256,-0.339 0.0173,-0.1151 -0.0162,-0.2222 -0.0992,-0.3223 -0.0777,-0.0935 -0.1752,-0.1431 -0.292,-0.1477 -0.1165,-0.005 -0.2418,0.0482 -0.3753,0.1591 l -2.4089,2.0046 1.7581,-2.4094 c 0.1139,-0.1568 0.195,-0.2747 0.2432,-0.3538 0.0482,-0.0791 0.0748,-0.1726 0.0788,-0.2806 0.004,-0.1086 -0.04,-0.2169 -0.1307,-0.3266 -0.0689,-0.0825 -0.1448,-0.1375 -0.2279,-0.1649 -0.0833,-0.0273 -0.1661,-0.0338 -0.248,-0.0193 -0.0819,0.0141 -0.1639,0.0405 -0.2466,0.0785 -0.0825,0.0377 -0.1687,0.0777 -0.2571,0.1191"
             style="fill:#ffffff;fill-opacity:1;fill-rule:nonzero;stroke:none"
             id="path12061"
             inkscape:connector-curvature="0" />
          <path
             d="m 438.1608,438.0341 -1.3252,-1.5925 0.8569,-0.7129 1.2204,1.4664 c 0.0901,0.108 0.1814,0.168 0.2735,0.1811 0.093,0.013 0.1789,-0.0136 0.2582,-0.0797 0.0794,-0.066 0.1222,-0.1462 0.129,-0.2403 0.006,-0.0936 -0.0363,-0.1953 -0.1278,-0.3051 l -1.2201,-1.466 0.9927,-0.826 1.3709,1.6472 c 0.0924,0.1108 0.1876,0.1734 0.2863,0.1868 0.098,0.0133 0.1904,-0.0156 0.2758,-0.0871 0.0827,-0.0686 0.1264,-0.1525 0.1309,-0.2517 0.005,-0.0992 -0.0391,-0.2046 -0.1315,-0.3157 l -1.5982,-1.9208 c -0.1284,-0.1539 -0.2545,-0.2361 -0.379,-0.2469 -0.1241,-0.0105 -0.2625,0.0473 -0.4152,0.1743 l -2.6227,2.1827 c -0.1017,0.0848 -0.172,0.1684 -0.2114,0.2523 -0.0389,0.0836 -0.0465,0.1698 -0.0227,0.2585 0.0244,0.0887 0.0782,0.1831 0.1616,0.2832 l 1.5525,1.866 c 0.0938,0.1126 0.1888,0.1755 0.2843,0.1885 0.0953,0.0134 0.1834,-0.0138 0.2648,-0.0813 0.0822,-0.0686 0.1258,-0.1508 0.1301,-0.2472 0.005,-0.0967 -0.0403,-0.2013 -0.1341,-0.3138"
             style="fill:#ffffff;fill-opacity:1;fill-rule:nonzero;stroke:none"
             id="path12063"
             inkscape:connector-curvature="0" />
          <path
             d="m 439.4699,439.9753 3.1875,-0.3524 -2.0758,1.7275 c -0.1349,0.1119 -0.2112,0.225 -0.2307,0.3393 -0.0193,0.1139 0.0119,0.2202 0.0938,0.3186 0.0845,0.1015 0.1851,0.1536 0.3007,0.1565 0.1171,0.002 0.2421,-0.0528 0.3771,-0.1647 l 2.7447,-2.2839 c 0.3062,-0.2551 0.3538,-0.5091 0.1423,-0.7628 -0.0527,-0.0638 -0.1099,-0.1131 -0.17,-0.1488 -0.0607,-0.0355 -0.129,-0.0593 -0.2058,-0.0706 -0.0768,-0.0116 -0.1571,-0.0142 -0.2415,-0.008 -0.0856,0.006 -0.1718,0.0133 -0.2583,0.0215 l -3.1365,0.366 2.0449,-1.7017 c 0.1329,-0.1108 0.2075,-0.2256 0.2248,-0.3444 0.0164,-0.1185 -0.0153,-0.2262 -0.0958,-0.3229 -0.0831,-0.1 -0.1846,-0.1516 -0.3033,-0.1544 -0.1197,-0.003 -0.2449,0.0504 -0.3765,0.1598 l -2.6918,2.2405 c -0.1145,0.095 -0.1941,0.1826 -0.2378,0.262 -0.0459,0.0895 -0.0626,0.1879 -0.0499,0.2956 0.0128,0.1074 0.0525,0.2016 0.1199,0.2823 0.053,0.0638 0.1089,0.1092 0.167,0.1375 0.0581,0.0281 0.1196,0.0445 0.1823,0.0499 0.0635,0.005 0.1377,0.002 0.2228,-0.008 0.0853,-0.0105 0.174,-0.0215 0.2659,-0.0337"
             style="fill:#ffffff;fill-opacity:1;fill-rule:nonzero;stroke:none"
             id="path12065"
             inkscape:connector-curvature="0" />
          <path
             d="m 443.821,444.7587 -0.6414,-0.7713 2.5353,-2.1095 c 0.146,-0.1213 0.2265,-0.2444 0.2432,-0.3679 0.0167,-0.1239 -0.0184,-0.237 -0.1041,-0.3405 -0.0873,-0.1049 -0.1936,-0.1604 -0.3203,-0.1667 -0.1258,-0.006 -0.2613,0.0505 -0.4053,0.1704 l -2.5353,2.1095 -0.6418,-0.771 c -0.1003,-0.1207 -0.2015,-0.1882 -0.303,-0.2027 -0.1026,-0.0144 -0.1973,0.0145 -0.2843,0.0871 -0.0905,0.0754 -0.1372,0.1655 -0.1381,0.2701 -0.001,0.1046 0.0459,0.2149 0.1423,0.3308 l 1.8698,2.247 c 0.1017,0.1222 0.2043,0.1902 0.3078,0.205 0.1037,0.0147 0.1993,-0.0145 0.2863,-0.087 0.087,-0.0726 0.1324,-0.1611 0.1352,-0.2657 0.003,-0.1046 -0.0459,-0.2168 -0.1463,-0.3376"
             style="fill:#ffffff;fill-opacity:1;fill-rule:nonzero;stroke:none"
             id="path12067"
             inkscape:connector-curvature="0" />
          <path
             d="m 444.9832,447.4621 c 0.3014,0.362 0.6333,0.6115 0.9956,0.749 0.3634,0.1372 0.735,0.1598 1.1165,0.0683 0.3816,-0.0922 0.7552,-0.2897 1.12,-0.5933 0.2699,-0.2248 0.4842,-0.4655 0.644,-0.7217 0.1602,-0.2568 0.26,-0.5253 0.3005,-0.8062 0.0403,-0.2806 0.0148,-0.5627 -0.0762,-0.847 -0.0916,-0.2837 -0.2515,-0.5627 -0.4799,-0.8373 -0.2271,-0.273 -0.4746,-0.4808 -0.7422,-0.6234 -0.2675,-0.1426 -0.5417,-0.2194 -0.822,-0.2302 -0.2804,-0.0113 -0.5638,0.0403 -0.8507,0.154 -0.2866,0.1136 -0.5612,0.2795 -0.8229,0.4972 -0.2684,0.2233 -0.4822,0.4668 -0.6423,0.7296 -0.1596,0.2633 -0.2571,0.5332 -0.2925,0.8099 -0.0355,0.2766 -0.008,0.5544 0.083,0.8333 0.091,0.279 0.2472,0.5514 0.4691,0.8178 z m 2.6312,-0.4889 0,0 c -0.2557,0.2126 -0.5117,0.3557 -0.7677,0.4288 -0.2559,0.0735 -0.4952,0.0732 -0.7188,3e-4 -0.2237,-0.0734 -0.4179,-0.2089 -0.5831,-0.4073 -0.1174,-0.1412 -0.1993,-0.294 -0.2458,-0.4581 -0.0465,-0.1638 -0.055,-0.3314 -0.0255,-0.5026 0.0298,-0.1709 0.1029,-0.3472 0.2188,-0.5283 0.1166,-0.1812 0.2733,-0.3541 0.47,-0.5179 0.1979,-0.1647 0.3986,-0.2895 0.6001,-0.3725 0.2024,-0.0836 0.3935,-0.1236 0.5749,-0.1202 0.1814,0.004 0.3472,0.0425 0.4986,0.1174 0.1505,0.0745 0.2846,0.1825 0.4022,0.3237 0.1503,0.1811 0.2433,0.3846 0.2795,0.6114 0.0352,0.2268 -0.004,0.4638 -0.1179,0.7104 -0.1145,0.2469 -0.3095,0.4853 -0.5853,0.7149"
             style="fill:#ffffff;fill-opacity:1;fill-rule:nonzero;stroke:none"
             id="path12069"
             inkscape:connector-curvature="0" />
          <path
             d="m 451.5579,450.2747 c 0.2115,-0.1758 0.3558,-0.3878 0.4334,-0.6364 0.0777,-0.2483 0.0771,-0.5173 -0.002,-0.8059 -0.0793,-0.2888 -0.2386,-0.5766 -0.4776,-0.864 -0.2869,-0.3441 -0.5879,-0.5743 -0.9045,-0.6897 -0.2254,-0.0805 -0.4575,-0.1057 -0.6965,-0.0748 -0.239,0.0309 -0.4323,0.1077 -0.58,0.2307 -0.0853,0.0712 -0.1341,0.1622 -0.1454,0.2725 -0.0116,0.1102 0.0207,0.2114 0.0972,0.3035 0.0624,0.0743 0.1384,0.1177 0.2288,0.1299 0.091,0.0116 0.1981,-0.003 0.3223,-0.0445 0.148,-0.0479 0.2806,-0.0771 0.398,-0.0876 0.1176,-0.0108 0.2395,0.0107 0.3654,0.0643 0.127,0.0533 0.2537,0.1559 0.3804,0.3084 0.174,0.2095 0.2667,0.4201 0.2778,0.6327 0.0119,0.2118 -0.0556,0.3787 -0.2016,0.5001 -0.1159,0.0966 -0.2392,0.1394 -0.3699,0.1289 -0.1315,-0.0105 -0.2625,-0.0558 -0.3937,-0.136 -0.1307,-0.0802 -0.296,-0.1959 -0.4944,-0.3478 -0.2679,-0.2021 -0.5105,-0.3547 -0.7305,-0.4581 -0.2188,-0.1038 -0.4379,-0.1486 -0.6554,-0.1349 -0.2185,0.0138 -0.4286,0.1046 -0.6301,0.2721 -0.1913,0.1596 -0.3186,0.354 -0.381,0.5831 -0.062,0.229 -0.0504,0.4756 0.0346,0.7407 0.0851,0.2653 0.2387,0.5317 0.4618,0.7999 0.1783,0.2143 0.3594,0.3773 0.5425,0.4893 0.1834,0.1122 0.362,0.1831 0.5361,0.2131 0.1734,0.0298 0.3288,0.0281 0.4651,-0.005 0.1367,-0.0332 0.2506,-0.0879 0.3427,-0.1644 0.0842,-0.07 0.1352,-0.163 0.1528,-0.2784 0.0184,-0.1159 -0.01,-0.2183 -0.0836,-0.307 -0.0675,-0.0808 -0.1392,-0.1256 -0.2143,-0.1341 -0.076,-0.008 -0.18,0.002 -0.3129,0.0287 -0.1843,0.0465 -0.3507,0.0555 -0.4984,0.028 -0.1477,-0.0272 -0.3036,-0.1394 -0.4674,-0.3362 -0.1514,-0.1828 -0.2339,-0.3631 -0.2466,-0.5414 -0.0133,-0.1788 0.0363,-0.3149 0.1494,-0.4087 0.0694,-0.0581 0.1462,-0.0896 0.2282,-0.0933 0.0824,-0.004 0.1695,0.0116 0.2616,0.0479 0.0924,0.0363 0.1769,0.08 0.2545,0.131 0.0771,0.0513 0.201,0.1389 0.3717,0.2628 0.2094,0.1584 0.4084,0.2945 0.5969,0.4076 0.188,0.1131 0.3685,0.1927 0.5409,0.2387 0.1723,0.0462 0.3452,0.0496 0.519,0.0113 0.1738,-0.0383 0.3487,-0.131 0.5244,-0.2775"
             style="fill:#ffffff;fill-opacity:1;fill-rule:nonzero;stroke:none"
             id="path12071"
             inkscape:connector-curvature="0" />
        </g>
      </g>
      <g
         id="g12073">
        <path
           d="m 483.0968,449.278 -1.8193,-1.5315 c -0.1579,-0.133 -0.2979,-0.239 -0.4195,-0.3192 -0.1222,-0.0794 -0.26,-0.1435 -0.4133,-0.1916 -0.2577,-0.082 -0.5162,-0.0769 -0.7759,0.015 -0.2591,0.0921 -0.4986,0.2684 -0.718,0.5286 -0.1979,0.2359 -0.326,0.4632 -0.3838,0.6826 -0.0581,0.2197 -0.0451,0.4476 0.0394,0.6832 0.0462,0.1253 0.1131,0.252 0.2021,0.3807 0.0887,0.1284 0.1854,0.2369 0.2897,0.3245 0.1106,0.093 0.2211,0.1333 0.3311,0.1211 0.1103,-0.0128 0.2061,-0.0669 0.2874,-0.163 0.0785,-0.0933 0.1106,-0.1865 0.097,-0.279 -0.0142,-0.0924 -0.0672,-0.1995 -0.1593,-0.3203 -0.0995,-0.1292 -0.1738,-0.2378 -0.2237,-0.3254 -0.0504,-0.0884 -0.0751,-0.1857 -0.0737,-0.2931 10e-4,-0.1069 0.0507,-0.2188 0.1494,-0.3356 0.2613,-0.3113 0.6208,-0.275 1.0772,0.1091 l 1.9213,1.6172 c 0.1423,0.1196 0.2749,0.1783 0.3982,0.1757 0.1239,-0.002 0.2314,-0.0575 0.3218,-0.1649 0.0918,-0.1089 0.1287,-0.2257 0.1111,-0.3493 -0.017,-0.1238 -0.0969,-0.2454 -0.2392,-0.3648"
           style="fill:#ffffff;fill-opacity:1;fill-rule:nonzero;stroke:none"
           id="path12075"
           inkscape:connector-curvature="0" />
        <path
           d="m 482.0034,447.1869 1.6702,1.4057 c 0.142,0.1193 0.2755,0.1774 0.4005,0.1732 0.1253,-0.004 0.2319,-0.0581 0.3195,-0.1627 0.0916,-0.1089 0.129,-0.2254 0.1114,-0.349 -0.017,-0.1238 -0.0969,-0.2454 -0.2392,-0.3651 l -1.7079,-1.4377 c -0.1942,-0.1636 -0.3382,-0.322 -0.4323,-0.4748 -0.0935,-0.1531 -0.1298,-0.3152 -0.1086,-0.4864 0.021,-0.1707 0.1154,-0.3561 0.2829,-0.5548 0.2311,-0.2749 0.468,-0.4076 0.7095,-0.3988 0.2416,0.009 0.5114,0.1389 0.8079,0.3889 l 1.7226,1.4494 c 0.1438,0.1207 0.2775,0.1797 0.4009,0.1754 0.1235,-0.004 0.2298,-0.0589 0.3191,-0.1647 0.0893,-0.106 0.1259,-0.2211 0.1106,-0.3458 -0.015,-0.1244 -0.0944,-0.2474 -0.2381,-0.3682 l -1.6702,-1.406 c -0.2718,-0.2287 -0.521,-0.3926 -0.7469,-0.4924 -0.2262,-0.1003 -0.4697,-0.1343 -0.7311,-0.1034 -0.2231,0.0283 -0.432,0.1034 -0.627,0.225 -0.1942,0.1225 -0.3858,0.2957 -0.5743,0.5202 -0.2251,0.2667 -0.3898,0.5213 -0.4944,0.762 -0.104,0.2415 -0.1476,0.4736 -0.1289,0.697 0.0187,0.2231 0.0983,0.4425 0.2395,0.6585 0.1403,0.2154 0.3418,0.434 0.6043,0.6545"
           style="fill:#ffffff;fill-opacity:1;fill-rule:nonzero;stroke:none"
           id="path12077"
           inkscape:connector-curvature="0" />
        <path
           d="m 487.0998,444.4492 -1.667,-2.7465 3.0098,1.1846 c 0.1573,0.0629 0.2696,0.1043 0.3345,0.1244 0.0658,0.0199 0.138,0.0227 0.216,0.008 0.0791,-0.0145 0.1528,-0.0632 0.222,-0.1457 0.051,-0.0595 0.0819,-0.1284 0.0955,-0.2047 0.0133,-0.0771 0.007,-0.1508 -0.0179,-0.2216 -0.0252,-0.0712 -0.0632,-0.1276 -0.1139,-0.1704 -0.0346,-0.0295 -0.076,-0.0561 -0.1245,-0.0805 -0.0479,-0.0244 -0.0975,-0.0462 -0.1482,-0.0641 -0.0508,-0.0184 -0.1024,-0.0379 -0.1554,-0.0581 l -2.9778,-1.0695 c -0.1119,-0.0425 -0.2196,-0.0819 -0.3234,-0.1182 -0.1035,-0.0354 -0.2015,-0.0584 -0.2934,-0.0689 -0.0924,-0.0102 -0.1856,0.001 -0.2786,0.0346 -0.0927,0.0337 -0.1792,0.0984 -0.2591,0.1931 -0.0797,0.0946 -0.1284,0.1907 -0.1468,0.2871 -0.0182,0.0969 -0.0136,0.1908 0.0136,0.2826 0.0266,0.091 0.0663,0.1846 0.1182,0.2795 0.0521,0.0953 0.1091,0.1945 0.1703,0.2977 l 1.5554,2.7206 c 0.0295,0.0491 0.057,0.0978 0.0836,0.146 0.0275,0.0479 0.0593,0.0967 0.0964,0.1457 0.0369,0.0488 0.0714,0.0865 0.1029,0.1131 0.0808,0.0678 0.1814,0.097 0.3022,0.0879 0.1207,-0.009 0.2228,-0.0618 0.3053,-0.1602 0.1012,-0.1199 0.1357,-0.2355 0.104,-0.3475 -0.0315,-0.1111 -0.1057,-0.2605 -0.2237,-0.4487"
           style="fill:#ffffff;fill-opacity:1;fill-rule:nonzero;stroke:none"
           id="path12079"
           inkscape:connector-curvature="0" />
        <path
           d="m 491.1936,439.3009 -1.3337,1.5851 -0.8532,-0.7177 1.2285,-1.4593 c 0.0905,-0.1074 0.1336,-0.2083 0.1302,-0.3013 -0.004,-0.0938 -0.0448,-0.1732 -0.1239,-0.2398 -0.0788,-0.0666 -0.1656,-0.0947 -0.2594,-0.0845 -0.0932,0.0102 -0.1857,0.07 -0.2775,0.1789 l -1.2283,1.4596 -0.9881,-0.8317 1.3799,-1.6396 c 0.093,-0.1105 0.1375,-0.2149 0.1335,-0.3143 -0.005,-0.0995 -0.049,-0.1852 -0.1344,-0.2566 -0.0824,-0.0697 -0.1729,-0.0975 -0.2709,-0.0847 -0.0987,0.013 -0.1942,0.0745 -0.2872,0.1848 l -1.6092,1.9122 c -0.1287,0.1531 -0.1882,0.292 -0.1766,0.4167 0.0119,0.1239 0.0935,0.25 0.2449,0.3779 l 2.611,2.1968 c 0.1012,0.0854 0.1959,0.1395 0.2849,0.1636 0.0893,0.0238 0.1757,0.0161 0.2588,-0.0235 0.083,-0.0394 0.1666,-0.1083 0.2503,-0.2078 l 1.563,-1.8576 c 0.0949,-0.1122 0.1395,-0.2168 0.1358,-0.3132 -0.003,-0.0961 -0.0462,-0.1786 -0.1267,-0.2463 -0.082,-0.0692 -0.171,-0.0972 -0.2665,-0.0845 -0.0955,0.0125 -0.1902,0.0746 -0.2852,0.1868"
           style="fill:#ffffff;fill-opacity:1;fill-rule:nonzero;stroke:none"
           id="path12081"
           inkscape:connector-curvature="0" />
        <path
           d="m 492.8737,437.6707 -0.9088,-3.0756 2.0662,1.7388 c 0.1344,0.1128 0.2591,0.1687 0.375,0.1678 0.1154,-0.002 0.2149,-0.0507 0.2971,-0.1488 0.0851,-0.1015 0.1182,-0.2095 0.1009,-0.324 -0.0184,-0.1148 -0.0944,-0.2291 -0.2287,-0.3422 l -2.7321,-2.2989 c -0.3047,-0.2565 -0.5632,-0.2582 -0.7758,-0.006 -0.0533,0.0632 -0.0918,0.1275 -0.1162,0.1933 -0.0244,0.066 -0.0357,0.1378 -0.0338,0.2151 0.003,0.0771 0.0142,0.1571 0.0352,0.2393 0.0213,0.083 0.0434,0.1661 0.0666,0.2509 l 0.9128,3.0225 -2.035,-1.7129 c -0.1327,-0.1117 -0.2591,-0.1653 -0.3785,-0.1608 -0.1199,0.005 -0.2208,0.055 -0.3013,0.1508 -0.0842,0.1001 -0.117,0.209 -0.0986,0.3263 0.0184,0.1182 0.093,0.2322 0.2239,0.3422 l 2.6796,2.2552 c 0.1134,0.0958 0.2137,0.1585 0.2996,0.1874 0.0964,0.03 0.1962,0.0286 0.2996,-0.003 0.1038,-0.0315 0.1897,-0.0879 0.2574,-0.1681 0.0533,-0.0632 0.0879,-0.1264 0.1058,-0.1882 0.017,-0.0626 0.0226,-0.1253 0.0167,-0.1885 -0.007,-0.0632 -0.0221,-0.1358 -0.0473,-0.2177 -0.0258,-0.0819 -0.0522,-0.1675 -0.0803,-0.2557"
           style="fill:#ffffff;fill-opacity:1;fill-rule:nonzero;stroke:none"
           id="path12083"
           inkscape:connector-curvature="0" />
        <path
           d="m 492.4179,432.648 2.736,2.3031 c 0.1423,0.1197 0.2764,0.1766 0.4017,0.1718 0.1256,-0.005 0.2319,-0.0586 0.3183,-0.1613 0.0893,-0.1057 0.1259,-0.2213 0.1106,-0.3461 -0.0148,-0.1244 -0.0941,-0.2474 -0.2381,-0.3682 l -2.7363,-2.3031 c -0.1437,-0.1208 -0.279,-0.1783 -0.4048,-0.1727 -0.1264,0.005 -0.2342,0.0613 -0.3232,0.1673 -0.085,0.1012 -0.1196,0.2146 -0.1026,0.3407 0.0168,0.1261 0.0961,0.2492 0.2384,0.3685"
           style="fill:#ffffff;fill-opacity:1;fill-rule:nonzero;stroke:none"
           id="path12085"
           inkscape:connector-curvature="0" />
        <path
           d="m 496.9193,432.8538 -2.5279,-2.1277 1.2002,-1.4264 c 0.0955,-0.1137 0.1417,-0.2239 0.1375,-0.3314 -0.005,-0.1071 -0.0485,-0.1964 -0.1321,-0.267 -0.0848,-0.0714 -0.1792,-0.0998 -0.2829,-0.0844 -0.1032,0.0158 -0.2035,0.081 -0.3005,0.1964 l -1.4298,1.6985 c -0.129,0.1534 -0.1876,0.292 -0.1763,0.4167 0.0116,0.1242 0.0933,0.25 0.2446,0.3779 l 2.6748,2.2507 c 0.142,0.1196 0.2758,0.1774 0.4002,0.1735 0.1251,-0.005 0.2319,-0.0582 0.3198,-0.1628 0.0887,-0.1054 0.1256,-0.2211 0.1105,-0.3458 -0.015,-0.1244 -0.0943,-0.2474 -0.2381,-0.3682"
           style="fill:#ffffff;fill-opacity:1;fill-rule:nonzero;stroke:none"
           id="path12087"
           inkscape:connector-curvature="0" />
        <path
           d="m 500.487,428.2583 -1.3337,1.5851 -0.8532,-0.7177 1.2282,-1.4593 c 0.0902,-0.1074 0.1333,-0.2081 0.1302,-0.3013 -0.004,-0.0939 -0.0454,-0.1732 -0.1242,-0.2398 -0.0788,-0.0667 -0.1653,-0.0947 -0.2591,-0.0845 -0.0935,0.0102 -0.1857,0.07 -0.2772,0.1789 l -1.2286,1.4595 -0.9881,-0.8317 1.3799,-1.6395 c 0.093,-0.1106 0.1375,-0.2149 0.1338,-0.3144 -0.005,-0.0995 -0.0496,-0.1848 -0.1349,-0.2565 -0.0825,-0.0698 -0.1727,-0.0975 -0.2707,-0.0848 -0.0987,0.0131 -0.1942,0.0746 -0.2872,0.1851 l -1.6092,1.912 c -0.1293,0.1533 -0.188,0.292 -0.1766,0.4167 0.0116,0.1241 0.093,0.25 0.2446,0.3781 l 2.6107,2.1966 c 0.1018,0.0853 0.1962,0.1395 0.2855,0.1635 0.0893,0.0239 0.176,0.0162 0.2588,-0.0235 0.083,-0.0391 0.1664,-0.1083 0.2503,-0.2078 l 1.563,-1.8578 c 0.0944,-0.112 0.1397,-0.2166 0.1358,-0.3129 -0.003,-0.0961 -0.046,-0.1786 -0.1267,-0.2464 -0.082,-0.0691 -0.1707,-0.0972 -0.2665,-0.0844 -0.0955,0.0124 -0.1908,0.0745 -0.2849,0.1868"
           style="fill:#ffffff;fill-opacity:1;fill-rule:nonzero;stroke:none"
           id="path12089"
           inkscape:connector-curvature="0" />
        <path
           d="m 501.548,423.1644 c -0.21,-0.1766 -0.4444,-0.2812 -0.703,-0.3138 -0.2588,-0.0326 -0.5227,0.0153 -0.7931,0.144 -0.2701,0.1284 -0.5258,0.3359 -0.7659,0.6219 -0.2886,0.3427 -0.4621,0.6801 -0.5199,1.012 -0.0397,0.2361 -0.023,0.4691 0.049,0.6987 0.0726,0.2297 0.1823,0.4062 0.3294,0.5301 0.0851,0.0717 0.1832,0.1035 0.2937,0.0956 0.1106,-0.008 0.2049,-0.0582 0.2818,-0.1494 0.0626,-0.0743 0.0915,-0.1571 0.0876,-0.2484 -0.004,-0.0912 -0.0383,-0.1941 -0.1004,-0.3089 -0.0734,-0.1372 -0.1258,-0.2631 -0.1565,-0.3765 -0.0314,-0.1142 -0.0317,-0.2378 -0.001,-0.3713 0.0298,-0.1335 0.1089,-0.2767 0.2364,-0.4286 0.1755,-0.2084 0.3668,-0.3368 0.5737,-0.3849 0.2064,-0.0491 0.3827,-0.012 0.5281,0.1102 0.1151,0.0972 0.1792,0.2112 0.1919,0.3416 0.0128,0.1307 -0.009,0.2676 -0.0643,0.411 -0.0561,0.1434 -0.1406,0.3263 -0.2554,0.5485 -0.1514,0.2988 -0.2591,0.5652 -0.3223,0.7991 -0.0635,0.2339 -0.0692,0.4575 -0.017,0.6696 0.0516,0.2125 0.1786,0.4028 0.3787,0.5714 0.1911,0.161 0.4051,0.252 0.6409,0.2727 0.2364,0.0207 0.4774,-0.034 0.724,-0.1641 0.2455,-0.1304 0.481,-0.3291 0.7055,-0.5959 0.1792,-0.2134 0.3082,-0.4201 0.3861,-0.6202 0.0782,-0.2001 0.1162,-0.3883 0.1148,-0.5649 -10e-4,-0.1763 -0.0298,-0.3288 -0.0862,-0.4573 -0.0567,-0.1284 -0.1306,-0.2313 -0.2219,-0.3086 -0.0839,-0.0703 -0.1848,-0.1041 -0.3016,-0.101 -0.1165,0.003 -0.2126,0.0477 -0.2869,0.1364 -0.068,0.0802 -0.0995,0.1587 -0.0938,0.2344 0.005,0.076 0.0323,0.1766 0.0828,0.303 0.0779,0.1732 0.1165,0.3351 0.1153,0.4853 -5e-4,0.1505 -0.0839,0.3235 -0.2486,0.5193 -0.153,0.1815 -0.3158,0.2946 -0.4895,0.3391 -0.1738,0.0439 -0.3158,0.0192 -0.4286,-0.0757 -0.0695,-0.0584 -0.1134,-0.1279 -0.1318,-0.2081 -0.019,-0.0805 -0.0187,-0.1692 0.001,-0.2659 0.019,-0.0975 0.0468,-0.1885 0.0836,-0.2738 0.0371,-0.0848 0.1012,-0.2222 0.1936,-0.4119 0.1188,-0.2347 0.2174,-0.4541 0.2954,-0.6596 0.0785,-0.2049 0.1253,-0.3969 0.14,-0.574 0.0145,-0.178 -0.0125,-0.3492 -0.0808,-0.5131 -0.068,-0.1644 -0.1899,-0.3203 -0.3651,-0.468"
           style="fill:#ffffff;fill-opacity:1;fill-rule:nonzero;stroke:none"
           id="path12091"
           inkscape:connector-curvature="0" />
      </g>
      <g
         id="g12093">
        <g
           id="g12095">
          <path
             d="m 445.9589,367.1762 c 0,-0.1449 -0.0354,-0.3008 -0.1068,-0.4694 -0.0712,-0.1681 -0.1834,-0.3331 -0.3357,-0.4952 -0.1533,-0.1622 -0.3483,-0.294 -0.5856,-0.3949 -0.2375,-0.1012 -0.5139,-0.1519 -0.8297,-0.1519 -0.2395,0 -0.4575,0.0229 -0.6537,0.0683 -0.1961,0.0453 -0.3741,0.1162 -0.5343,0.212 -0.1599,0.0961 -0.3067,0.2225 -0.4411,0.3796 -0.1196,0.1423 -0.2222,0.3019 -0.3067,0.4784 -0.0844,0.1764 -0.1479,0.3649 -0.1902,0.565 -0.0422,0.2004 -0.0638,0.413 -0.0638,0.6381 0,0.3654 0.0536,0.6925 0.1599,0.9816 0.1063,0.2889 0.2585,0.536 0.4567,0.7416 0.1981,0.2052 0.4303,0.3617 0.6964,0.4691 0.2662,0.1074 0.5503,0.161 0.8519,0.161 0.3676,0 0.6944,-0.0734 0.9819,-0.22 0.2866,-0.1465 0.5065,-0.3274 0.659,-0.5434 0.1531,-0.2157 0.2294,-0.4195 0.2294,-0.6117 0,-0.1052 -0.0372,-0.1981 -0.1114,-0.2784 -0.0743,-0.0807 -0.1642,-0.121 -0.2693,-0.121 -0.118,0 -0.2061,0.0281 -0.2651,0.0836 -0.0589,0.0559 -0.1241,0.152 -0.1964,0.288 -0.1199,0.2251 -0.2608,0.3932 -0.4229,0.5049 -0.1622,0.1114 -0.3617,0.1672 -0.5993,0.1672 -0.3776,0 -0.6786,-0.1434 -0.9025,-0.4306 -0.2243,-0.2868 -0.3359,-0.6944 -0.3359,-1.2231 0,-0.3529 0.0496,-0.6466 0.1485,-0.881 0.0989,-0.2342 0.2395,-0.4093 0.4212,-0.525 0.1817,-0.1154 0.3943,-0.1732 0.6381,-0.1732 0.2642,0 0.4873,0.0655 0.6701,0.1965 0.1831,0.1312 0.3206,0.324 0.4136,0.5777 0.0391,0.1199 0.0879,0.2174 0.1454,0.2925 0.0578,0.0754 0.1508,0.1131 0.2789,0.1131 0.1092,0 0.203,-0.0383 0.2815,-0.1145 0.0785,-0.0763 0.1179,-0.1712 0.1179,-0.2849"
             style="fill:#ffffff;fill-opacity:1;fill-rule:nonzero;stroke:none"
             id="path12097"
             inkscape:connector-curvature="0" />
          <path
             d="m 448.6754,370.3595 c 0.4708,0 0.8745,-0.0955 1.2121,-0.2863 0.3376,-0.1911 0.5933,-0.4626 0.7667,-0.8147 0.1732,-0.3518 0.26,-0.7651 0.26,-1.2401 0,-0.351 -0.0476,-0.6701 -0.1423,-0.9567 -0.0953,-0.2872 -0.2376,-0.5361 -0.4275,-0.7464 -0.1902,-0.2106 -0.4232,-0.3716 -0.6996,-0.483 -0.2772,-0.1117 -0.5938,-0.1675 -0.951,-0.1675 -0.3552,0 -0.6732,0.0575 -0.9536,0.1723 -0.2806,0.1142 -0.515,0.2758 -0.7027,0.4844 -0.1882,0.2084 -0.3299,0.4593 -0.426,0.7524 -0.0961,0.2931 -0.1438,0.61 -0.1438,0.9507 0,0.3489 0.0499,0.669 0.1497,0.9598 0.1004,0.2914 0.2455,0.5392 0.4354,0.7435 0.1899,0.2041 0.4212,0.3606 0.6934,0.4689 0.2729,0.1086 0.5822,0.1627 0.9292,0.1627 z m 1.307,-2.3349 0,0 c 0,0.3322 -0.0538,0.6205 -0.1613,0.864 -0.1074,0.2435 -0.2605,0.4277 -0.4597,0.5525 -0.1993,0.1253 -0.4281,0.1876 -0.686,0.1876 -0.184,0 -0.3538,-0.0346 -0.5094,-0.1037 -0.1559,-0.0692 -0.29,-0.1698 -0.4025,-0.3022 -0.1129,-0.1321 -0.2016,-0.3008 -0.2665,-0.506 -0.0649,-0.2055 -0.0978,-0.4362 -0.0978,-0.6922 0,-0.2582 0.0329,-0.4912 0.0978,-0.6999 0.0649,-0.2086 0.157,-0.3812 0.2758,-0.5184 0.1188,-0.1375 0.2549,-0.2401 0.4085,-0.3082 0.1539,-0.0683 0.3226,-0.1023 0.5065,-0.1023 0.235,0 0.4516,0.059 0.6489,0.1766 0.197,0.1176 0.3538,0.2993 0.4705,0.5448 0.1165,0.2458 0.1752,0.548 0.1752,0.9074"
             style="fill:#ffffff;fill-opacity:1;fill-rule:nonzero;stroke:none"
             id="path12099"
             inkscape:connector-curvature="0" />
          <path
             d="m 452.4936,369.8022 0,-3.3041 1.8644,0 c 0.1485,0 0.2628,-0.0362 0.3421,-0.1085 0.0794,-0.0723 0.1191,-0.1633 0.1191,-0.2724 0,-0.1117 -0.0391,-0.2019 -0.1179,-0.271 -0.078,-0.0692 -0.1928,-0.1038 -0.3433,-0.1038 l -2.2204,0 c -0.2001,0 -0.3444,0.0445 -0.432,0.133 -0.0879,0.089 -0.1318,0.2324 -0.1318,0.4306 l 0,3.4962 c 0,0.186 0.0419,0.3251 0.1256,0.4181 0.0836,0.0927 0.1939,0.1392 0.3299,0.1392 0.1384,0 0.25,-0.0459 0.3359,-0.1378 0.0859,-0.0918 0.1284,-0.2318 0.1284,-0.4195"
             style="fill:#ffffff;fill-opacity:1;fill-rule:nonzero;stroke:none"
             id="path12101"
             inkscape:connector-curvature="0" />
          <path
             d="m 455.885,370.2821 1.1985,0 c 0.3115,0 0.5791,-0.0289 0.8019,-0.0867 0.2228,-0.0579 0.4249,-0.1661 0.6069,-0.3252 0.4728,-0.4045 0.7092,-1.0199 0.7092,-1.8456 0,-0.2724 -0.0238,-0.5213 -0.0711,-0.7464 -0.0479,-0.225 -0.1208,-0.4277 -0.22,-0.6083 -0.0995,-0.1808 -0.2262,-0.3421 -0.381,-0.4847 -0.1216,-0.1094 -0.2548,-0.1973 -0.3994,-0.2631 -0.1442,-0.0663 -0.2999,-0.1128 -0.4663,-0.1394 -0.1658,-0.027 -0.3531,-0.0403 -0.5618,-0.0403 l -1.1985,0 c -0.1669,0 -0.2928,0.0253 -0.3778,0.076 -0.0845,0.0502 -0.1395,0.1216 -0.1656,0.2134 -0.0255,0.0919 -0.0388,0.2112 -0.0388,0.3578 l 0,3.329 c 0,0.1981 0.0442,0.3416 0.1332,0.4303 0.0887,0.0887 0.2325,0.1332 0.4306,0.1332 z m 0.356,-0.7279 0,0 0,-3.081 0.6968,0 c 0.1528,0 0.2724,0.004 0.3591,0.0125 0.0871,0.008 0.1766,0.0289 0.2696,0.0618 0.0927,0.0331 0.1732,0.0796 0.2415,0.1394 0.3073,0.26 0.4615,0.7081 0.4615,1.3439 0,0.4479 -0.0677,0.7835 -0.2032,1.0066 -0.135,0.2228 -0.3016,0.3648 -0.4998,0.4255 -0.1984,0.0609 -0.4379,0.0913 -0.7186,0.0913 l -0.6069,0 z"
             style="fill:#ffffff;fill-opacity:1;fill-rule:nonzero;stroke:none"
             id="path12103"
             inkscape:connector-curvature="0" />
          <path
             d="m 462.8934,369.5729 -2.0716,0 0,-1.1149 1.9072,0 c 0.1406,0 0.2455,-0.0314 0.3146,-0.0944 0.0692,-0.0629 0.1038,-0.146 0.1038,-0.2491 0,-0.1032 -0.034,-0.1874 -0.1024,-0.2523 -0.068,-0.0652 -0.1734,-0.0978 -0.316,-0.0978 l -1.9072,0 0,-1.2912 2.143,0 c 0.144,0 0.2532,-0.0337 0.3263,-0.1006 0.0734,-0.0672 0.1103,-0.1565 0.1103,-0.2679 0,-0.1074 -0.0369,-0.1947 -0.1103,-0.2616 -0.0731,-0.0672 -0.1823,-0.1007 -0.3263,-0.1007 l -2.4993,0 c -0.2001,0 -0.3441,0.0445 -0.432,0.133 -0.0876,0.089 -0.1315,0.2324 -0.1315,0.4306 l 0,3.4126 c 0,0.1318 0.0195,0.2401 0.0589,0.3237 0.0392,0.0833 0.1007,0.1443 0.184,0.1826 0.0836,0.0382 0.1908,0.0572 0.3206,0.0572 l 2.4279,0 c 0.1465,0 0.2554,-0.0326 0.3265,-0.0975 0.0712,-0.0652 0.1072,-0.1502 0.1072,-0.2554 0,-0.1074 -0.036,-0.1936 -0.1072,-0.2588 -0.0711,-0.0649 -0.18,-0.0975 -0.3265,-0.0975"
             style="fill:#ffffff;fill-opacity:1;fill-rule:nonzero;stroke:none"
             id="path12105"
             inkscape:connector-curvature="0" />
          <path
             d="m 465.7859,367.5107 -0.8422,0 0,-1.2853 c 0,-0.1836 -0.0434,-0.3231 -0.1301,-0.4181 -0.0865,-0.0949 -0.1965,-0.1425 -0.3283,-0.1425 -0.138,0 -0.2497,0.047 -0.3345,0.1408 -0.0844,0.0944 -0.1267,0.2319 -0.1267,0.4136 l 0,3.4994 c 0,0.2021 0.0465,0.3467 0.1392,0.4334 0.093,0.0867 0.2407,0.1301 0.4431,0.1301 l 1.1795,0 c 0.3492,0 0.6176,-0.0269 0.8053,-0.0805 0.1857,-0.0516 0.3461,-0.1375 0.4816,-0.2568 0.1352,-0.1199 0.2375,-0.2665 0.3081,-0.4399 0.0697,-0.1735 0.1052,-0.3686 0.1052,-0.5854 0,-0.4623 -0.1423,-0.8127 -0.4275,-1.0511 -0.2849,-0.2387 -0.7089,-0.3577 -1.2727,-0.3577 z m -0.2228,2.0809 0,0 -0.6194,0 0,-1.3873 0.6194,0 c 0.2168,0 0.3979,0.0227 0.5434,0.068 0.1454,0.0454 0.2565,0.1197 0.3327,0.2228 0.0766,0.1035 0.1148,0.2387 0.1148,0.4057 0,0.2004 -0.0586,0.3634 -0.1766,0.4895 -0.1323,0.1341 -0.4036,0.2013 -0.8143,0.2013"
             style="fill:#ffffff;fill-opacity:1;fill-rule:nonzero;stroke:none"
             id="path12107"
             inkscape:connector-curvature="0" />
          <path
             d="m 470.1438,370.3595 c 0.4709,0 0.8745,-0.0955 1.2121,-0.2863 0.3376,-0.1911 0.5933,-0.4626 0.7665,-0.8147 0.1735,-0.3518 0.26,-0.7651 0.26,-1.2401 0,-0.351 -0.0474,-0.6701 -0.1421,-0.9567 -0.0952,-0.2872 -0.2378,-0.5361 -0.4277,-0.7464 -0.1899,-0.2106 -0.4229,-0.3716 -0.6993,-0.483 -0.277,-0.1117 -0.5936,-0.1675 -0.951,-0.1675 -0.3549,0 -0.673,0.0575 -0.9533,0.1723 -0.2809,0.1142 -0.5154,0.2758 -0.703,0.4844 -0.1885,0.2084 -0.33,0.4593 -0.4261,0.7524 -0.0961,0.2931 -0.144,0.61 -0.144,0.9507 0,0.3489 0.0502,0.669 0.15,0.9598 0.1003,0.2914 0.2455,0.5392 0.4354,0.7435 0.1899,0.2041 0.4212,0.3606 0.6936,0.4689 0.2724,0.1086 0.582,0.1627 0.9289,0.1627 z m 1.3071,-2.3349 0,0 c 0,0.3322 -0.0539,0.6205 -0.1613,0.864 -0.1071,0.2435 -0.2605,0.4277 -0.4598,0.5525 -0.1992,0.1253 -0.428,0.1876 -0.686,0.1876 -0.1839,0 -0.3537,-0.0346 -0.5093,-0.1037 -0.1559,-0.0692 -0.29,-0.1698 -0.4026,-0.3022 -0.1128,-0.1321 -0.2015,-0.3008 -0.2664,-0.506 -0.0649,-0.2055 -0.0978,-0.4362 -0.0978,-0.6922 0,-0.2582 0.0329,-0.4912 0.0978,-0.6999 0.0649,-0.2086 0.157,-0.3812 0.2758,-0.5184 0.1185,-0.1375 0.2548,-0.2401 0.4085,-0.3082 0.1539,-0.0683 0.3225,-0.1023 0.5065,-0.1023 0.2353,0 0.4516,0.059 0.6486,0.1766 0.1973,0.1176 0.354,0.2993 0.4708,0.5448 0.1165,0.2458 0.1752,0.548 0.1752,0.9074"
             style="fill:#ffffff;fill-opacity:1;fill-rule:nonzero;stroke:none"
             id="path12109"
             inkscape:connector-curvature="0" />
          <path
             d="m 474.2969,367.6839 -0.3223,0 0,-1.4585 c 0,-0.1919 -0.0423,-0.3333 -0.127,-0.424 -0.0848,-0.091 -0.195,-0.1366 -0.3314,-0.1366 -0.1465,0 -0.2599,0.0476 -0.3407,0.1425 -0.0802,0.095 -0.1208,0.2345 -0.1208,0.4181 l 0,3.4932 c 0,0.1981 0.0445,0.3416 0.1333,0.4303 0.0887,0.0887 0.2324,0.1332 0.4306,0.1332 l 1.4955,0 c 0.2067,0 0.3827,-0.009 0.5295,-0.0264 0.1466,-0.0175 0.2787,-0.053 0.3966,-0.1068 0.142,-0.0598 0.2679,-0.1454 0.3778,-0.2571 0.1092,-0.1114 0.1925,-0.241 0.2492,-0.3884 0.0567,-0.1477 0.0848,-0.3041 0.0848,-0.4694 0,-0.3384 -0.095,-0.6089 -0.2863,-0.8113 -0.1908,-0.2024 -0.4805,-0.3458 -0.8686,-0.4305 0.163,-0.0865 0.3189,-0.2146 0.4678,-0.3839 0.1485,-0.1692 0.2814,-0.3495 0.3979,-0.5402 0.1165,-0.1911 0.2072,-0.3634 0.2727,-0.5174 0.0649,-0.1536 0.0973,-0.2593 0.0973,-0.3172 0,-0.0601 -0.0193,-0.1193 -0.0573,-0.178 -0.0383,-0.0589 -0.0904,-0.1054 -0.1568,-0.1394 -0.0654,-0.0341 -0.142,-0.0513 -0.2284,-0.0513 -0.1035,0 -0.1905,0.0246 -0.2605,0.0728 -0.0701,0.0485 -0.1307,0.11 -0.1809,0.1845 -0.0507,0.0743 -0.1196,0.1837 -0.2061,0.328 l -0.3685,0.6131 c -0.1321,0.2251 -0.2506,0.3966 -0.3546,0.5142 -0.104,0.1177 -0.21,0.1982 -0.3175,0.2416 -0.1071,0.0433 -0.2423,0.0649 -0.4053,0.0649 z m 0.5261,1.9077 0,0 -0.8484,0 0,-1.2481 0.8237,0 c 0.2208,0 0.4065,0.0193 0.5573,0.0575 0.1505,0.038 0.2659,0.1029 0.3453,0.1948 0.0794,0.0918 0.1196,0.2185 0.1196,0.3795 0,0.1259 -0.032,0.237 -0.0961,0.3328 -0.0641,0.0961 -0.1528,0.1678 -0.2664,0.2155 -0.1075,0.0453 -0.3192,0.068 -0.635,0.068"
             style="fill:#ffffff;fill-opacity:1;fill-rule:nonzero;stroke:none"
             id="path12111"
             inkscape:connector-curvature="0" />
          <path
             d="m 480.1465,369.5236 -1.0035,0 0,-3.2982 c 0,-0.1899 -0.0422,-0.3308 -0.1267,-0.4226 -0.0851,-0.0918 -0.1942,-0.138 -0.3283,-0.138 -0.136,0 -0.2474,0.0467 -0.3328,0.1394 -0.0858,0.093 -0.1286,0.2333 -0.1286,0.4212 l 0,3.2982 -1.0032,0 c -0.1571,0 -0.2739,0.0345 -0.3501,0.1034 -0.0763,0.0692 -0.1145,0.1605 -0.1145,0.2741 0,0.1177 0.0399,0.2106 0.1193,0.2787 0.0791,0.0683 0.1945,0.1023 0.3453,0.1023 l 2.9231,0 c 0.159,0 0.2775,-0.0351 0.3546,-0.1052 0.0774,-0.0703 0.1162,-0.1621 0.1162,-0.2758 0,-0.1136 -0.0394,-0.2049 -0.1179,-0.2741 -0.0785,-0.0689 -0.1959,-0.1034 -0.3529,-0.1034"
             style="fill:#ffffff;fill-opacity:1;fill-rule:nonzero;stroke:none"
             id="path12113"
             inkscape:connector-curvature="0" />
          <path
             d="m 484.0461,369.5729 -2.0716,0 0,-1.1149 1.9075,0 c 0.1403,0 0.2451,-0.0314 0.3143,-0.0944 0.0692,-0.0629 0.1038,-0.146 0.1038,-0.2491 0,-0.1032 -0.0343,-0.1874 -0.1024,-0.2523 -0.068,-0.0652 -0.1734,-0.0978 -0.3157,-0.0978 l -1.9075,0 0,-1.2912 2.1427,0 c 0.1446,0 0.2532,-0.0337 0.3266,-0.1006 0.0734,-0.0672 0.1102,-0.1565 0.1102,-0.2679 0,-0.1074 -0.0368,-0.1947 -0.1102,-0.2616 -0.0734,-0.0672 -0.182,-0.1007 -0.3266,-0.1007 l -2.499,0 c -0.2004,0 -0.3441,0.0445 -0.432,0.133 -0.0876,0.089 -0.1315,0.2324 -0.1315,0.4306 l 0,3.4126 c 0,0.1318 0.0195,0.2401 0.0589,0.3237 0.0392,0.0833 0.1007,0.1443 0.184,0.1826 0.0836,0.0382 0.1908,0.0572 0.3206,0.0572 l 2.4279,0 c 0.1465,0 0.2551,-0.0326 0.3265,-0.0975 0.0712,-0.0652 0.1072,-0.1502 0.1072,-0.2554 0,-0.1074 -0.036,-0.1936 -0.1072,-0.2588 -0.0714,-0.0649 -0.18,-0.0975 -0.3265,-0.0975"
             style="fill:#ffffff;fill-opacity:1;fill-rule:nonzero;stroke:none"
             id="path12115"
             inkscape:connector-curvature="0" />
          <path
             d="m 488.6266,367.105 c 0,-0.2746 -0.0709,-0.5213 -0.212,-0.7401 -0.1418,-0.2188 -0.349,-0.3903 -0.6211,-0.5142 -0.2727,-0.1239 -0.5959,-0.1859 -0.9695,-0.1859 -0.4478,0 -0.8178,0.0847 -1.1086,0.2539 -0.2061,0.1219 -0.3739,0.2846 -0.5031,0.4879 -0.129,0.2032 -0.1937,0.4011 -0.1937,0.593 0,0.1117 0.0392,0.2069 0.1163,0.2866 0.0774,0.0793 0.1757,0.119 0.2959,0.119 0.0967,0 0.1786,-0.0309 0.2461,-0.0929 0.0671,-0.0618 0.1241,-0.154 0.1717,-0.2753 0.0579,-0.1448 0.1202,-0.2656 0.1871,-0.3625 0.0672,-0.097 0.1619,-0.1772 0.2835,-0.2401 0.1222,-0.063 0.2817,-0.0944 0.4802,-0.0944 0.2724,0 0.4938,0.0635 0.6641,0.1905 0.1704,0.1269 0.2557,0.2854 0.2557,0.4753 0,0.1508 -0.0462,0.273 -0.1378,0.3671 -0.0918,0.0938 -0.2108,0.1656 -0.3565,0.2152 -0.1455,0.0496 -0.3402,0.102 -0.5834,0.1579 -0.3266,0.0762 -0.5993,0.1655 -0.8189,0.2678 -0.22,0.1021 -0.3946,0.2415 -0.5239,0.4181 -0.1287,0.1764 -0.1933,0.3958 -0.1933,0.658 0,0.2497 0.0683,0.4716 0.2044,0.6658 0.1363,0.1939 0.3333,0.3433 0.5916,0.4473 0.2579,0.1043 0.5612,0.1565 0.9104,0.1565 0.2787,0 0.5193,-0.0346 0.7229,-0.1038 0.2032,-0.0691 0.3722,-0.161 0.5062,-0.2755 0.1344,-0.1148 0.2322,-0.235 0.2946,-0.3608 0.0618,-0.1259 0.0927,-0.2489 0.0927,-0.3685 0,-0.1095 -0.0389,-0.2081 -0.1163,-0.296 -0.0771,-0.0876 -0.1734,-0.1312 -0.2894,-0.1312 -0.1054,0 -0.1851,0.0261 -0.2404,0.0791 -0.0544,0.0521 -0.1136,0.1386 -0.1777,0.2582 -0.0825,0.1715 -0.1814,0.3053 -0.2971,0.4011 -0.1156,0.0961 -0.3019,0.144 -0.5573,0.144 -0.2378,0 -0.4291,-0.0521 -0.5745,-0.1565 -0.1455,-0.104 -0.2186,-0.2296 -0.2186,-0.3761 0,-0.091 0.025,-0.1692 0.0743,-0.2353 0.0496,-0.066 0.1179,-0.123 0.2044,-0.1704 0.0867,-0.0473 0.1746,-0.0844 0.2633,-0.1114 0.089,-0.0269 0.2353,-0.0663 0.4397,-0.1179 0.2562,-0.0598 0.4878,-0.1258 0.6953,-0.1978 0.2075,-0.0726 0.3841,-0.1602 0.5295,-0.2634 0.1457,-0.1034 0.2591,-0.2338 0.3407,-0.3917 0.0814,-0.1579 0.1225,-0.3515 0.1225,-0.5806"
             style="fill:#ffffff;fill-opacity:1;fill-rule:nonzero;stroke:none"
             id="path12117"
             inkscape:connector-curvature="0" />
        </g>
      </g>
      <g
         id="g12119">
        <path
           d="m 470.7468,403.09 c 3.2975,3.8475 4.2324,9.9502 0.0269,16.7239 -3.4988,5.6372 -2.7425,10.675 -1.9284,13.2652 0.0762,-1.6508 0.6398,-6.3082 4.3174,-12.4778 4.5814,-7.6864 2.2774,-14.3526 -2.4159,-17.5113"
           style="fill:#88b437;fill-opacity:1;fill-rule:nonzero;stroke:none"
           id="path12121"
           inkscape:connector-curvature="0" />
        <path
           d="m 470.7468,403.09 c -0.004,-0.004 -0.004,-0.004 -0.009,-0.009 -0.0357,-0.0266 -0.076,-0.0535 -0.1117,-0.0759 -1.4363,-0.944 -3.5209,-1.709 -5.7713,-1.9505 -1.2036,-0.1299 -2.452,-0.1075 -3.6734,0.1162 -4.0893,0.7517 -7.8787,3.776 -8.5989,11.082 -1.3422,13.5698 16.2541,21.4753 16.2541,21.4753 0,0 -0.0136,-0.2237 0.009,-0.6443 l 0,-0.005 c -0.8141,-2.5902 -1.5704,-7.628 1.9284,-13.2652 4.2055,-6.7737 3.2706,-12.8764 -0.0269,-16.7239"
           style="fill:#009444;fill-opacity:1;fill-rule:nonzero;stroke:none"
           id="path12123"
           inkscape:connector-curvature="0" />
        <g
           id="g12125">
          <path
             d="m 464.7796,418.7188 c 1.2444,0.0995 2.7569,-2.2232 2.6679,-3.9571 -0.089,-1.7343 -0.7032,-3.3721 -2.6679,-3.3795 -2.3015,-0.009 -2.4455,2.49 -2.2678,4.0017 0.1781,1.512 1.1563,3.2462 2.2678,3.3349"
             style="fill:#ffffff;fill-opacity:1;fill-rule:nonzero;stroke:none"
             id="path12127"
             inkscape:connector-curvature="0" />
          <path
             d="m 464.7679,411.1586 c -0.7432,0 -1.3373,0.2446 -1.7668,0.7273 -0.8651,0.9729 -0.8167,2.6258 -0.7109,3.5243 0.1907,1.6254 1.2299,3.4322 2.4715,3.5317 0.4944,0.0386 1.0332,-0.2282 1.5452,-0.7668 0.86,-0.9059 1.421,-2.3142 1.3637,-3.4253 -0.1196,-2.3429 -1.1191,-3.5847 -2.8899,-3.5912 l -0.0128,0 z m 0.0902,7.3397 0,0 c -0.0204,0 -0.0403,-6e-4 -0.0604,-0.003 -0.9791,-0.0782 -1.8967,-1.7211 -2.0633,-3.1379 -0.078,-0.6633 -0.1761,-2.3009 0.6009,-3.1745 0.3407,-0.3833 0.8226,-0.5774 1.4326,-0.5774 l 0,-0.2237 0.0108,0.2237 c 1.5154,0.005 2.338,1.0712 2.4455,3.1668 0.0501,0.9822 -0.4717,2.2836 -1.2416,3.0943 -0.3872,0.4071 -0.7866,0.6313 -1.1245,0.6313"
             style="fill:#001504;fill-opacity:1;fill-rule:nonzero;stroke:none"
             id="path12129"
             inkscape:connector-curvature="0" />
        </g>
        <g
           id="g12131">
          <path
             d="m 457.0203,418.7188 c 1.2441,0.0995 2.7567,-2.2232 2.668,-3.9571 -0.0891,-1.7343 -0.7036,-3.3721 -2.668,-3.3795 -2.3017,-0.009 -2.4455,2.49 -2.2677,4.0017 0.178,1.512 1.1559,3.2462 2.2677,3.3349"
             style="fill:#ffffff;fill-opacity:1;fill-rule:nonzero;stroke:none"
             id="path12133"
             inkscape:connector-curvature="0" />
          <path
             d="m 457.0084,411.1586 c -0.743,0 -1.3374,0.2446 -1.7666,0.7273 -0.8654,0.9732 -0.8169,2.6258 -0.7112,3.5243 0.1908,1.6254 1.23,3.4322 2.4715,3.5317 0.493,0.0386 1.0333,-0.2279 1.5446,-0.7665 0.8606,-0.9056 1.4216,-2.3142 1.3649,-3.4254 -0.1202,-2.3431 -1.1197,-3.5849 -2.8907,-3.5914 l -0.0125,0 z m 0.0898,7.3397 0,0 c -0.0201,0 -0.0399,-6e-4 -0.0603,-0.003 -0.9791,-0.0782 -1.8964,-1.7211 -2.0628,-3.1379 -0.0785,-0.6633 -0.1763,-2.3009 0.6009,-3.1745 0.3408,-0.3833 0.8229,-0.5774 1.4324,-0.5774 l 0,-0.2237 0.0107,0.2237 c 1.5155,0.005 2.3381,1.0712 2.4461,3.1671 0.0501,0.9822 -0.4723,2.2836 -1.2427,3.094 -0.3867,0.4071 -0.7861,0.6313 -1.1243,0.6313"
             style="fill:#231f20;fill-opacity:1;fill-rule:nonzero;stroke:none"
             id="path12135"
             inkscape:connector-curvature="0" />
        </g>
        <path
           d="m 458.119,408.5892 c 0,0 1.9695,-0.6585 3.8134,-0.6585 1.844,0 3.2891,0.6585 3.2891,0.6585 0,0 -0.8606,-2.768 -3.5238,-2.8998 -2.6631,-0.1318 -3.5787,2.8998 -3.5787,2.8998"
           style="fill:#3c2415;fill-opacity:1;fill-rule:nonzero;stroke:none"
           id="path12137"
           inkscape:connector-curvature="0" />
        <path
           d="m 464.8547,401.0545 c -0.0136,-0.2642 -0.0315,-0.5103 -0.0448,-0.7518 -0.0182,-0.2506 -0.036,-0.4876 -0.0539,-0.7115 -0.1295,-1.7132 -0.2863,-2.6844 -0.4518,-3.2034 -0.0938,-0.2996 -0.1879,-0.4519 -0.2818,-0.5145 -0.1879,-0.1296 -0.2372,-0.1877 -0.5369,-0.2013 -0.1788,-0.009 -0.4475,0 -0.8903,0.0179 -0.0448,0.004 -0.0896,0.004 -0.1386,0.009 -0.2954,0.0178 -0.5148,0.1162 -0.6801,0.3087 -0.4206,0.4875 -0.4966,1.5525 -0.5414,3.2839 -0.0133,0.2863 -0.0224,0.5904 -0.0269,0.9127 -0.009,0.3042 -0.0179,0.6262 -0.0269,0.9664 1.2214,-0.2237 2.4698,-0.2461 3.6734,-0.1162"
           style="fill:#006838;fill-opacity:1;fill-rule:nonzero;stroke:none"
           id="path12139"
           inkscape:connector-curvature="0" />
        <path
           d="m 464.8099,400.3027 c 0.5593,-0.3356 1.7538,-1.1721 2.067,-2.4114 0.4204,-1.6331 0.1432,-2.6802 -0.8011,-2.8188 -0.9394,-0.1386 -0.9394,1.7048 -0.765,2.698 0.1746,0.9933 0.1389,1.1319 0,1.3779 0,0 -0.2461,0.2461 -0.5548,0.4428 l 0.0539,0.7115 z"
           style="fill:#00a650;fill-opacity:1;fill-rule:nonzero;stroke:none"
           id="path12141"
           inkscape:connector-curvature="0" />
        <path
           d="m 461.2082,400.2043 c -0.2282,-0.2148 -0.6041,-0.4206 -1.2257,-0.4654 -1.4273,-0.1029 -2.7159,0.1746 -2.8188,-0.4876 -0.1074,-0.6621 -0.1074,-1.5301 0.868,-1.6733 0.9754,-0.1389 1.9148,0.1744 2.3712,0.9083 0.2551,0.407 0.5592,0.6667 0.8322,0.8053 l -0.0269,0.9127 z"
           style="fill:#00a650;fill-opacity:1;fill-rule:nonzero;stroke:none"
           id="path12143"
           inkscape:connector-curvature="0" />
        <path
           d="m 462.5952,395.6899 0,-0.6262 c 0,0 -0.2103,-3.6465 -0.4519,-3.9954 -0.246,-0.349 -0.765,-0.5236 -1.879,-0.4519 -1.1186,0.0672 -1.3244,1.1812 -0.9754,1.982 0.3444,0.8008 1.9462,1.3961 2.2594,1.8479 0.1834,0.2639 0.2282,1.0021 0.2282,1.5614 l 0.8187,-0.3178 z"
           style="fill:#00a650;fill-opacity:1;fill-rule:nonzero;stroke:none"
           id="path12145"
           inkscape:connector-curvature="0" />
        <path
           d="m 463.4855,395.672 0,-0.6083 c 0,0 0.2058,-3.6465 0.4519,-3.9954 0.2415,-0.349 0.7651,-0.5236 1.8791,-0.4519 1.114,0.0672 1.3243,1.1812 0.9754,1.982 -0.349,0.8008 -1.9508,1.3961 -2.2641,1.8479 -0.2279,0.3308 -0.2369,1.4003 -0.2236,1.9415 0.005,0.197 0.0136,0.3223 0.0136,0.3223 l -0.8323,-1.0381 z"
           style="fill:#00a650;fill-opacity:1;fill-rule:nonzero;stroke:none"
           id="path12147"
           inkscape:connector-curvature="0" />
        <path
           d="m 466.7023,414.0692 c 0,-0.6265 -0.5057,-1.1319 -1.1319,-1.1319 -0.6264,0 -1.1318,0.5054 -1.1318,1.1319 l 0,0.0448 c 0.0983,-0.027 0.2057,-0.0448 0.3174,-0.0448 0.6132,0 1.1098,0.4833 1.1319,1.0871 0.47,-0.1387 0.8144,-0.5726 0.8144,-1.0871"
           style="fill:#3c2415;fill-opacity:1;fill-rule:nonzero;stroke:none"
           id="path12149"
           inkscape:connector-curvature="0" />
        <path
           d="m 458.8353,414.0692 c 0,-0.6265 -0.5054,-1.1319 -1.1319,-1.1319 -0.6261,0 -1.1318,0.5054 -1.1318,1.1319 l 0,0.0448 c 0.0983,-0.027 0.2058,-0.0448 0.3177,-0.0448 0.6129,0 1.1095,0.4833 1.1319,1.0871 0.4697,-0.1387 0.8141,-0.5726 0.8141,-1.0871"
           style="fill:#3c2415;fill-opacity:1;fill-rule:nonzero;stroke:none"
           id="path12151"
           inkscape:connector-curvature="0" />
      </g>
    </g>
  </g>
</svg>
