<?xml version="1.0" encoding="UTF-8" standalone="no"?>
<!-- Created with Inkscape (http://www.inkscape.org/) -->

<svg
   xmlns:dc="http://purl.org/dc/elements/1.1/"
   xmlns:cc="http://creativecommons.org/ns#"
   xmlns:rdf="http://www.w3.org/1999/02/22-rdf-syntax-ns#"
   xmlns:svg="http://www.w3.org/2000/svg"
   xmlns="http://www.w3.org/2000/svg"
   xmlns:sodipodi="http://sodipodi.sourceforge.net/DTD/sodipodi-0.dtd"
   xmlns:inkscape="http://www.inkscape.org/namespaces/inkscape"
   width="42.381699mm"
   height="36.419403mm"
   viewBox="0 0 150.17137 129.04513"
   id="svg14971"
   version="1.1"
   inkscape:version="0.92.3 (2405546, 2018-03-11)"
   sodipodi:docname="raiz.svg"
   inkscape:export-filename="/home/cristian/Documentos/campamentosjuveniles/ExamenAsenso/imagenes/Pines/raiz.png"
   inkscape:export-xdpi="93"
   inkscape:export-ydpi="93">
  <defs
     id="defs14973" />
  <sodipodi:namedview
     id="base"
     pagecolor="#ffffff"
     bordercolor="#666666"
     borderopacity="1.0"
     inkscape:pageopacity="0.0"
     inkscape:pageshadow="2"
     inkscape:zoom="0.35"
     inkscape:cx="132.94283"
     inkscape:cy="124.52257"
     inkscape:document-units="px"
     inkscape:current-layer="layer1"
     showgrid="false"
     fit-margin-top="0"
     fit-margin-left="0"
     fit-margin-right="0"
     fit-margin-bottom="0"
     inkscape:window-width="1366"
     inkscape:window-height="680"
     inkscape:window-x="0"
     inkscape:window-y="27"
     inkscape:window-maximized="1" />
  <metadata
     id="metadata14976">
    <rdf:RDF>
      <cc:Work
         rdf:about="">
        <dc:format>image/svg+xml</dc:format>
        <dc:type
           rdf:resource="http://purl.org/dc/dcmitype/StillImage" />
        <dc:title />
      </cc:Work>
    </rdf:RDF>
  </metadata>
  <g
     inkscape:label="Capa 1"
     inkscape:groupmode="layer"
     id="layer1"
     transform="translate(-250.6286,-299.26822)">
    <g
       transform="matrix(1.25,0,0,-1.25,64.978098,879.46284)"
       id="g12155">
      <path
         d="m 180.0411,360.9196 -31.5207,44.7933 49.034,58.4428 22.9215,-0.2149 48.1816,-57.0526 -6.6906,-9.5451 -25.17,-36.4235 -56.7558,0 z"
         style="fill:#949698;fill-opacity:1;fill-rule:nonzero;stroke:none"
         id="path12157"
         inkscape:connector-curvature="0" />
      <path
         d="m 260.4294,399.1255 -24.9639,-35.6018 -53.8262,0 -6.1668,8.7716 66.0155,0 18.9414,26.8302 z"
         style="fill:#3c63a8;fill-opacity:1;fill-rule:nonzero;stroke:none"
         id="path12159"
         inkscape:connector-curvature="0" />
      <path
         d="m 205.8559,461.321 0,-2.0803 -49.7094,-59.4511 -4.0471,5.7561 46.8465,55.7753 6.91,0 z"
         style="fill:#3c63a8;fill-opacity:1;fill-rule:nonzero;stroke:none"
         id="path12161"
         inkscape:connector-curvature="0" />
      <path
         d="m 200.8298,437.8255 -30.3613,-37.5857 12.53,-17.2369 20.0338,0 0,-10.7076 -27.5598,0 -19.326,27.4943 49.7094,59.4511 0,-21.4152 -5.0261,0 z"
         style="fill:#dc2f33;fill-opacity:1;fill-rule:nonzero;stroke:none"
         id="path12163"
         inkscape:connector-curvature="0" />
      <path
         d="m 265.7483,406.7124 -4.646,-6.6299 -49.8098,59.1582 -1.0794,0 0,2.0803 9.4402,0 46.095,-54.6086 z"
         style="fill:#3c63a8;fill-opacity:1;fill-rule:nonzero;stroke:none"
         id="path12165"
         inkscape:connector-curvature="0" />
      <path
         d="m 246.1119,401.0746 -11.8352,-18.0717 -21.2709,0 0,-10.7076 -9.9735,0 0,10.7076 -20.0338,0 -12.53,17.2369 30.3613,37.5857 5.0261,0 0,23.4955 4.3572,0 0,-23.4955 5.5635,0 30.3353,-36.7509 z"
         style="fill:#ffffff;fill-opacity:1;fill-rule:nonzero;stroke:none"
         id="path12167"
         inkscape:connector-curvature="0" />
      <path
         d="m 261.1023,400.0825 -0.4456,-0.6339 -0.2273,-0.3231 -18.9414,-26.8302 -28.4822,0 0,10.7076 21.2709,0 11.8352,18.0717 -30.3353,36.7509 -5.5635,0 0,21.4152 1.0794,0 49.8098,-59.1582 z"
         style="fill:#dc2f33;fill-opacity:1;fill-rule:nonzero;stroke:none"
         id="path12169"
         inkscape:connector-curvature="0" />
      <g
         id="g12171">
        <path
           d="m 166.8699,416.1067 c 0.1111,-0.0924 0.2089,-0.22 0.2926,-0.3824 0.0836,-0.1621 0.1386,-0.3543 0.1655,-0.5751 0.0269,-0.2211 0.003,-0.4553 -0.0709,-0.7025 -0.0742,-0.2471 -0.2123,-0.4918 -0.4144,-0.7347 -0.1533,-0.1843 -0.3098,-0.337 -0.47,-0.4589 -0.1604,-0.1216 -0.3285,-0.2135 -0.5048,-0.275 -0.1761,-0.0615 -0.3674,-0.0935 -0.574,-0.0964 -0.1857,-8e-4 -0.3736,0.0224 -0.5633,0.0703 -0.1899,0.0479 -0.3753,0.1197 -0.5567,0.2152 -0.1806,0.0952 -0.358,0.2154 -0.5309,0.3594 -0.281,0.2336 -0.4987,0.4836 -0.6526,0.7503 -0.1542,0.2665 -0.2463,0.5417 -0.2775,0.8255 -0.0315,0.2837 -0.003,0.5621 0.0845,0.8356 0.0879,0.2736 0.2279,0.5262 0.4209,0.7577 0.235,0.2824 0.5009,0.487 0.7968,0.6137 0.2966,0.1268 0.5766,0.18 0.84,0.1596 0.2639,-0.0207 0.4691,-0.0924 0.6162,-0.2148 0.0811,-0.0678 0.1293,-0.1556 0.1429,-0.2642 0.015,-0.1089 -0.0119,-0.2033 -0.0788,-0.284 -0.0757,-0.0908 -0.1534,-0.1409 -0.2333,-0.1506 -0.0808,-0.01 -0.197,0.002 -0.3475,0.0332 -0.2495,0.0516 -0.4695,0.0513 -0.6583,-0.002 -0.1896,-0.0536 -0.3605,-0.1709 -0.5122,-0.3535 -0.2421,-0.2905 -0.324,-0.6137 -0.246,-0.9694 0.0771,-0.3555 0.3186,-0.7027 0.7251,-1.0409 0.2713,-0.2256 0.5286,-0.3753 0.7724,-0.449 0.243,-0.0734 0.4677,-0.0777 0.6727,-0.0122 0.2049,0.0658 0.3852,0.1925 0.5411,0.3796 0.169,0.2032 0.2617,0.4167 0.2778,0.6412 0.0162,0.2242 -0.0439,0.4532 -0.1797,0.6871 -0.0669,0.1066 -0.1108,0.2063 -0.1312,0.299 -0.0216,0.0927 0.009,0.188 0.0907,0.2863 0.07,0.0842 0.1596,0.1321 0.2684,0.1435 0.1089,0.0116 0.2072,-0.0193 0.2945,-0.0916"
           style="fill:#ffffff;fill-opacity:1;fill-rule:nonzero;stroke:none"
           id="path12173"
           inkscape:connector-curvature="0" />
        <path
           d="m 169.8948,418.3038 -0.5766,0.1979 -1.1806,-1.4187 0.309,-0.5392 c 0.1204,-0.2103 0.1919,-0.364 0.2145,-0.4606 0.0224,-0.0967 -0.01,-0.1976 -0.0966,-0.3022 -0.074,-0.089 -0.1718,-0.1406 -0.2934,-0.1545 -0.1219,-0.0144 -0.224,0.0131 -0.3067,0.0817 -0.0479,0.0396 -0.0902,0.0884 -0.1276,0.1465 -0.0374,0.0581 -0.0864,0.1429 -0.1465,0.2548 l -1.5237,2.7786 c -0.0436,0.0793 -0.0963,0.1746 -0.1578,0.2865 -0.0613,0.1117 -0.1055,0.2126 -0.1321,0.3034 -0.0267,0.0907 -0.0315,0.1848 -0.0136,0.2811 0.0172,0.097 0.0663,0.1939 0.1465,0.2909 0.0819,0.0983 0.169,0.165 0.2616,0.1995 0.0916,0.0352 0.1843,0.0482 0.2764,0.04 0.0924,-0.008 0.1843,-0.0269 0.2741,-0.055 0.0905,-0.0286 0.2101,-0.068 0.3586,-0.119 l 3.0107,-0.9624 c 0.2304,-0.0711 0.3849,-0.1395 0.4626,-0.2041 0.0808,-0.0672 0.1267,-0.1627 0.1383,-0.286 0.0114,-0.1239 -0.0226,-0.233 -0.102,-0.3283 -0.0462,-0.0552 -0.0955,-0.0946 -0.1483,-0.1182 -0.0533,-0.0229 -0.108,-0.0337 -0.1641,-0.0326 -0.057,0.002 -0.1332,0.0165 -0.2296,0.044 -0.0964,0.0278 -0.1811,0.0533 -0.2531,0.0759 z m -2.1331,-0.5938 0,0 0.8677,1.0426 -1.8785,0.6726 1.0108,-1.7152 z"
           style="fill:#ffffff;fill-opacity:1;fill-rule:nonzero;stroke:none"
           id="path12175"
           inkscape:connector-curvature="0" />
        <path
           d="m 171.7356,420.7813 -2.6895,1.2909 2.4091,-2.0044 c 0.1336,-0.1111 0.2087,-0.2245 0.2257,-0.3393 0.017,-0.1148 -0.0153,-0.2214 -0.0972,-0.3197 -0.0794,-0.0953 -0.1769,-0.1454 -0.2929,-0.1511 -0.1156,-0.006 -0.2412,0.0479 -0.3764,0.1602 l -2.761,2.2977 c -0.1525,0.1267 -0.2219,0.2515 -0.2094,0.3756 0.013,0.1236 0.0757,0.2526 0.1879,0.3875 l 0.1823,0.2188 c 0.1094,0.1321 0.2012,0.2175 0.2741,0.2574 0.074,0.0394 0.1528,0.0482 0.2387,0.0247 0.0856,-0.0227 0.2131,-0.074 0.3835,-0.1536 l 2.3335,-1.0834 -1.4896,2.0973 c -0.1092,0.1528 -0.1832,0.269 -0.2211,0.3492 -0.0386,0.0803 -0.044,0.1599 -0.0187,0.2393 0.026,0.0791 0.0932,0.1848 0.2029,0.3163 l 0.1826,0.2191 c 0.1122,0.135 0.2276,0.22 0.3464,0.2552 0.1199,0.0348 0.2551,-0.0108 0.4076,-0.1378 l 2.7609,-2.2975 c 0.1335,-0.1111 0.2087,-0.2242 0.2259,-0.3393 0.0171,-0.1148 -0.0158,-0.2219 -0.0992,-0.322 -0.0779,-0.0938 -0.1754,-0.1432 -0.2919,-0.148 -0.1168,-0.005 -0.2418,0.0482 -0.3756,0.1593 l -2.4089,2.0044 1.7586,-2.4094 c 0.114,-0.1568 0.195,-0.2744 0.2432,-0.3535 0.0482,-0.0794 0.0743,-0.1729 0.078,-0.2809 0.005,-0.1083 -0.0391,-0.2166 -0.1304,-0.3263 -0.0689,-0.0825 -0.1449,-0.1375 -0.2276,-0.165 -0.0837,-0.0275 -0.1659,-0.0337 -0.2481,-0.0195 -0.0819,0.0144 -0.1641,0.0405 -0.2466,0.0785 -0.0828,0.038 -0.1687,0.0777 -0.2568,0.1193"
           style="fill:#ffffff;fill-opacity:1;fill-rule:nonzero;stroke:none"
           id="path12177"
           inkscape:connector-curvature="0" />
        <path
           d="m 174.3588,425.6289 -0.5389,-0.6475 0.9882,-0.8223 c 0.1411,-0.1174 0.2205,-0.2398 0.2381,-0.3674 0.0175,-0.1273 -0.0162,-0.2415 -0.1007,-0.343 -0.0884,-0.1063 -0.1964,-0.1621 -0.3223,-0.1672 -0.1264,-0.005 -0.2593,0.0507 -0.3991,0.1667 l -2.6898,2.2382 c -0.1553,0.1298 -0.2367,0.2579 -0.244,0.3847 -0.007,0.1269 0.0541,0.2681 0.1837,0.4235 l 0.7545,0.907 c 0.2231,0.2682 0.4153,0.4573 0.5769,0.5675 0.1584,0.1097 0.3271,0.178 0.5054,0.2055 0.1789,0.0273 0.3569,0.0125 0.5352,-0.0445 0.178,-0.0569 0.3503,-0.1547 0.5173,-0.2933 0.3552,-0.296 0.5335,-0.6293 0.5349,-1.001 0.001,-0.3716 -0.1789,-0.7738 -0.5394,-1.2069 z m -1.7422,1.1596 0,0 -0.3963,-0.4762 1.0667,-0.8875 0.396,0.4762 c 0.1389,0.1667 0.237,0.3203 0.2951,0.4615 0.0587,0.1408 0.0723,0.2735 0.0416,0.3982 -0.0303,0.125 -0.1102,0.241 -0.2386,0.3478 -0.154,0.1282 -0.3167,0.1871 -0.4887,0.1772 -0.1874,-0.0159 -0.413,-0.1817 -0.6758,-0.4972"
           style="fill:#ffffff;fill-opacity:1;fill-rule:nonzero;stroke:none"
           id="path12179"
           inkscape:connector-curvature="0" />
        <path
           d="m 178.3338,428.4451 -0.5763,0.1978 -1.1806,-1.4187 0.3092,-0.5389 c 0.1205,-0.2106 0.1917,-0.3642 0.2146,-0.4609 0.0221,-0.0967 -0.01,-0.1976 -0.0969,-0.3022 -0.074,-0.089 -0.1718,-0.1406 -0.2934,-0.1545 -0.1222,-0.0144 -0.2237,0.0131 -0.3067,0.0817 -0.0476,0.0397 -0.0904,0.0887 -0.1279,0.1468 -0.0371,0.0578 -0.0861,0.1429 -0.1465,0.2546 l -1.5231,2.7788 c -0.0439,0.0793 -0.0966,0.1746 -0.1584,0.2863 -0.061,0.1117 -0.1055,0.2126 -0.1318,0.3036 -0.027,0.0904 -0.0312,0.1845 -0.0136,0.2809 0.0173,0.0969 0.066,0.1942 0.1468,0.2908 0.0819,0.0984 0.1689,0.165 0.2611,0.1999 0.0921,0.0348 0.1845,0.0479 0.2766,0.0396 0.0922,-0.008 0.1843,-0.0269 0.2744,-0.055 0.0904,-0.0286 0.2101,-0.068 0.358,-0.119 l 3.0113,-0.9624 c 0.2304,-0.0708 0.3849,-0.1392 0.4626,-0.2038 0.0805,-0.0672 0.1267,-0.1627 0.1378,-0.2863 0.0119,-0.1236 -0.0227,-0.2327 -0.1015,-0.3279 -0.0468,-0.0559 -0.0958,-0.095 -0.1486,-0.1185 -0.053,-0.023 -0.1077,-0.0338 -0.1644,-0.0324 -0.0564,0.002 -0.1332,0.0162 -0.229,0.044 -0.0967,0.0278 -0.1811,0.053 -0.2537,0.0757 z m -2.1331,-0.5939 0,0 0.8677,1.0426 -1.8779,0.6729 1.0102,-1.7155 z"
           style="fill:#ffffff;fill-opacity:1;fill-rule:nonzero;stroke:none"
           id="path12181"
           inkscape:connector-curvature="0" />
        <path
           d="m 180.1746,430.9226 -2.6892,1.2908 2.4089,-2.0046 c 0.1335,-0.1108 0.2086,-0.2239 0.2256,-0.3388 0.0173,-0.115 -0.0153,-0.2216 -0.0967,-0.32 -0.0796,-0.0949 -0.1771,-0.1454 -0.2928,-0.1511 -0.1162,-0.006 -0.2415,0.0477 -0.377,0.1602 l -2.7609,2.2978 c -0.1525,0.1267 -0.2214,0.2517 -0.2092,0.3755 0.0127,0.1236 0.0757,0.2529 0.1879,0.3878 l 0.1823,0.2189 c 0.1097,0.1318 0.201,0.2171 0.2738,0.2571 0.074,0.0396 0.1528,0.0481 0.2393,0.0249 0.0856,-0.0227 0.2134,-0.0743 0.3832,-0.1539 l 2.3335,-1.0834 -1.4899,2.0976 c -0.1091,0.1525 -0.1826,0.2687 -0.2205,0.349 -0.0389,0.0802 -0.0446,0.1598 -0.0193,0.2392 0.0261,0.0791 0.0938,0.1848 0.2032,0.3164 l 0.1823,0.2191 c 0.112,0.1346 0.2279,0.2199 0.3469,0.2551 0.12,0.0349 0.2552,-0.0111 0.4077,-0.1378 l 2.7609,-2.2975 c 0.1335,-0.1111 0.2086,-0.2242 0.2257,-0.339 0.0172,-0.1151 -0.0162,-0.2222 -0.0995,-0.3223 -0.0777,-0.0935 -0.1749,-0.1431 -0.2917,-0.1477 -0.1168,-0.005 -0.2418,0.0482 -0.3753,0.1591 l -2.4089,2.0046 1.758,-2.4094 c 0.114,-0.1568 0.1951,-0.2747 0.2432,-0.3538 0.0482,-0.0791 0.0749,-0.1726 0.0786,-0.2806 0.004,-0.1086 -0.0397,-0.2169 -0.1307,-0.3266 -0.0686,-0.0825 -0.1446,-0.1375 -0.2276,-0.1649 -0.0834,-0.0273 -0.1661,-0.0338 -0.2481,-0.0193 -0.0819,0.0141 -0.1638,0.0405 -0.2466,0.0785 -0.0825,0.0377 -0.1686,0.0777 -0.2571,0.1191"
           style="fill:#ffffff;fill-opacity:1;fill-rule:nonzero;stroke:none"
           id="path12183"
           inkscape:connector-curvature="0" />
        <path
           d="m 181.9993,438.0341 -1.3252,-1.5925 0.8569,-0.7129 1.2203,1.4664 c 0.0899,0.108 0.1814,0.168 0.2736,0.1811 0.0929,0.013 0.1788,-0.0136 0.2582,-0.0797 0.0794,-0.066 0.1219,-0.1462 0.129,-0.2403 0.006,-0.0936 -0.0366,-0.1953 -0.1279,-0.3051 l -1.2203,-1.466 0.993,-0.826 1.3708,1.6472 c 0.0921,0.1108 0.1877,0.1734 0.2863,0.1868 0.0981,0.0133 0.1905,-0.0156 0.2758,-0.0871 0.0828,-0.0686 0.1262,-0.1525 0.131,-0.2517 0.005,-0.0992 -0.0391,-0.2046 -0.1315,-0.3157 l -1.5982,-1.9208 c -0.1287,-0.1539 -0.2546,-0.2361 -0.379,-0.2469 -0.1244,-0.0105 -0.2625,0.0473 -0.4153,0.1743 l -2.6226,2.1827 c -0.1018,0.0848 -0.1721,0.1684 -0.2115,0.2523 -0.0388,0.0836 -0.0464,0.1698 -0.0226,0.2585 0.0243,0.0887 0.0782,0.1831 0.1613,0.2832 l 1.5528,1.866 c 0.0938,0.1126 0.1888,0.1755 0.2843,0.1885 0.0952,0.0134 0.1834,-0.0138 0.2645,-0.0813 0.0824,-0.0686 0.1258,-0.1508 0.1301,-0.2472 0.005,-0.0967 -0.04,-0.2013 -0.1338,-0.3138"
           style="fill:#ffffff;fill-opacity:1;fill-rule:nonzero;stroke:none"
           id="path12185"
           inkscape:connector-curvature="0" />
        <path
           d="m 183.3083,439.9753 3.1876,-0.3524 -2.0758,1.7275 c -0.135,0.1119 -0.2112,0.225 -0.2311,0.3393 -0.0192,0.1139 0.0119,0.2202 0.0939,0.3186 0.0844,0.1015 0.1854,0.1536 0.301,0.1565 0.1171,0.002 0.2421,-0.0528 0.3767,-0.1647 l 2.7451,-2.2839 c 0.3061,-0.2551 0.3538,-0.5091 0.1423,-0.7628 -0.0527,-0.0638 -0.11,-0.1131 -0.1701,-0.1488 -0.0606,-0.0355 -0.129,-0.0593 -0.2058,-0.0706 -0.0768,-0.0116 -0.157,-0.0142 -0.2415,-0.008 -0.0856,0.006 -0.1718,0.0133 -0.2582,0.0215 l -3.1366,0.366 2.0447,-1.7017 c 0.1332,-0.1108 0.2078,-0.2256 0.225,-0.3444 0.0165,-0.1185 -0.0153,-0.2262 -0.0958,-0.3229 -0.083,-0.1 -0.1848,-0.1516 -0.3033,-0.1544 -0.1196,-0.003 -0.2449,0.0504 -0.3764,0.1598 l -2.6918,2.2405 c -0.1145,0.095 -0.1945,0.1826 -0.2378,0.262 -0.0462,0.0895 -0.0627,0.1879 -0.0499,0.2956 0.0127,0.1074 0.0524,0.2016 0.1199,0.2823 0.053,0.0638 0.1088,0.1092 0.167,0.1375 0.0581,0.0281 0.1193,0.0445 0.1822,0.0499 0.0635,0.005 0.1378,0.002 0.2225,-0.008 0.0856,-0.0105 0.1744,-0.0215 0.2662,-0.0337"
           style="fill:#ffffff;fill-opacity:1;fill-rule:nonzero;stroke:none"
           id="path12187"
           inkscape:connector-curvature="0" />
        <path
           d="m 187.6595,444.7587 -0.6415,-0.7713 2.535,-2.1095 c 0.146,-0.1213 0.2268,-0.2444 0.2435,-0.3679 0.0165,-0.1239 -0.0184,-0.237 -0.1043,-0.3405 -0.087,-0.1049 -0.1933,-0.1604 -0.32,-0.1667 -0.1259,-0.006 -0.2614,0.0505 -0.4054,0.1704 l -2.5353,2.1095 -0.6417,-0.771 c -0.1004,-0.1207 -0.2016,-0.1882 -0.3031,-0.2027 -0.1026,-0.0144 -0.1973,0.0145 -0.2843,0.0871 -0.0904,0.0754 -0.1372,0.1655 -0.138,0.2701 -0.001,0.1046 0.0459,0.2149 0.1423,0.3308 l 1.8697,2.247 c 0.1015,0.1222 0.2044,0.1902 0.3076,0.205 0.104,0.0147 0.1995,-0.0145 0.2866,-0.087 0.087,-0.0726 0.1323,-0.1611 0.1352,-0.2657 0.003,-0.1046 -0.046,-0.2168 -0.1463,-0.3376"
           style="fill:#ffffff;fill-opacity:1;fill-rule:nonzero;stroke:none"
           id="path12189"
           inkscape:connector-curvature="0" />
        <path
           d="m 188.8214,447.4621 c 0.3016,0.362 0.6336,0.6115 0.9958,0.749 0.3634,0.1372 0.7351,0.1598 1.1166,0.0683 0.3815,-0.0922 0.7551,-0.2897 1.12,-0.5933 0.2698,-0.2248 0.4838,-0.4655 0.644,-0.7217 0.1602,-0.2568 0.2599,-0.5253 0.3005,-0.8062 0.0402,-0.2806 0.0144,-0.5627 -0.0763,-0.847 -0.0915,-0.2837 -0.2514,-0.5627 -0.4799,-0.8373 -0.227,-0.273 -0.4745,-0.4808 -0.7421,-0.6234 -0.2676,-0.1426 -0.5417,-0.2194 -0.822,-0.2302 -0.2804,-0.0113 -0.5639,0.0403 -0.8507,0.154 -0.2869,0.1136 -0.5613,0.2795 -0.8229,0.4972 -0.2685,0.2233 -0.4822,0.4668 -0.6424,0.7296 -0.1595,0.2633 -0.2573,0.5332 -0.2925,0.8099 -0.0354,0.2766 -0.008,0.5544 0.0831,0.8333 0.091,0.279 0.2471,0.5514 0.4688,0.8178 z m 2.6314,-0.4889 0,0 c -0.2557,0.2126 -0.5116,0.3557 -0.7679,0.4288 -0.2557,0.0735 -0.4949,0.0732 -0.7186,3e-4 -0.2236,-0.0734 -0.4178,-0.2089 -0.5831,-0.4073 -0.1173,-0.1412 -0.1992,-0.294 -0.2457,-0.4581 -0.0465,-0.1638 -0.0553,-0.3314 -0.0258,-0.5026 0.03,-0.1709 0.1029,-0.3472 0.2191,-0.5283 0.1165,-0.1812 0.273,-0.3541 0.47,-0.5179 0.1978,-0.1647 0.3985,-0.2895 0.5998,-0.3725 0.2024,-0.0836 0.3937,-0.1236 0.5751,-0.1202 0.1815,0.004 0.3473,0.0425 0.4984,0.1174 0.1508,0.0745 0.2849,0.1825 0.4025,0.3237 0.1502,0.1811 0.2432,0.3846 0.2795,0.6114 0.0351,0.2268 -0.004,0.4638 -0.1182,0.7104 -0.1142,0.2469 -0.3093,0.4853 -0.5851,0.7149"
           style="fill:#ffffff;fill-opacity:1;fill-rule:nonzero;stroke:none"
           id="path12191"
           inkscape:connector-curvature="0" />
        <path
           d="m 195.3964,450.2747 c 0.2114,-0.1758 0.3557,-0.3878 0.4334,-0.6364 0.0777,-0.2483 0.0771,-0.5173 -0.002,-0.8059 -0.0794,-0.2888 -0.2384,-0.5766 -0.4773,-0.864 -0.2869,-0.3441 -0.5879,-0.5743 -0.9046,-0.6897 -0.2253,-0.0805 -0.4575,-0.1057 -0.6965,-0.0748 -0.2389,0.0309 -0.4322,0.1077 -0.5799,0.2307 -0.0853,0.0712 -0.1341,0.1622 -0.1457,0.2725 -0.0114,0.1102 0.021,0.2114 0.0975,0.3035 0.0621,0.0743 0.1383,0.1177 0.2287,0.1299 0.091,0.0116 0.1979,-0.003 0.3221,-0.0445 0.1482,-0.0479 0.2809,-0.0771 0.3982,-0.0876 0.1174,-0.0108 0.2396,0.0107 0.3654,0.0643 0.1267,0.0533 0.2537,0.1559 0.3804,0.3084 0.1741,0.2095 0.2668,0.4201 0.2778,0.6327 0.0119,0.2118 -0.0555,0.3787 -0.2015,0.5001 -0.1162,0.0966 -0.2393,0.1394 -0.3699,0.1289 -0.1316,-0.0105 -0.2625,-0.0558 -0.3938,-0.136 -0.1309,-0.0802 -0.2962,-0.1959 -0.4946,-0.3478 -0.2676,-0.2021 -0.5103,-0.3547 -0.7302,-0.4581 -0.2189,-0.1038 -0.438,-0.1486 -0.6554,-0.1349 -0.2185,0.0138 -0.4286,0.1046 -0.6301,0.2721 -0.1917,0.1596 -0.3187,0.354 -0.381,0.5831 -0.0621,0.229 -0.0505,0.4756 0.0346,0.7407 0.0847,0.2653 0.2386,0.5317 0.4617,0.7999 0.1783,0.2143 0.3592,0.3773 0.5423,0.4893 0.1837,0.1122 0.362,0.1831 0.5363,0.2131 0.1735,0.0298 0.3288,0.0281 0.4652,-0.005 0.1366,-0.0332 0.2506,-0.0879 0.3427,-0.1644 0.0839,-0.07 0.1352,-0.163 0.1528,-0.2784 0.0181,-0.1159 -0.01,-0.2183 -0.0836,-0.307 -0.0675,-0.0808 -0.1392,-0.1256 -0.2143,-0.1341 -0.076,-0.008 -0.18,0.002 -0.313,0.0287 -0.1842,0.0465 -0.3509,0.0555 -0.4983,0.028 -0.1477,-0.0272 -0.3036,-0.1394 -0.4675,-0.3362 -0.1516,-0.1828 -0.2338,-0.3631 -0.2466,-0.5414 -0.0133,-0.1788 0.036,-0.3149 0.1491,-0.4087 0.0698,-0.0581 0.1466,-0.0896 0.2285,-0.0933 0.0825,-0.004 0.1695,0.0116 0.2616,0.0479 0.0922,0.0363 0.1769,0.08 0.2546,0.131 0.0771,0.0513 0.201,0.1389 0.3716,0.2628 0.2095,0.1584 0.4085,0.2945 0.597,0.4076 0.1879,0.1131 0.3685,0.1927 0.5408,0.2387 0.1724,0.0462 0.3453,0.0496 0.5191,0.0113 0.1737,-0.0383 0.3486,-0.131 0.5244,-0.2775"
           style="fill:#ffffff;fill-opacity:1;fill-rule:nonzero;stroke:none"
           id="path12193"
           inkscape:connector-curvature="0" />
      </g>
      <g
         id="g12195">
        <path
           d="m 226.9352,449.278 -1.8193,-1.5315 c -0.1579,-0.133 -0.2979,-0.239 -0.4195,-0.3192 -0.1222,-0.0794 -0.2599,-0.1435 -0.4133,-0.1916 -0.2577,-0.082 -0.5162,-0.0769 -0.7758,0.015 -0.2591,0.0921 -0.4986,0.2684 -0.718,0.5286 -0.1979,0.2359 -0.326,0.4632 -0.3841,0.6826 -0.0579,0.2197 -0.0448,0.4476 0.0397,0.6832 0.0462,0.1253 0.1131,0.252 0.2021,0.3807 0.0887,0.1284 0.1853,0.2369 0.2897,0.3245 0.1105,0.093 0.2211,0.1333 0.331,0.1211 0.1103,-0.0128 0.2061,-0.0669 0.2875,-0.163 0.0785,-0.0933 0.1105,-0.1865 0.0966,-0.279 -0.0138,-0.0924 -0.0669,-0.1995 -0.159,-0.3203 -0.0995,-0.1292 -0.1737,-0.2378 -0.2236,-0.3254 -0.0505,-0.0884 -0.0752,-0.1857 -0.0737,-0.2931 10e-4,-0.1069 0.0507,-0.2188 0.1491,-0.3356 0.2616,-0.3113 0.621,-0.275 1.0774,0.1091 l 1.9213,1.6172 c 0.1423,0.1196 0.275,0.1783 0.3983,0.1757 0.1239,-0.002 0.2313,-0.0575 0.3217,-0.1649 0.0919,-0.1089 0.1284,-0.2257 0.1109,-0.3493 -0.017,-0.1238 -0.0967,-0.2454 -0.239,-0.3648"
           style="fill:#ffffff;fill-opacity:1;fill-rule:nonzero;stroke:none"
           id="path12197"
           inkscape:connector-curvature="0" />
        <path
           d="m 225.8419,447.1869 1.6699,1.4057 c 0.1423,0.1193 0.2758,0.1774 0.4008,0.1732 0.1253,-0.004 0.2319,-0.0581 0.3195,-0.1627 0.0915,-0.1089 0.1287,-0.2254 0.1111,-0.349 -0.0167,-0.1238 -0.0967,-0.2454 -0.239,-0.3651 l -1.7079,-1.4377 c -0.1941,-0.1636 -0.3381,-0.322 -0.4322,-0.4748 -0.0936,-0.1531 -0.1299,-0.3152 -0.1086,-0.4864 0.021,-0.1707 0.1154,-0.3561 0.2829,-0.5548 0.231,-0.2749 0.468,-0.4076 0.7095,-0.3988 0.2415,0.009 0.5114,0.1389 0.8079,0.3889 l 1.7226,1.4494 c 0.1437,0.1207 0.2772,0.1797 0.4008,0.1754 0.1236,-0.004 0.2299,-0.0589 0.3192,-0.1647 0.0893,-0.106 0.1259,-0.2211 0.1105,-0.3458 -0.015,-0.1244 -0.0943,-0.2474 -0.2383,-0.3682 l -1.6699,-1.406 c -0.2719,-0.2287 -0.5213,-0.3926 -0.747,-0.4924 -0.2262,-0.1003 -0.47,-0.1343 -0.731,-0.1034 -0.2231,0.0283 -0.432,0.1034 -0.627,0.225 -0.1942,0.1225 -0.3858,0.2957 -0.5743,0.5202 -0.2251,0.2667 -0.3898,0.5213 -0.4944,0.762 -0.1043,0.2415 -0.1477,0.4736 -0.129,0.697 0.0187,0.2231 0.0984,0.4425 0.2395,0.6585 0.1404,0.2154 0.3419,0.434 0.6044,0.6545"
           style="fill:#ffffff;fill-opacity:1;fill-rule:nonzero;stroke:none"
           id="path12199"
           inkscape:connector-curvature="0" />
        <path
           d="m 230.9383,444.4492 -1.6671,-2.7465 3.0099,1.1846 c 0.1573,0.0629 0.2695,0.1043 0.3345,0.1244 0.0657,0.0199 0.138,0.0227 0.216,0.008 0.0788,-0.0145 0.1527,-0.0632 0.2219,-0.1457 0.0508,-0.0595 0.0819,-0.1284 0.0955,-0.2047 0.0134,-0.0771 0.007,-0.1508 -0.0178,-0.2216 -0.0252,-0.0712 -0.0632,-0.1276 -0.114,-0.1704 -0.0346,-0.0295 -0.0759,-0.0561 -0.1244,-0.0805 -0.0479,-0.0244 -0.0975,-0.0462 -0.1483,-0.0641 -0.0507,-0.0184 -0.1026,-0.0379 -0.1553,-0.0581 l -2.9778,-1.0695 c -0.112,-0.0425 -0.22,-0.0819 -0.3237,-0.1182 -0.1032,-0.0354 -0.2013,-0.0584 -0.2931,-0.0689 -0.0924,-0.0102 -0.1857,0.001 -0.2787,0.0346 -0.0927,0.0337 -0.1791,0.0984 -0.259,0.1931 -0.0797,0.0946 -0.1285,0.1907 -0.1469,0.2871 -0.0184,0.0969 -0.0136,0.1908 0.0136,0.2826 0.0264,0.091 0.0664,0.1846 0.1182,0.2795 0.0522,0.0953 0.1089,0.1945 0.1704,0.2977 l 1.5554,2.7206 c 0.0292,0.0491 0.0569,0.0978 0.0836,0.146 0.0272,0.0479 0.0592,0.0967 0.0964,0.1457 0.0368,0.0488 0.0714,0.0865 0.1029,0.1131 0.0807,0.0678 0.1814,0.097 0.3021,0.0879 0.1208,-0.009 0.2228,-0.0618 0.3053,-0.1602 0.1012,-0.1199 0.1358,-0.2355 0.1041,-0.3475 -0.0315,-0.1111 -0.1061,-0.2605 -0.2237,-0.4487"
           style="fill:#ffffff;fill-opacity:1;fill-rule:nonzero;stroke:none"
           id="path12201"
           inkscape:connector-curvature="0" />
        <path
           d="m 235.0321,439.3009 -1.3337,1.5851 -0.8532,-0.7177 1.2282,-1.4593 c 0.0907,-0.1074 0.1338,-0.2083 0.1304,-0.3013 -0.004,-0.0938 -0.0448,-0.1732 -0.1239,-0.2398 -0.0788,-0.0666 -0.1655,-0.0947 -0.2593,-0.0845 -0.0933,0.0102 -0.1857,0.07 -0.2775,0.1789 l -1.2283,1.4596 -0.9882,-0.8317 1.38,-1.6396 c 0.0929,-0.1105 0.1374,-0.2149 0.1335,-0.3143 -0.005,-0.0995 -0.0491,-0.1852 -0.1344,-0.2566 -0.0825,-0.0697 -0.1729,-0.0975 -0.271,-0.0847 -0.0986,0.013 -0.1942,0.0745 -0.2874,0.1848 l -1.609,1.9122 c -0.1289,0.1531 -0.1882,0.292 -0.1766,0.4167 0.0119,0.1239 0.0936,0.25 0.2449,0.3779 l 2.6108,2.1968 c 0.1014,0.0854 0.1958,0.1395 0.2851,0.1636 0.0893,0.0238 0.1758,0.0161 0.2585,-0.0235 0.0834,-0.0394 0.167,-0.1083 0.2506,-0.2078 l 1.563,-1.8576 c 0.0947,-0.1122 0.1395,-0.2168 0.1358,-0.3132 -0.003,-0.0961 -0.0462,-0.1786 -0.1267,-0.2463 -0.0822,-0.0692 -0.1709,-0.0972 -0.2664,-0.0845 -0.0956,0.0125 -0.1902,0.0746 -0.2852,0.1868"
           style="fill:#ffffff;fill-opacity:1;fill-rule:nonzero;stroke:none"
           id="path12203"
           inkscape:connector-curvature="0" />
        <path
           d="m 236.7122,437.6707 -0.9088,-3.0756 2.0662,1.7388 c 0.1343,0.1128 0.2591,0.1687 0.375,0.1678 0.1154,-0.002 0.2149,-0.0507 0.2971,-0.1488 0.085,-0.1015 0.1182,-0.2095 0.1009,-0.324 -0.0184,-0.1148 -0.0944,-0.2291 -0.2291,-0.3422 l -2.7317,-2.2989 c -0.3047,-0.2565 -0.5635,-0.2582 -0.7758,-0.006 -0.0536,0.0632 -0.0919,0.1275 -0.1163,0.1933 -0.0243,0.066 -0.0357,0.1378 -0.0337,0.2151 0.003,0.0771 0.0142,0.1571 0.0349,0.2393 0.0215,0.083 0.0436,0.1661 0.0669,0.2509 l 0.9127,3.0225 -2.035,-1.7129 c -0.1326,-0.1117 -0.2591,-0.1653 -0.3784,-0.1608 -0.1199,0.005 -0.2208,0.055 -0.3013,0.1508 -0.0842,0.1001 -0.1171,0.209 -0.0987,0.3263 0.0185,0.1182 0.093,0.2322 0.224,0.3422 l 2.6796,2.2552 c 0.1133,0.0958 0.2137,0.1585 0.2996,0.1874 0.0964,0.03 0.1961,0.0286 0.2996,-0.003 0.1038,-0.0315 0.1894,-0.0879 0.2574,-0.1681 0.0533,-0.0632 0.0879,-0.1264 0.1057,-0.1882 0.017,-0.0626 0.0227,-0.1253 0.0167,-0.1885 -0.006,-0.0632 -0.0221,-0.1358 -0.0476,-0.2177 -0.0255,-0.0819 -0.0518,-0.1675 -0.0799,-0.2557"
           style="fill:#ffffff;fill-opacity:1;fill-rule:nonzero;stroke:none"
           id="path12205"
           inkscape:connector-curvature="0" />
        <path
           d="m 236.2561,432.648 2.7363,2.3031 c 0.1423,0.1197 0.2761,0.1766 0.4016,0.1718 0.1256,-0.005 0.2316,-0.0586 0.3184,-0.1613 0.0893,-0.1057 0.1258,-0.2213 0.1105,-0.3461 -0.015,-0.1244 -0.0941,-0.2474 -0.2381,-0.3682 l -2.7363,-2.3031 c -0.1437,-0.1208 -0.2789,-0.1783 -0.4048,-0.1727 -0.1264,0.005 -0.2341,0.0613 -0.3231,0.1673 -0.085,0.1012 -0.1196,0.2146 -0.1026,0.3407 0.0167,0.1261 0.0961,0.2492 0.2381,0.3685"
           style="fill:#ffffff;fill-opacity:1;fill-rule:nonzero;stroke:none"
           id="path12207"
           inkscape:connector-curvature="0" />
        <path
           d="m 240.7578,432.8538 -2.5279,-2.1277 1.1999,-1.4264 c 0.0958,-0.1137 0.1417,-0.2239 0.1374,-0.3314 -0.004,-0.1071 -0.0481,-0.1964 -0.1318,-0.267 -0.085,-0.0714 -0.1791,-0.0998 -0.2829,-0.0844 -0.1034,0.0158 -0.2035,0.081 -0.3004,0.1964 l -1.4298,1.6985 c -0.129,0.1534 -0.1877,0.292 -0.1763,0.4167 0.0116,0.1242 0.0929,0.25 0.2446,0.3779 l 2.6748,2.2507 c 0.142,0.1196 0.2758,0.1774 0.4002,0.1735 0.125,-0.005 0.2319,-0.0582 0.3198,-0.1628 0.0887,-0.1054 0.1255,-0.2211 0.1105,-0.3458 -0.015,-0.1244 -0.0944,-0.2474 -0.2381,-0.3682"
           style="fill:#ffffff;fill-opacity:1;fill-rule:nonzero;stroke:none"
           id="path12209"
           inkscape:connector-curvature="0" />
        <path
           d="m 244.3252,428.2583 -1.3337,1.5851 -0.8529,-0.7177 1.2282,-1.4593 c 0.0901,-0.1074 0.1332,-0.2081 0.1301,-0.3013 -0.004,-0.0939 -0.0453,-0.1732 -0.1241,-0.2398 -0.0791,-0.0667 -0.1653,-0.0947 -0.2591,-0.0845 -0.0936,0.0102 -0.1857,0.07 -0.2775,0.1789 l -1.2283,1.4595 -0.9882,-0.8317 1.38,-1.6395 c 0.0929,-0.1106 0.1374,-0.2149 0.1335,-0.3144 -0.005,-0.0995 -0.0494,-0.1848 -0.1347,-0.2565 -0.0825,-0.0698 -0.1726,-0.0975 -0.2707,-0.0848 -0.0986,0.0131 -0.1942,0.0746 -0.2871,0.1851 l -1.6093,1.912 c -0.1292,0.1533 -0.1879,0.292 -0.1766,0.4167 0.0117,0.1241 0.093,0.25 0.2447,0.3781 l 2.6107,2.1966 c 0.1015,0.0853 0.1961,0.1395 0.2854,0.1635 0.0893,0.0239 0.1761,0.0162 0.2588,-0.0235 0.0831,-0.0391 0.1664,-0.1083 0.2503,-0.2078 l 1.563,-1.8578 c 0.0944,-0.112 0.1398,-0.2166 0.1358,-0.3129 -0.003,-0.0961 -0.0459,-0.1786 -0.1267,-0.2464 -0.0819,-0.0691 -0.1709,-0.0972 -0.2664,-0.0844 -0.0956,0.0124 -0.1908,0.0745 -0.2852,0.1868"
           style="fill:#ffffff;fill-opacity:1;fill-rule:nonzero;stroke:none"
           id="path12211"
           inkscape:connector-curvature="0" />
        <path
           d="m 245.3865,423.1644 c -0.2101,-0.1766 -0.4445,-0.2812 -0.703,-0.3138 -0.2588,-0.0326 -0.523,0.0153 -0.7931,0.144 -0.2702,0.1284 -0.5259,0.3359 -0.766,0.6219 -0.2885,0.3427 -0.462,0.6801 -0.5198,1.012 -0.04,0.2361 -0.0233,0.4691 0.049,0.6987 0.0726,0.2297 0.1823,0.4062 0.3294,0.5301 0.085,0.0717 0.1831,0.1035 0.2937,0.0956 0.1105,-0.008 0.2049,-0.0582 0.2817,-0.1494 0.0627,-0.0743 0.0916,-0.1571 0.0876,-0.2484 -0.004,-0.0912 -0.0383,-0.1941 -0.1003,-0.3089 -0.0734,-0.1372 -0.1262,-0.2631 -0.1565,-0.3765 -0.0315,-0.1142 -0.0318,-0.2378 -10e-4,-0.3713 0.0297,-0.1335 0.1088,-0.2767 0.2364,-0.4286 0.1754,-0.2084 0.3668,-0.3368 0.5737,-0.3849 0.2064,-0.0491 0.3827,-0.012 0.5278,0.1102 0.1154,0.0972 0.1794,0.2112 0.1922,0.3416 0.0128,0.1307 -0.009,0.2676 -0.0646,0.411 -0.0559,0.1434 -0.1403,0.3263 -0.2551,0.5485 -0.1517,0.2988 -0.2591,0.5652 -0.3223,0.7991 -0.0635,0.2339 -0.0692,0.4575 -0.0171,0.6696 0.0516,0.2125 0.1783,0.4028 0.3785,0.5714 0.1913,0.161 0.4053,0.252 0.6412,0.2727 0.2364,0.0207 0.477,-0.034 0.7239,-0.1641 0.2455,-0.1304 0.4808,-0.3291 0.7053,-0.5959 0.1794,-0.2134 0.3084,-0.4201 0.3864,-0.6202 0.0782,-0.2001 0.1162,-0.3883 0.1148,-0.5649 -0.001,-0.1763 -0.0298,-0.3288 -0.0862,-0.4573 -0.0567,-0.1284 -0.1307,-0.2313 -0.222,-0.3086 -0.0839,-0.0703 -0.1848,-0.1041 -0.3016,-0.101 -0.1168,0.003 -0.2126,0.0477 -0.2868,0.1364 -0.0681,0.0802 -0.0995,0.1587 -0.0939,0.2344 0.005,0.076 0.0324,0.1766 0.0828,0.303 0.078,0.1732 0.1165,0.3351 0.1151,0.4853 -3e-4,0.1505 -0.0836,0.3235 -0.2483,0.5193 -0.1531,0.1815 -0.3158,0.2946 -0.4896,0.3391 -0.1737,0.0439 -0.3157,0.0192 -0.4286,-0.0757 -0.0694,-0.0584 -0.1133,-0.1279 -0.1318,-0.2081 -0.0192,-0.0805 -0.0187,-0.1692 0.001,-0.2659 0.019,-0.0975 0.0468,-0.1885 0.0837,-0.2738 0.0371,-0.0848 0.1009,-0.2222 0.1936,-0.4119 0.1187,-0.2347 0.2174,-0.4541 0.2953,-0.6596 0.0786,-0.2049 0.1251,-0.3969 0.1401,-0.574 0.0144,-0.178 -0.0125,-0.3492 -0.0808,-0.5131 -0.068,-0.1644 -0.1899,-0.3203 -0.3651,-0.468"
           style="fill:#ffffff;fill-opacity:1;fill-rule:nonzero;stroke:none"
           id="path12213"
           inkscape:connector-curvature="0" />
      </g>
      <g
         id="g12215">
        <path
           d="m 189.7977,367.1762 c 0,-0.1449 -0.0355,-0.3008 -0.1066,-0.4694 -0.0714,-0.1681 -0.1837,-0.3331 -0.3359,-0.4952 -0.1534,-0.1622 -0.3484,-0.294 -0.5857,-0.3949 -0.2372,-0.1012 -0.5139,-0.1519 -0.8297,-0.1519 -0.2395,0 -0.4575,0.0229 -0.6533,0.0683 -0.1965,0.0453 -0.3745,0.1162 -0.5344,0.212 -0.1601,0.0961 -0.307,0.2225 -0.4413,0.3796 -0.1197,0.1423 -0.222,0.3019 -0.3065,0.4784 -0.0844,0.1764 -0.1482,0.3649 -0.1904,0.565 -0.0423,0.2004 -0.0635,0.413 -0.0635,0.6381 0,0.3654 0.0533,0.6925 0.1596,0.9816 0.1063,0.2889 0.2588,0.536 0.4566,0.7416 0.1982,0.2052 0.4303,0.3617 0.6968,0.4691 0.2661,0.1074 0.5499,0.161 0.8518,0.161 0.3674,0 0.6942,-0.0734 0.9816,-0.22 0.2869,-0.1465 0.5066,-0.3274 0.6594,-0.5434 0.1527,-0.2157 0.2293,-0.4195 0.2293,-0.6117 0,-0.1052 -0.0372,-0.1981 -0.1117,-0.2784 -0.074,-0.0807 -0.1641,-0.121 -0.2693,-0.121 -0.1176,0 -0.2061,0.0281 -0.265,0.0836 -0.0587,0.0559 -0.1242,0.152 -0.1962,0.288 -0.1199,0.2251 -0.2608,0.3932 -0.4229,0.5049 -0.1624,0.1114 -0.362,0.1672 -0.5993,0.1672 -0.3778,0 -0.6786,-0.1434 -0.9028,-0.4306 -0.2239,-0.2868 -0.3359,-0.6944 -0.3359,-1.2231 0,-0.3529 0.0496,-0.6466 0.1485,-0.881 0.0992,-0.2342 0.2396,-0.4093 0.4213,-0.525 0.1819,-0.1154 0.3945,-0.1732 0.638,-0.1732 0.2642,0 0.4876,0.0655 0.6701,0.1965 0.1832,0.1312 0.3206,0.324 0.4136,0.5777 0.0394,0.1199 0.0879,0.2174 0.1457,0.2925 0.0576,0.0754 0.1505,0.1131 0.2787,0.1131 0.1091,0 0.2032,-0.0383 0.2817,-0.1145 0.0783,-0.0763 0.1177,-0.1712 0.1177,-0.2849"
           style="fill:#ffffff;fill-opacity:1;fill-rule:nonzero;stroke:none"
           id="path12217"
           inkscape:connector-curvature="0" />
        <path
           d="m 192.5141,370.3595 c 0.4708,0 0.8748,-0.0955 1.2124,-0.2863 0.3376,-0.1911 0.593,-0.4626 0.7665,-0.8147 0.1732,-0.3518 0.2599,-0.7651 0.2599,-1.2401 0,-0.351 -0.0473,-0.6701 -0.142,-0.9567 -0.0952,-0.2872 -0.2378,-0.5361 -0.4278,-0.7464 -0.1899,-0.2106 -0.4229,-0.3716 -0.6995,-0.483 -0.277,-0.1117 -0.5936,-0.1675 -0.9508,-0.1675 -0.3552,0 -0.6732,0.0575 -0.9536,0.1723 -0.2809,0.1142 -0.5153,0.2758 -0.7029,0.4844 -0.1883,0.2084 -0.33,0.4593 -0.4261,0.7524 -0.0958,0.2931 -0.1437,0.61 -0.1437,0.9507 0,0.3489 0.0499,0.669 0.1497,0.9598 0.1003,0.2914 0.2454,0.5392 0.4354,0.7435 0.1899,0.2041 0.4212,0.3606 0.6936,0.4689 0.2727,0.1086 0.5822,0.1627 0.9289,0.1627 z m 1.3071,-2.3349 0,0 c 0,0.3322 -0.0539,0.6205 -0.1613,0.864 -0.1072,0.2435 -0.2602,0.4277 -0.4598,0.5525 -0.1993,0.1253 -0.428,0.1876 -0.686,0.1876 -0.1837,0 -0.3538,-0.0346 -0.5094,-0.1037 -0.1556,-0.0692 -0.2897,-0.1698 -0.4025,-0.3022 -0.1125,-0.1321 -0.2015,-0.3008 -0.2662,-0.506 -0.0649,-0.2055 -0.0978,-0.4362 -0.0978,-0.6922 0,-0.2582 0.0329,-0.4912 0.0978,-0.6999 0.0647,-0.2086 0.1568,-0.3812 0.2756,-0.5184 0.1187,-0.1375 0.2548,-0.2401 0.4084,-0.3082 0.1542,-0.0683 0.3229,-0.1023 0.5066,-0.1023 0.2353,0 0.4515,0.059 0.6488,0.1766 0.1973,0.1176 0.3538,0.2993 0.4709,0.5448 0.1165,0.2458 0.1749,0.548 0.1749,0.9074"
           style="fill:#ffffff;fill-opacity:1;fill-rule:nonzero;stroke:none"
           id="path12219"
           inkscape:connector-curvature="0" />
        <path
           d="m 196.3324,369.8022 0,-3.3041 1.8643,0 c 0.1486,0 0.2631,-0.0362 0.3422,-0.1085 0.0793,-0.0723 0.1193,-0.1633 0.1193,-0.2724 0,-0.1117 -0.0394,-0.2019 -0.1179,-0.271 -0.0783,-0.0692 -0.1928,-0.1038 -0.3436,-0.1038 l -2.2201,0 c -0.2004,0 -0.3444,0.0445 -0.432,0.133 -0.0878,0.089 -0.1318,0.2324 -0.1318,0.4306 l 0,3.4962 c 0,0.186 0.0417,0.3251 0.1253,0.4181 0.0836,0.0927 0.1939,0.1392 0.33,0.1392 0.1383,0 0.25,-0.0459 0.3359,-0.1378 0.0859,-0.0918 0.1284,-0.2318 0.1284,-0.4195"
           style="fill:#ffffff;fill-opacity:1;fill-rule:nonzero;stroke:none"
           id="path12221"
           inkscape:connector-curvature="0" />
        <path
           d="m 199.7237,370.2821 1.1985,0 c 0.3116,0 0.5792,-0.0289 0.802,-0.0867 0.2228,-0.0579 0.4252,-0.1661 0.6069,-0.3252 0.4728,-0.4045 0.7095,-1.0199 0.7095,-1.8456 0,-0.2724 -0.0241,-0.5213 -0.0715,-0.7464 -0.0476,-0.225 -0.1207,-0.4277 -0.2197,-0.6083 -0.0994,-0.1808 -0.2262,-0.3421 -0.3812,-0.4847 -0.1216,-0.1094 -0.2548,-0.1973 -0.3994,-0.2631 -0.1443,-0.0663 -0.2996,-0.1128 -0.466,-0.1394 -0.1661,-0.027 -0.3535,-0.0403 -0.5621,-0.0403 l -1.1985,0 c -0.167,0 -0.2928,0.0253 -0.3779,0.076 -0.0845,0.0502 -0.1394,0.1216 -0.1655,0.2134 -0.0255,0.0919 -0.0389,0.2112 -0.0389,0.3578 l 0,3.329 c 0,0.1981 0.0445,0.3416 0.1333,0.4303 0.0887,0.0887 0.2324,0.1332 0.4305,0.1332 z m 0.3561,-0.7279 0,0 0,-3.081 0.697,0 c 0.1528,0 0.2721,0.004 0.3589,0.0125 0.087,0.008 0.1766,0.0289 0.2698,0.0618 0.0925,0.0331 0.1732,0.0796 0.2416,0.1394 0.3072,0.26 0.4612,0.7081 0.4612,1.3439 0,0.4479 -0.0678,0.7835 -0.203,1.0066 -0.1349,0.2228 -0.3019,0.3648 -0.4998,0.4255 -0.1987,0.0609 -0.4379,0.0913 -0.7188,0.0913 l -0.6069,0 z"
           style="fill:#ffffff;fill-opacity:1;fill-rule:nonzero;stroke:none"
           id="path12223"
           inkscape:connector-curvature="0" />
        <path
           d="m 206.7324,369.5729 -2.0718,0 0,-1.1149 1.9074,0 c 0.1403,0 0.2452,-0.0314 0.3146,-0.0944 0.0692,-0.0629 0.1038,-0.146 0.1038,-0.2491 0,-0.1032 -0.0343,-0.1874 -0.1026,-0.2523 -0.0678,-0.0652 -0.1732,-0.0978 -0.3158,-0.0978 l -1.9074,0 0,-1.2912 2.143,0 c 0.1442,0 0.2531,-0.0337 0.3265,-0.1006 0.0734,-0.0672 0.1103,-0.1565 0.1103,-0.2679 0,-0.1074 -0.0369,-0.1947 -0.1103,-0.2616 -0.0734,-0.0672 -0.1823,-0.1007 -0.3265,-0.1007 l -2.4993,0 c -0.2002,0 -0.3442,0.0445 -0.432,0.133 -0.0876,0.089 -0.1316,0.2324 -0.1316,0.4306 l 0,3.4126 c 0,0.1318 0.0199,0.2401 0.059,0.3237 0.0394,0.0833 0.1009,0.1443 0.184,0.1826 0.0836,0.0382 0.1907,0.0572 0.3206,0.0572 l 2.4281,0 c 0.1463,0 0.2551,-0.0326 0.3263,-0.0975 0.0714,-0.0652 0.1071,-0.1502 0.1071,-0.2554 0,-0.1074 -0.0357,-0.1936 -0.1071,-0.2588 -0.0712,-0.0649 -0.18,-0.0975 -0.3263,-0.0975"
           style="fill:#ffffff;fill-opacity:1;fill-rule:nonzero;stroke:none"
           id="path12225"
           inkscape:connector-curvature="0" />
        <path
           d="m 209.6246,367.5107 -0.8419,0 0,-1.2853 c 0,-0.1836 -0.0436,-0.3231 -0.1304,-0.4181 -0.0864,-0.0949 -0.1961,-0.1425 -0.328,-0.1425 -0.1383,0 -0.2497,0.047 -0.3347,0.1408 -0.0845,0.0944 -0.1267,0.2319 -0.1267,0.4136 l 0,3.4994 c 0,0.2021 0.0465,0.3467 0.1391,0.4334 0.093,0.0867 0.2407,0.1301 0.4431,0.1301 l 1.1795,0 c 0.3492,0 0.6177,-0.0269 0.8056,-0.0805 0.1857,-0.0516 0.3461,-0.1375 0.4813,-0.2568 0.1352,-0.1199 0.2379,-0.2665 0.3082,-0.4399 0.07,-0.1735 0.1054,-0.3686 0.1054,-0.5854 0,-0.4623 -0.1426,-0.8127 -0.4277,-1.0511 -0.2846,-0.2387 -0.709,-0.3577 -1.2728,-0.3577 z m -0.2228,2.0809 0,0 -0.6191,0 0,-1.3873 0.6191,0 c 0.2168,0 0.398,0.0227 0.5434,0.068 0.1454,0.0454 0.2565,0.1197 0.3331,0.2228 0.0762,0.1035 0.1148,0.2387 0.1148,0.4057 0,0.2004 -0.059,0.3634 -0.1769,0.4895 -0.1324,0.1341 -0.4037,0.2013 -0.8144,0.2013"
           style="fill:#ffffff;fill-opacity:1;fill-rule:nonzero;stroke:none"
           id="path12227"
           inkscape:connector-curvature="0" />
        <path
           d="m 213.9829,370.3595 c 0.4705,0 0.8745,-0.0955 1.2121,-0.2863 0.3376,-0.1911 0.5933,-0.4626 0.7664,-0.8147 0.1732,-0.3518 0.26,-0.7651 0.26,-1.2401 0,-0.351 -0.0474,-0.6701 -0.142,-0.9567 -0.0953,-0.2872 -0.2379,-0.5361 -0.4278,-0.7464 -0.1899,-0.2106 -0.4229,-0.3716 -0.6996,-0.483 -0.2769,-0.1117 -0.5935,-0.1675 -0.951,-0.1675 -0.3549,0 -0.6729,0.0575 -0.9533,0.1723 -0.2809,0.1142 -0.515,0.2758 -0.703,0.4844 -0.1882,0.2084 -0.3299,0.4593 -0.426,0.7524 -0.0958,0.2931 -0.1437,0.61 -0.1437,0.9507 0,0.3489 0.0499,0.669 0.1496,0.9598 0.1004,0.2914 0.2455,0.5392 0.4354,0.7435 0.19,0.2041 0.4213,0.3606 0.6937,0.4689 0.2727,0.1086 0.5819,0.1627 0.9292,0.1627 z m 1.3067,-2.3349 0,0 c 0,0.3322 -0.0538,0.6205 -0.1613,0.864 -0.1071,0.2435 -0.2605,0.4277 -0.4597,0.5525 -0.1993,0.1253 -0.4281,0.1876 -0.6857,0.1876 -0.184,0 -0.3541,-0.0346 -0.5097,-0.1037 -0.1559,-0.0692 -0.2897,-0.1698 -0.4025,-0.3022 -0.1126,-0.1321 -0.2016,-0.3008 -0.2665,-0.506 -0.0646,-0.2055 -0.0975,-0.4362 -0.0975,-0.6922 0,-0.2582 0.0329,-0.4912 0.0975,-0.6999 0.0649,-0.2086 0.1573,-0.3812 0.2758,-0.5184 0.1188,-0.1375 0.2549,-0.2401 0.4085,-0.3082 0.1542,-0.0683 0.3226,-0.1023 0.5066,-0.1023 0.2352,0 0.4515,0.059 0.6488,0.1766 0.197,0.1176 0.3538,0.2993 0.4708,0.5448 0.1165,0.2458 0.1749,0.548 0.1749,0.9074"
           style="fill:#ffffff;fill-opacity:1;fill-rule:nonzero;stroke:none"
           id="path12229"
           inkscape:connector-curvature="0" />
        <path
           d="m 218.1356,367.6839 -0.3223,0 0,-1.4585 c 0,-0.1919 -0.0422,-0.3333 -0.1267,-0.424 -0.085,-0.091 -0.195,-0.1366 -0.3316,-0.1366 -0.1466,0 -0.26,0.0476 -0.3405,0.1425 -0.0805,0.095 -0.121,0.2345 -0.121,0.4181 l 0,3.4932 c 0,0.1981 0.0445,0.3416 0.1332,0.4303 0.0887,0.0887 0.2327,0.1332 0.4306,0.1332 l 1.4956,0 c 0.2066,0 0.3829,-0.009 0.5297,-0.0264 0.1463,-0.0175 0.2787,-0.053 0.3963,-0.1068 0.1423,-0.0598 0.2682,-0.1454 0.3779,-0.2571 0.1091,-0.1114 0.1925,-0.241 0.2492,-0.3884 0.0566,-0.1477 0.085,-0.3041 0.085,-0.4694 0,-0.3384 -0.0953,-0.6089 -0.2863,-0.8113 -0.1911,-0.2024 -0.4808,-0.3458 -0.8688,-0.4305 0.1632,-0.0865 0.3189,-0.2146 0.468,-0.3839 0.1485,-0.1692 0.2812,-0.3495 0.3977,-0.5402 0.1165,-0.1911 0.2075,-0.3634 0.2727,-0.5174 0.0649,-0.1536 0.0972,-0.2593 0.0972,-0.3172 0,-0.0601 -0.019,-0.1193 -0.057,-0.178 -0.0385,-0.0589 -0.0904,-0.1054 -0.1567,-0.1394 -0.0658,-0.0341 -0.1421,-0.0513 -0.2288,-0.0513 -0.1035,0 -0.1902,0.0246 -0.2602,0.0728 -0.07,0.0485 -0.1307,0.11 -0.1811,0.1845 -0.0508,0.0743 -0.1197,0.1837 -0.2061,0.328 l -0.3682,0.6131 c -0.1324,0.2251 -0.2506,0.3966 -0.3549,0.5142 -0.1041,0.1177 -0.2098,0.1982 -0.3175,0.2416 -0.1072,0.0433 -0.2424,0.0649 -0.4054,0.0649 z m 0.5261,1.9077 0,0 -0.8484,0 0,-1.2481 0.8238,0 c 0.2211,0 0.4067,0.0193 0.5573,0.0575 0.1508,0.038 0.2661,0.1029 0.3452,0.1948 0.0794,0.0918 0.1196,0.2185 0.1196,0.3795 0,0.1259 -0.032,0.237 -0.0961,0.3328 -0.064,0.0961 -0.1527,0.1678 -0.2661,0.2155 -0.1077,0.0453 -0.3195,0.068 -0.6353,0.068"
           style="fill:#ffffff;fill-opacity:1;fill-rule:nonzero;stroke:none"
           id="path12231"
           inkscape:connector-curvature="0" />
        <path
           d="m 223.9852,369.5236 -1.0035,0 0,-3.2982 c 0,-0.1899 -0.0422,-0.3308 -0.1267,-0.4226 -0.0847,-0.0918 -0.1941,-0.138 -0.3279,-0.138 -0.1364,0 -0.2478,0.0467 -0.3331,0.1394 -0.0859,0.093 -0.1284,0.2333 -0.1284,0.4212 l 0,3.2982 -1.0035,0 c -0.157,0 -0.2735,0.0345 -0.3501,0.1034 -0.0762,0.0692 -0.1142,0.1605 -0.1142,0.2741 0,0.1177 0.0397,0.2106 0.1191,0.2787 0.0793,0.0683 0.1947,0.1023 0.3452,0.1023 l 2.9231,0 c 0.1593,0 0.2775,-0.0351 0.3546,-0.1052 0.0774,-0.0703 0.1162,-0.1621 0.1162,-0.2758 0,-0.1136 -0.0394,-0.2049 -0.1176,-0.2741 -0.0785,-0.0689 -0.1962,-0.1034 -0.3532,-0.1034"
           style="fill:#ffffff;fill-opacity:1;fill-rule:nonzero;stroke:none"
           id="path12233"
           inkscape:connector-curvature="0" />
        <path
           d="m 227.8848,369.5729 -2.0715,0 0,-1.1149 1.9074,0 c 0.1403,0 0.2455,-0.0314 0.3146,-0.0944 0.0689,-0.0629 0.1035,-0.146 0.1035,-0.2491 0,-0.1032 -0.034,-0.1874 -0.1023,-0.2523 -0.0678,-0.0652 -0.1732,-0.0978 -0.3158,-0.0978 l -1.9074,0 0,-1.2912 2.143,0 c 0.1442,0 0.2531,-0.0337 0.3265,-0.1006 0.0734,-0.0672 0.11,-0.1565 0.11,-0.2679 0,-0.1074 -0.0366,-0.1947 -0.11,-0.2616 -0.0734,-0.0672 -0.1823,-0.1007 -0.3265,-0.1007 l -2.4994,0 c -0.2004,0 -0.3441,0.0445 -0.432,0.133 -0.0875,0.089 -0.1312,0.2324 -0.1312,0.4306 l 0,3.4126 c 0,0.1318 0.0196,0.2401 0.0587,0.3237 0.0394,0.0833 0.1006,0.1443 0.1839,0.1826 0.0837,0.0382 0.1908,0.0572 0.3206,0.0572 l 2.4279,0 c 0.1466,0 0.2554,-0.0326 0.3266,-0.0975 0.0714,-0.0652 0.1071,-0.1502 0.1071,-0.2554 0,-0.1074 -0.0357,-0.1936 -0.1071,-0.2588 -0.0712,-0.0649 -0.18,-0.0975 -0.3266,-0.0975"
           style="fill:#ffffff;fill-opacity:1;fill-rule:nonzero;stroke:none"
           id="path12235"
           inkscape:connector-curvature="0" />
        <path
           d="m 232.4653,367.105 c 0,-0.2746 -0.0708,-0.5213 -0.212,-0.7401 -0.1417,-0.2188 -0.3487,-0.3903 -0.6211,-0.5142 -0.2727,-0.1239 -0.5958,-0.1859 -0.9691,-0.1859 -0.4482,0 -0.8178,0.0847 -1.109,0.2539 -0.206,0.1219 -0.3738,0.2846 -0.5031,0.4879 -0.129,0.2032 -0.1933,0.4011 -0.1933,0.593 0,0.1117 0.0388,0.2069 0.1162,0.2866 0.0771,0.0793 0.1757,0.119 0.2956,0.119 0.097,0 0.1789,-0.0309 0.2464,-0.0929 0.0669,-0.0618 0.1241,-0.154 0.1715,-0.2753 0.0578,-0.1448 0.1202,-0.2656 0.1873,-0.3625 0.0669,-0.097 0.1619,-0.1772 0.2835,-0.2401 0.1219,-0.063 0.2818,-0.0944 0.4802,-0.0944 0.2721,0 0.4938,0.0635 0.6639,0.1905 0.1703,0.1269 0.2557,0.2854 0.2557,0.4753 0,0.1508 -0.046,0.273 -0.1378,0.3671 -0.0919,0.0938 -0.2109,0.1656 -0.3566,0.2152 -0.1454,0.0496 -0.3399,0.102 -0.5834,0.1579 -0.3265,0.0762 -0.5992,0.1655 -0.8189,0.2678 -0.2197,0.1021 -0.3943,0.2415 -0.5236,0.4181 -0.1289,0.1764 -0.1933,0.3958 -0.1933,0.658 0,0.2497 0.068,0.4716 0.2044,0.6658 0.1361,0.1939 0.3333,0.3433 0.5916,0.4473 0.2576,0.1043 0.561,0.1565 0.9102,0.1565 0.2786,0 0.5193,-0.0346 0.7231,-0.1038 0.203,-0.0691 0.3722,-0.161 0.506,-0.2755 0.1346,-0.1148 0.2324,-0.235 0.2948,-0.3608 0.0618,-0.1259 0.0924,-0.2489 0.0924,-0.3685 0,-0.1095 -0.0388,-0.2081 -0.1159,-0.296 -0.0774,-0.0876 -0.1738,-0.1312 -0.2895,-0.1312 -0.1054,0 -0.1853,0.0261 -0.2403,0.0791 -0.0547,0.0521 -0.114,0.1386 -0.1781,0.2582 -0.0822,0.1715 -0.1814,0.3053 -0.297,0.4011 -0.1157,0.0961 -0.3016,0.144 -0.5573,0.144 -0.2378,0 -0.4289,-0.0521 -0.5746,-0.1565 -0.1454,-0.104 -0.2185,-0.2296 -0.2185,-0.3761 0,-0.091 0.0249,-0.1692 0.0742,-0.2353 0.0496,-0.066 0.1179,-0.123 0.2047,-0.1704 0.0864,-0.0473 0.1743,-0.0844 0.263,-0.1114 0.089,-0.0269 0.2353,-0.0663 0.4397,-0.1179 0.2562,-0.0598 0.4878,-0.1258 0.6953,-0.1978 0.2075,-0.0726 0.3841,-0.1602 0.5298,-0.2634 0.1454,-0.1034 0.2588,-0.2338 0.3405,-0.3917 0.0816,-0.1579 0.1224,-0.3515 0.1224,-0.5806"
           style="fill:#ffffff;fill-opacity:1;fill-rule:nonzero;stroke:none"
           id="path12237"
           inkscape:connector-curvature="0" />
      </g>
      <g
         id="g12239">
        <g
           id="g12241">
          <path
             d="m 241.488,397.9103 c 0,0 -1.167,0.4371 -2.6966,0.8742 -1.5296,0.4371 -1.9667,0.7296 -2.4735,1.0924 -0.5117,0.3629 -2.1155,1.9667 -3.5708,3.4966 -1.4553,1.5296 -3.9334,2.8406 -6.3371,3.2034 -2.4038,0.3671 -5.9743,1.1668 -7.2857,1.8224 -1.311,0.6557 -2.0366,-0.0743 -0.6553,-1.311 1.3853,-1.2368 2.552,-2.1852 4.3004,-2.2595 1.7481,-0.07 3.3477,-0.9439 5.0959,-3.2034 1.7481,-2.2598 1.8966,-3.7894 1.5298,-5.9001 0,0 -1.5999,5.0258 -4.3707,6.3369 -2.7664,1.3113 -4.6588,0.6556 -4.6588,0.6556 0,0 0.944,-5.9743 0.874,-7.9409 -0.074,-1.967 0.1445,-1.3811 -6.3326,-7.5697 0.0961,0.1222 1.6126,2.0846 2.1807,3.5663 0.5813,1.5296 1.3113,4.0034 1.0927,5.6072 -0.2185,1.6038 -0.5114,3.5705 -0.5114,3.5705 0,0 -0.1442,1.9667 -1.6038,-0.0743 -1.4553,-2.0409 -1.5296,-2.5477 -4.4405,-4.0076 0,0 -0.5113,-1.4553 -0.3671,-2.9106 0,0 -0.3628,-0.7299 -0.8739,-0.6556 l 0.074,2.0366 c 0,0 -0.2186,1.8967 1.167,2.7709 1.3811,0.8739 2.4038,3.4963 2.8409,4.589 0.4368,1.0925 0.8739,3.2777 -0.7299,5.7515 -1.6039,2.4778 -2.9849,3.8634 -2.9849,3.8634 0,0 -0.8742,1.0182 -2.6223,-0.5114 -1.7482,-1.5296 -4.0079,-4.1519 -4.0079,-4.1519 l -3.352,-4.4447 c 0,0 -1.0925,-0.4371 -0.5814,-1.5996 0.5114,-1.1668 3.6408,-8.3781 3.6408,-8.3781 0,0 0.5854,-0.7997 0.5854,-1.167 0,-0.3626 -0.0743,-2.1107 -0.0743,-2.1107 0,0 -2.9148,4.5887 -3.1334,4.663 -0.2186,0.07 -1.0928,0.9442 -1.8181,1.5996 -0.73,0.6556 -0.2186,0.8042 -0.4371,1.8969 -0.2186,1.0925 -0.5857,2.255 -1.0928,2.6221 -0.5111,0.3628 -0.5854,3.6408 -0.5854,3.6408 l 2.2595,4.1519 c 0,0 0.7297,1.311 0.1443,1.8924 -0.5814,0.5856 -3.1294,-1.1625 -3.1294,-1.1625 0,0 -2.3338,-1.3113 -3.0595,-2.2598 -0.7296,-0.9482 -1.9666,-2.4035 -2.552,-4.5887 -0.5814,-2.1852 -0.6556,-2.6223 -0.9442,-3.2037 -0.2928,-0.5857 -0.5856,-1.6781 -0.8739,-2.4778 -0.2928,-0.7999 0.1443,-4.0079 0.5811,-4.5147 l -2.041,0.5811 c 0,0 -0.3628,6.1928 0.4371,8.2295 0.8042,2.041 1.1671,5.0261 1.1671,5.0261 l 0.2925,1.0925 c 0,0 -1.6781,0.2186 -2.4778,0.2928 -0.7999,0.0743 -2.8409,-0.2185 -2.8409,-0.2185 0,0 -2.9151,-1.7481 -4.2261,-2.7664 -1.3111,-1.0227 -1.8182,-1.3855 -2.111,-2.4037 -0.2928,-1.0228 -0.4371,-2.6224 -0.4371,-2.6224 l -1.0925,0.0701 c 0,0 0.0743,2.8408 0.7997,4.0818 0.7299,1.2368 4.1519,4.0034 4.1519,4.0034 0,0 1.6038,1.8224 3.0594,2.1852 1.4596,0.3671 5.6115,-0.07 5.6115,-0.07 0,0 6.2629,3.7151 7.6484,6.5557 0,0 2.6221,2.111 2.8406,3.9334 0.0658,0.5332 0.1355,1.4992 0.2013,2.5959 0.0524,0.8394 0.1003,1.7615 0.144,2.6224 0.0918,1.8575 0.1618,3.4483 0.1618,3.4483 l -0.7999,0.5814 0,0.8739 14.4227,0 0,-1.4553 -0.9485,-0.4371 0,-5.5372 c 0,0 1.4596,-4.4405 4.8818,-6.9928 3.422,-2.548 6.8483,-4.2962 9.1778,-5.0258 2.3295,-0.7257 4.1519,-1.8181 6.0446,-4.5147 1.8966,-2.6966 2.4777,-3.5708 3.5705,-4.0077 1.0925,-0.4371 3.352,-1.3113 4.1519,-3.4222"
             style="fill:#fbb040;fill-opacity:1;fill-rule:nonzero;stroke:none"
             id="path12243"
             inkscape:connector-curvature="0" />
          <path
             d="m 214.907,386.9884 c -0.0528,0 -0.1055,0.019 -0.1469,0.057 -0.085,0.0771 -0.0961,0.2066 -0.0249,0.297 0.0153,0.0199 1.5806,2.0282 2.1486,3.5093 0.3158,0.8309 1.3272,3.6845 1.08,5.4995 -0.2182,1.6027 -0.5108,3.568 -0.5108,3.568 -0.0192,0.2423 -0.1261,0.6661 -0.3058,0.6661 -0.0717,0 -0.3501,-0.0601 -0.9046,-0.8353 -0.1842,-0.2591 -0.3469,-0.4933 -0.4955,-0.7081 -1.0332,-1.4899 -1.4263,-2.0571 -3.9427,-3.3268 -0.1012,-0.3217 -0.4475,-1.5386 -0.3291,-2.7351 0.004,-0.0409 -0.004,-0.082 -0.0221,-0.1188 -0.0422,-0.0848 -0.4615,-0.8674 -1.1012,-0.7744 -0.11,0.0161 -0.1908,0.1128 -0.1868,0.2242 l 0.0739,2.0367 c -0.008,0.0502 -0.2154,2.0112 1.2691,2.9477 1.2884,0.8156 2.2935,3.3313 2.7227,4.4056 l 0.0317,0.0797 c 0.4116,1.029 0.8669,3.119 -0.7106,5.5516 -1.5732,2.4308 -2.9426,3.8141 -2.9563,3.828 -0.0189,0.0206 -0.2463,0.2675 -0.7004,0.2675 -0.4785,0 -1.0244,-0.2653 -1.6231,-0.7891 -1.7161,-1.5018 -3.9631,-4.104 -3.9858,-4.1301 l -3.3432,-4.4337 c -0.0238,-0.032 -0.0564,-0.0564 -0.0935,-0.0714 -0.003,-9e-4 -0.381,-0.1599 -0.5242,-0.5153 -0.0912,-0.226 -0.0703,-0.493 0.0618,-0.7935 0.495,-1.1293 3.4419,-7.9197 3.6315,-8.3571 0.1312,-0.1814 0.6131,-0.875 0.6131,-1.2758 0,-0.3632 -0.0711,-2.0486 -0.0742,-2.1201 -0.004,-0.0952 -0.0695,-0.1771 -0.1622,-0.2018 -0.0895,-0.0252 -0.1899,0.0133 -0.2406,0.0938 -1.0432,1.6421 -2.7737,4.3061 -3.0561,4.5876 -0.1856,0.0822 -0.5099,0.3756 -1.2016,1.023 -0.2182,0.2041 -0.4436,0.4153 -0.6562,0.6072 -0.5023,0.4513 -0.5051,0.7308 -0.4683,1.1489 0.0199,0.2225 0.042,0.4748 -0.0365,0.8671 -0.2577,1.2884 -0.6339,2.2187 -1.0063,2.4883 -0.5562,0.3943 -0.6582,3.018 -0.6761,3.8126 -9e-4,0.0382 0.008,0.0757 0.0264,0.1094 l 2.2595,4.1519 c 0.1814,0.3266 0.5652,1.2532 0.1822,1.633 -0.0465,0.0468 -0.1366,0.0564 -0.2041,0.0564 -0.684,0 -2.143,-0.8982 -2.6472,-1.2441 -0.0397,-0.0232 -2.3196,-1.3104 -3.0096,-2.2121 l -0.195,-0.2515 c -0.7149,-0.9167 -1.7952,-2.3023 -2.3196,-4.2613 -0.1307,-0.4904 -0.2356,-0.8926 -0.3232,-1.2285 -0.3013,-1.1554 -0.4028,-1.5449 -0.6363,-2.0155 -0.1817,-0.3634 -0.3705,-0.9513 -0.5531,-1.5202 -0.104,-0.3245 -0.2078,-0.6485 -0.3112,-0.9348 -0.2798,-0.7643 0.1786,-3.8773 0.5411,-4.2979 0.0629,-0.0732 0.0706,-0.1792 0.0184,-0.2603 -0.0515,-0.0816 -0.1522,-0.1187 -0.2437,-0.0926 l -2.041,0.5813 c -0.0896,0.0253 -0.1525,0.1046 -0.1582,0.1973 -0.015,0.2549 -0.3563,6.2646 0.4516,8.3223 0.7849,1.9922 1.1497,4.9427 1.1537,4.9725 l 0.2341,0.8813 c -0.4963,0.0632 -1.6188,0.2041 -2.2226,0.2599 -0.7157,0.0681 -2.4494,-0.17 -2.7462,-0.2109 -0.3461,-0.2086 -2.9614,-1.7929 -4.1667,-2.7289 l -0.1499,-0.1168 c -1.1812,-0.9201 -1.6234,-1.2648 -1.885,-2.1747 -0.2838,-0.9913 -0.4284,-2.5656 -0.4295,-2.5815 -0.0108,-0.1179 -0.1188,-0.2064 -0.2319,-0.1984 l -1.0924,0.07 c -0.1171,0.007 -0.2075,0.106 -0.2044,0.2236 0.003,0.1182 0.0845,2.9115 0.8297,4.1865 0.7415,1.2572 4.062,3.949 4.2029,4.0632 0.0405,0.0507 1.6399,1.8524 3.1439,2.2275 0.4042,0.1014 1.0364,0.153 1.8777,0.153 1.5364,0 3.3534,-0.1723 3.7366,-0.2106 0.6494,0.3929 6.2334,3.8251 7.5022,6.4267 0.0142,0.0289 0.034,0.0542 0.0592,0.0746 0.0258,0.0204 2.5558,2.0766 2.7613,3.789 0.0586,0.4799 0.1261,1.3491 0.1995,2.583 0.0525,0.839 0.1007,1.7603 0.1443,2.6203 0.0768,1.5588 0.1386,2.9299 0.1562,3.3296 l -0.7047,0.5122 c -0.0567,0.0411 -0.0899,0.1069 -0.0899,0.1769 l 0,0.8739 c 0,0.1211 0.0976,0.2186 0.2183,0.2186 l 14.4227,0 c 0.1207,0 0.2183,-0.0975 0.2183,-0.2186 l 0,-1.4553 c 0,-0.0853 -0.0494,-0.1627 -0.127,-0.1984 l -0.8212,-0.3787 0,-5.3609 c 0.1403,-0.4037 1.6197,-4.4864 4.7936,-6.8539 3.104,-2.3108 6.5107,-4.1771 9.1126,-4.9927 2.2515,-0.7012 4.1607,-1.7515 6.158,-4.5978 l 0.2236,-0.3174 c 1.6914,-2.4066 2.2612,-3.2174 3.2494,-3.6128 l 0.0524,-0.021 c 1.0953,-0.4373 3.3636,-1.3439 4.2018,-3.473 0.0275,-0.0363 0.0437,-0.0816 0.0437,-0.1309 0,-0.1208 -0.0978,-0.2183 -0.2186,-0.2183 -0.002,-3e-4 -0.005,-6e-4 -0.008,0 -0.0255,0 -0.0516,0.004 -0.0768,0.0136 -0.0116,0.004 -1.1772,0.4391 -2.6799,0.8685 -1.4998,0.4289 -1.98,0.724 -2.5407,1.1251 -0.5666,0.402 -2.2946,2.1495 -3.602,3.5235 -1.485,1.561 -3.9231,2.7927 -6.2112,3.1382 -2.1912,0.3345 -5.9196,1.1274 -7.3508,1.8431 -0.2872,0.1434 -0.5616,0.2228 -0.7728,0.2228 -0.0759,0 -0.2574,-0.0122 -0.2996,-0.123 -0.049,-0.1276 0.0354,-0.4927 0.6608,-1.0528 1.3955,-1.2458 2.5112,-2.1336 4.1638,-2.2039 1.9377,-0.0774 3.56,-1.0917 5.2594,-3.288 1.8037,-2.3314 1.9443,-3.9325 1.5718,-6.0712 -0.017,-0.0995 -0.0998,-0.1738 -0.2001,-0.1808 -0.1083,-0.003 -0.1931,0.0564 -0.2231,0.1516 -0.0159,0.0496 -1.6036,4.951 -4.2557,6.2059 -1.3926,0.6602 -2.5489,0.7985 -3.2737,0.7985 -0.4873,0 -0.8476,-0.0609 -1.0457,-0.1057 0.1644,-1.0616 0.9099,-6.0007 0.8464,-7.7885 l -0.006,-0.1738 c -0.0533,-1.5497 -0.1216,-1.614 -3.6819,-4.9739 -0.7399,-0.6979 -1.6331,-1.5412 -2.7122,-2.5722 -0.0423,-0.0402 -0.0967,-0.0606 -0.1508,-0.0606 z m 2.9803,12.9793 0,0 c 3e-4,0 0.2917,-1.9588 0.5094,-3.5575 0.2613,-1.9171 -0.7793,-4.8586 -1.1047,-5.7147 -0.2259,-0.5893 -0.593,-1.2449 -0.9635,-1.8351 0.4162,0.3943 0.7954,0.7523 1.1413,1.0786 3.4979,3.3009 3.4979,3.3009 3.5453,4.6712 l 0.006,0.1749 c 0.0689,1.9227 -0.862,7.8392 -0.8714,7.8984 -0.0161,0.1046 0.0445,0.2061 0.1443,0.241 0.021,0.007 0.5176,0.1757 1.3635,0.1757 0.7696,0 1.995,-0.1457 3.4605,-0.8405 2.1538,-1.019 3.5924,-4.1241 4.1837,-5.6335 0.1652,1.6356 -0.1437,2.9715 -1.609,4.8651 -1.6135,2.0851 -3.1345,3.0472 -4.932,3.1192 -1.798,0.0763 -2.9729,1.0075 -4.4373,2.3148 -0.6557,0.587 -0.9318,1.1321 -0.7776,1.5347 0.1766,0.462 0.8856,0.5303 1.6764,0.1349 1.2439,-0.6219 4.7166,-1.4196 7.2207,-1.802 2.3777,-0.3589 4.9147,-1.6418 6.4627,-3.2689 1.3961,-1.4675 3.032,-3.1093 3.5385,-3.4688 0.466,-0.3333 0.8677,-0.6207 2.4075,-1.0604 0.9349,-0.2673 1.741,-0.5366 2.2263,-0.7055 -0.877,1.663 -2.7343,2.4052 -3.7703,2.819 l -0.0525,0.0213 c -1.1089,0.4436 -1.6974,1.281 -3.4446,3.7667 l -0.224,0.318 c -1.9264,2.7454 -3.7638,3.757 -5.9301,4.4317 -2.6472,0.8297 -6.1024,2.7207 -9.2437,5.0595 -3.4379,2.5643 -4.8986,6.9157 -4.9587,7.0997 -0.007,0.0221 -0.011,0.0451 -0.011,0.0683 l 0,5.5372 c 0,0.0853 0.0496,0.163 0.1272,0.1984 l 0.8212,0.3787 0,1.0968 -13.9855,0 0,-0.544 0.7098,-0.5162 c 0.0592,-0.0431 0.0932,-0.1131 0.0901,-0.1862 0,0 -0.0706,-1.5914 -0.1621,-3.4495 -0.0437,-0.862 -0.0919,-1.785 -0.1443,-2.6252 -0.074,-1.2427 -0.142,-2.1206 -0.2024,-2.609 -0.2143,-1.7881 -2.5424,-3.7658 -2.8826,-4.0462 -1.438,-2.8595 -7.4551,-6.4516 -7.7119,-6.6041 -0.0403,-0.0241 -0.0862,-0.0352 -0.1344,-0.0292 -0.0204,0.002 -2.0678,0.2154 -3.7638,0.2154 -0.8056,0 -1.4015,-0.047 -1.7714,-0.14 -1.3739,-0.3427 -2.933,-2.1002 -2.9489,-2.1181 -0.0603,-0.0527 -3.4262,-2.781 -4.1275,-3.9696 -0.5768,-0.9873 -0.7268,-3.0949 -0.7605,-3.7667 l 0.6687,-0.0428 c 0.0501,0.4734 0.1888,1.6314 0.4235,2.4509 0.301,1.0471 0.8087,1.4428 2.0361,2.3989 l 0.1505,0.1168 c 1.3068,1.0151 4.1287,2.7099 4.2483,2.7819 0.0247,0.0148 0.0524,0.0244 0.0811,0.0289 0.0756,0.0105 2.084,0.2946 2.8919,0.2197 0.7948,-0.0737 2.4695,-0.2914 2.4862,-0.2939 0.0624,-0.008 0.1182,-0.0425 0.1537,-0.0947 0.0348,-0.0527 0.0456,-0.1176 0.0295,-0.1783 l -0.2929,-1.0928 c -0.01,-0.0926 -0.3696,-3.0061 -1.1749,-5.0493 -0.7039,-1.7924 -0.4788,-7.0149 -0.4303,-7.9821 l 1.4289,-0.4068 c -0.3807,1.116 -0.642,3.5448 -0.3846,4.2478 0.1017,0.2812 0.2038,0.5998 0.3061,0.9195 0.1877,0.5845 0.3815,1.1889 0.578,1.5812 0.2134,0.4297 0.3041,0.7778 0.6046,1.9309 0.0879,0.3365 0.1931,0.7396 0.3234,1.2311 0.5483,2.0449 1.6614,3.4728 2.3976,4.4175 l 0.1927,0.2486 c 0.7439,0.9723 3.0286,2.2624 3.1255,2.3168 0.0624,0.0434 1.9199,1.3105 2.8783,1.3105 0.2191,0 0.3918,-0.0621 0.5131,-0.1846 0.6939,-0.6888 -0.0751,-2.0934 -0.1083,-2.1526 l -2.2306,-4.0989 c 0.0389,-1.5163 0.2432,-3.2324 0.4921,-3.4092 0.6083,-0.4403 0.9774,-1.7425 1.1807,-2.7576 0.0909,-0.4541 0.0635,-0.7645 0.0433,-0.9913 -0.0292,-0.3325 -0.0405,-0.4569 0.3254,-0.7857 0.2152,-0.1942 0.4425,-0.4071 0.6622,-0.6129 0.4006,-0.3747 0.9493,-0.8881 1.08,-0.9422 0.0836,-0.0284 0.2738,-0.0936 2.8735,-4.1652 0.021,0.5292 0.0459,1.2002 0.0459,1.4057 0,0.2018 -0.3245,0.7387 -0.5434,1.0377 -0.01,0.0131 -0.0178,0.0275 -0.0244,0.0423 0,0 -3.1288,7.2107 -3.6402,8.3775 -0.1823,0.4141 -0.2038,0.7971 -0.0649,1.1378 0.1754,0.4286 0.5567,0.6517 0.7052,0.7248 l 3.3188,4.4011 c 0.0315,0.0371 2.2987,2.6626 4.0383,4.1848 0.6809,0.5953 1.3235,0.8971 1.9108,0.8971 0.6627,0 1.0069,-0.3914 1.0208,-0.4081 0.0462,-0.0451 1.4051,-1.4179 3.003,-3.8872 1.747,-2.6943 1.1058,-5.0593 0.7492,-5.9513 l -0.0318,-0.0794 c -0.4824,-1.2081 -1.4865,-3.7216 -2.8947,-4.6131 -1.2555,-0.7917 -1.0689,-2.5435 -1.0667,-2.5611 l -0.0638,-1.7975 c 0.1945,0.095 0.3493,0.3099 0.4227,0.4369 -0.1259,1.4629 0.3634,2.8774 0.3846,2.9375 0.0188,0.0536 0.0576,0.0975 0.108,0.123 2.4903,1.2487 2.8355,1.7473 3.8611,3.2264 0.15,0.216 0.3132,0.4521 0.4995,0.7129 0.4972,0.6951 0.8971,1.0185 1.26,1.0185 0.6434,0 0.7319,-0.9465 0.7401,-1.0547"
             style="fill:#c87815;fill-opacity:1;fill-rule:nonzero;stroke:none"
             id="path12245"
             inkscape:connector-curvature="0" />
        </g>
        <g
           id="g12247">
          <path
             d="m 211.5746,420.2906 c -3.9297,-2.9043 -8.0037,-1.6738 -9.1772,-1.2203 -0.2166,0.0839 -0.3345,0.1412 -0.3345,0.1412 l 1.4839,-1.9565 c 0,0 -0.638,-3.7777 5.3813,-2.226 2.547,0.9445 2.6465,3.5753 2.6465,3.5753 l 0,1.6863 z"
             style="fill:#ffffff;fill-opacity:1;fill-rule:nonzero;stroke:none"
             id="path12249"
             inkscape:connector-curvature="0" />
          <path
             d="m 206.3959,414.4365 c -2e-4,0 -2e-4,0 -8e-4,0 -1.1625,0 -2.0174,0.3141 -2.5413,0.9332 -0.5828,0.69 -0.5615,1.5381 -0.5343,1.8238 l -1.4309,1.8859 c -0.061,0.0805 -0.059,0.1925 0.005,0.2707 0.0649,0.0785 0.174,0.1012 0.2647,0.0578 0.005,-0.002 0.116,-0.0558 0.3175,-0.1338 0.6129,-0.2367 1.8805,-0.6344 3.4838,-0.6344 1.9998,0 3.8452,0.6146 5.4853,1.827 0.0663,0.049 0.1551,0.057 0.2285,0.0193 0.0731,-0.0372 0.1199,-0.1126 0.1199,-0.1951 l 0,-1.6866 c -10e-4,-0.036 -0.1358,-2.7966 -2.7893,-3.7803 -1.0021,-0.2596 -1.8723,-0.3875 -2.6082,-0.3875 z m -3.6921,4.292 0,0 1.0174,-1.3414 c 0.0362,-0.0476 0.0513,-0.1088 0.0414,-0.1678 -0.001,-0.009 -0.1395,-0.9028 0.4285,-1.571 0.4366,-0.5139 1.1784,-0.7747 2.204,-0.7747 6e-4,0 6e-4,0 8e-4,0 0.6991,0 1.5327,0.1233 2.4778,0.3668 2.3533,0.874 2.4786,3.2709 2.4826,3.3724 l 0,1.2555 c -1.6288,-1.1055 -3.4421,-1.6657 -5.3966,-1.6657 -1.3896,0 -2.539,0.2866 -3.2559,0.5259"
             style="fill:#c87815;fill-opacity:1;fill-rule:nonzero;stroke:none"
             id="path12251"
             inkscape:connector-curvature="0" />
        </g>
        <g
           id="g12253">
          <path
             d="m 203.5483,417.2496 c 1.324,-0.21 4.0337,-0.3104 8.0064,1.1274 l -8.0064,-1.1274 z"
             style="fill:#ffffff;fill-opacity:1;fill-rule:nonzero;stroke:none"
             id="path12255"
             inkscape:connector-curvature="0" />
          <path
             d="m 205.1926,416.9115 c -0.7052,0 -1.2671,0.0569 -1.6784,0.1221 -0.119,0.019 -0.2007,0.131 -0.1819,0.2501 0.0189,0.1199 0.1315,0.2006 0.2503,0.1817 1.2495,-0.1973 3.937,-0.3161 7.8978,1.1171 0.1123,0.0419 0.2387,-0.0173 0.2795,-0.131 0.0414,-0.1134 -0.0173,-0.2386 -0.1309,-0.2798 -2.761,-0.9994 -4.9275,-1.2602 -6.4364,-1.2602"
             style="fill:#c87815;fill-opacity:1;fill-rule:nonzero;stroke:none"
             id="path12257"
             inkscape:connector-curvature="0" />
        </g>
        <path
           d="m 207.2889,423.322 c -0.0363,0 -0.0732,0.009 -0.1066,0.0278 -0.1055,0.059 -0.1432,0.1922 -0.0842,0.2976 0.0388,0.0683 0.9564,1.677 2.306,1.677 8e-4,0 0.002,0 0.002,0 1.3295,-0.002 2.0279,-0.8847 2.0568,-0.9224 0.0737,-0.0952 0.0564,-0.2316 -0.0388,-0.3058 -0.095,-0.0735 -0.2322,-0.0567 -0.3064,0.0377 -0.0238,0.0306 -0.6035,0.7517 -1.7124,0.7534 -3e-4,0 -0.001,0 -0.002,0 -1.0965,0 -1.9163,-1.4394 -1.9245,-1.4539 -0.0402,-0.0714 -0.1145,-0.1114 -0.1907,-0.1114"
           style="fill:#c87815;fill-opacity:1;fill-rule:nonzero;stroke:none"
           id="path12259"
           inkscape:connector-curvature="0" />
        <path
           d="m 200.8295,424.3079 c -0.051,0 -0.1026,0.0179 -0.144,0.0541 -0.0907,0.0797 -0.0995,0.2177 -0.0201,0.3085 0.5803,0.6604 1.2132,1.0097 1.8295,1.0097 0.019,0 0.0473,0 0.0797,-0.005 0.593,-0.0139 1.0403,-0.2066 1.3118,-0.3665 0.0491,-0.0295 0.0956,-0.0572 0.1375,-0.085 0.0397,-0.0238 0.0839,-0.057 0.1233,-0.0868 0.0743,-0.055 0.1417,-0.108 0.1945,-0.1561 0.1389,-0.1242 0.2094,-0.2186 0.2174,-0.2288 0.0711,-0.0972 0.0502,-0.2341 -0.0471,-0.3056 -0.0961,-0.0711 -0.2324,-0.0513 -0.3047,0.0459 -0.007,0.009 -0.059,0.0752 -0.1582,0.1639 -0.0445,0.0402 -0.0992,0.0833 -0.1584,0.1264 -0.036,0.0275 -0.0669,0.0516 -0.1012,0.072 -0.0442,0.0298 -0.0845,0.0536 -0.1242,0.0771 -0.2299,0.1355 -0.6094,0.2982 -1.1174,0.3067 l -0.0502,0.007 c -0.6182,-0.002 -1.1588,-0.4705 -1.5037,-0.8634 -0.0437,-0.049 -0.1038,-0.074 -0.1645,-0.074"
           style="fill:#c87815;fill-opacity:1;fill-rule:nonzero;stroke:none"
           id="path12261"
           inkscape:connector-curvature="0" />
        <path
           d="m 206.2278,419.5227 c -0.8333,0 -1.4541,0.5792 -1.4864,0.6098 -0.0871,0.083 -0.0908,0.2211 -0.008,0.3084 0.0831,0.0876 0.222,0.0907 0.3084,0.009 0.0326,-0.0306 0.8085,-0.7458 1.6954,-0.3898 0.1125,0.0439 0.2393,-0.009 0.2843,-0.1213 0.0445,-0.112 -0.01,-0.2393 -0.1213,-0.2843 -0.2339,-0.0939 -0.4601,-0.1316 -0.6727,-0.1316"
           style="fill:#c87815;fill-opacity:1;fill-rule:nonzero;stroke:none"
           id="path12263"
           inkscape:connector-curvature="0" />
        <g
           id="g12265">
          <path
             d="m 204.7983,421.7817 c -0.4986,-0.3889 -1.3155,-0.5244 -2.1722,-0.5244 -0.8566,0 -1.5429,0.1355 -1.9448,0.5198 0.0524,0.8394 0.1003,1.7615 0.144,2.6224 0.411,0.6077 1.0403,1.0621 1.8008,1.0621 0.7124,0 1.3941,-0.3977 1.8922,-0.9439 l 0,-0.005 c 0.009,-0.004 0.009,-0.009 0.0133,-0.013 0.6032,-0.7299 0.2667,-2.7184 0.2667,-2.7184"
             style="fill:#ffffff;fill-opacity:1;fill-rule:nonzero;stroke:none"
             id="path12267"
             inkscape:connector-curvature="0" />
          <path
             d="m 204.8068,422.5371 c -0.0433,-0.7328 -0.8506,-0.9062 -1.7033,-0.8555 -0.8527,0.0502 -1.4281,0.3056 -1.3847,1.0381 0.0433,0.733 0.6862,1.62 1.5392,1.5695 0.8526,-0.0505 1.5922,-1.0193 1.5488,-1.7521"
             style="fill:#009444;fill-opacity:1;fill-rule:nonzero;stroke:none"
             id="path12269"
             inkscape:connector-curvature="0" />
          <path
             d="m 203.6265,422.5671 c 0,-0.2624 -0.2126,-0.4753 -0.4754,-0.4753 -0.2625,0 -0.4754,0.2129 -0.4754,0.4753 0,0.2628 0.2129,0.4754 0.4754,0.4754 0.2628,0 0.4754,-0.2126 0.4754,-0.4754"
             style="fill:#006838;fill-opacity:1;fill-rule:nonzero;stroke:none"
             id="path12271"
             inkscape:connector-curvature="0" />
          <path
             d="m 203.7061,422.9912 c 0,-0.1533 -0.1241,-0.2775 -0.2775,-0.2775 -0.1533,0 -0.2775,0.1242 -0.2775,0.2775 0,0.1534 0.1242,0.2775 0.2775,0.2775 0.1534,0 0.2775,-0.1241 0.2775,-0.2775"
             style="fill:#ffffff;fill-opacity:1;fill-rule:nonzero;stroke:none"
             id="path12273"
             inkscape:connector-curvature="0" />
        </g>
        <g
           id="g12275">
          <path
             d="m 212.1559,422.437 c 0,-1.1817 -1.2809,-1.5372 -2.6563,-1.5372 -1.3754,0 -2.3244,0.3555 -2.3244,1.5372 0,1.1821 0.949,2.6689 2.3244,2.6689 1.3754,0 2.6563,-1.4868 2.6563,-2.6689"
             style="fill:#ffffff;fill-opacity:1;fill-rule:nonzero;stroke:none"
             id="path12277"
             inkscape:connector-curvature="0" />
          <path
             d="m 211.072,422.4404 c 0.0742,-0.7302 -0.6951,-1.0304 -1.5449,-1.1165 -0.8498,-0.0865 -1.4584,0.0734 -1.5327,0.8036 -0.0743,0.7305 0.4187,1.7087 1.2685,1.7952 0.8498,0.0864 1.7348,-0.7518 1.8091,-1.4823"
             style="fill:#009444;fill-opacity:1;fill-rule:nonzero;stroke:none"
             id="path12279"
             inkscape:connector-curvature="0" />
          <path
             d="m 209.7581,422.454 c 0,-0.2624 -0.2126,-0.4753 -0.4754,-0.4753 -0.2624,0 -0.4753,0.2129 -0.4753,0.4753 0,0.2628 0.2129,0.4754 0.4753,0.4754 0.2628,0 0.4754,-0.2126 0.4754,-0.4754"
             style="fill:#006838;fill-opacity:1;fill-rule:nonzero;stroke:none"
             id="path12281"
             inkscape:connector-curvature="0" />
          <path
             d="m 209.8378,422.8781 c 0,-0.1533 -0.1242,-0.2775 -0.2775,-0.2775 -0.1531,0 -0.2776,0.1242 -0.2776,0.2775 0,0.1534 0.1245,0.2775 0.2776,0.2775 0.1533,0 0.2775,-0.1241 0.2775,-0.2775"
             style="fill:#ffffff;fill-opacity:1;fill-rule:nonzero;stroke:none"
             id="path12283"
             inkscape:connector-curvature="0" />
        </g>
      </g>
    </g>
  </g>
</svg>
