<?xml version="1.0" encoding="UTF-8" standalone="no"?>
<!-- Created with Inkscape (http://www.inkscape.org/) -->

<svg
   xmlns:dc="http://purl.org/dc/elements/1.1/"
   xmlns:cc="http://creativecommons.org/ns#"
   xmlns:rdf="http://www.w3.org/1999/02/22-rdf-syntax-ns#"
   xmlns:svg="http://www.w3.org/2000/svg"
   xmlns="http://www.w3.org/2000/svg"
   xmlns:sodipodi="http://sodipodi.sourceforge.net/DTD/sodipodi-0.dtd"
   xmlns:inkscape="http://www.inkscape.org/namespaces/inkscape"
   width="88.052711mm"
   height="100.05301mm"
   viewBox="0 0 88.052711 100.05301"
   version="1.1"
   id="svg8"
   inkscape:version="0.92.3 (2405546, 2018-03-11)"
   sodipodi:docname="logo.svg">
  <defs
     id="defs2">
    <inkscape:path-effect
       effect="skeletal"
       id="path-effect823"
       is_visible="true"
       pattern="m 200.82927,-43.995718 c 0,-2.760002 2.24,-5.000003 5,-5.000003 2.76,0 5,2.240001 5,5.000003 0,2.760002 -2.24,5.000002 -5,5.000002 -2.76,0 -5,-2.24 -5,-5.000002 z"
       copytype="single_stretched"
       prop_scale="0.13861307"
       scale_y_rel="false"
       spacing="0"
       normal_offset="0"
       tang_offset="0"
       prop_units="false"
       vertical_pattern="false"
       fuse_tolerance="0" />
  </defs>
  <sodipodi:namedview
     id="base"
     pagecolor="#ffffff"
     bordercolor="#666666"
     borderopacity="1.0"
     inkscape:pageopacity="0.0"
     inkscape:pageshadow="2"
     inkscape:zoom="0.98994949"
     inkscape:cx="173.94124"
     inkscape:cy="202.56849"
     inkscape:document-units="mm"
     inkscape:current-layer="layer1"
     showgrid="false"
     showguides="true"
     inkscape:guide-bbox="true"
     fit-margin-top="0"
     fit-margin-left="0"
     fit-margin-right="0"
     fit-margin-bottom="0"
     inkscape:window-width="1366"
     inkscape:window-height="680"
     inkscape:window-x="0"
     inkscape:window-y="27"
     inkscape:window-maximized="1" />
  <metadata
     id="metadata5">
    <rdf:RDF>
      <cc:Work
         rdf:about="">
        <dc:format>image/svg+xml</dc:format>
        <dc:type
           rdf:resource="http://purl.org/dc/dcmitype/StillImage" />
        <dc:title />
      </cc:Work>
    </rdf:RDF>
  </metadata>
  <g
     inkscape:groupmode="layer"
     id="layer2"
     inkscape:label="fondo"
     sodipodi:insensitive="true"
     style="display:none"
     transform="translate(-64.452809,-98.050759)">
    <rect
       style="opacity:1;fill:#ffff00;stroke:#000000;stroke-width:0.05291667;stroke-miterlimit:4;stroke-dasharray:none;stroke-opacity:1"
       id="rect817"
       width="140"
       height="140"
       x="32.505951"
       y="77.01786" />
  </g>
  <g
     inkscape:groupmode="layer"
     id="layer3"
     inkscape:label="Capa2"
     sodipodi:insensitive="true"
     transform="translate(-64.452809,-98.050759)">
    <path
       style="opacity:1;fill:#c87137;stroke:#000000;stroke-width:0.2;stroke-miterlimit:4;stroke-dasharray:none;stroke-opacity:1"
       d="M 410,370.68555 A 166.29921,188.97638 0 0 0 243.70117,559.66211 166.29921,188.97638 0 0 0 410,748.63867 166.29921,188.97638 0 0 0 576.29883,559.66211 166.29921,188.97638 0 0 0 414.21289,370.92578 c 0.83564,0.54506 6.82004,12.96371 16.41602,33.8711 3.45903,8.50837 7.47179,19.2451 10.61718,30.90039 2.35294,8.6563 4.67495,18.93888 4.41602,29.53515 0.45687,16.5698 -2.68795,34.05164 -9.27539,51.88672 -5.75169,15.603 -13.45057,30.33174 -22.1543,45.80469 l -0.29492,0.52539 c -8.5359,15.17318 -16.35756,28.13706 -23.1543,42.61523 -6.51478,13.92528 -11.07833,27.2562 -11.83203,40.72266 -0.36207,10.79821 2.36012,21.67658 5.11133,31.01367 3.65727,12.3582 8.37764,23.88843 12.38086,33.03125 11.5367,23.118 18.17409,37.06035 17.69336,37.42383 -0.004,0.003 -0.004,0.002 -0.004,0.002 6e-5,-3e-5 5e-4,-2.5e-4 -0.004,0.002 -0.55695,0.21736 -8.15593,-13.19615 -20.53711,-36.03321 -4.36477,-9.107 -9.43669,-20.61785 -13.45899,-33.21679 -3.02737,-9.4428 -6.00876,-20.70143 -5.83203,-32.39844 0.6739,-14.34396 5.25027,-28.4143 11.875,-42.69336 6.83658,-14.7858 14.72441,-27.99162 23.19531,-43.03906 l 0.29297,-0.52149 c 8.65578,-15.41382 16.27539,-29.83432 21.9668,-45.00781 6.49464,-17.34957 9.74139,-34.19166 9.52148,-50.14649 0.43412,-9.88019 -1.65077,-19.90116 -3.74804,-28.51562 -2.8059,-11.44002 -6.47952,-22.20352 -9.58985,-30.73242 -8.9511,-21.52211 -14.03017,-34.4234 -13.68945,-35.03516 A 166.29921,188.97638 0 0 0 410,370.68555 Z"
       id="path819"
       inkscape:connector-curvature="0"
       transform="scale(0.26458333)" />
  </g>
  <g
     inkscape:label="Capa1"
     inkscape:groupmode="layer"
     id="layer1"
     transform="translate(-64.452809,-98.050759)">
    <g
       aria-label="Coffee"
       transform="matrix(0.33478917,0,0,0.33478917,-42.157426,-34.583785)"
       style="font-style:normal;font-variant:normal;font-weight:normal;font-stretch:normal;font-size:74.66666412px;line-height:1.25;font-family:'URW Chancery L';-inkscape-font-specification:'URW Chancery L';text-align:center;letter-spacing:0px;word-spacing:0px;text-anchor:middle;fill:#000000;fill-opacity:1;stroke:none"
       id="flowRoot829">
      <path
         d="m 401.34079,515.22109 c -6.86933,4.704 -11.94667,6.64534 -17.17333,6.64534 -5.89867,0 -9.632,-4.48 -9.632,-11.57334 0,-15.53066 10.976,-30.98666 22.02666,-30.98666 4.48,0 6.72,2.76266 7.168,8.66133 l 5.52534,-4.704 c -0.672,-5.152 -3.36,-7.46667 -8.736,-7.46667 -6.496,0 -14.03734,3.808 -20.608,10.37867 -7.24267,7.24267 -11.49867,17.17333 -11.49867,26.88 0,7.69067 4.256,12.32 11.424,12.32 6.42133,0 14.56,-3.06133 20.98133,-7.91467 z"
         style=""
         id="path828" />
      <path
         d="m 427.43912,489.23709 c -2.98666,0 -7.76533,2.16534 -12.17066,5.45067 -4.77867,3.584 -8.13867,11.34933 -8.13867,18.74133 0,4.55467 2.53867,7.46667 6.496,7.46667 2.09067,0 4.18133,-0.74667 7.616,-2.53867 3.73333,-2.09066 6.19733,-3.95733 7.54133,-5.74933 2.98667,-4.032 5.376,-11.34933 5.376,-16.50133 0,-4.032 -2.76267,-6.86934 -6.72,-6.86934 z m -3.88266,3.50934 c 2.98666,0 4.85333,2.912 4.85333,7.392 0,3.136 -1.04533,7.01866 -2.912,10.67733 -2.09067,4.256 -4.77867,6.57067 -7.616,6.57067 -3.06133,0 -5.00267,-2.76267 -5.00267,-7.01867 0,-8.66133 5.45067,-17.62133 10.67734,-17.62133 z"
         style=""
         id="path830" />
      <path
         d="m 456.66296,496.62909 c 0.224,0 0.672,0 1.49333,0.0747 l 3.06133,-2.38933 c -3.88266,-0.0747 -3.88266,-0.0747 -4.704,-0.0747 -0.896,0 -0.896,0 -4.40533,0.0747 4.85333,-18.96534 5.97333,-21.28 10.37867,-21.28 1.26933,0 2.24,0.14933 5.00266,0.59733 l 3.43467,-4.032 c -1.49333,-0.37333 -2.09067,-0.448 -3.584,-0.448 -4.48,0 -7.616,1.64267 -12.61867,6.496 -4.18133,4.032 -5.152,6.272 -8.064,18.66667 -0.74666,-0.0747 -1.12,-0.0747 -1.49333,-0.0747 l -3.65867,0.14933 c -0.14933,0 -0.52266,0 -1.12,-0.0747 -0.448,0.29866 -0.896,0.59733 -1.04533,0.672 l -1.64266,0.896 c -0.29867,0.14933 -0.896,0.448 -1.49334,0.82133 h 1.86667 c 0,0 5.22666,0.0747 5.22666,0.0747 0.448,0 1.26934,0 2.76267,-0.0747 -1.19467,4.55467 -1.64267,6.57067 -3.06133,13.06667 -4.48,20.53333 -6.19733,23.89333 -12.544,23.89333 -1.04533,0 -1.94133,-0.0747 -3.95733,-0.37333 -0.74667,1.12 -0.97067,1.49333 -1.49334,2.16533 -0.59733,0.82133 -1.26933,1.64267 -1.86666,2.53867 1.64266,0.224 2.464,0.29866 3.65866,0.29866 2.464,0 4.40534,-0.37333 5.6,-1.04533 2.16534,-1.19467 5.97333,-4.85333 7.98933,-7.46667 2.31467,-3.136 5.00267,-9.55733 6.72,-16.352 3.21067,-12.17066 4.032,-15.232 4.40534,-16.72533 0.672,0.0747 0.97066,0.0747 1.26933,0.0747 z"
         style=""
         id="path832" />
      <path
         d="m 480.57962,496.62909 c 0.224,0 0.672,0 1.49334,0.0747 l 3.06133,-2.38933 c -3.88267,-0.0747 -3.88267,-0.0747 -4.704,-0.0747 -0.896,0 -0.896,0 -4.40533,0.0747 4.85333,-18.96534 5.97333,-21.28 10.37866,-21.28 1.26933,0 2.24,0.14933 5.00267,0.59733 l 3.43466,-4.032 c -1.49333,-0.37333 -2.09066,-0.448 -3.584,-0.448 -4.48,0 -7.61599,1.64267 -12.61866,6.496 -4.18133,4.032 -5.152,6.272 -8.064,18.66667 -0.74667,-0.0747 -1.12,-0.0747 -1.49333,-0.0747 l -3.65867,0.14933 c -0.14933,0 -0.52267,0 -1.12,-0.0747 -0.448,0.29866 -0.896,0.59733 -1.04533,0.672 l -1.64267,0.896 c -0.29867,0.14933 -0.896,0.448 -1.49333,0.82133 h 1.86666 c 0,0 5.22667,0.0747 5.22667,0.0747 0.448,0 1.26933,0 2.76267,-0.0747 -1.19467,4.55467 -1.64267,6.57067 -3.06134,13.06667 -4.48,20.53333 -6.19733,23.89333 -12.544,23.89333 -1.04533,0 -1.94133,-0.0747 -3.95733,-0.37333 -0.74667,1.12 -0.97067,1.49333 -1.49333,2.16533 -0.59734,0.82133 -1.26934,1.64267 -1.86667,2.53867 1.64267,0.224 2.464,0.29866 3.65867,0.29866 2.464,0 4.40533,-0.37333 5.6,-1.04533 2.16533,-1.19467 5.97333,-4.85333 7.98933,-7.46667 2.31467,-3.136 5.00267,-9.55733 6.72,-16.352 3.21067,-12.17066 4.032,-15.232 4.40533,-16.72533 0.672,0.0747 0.97067,0.0747 1.26934,0.0747 z"
         style=""
         id="path834" />
      <path
         d="m 506.73629,509.69576 c -5.6,4.85333 -9.184,6.944 -12.02134,6.944 -1.86666,0 -3.43466,-1.26933 -3.95733,-3.21067 -0.29867,-1.19466 -0.37333,-2.016 -0.37333,-4.18133 3.36,-2.09067 5.6,-3.65867 10.00533,-6.944 4.032,-3.06133 5.6,-5.52533 5.6,-8.88533 0,-2.61334 -1.64267,-4.18134 -4.256,-4.18134 -1.64267,0 -2.83733,0.37334 -4.55467,1.344 -2.83733,1.64267 -5.376,3.65867 -6.944,5.45067 -2.83733,3.43467 -5.376,11.648 -5.376,17.696 0,4.40533 2.31467,7.168 6.12267,7.168 4.40533,0 9.856,-3.136 15.75467,-9.03467 z m -16.128,-3.136 c 1.26933,-7.98933 4.704,-14.18667 7.91466,-14.18667 1.26934,0 2.09067,1.26934 2.09067,3.06134 0,3.73333 -2.016,5.97333 -10.00533,11.12533 z"
         style=""
         id="path836" />
      <path
         d="m 532.11129,509.69576 c -5.6,4.85333 -9.184,6.944 -12.02134,6.944 -1.86666,0 -3.43466,-1.26933 -3.95733,-3.21067 -0.29867,-1.19466 -0.37333,-2.016 -0.37333,-4.18133 3.36,-2.09067 5.6,-3.65867 10.00533,-6.944 4.032,-3.06133 5.6,-5.52533 5.6,-8.88533 0,-2.61334 -1.64267,-4.18134 -4.256,-4.18134 -1.64267,0 -2.83733,0.37334 -4.55467,1.344 -2.83733,1.64267 -5.376,3.65867 -6.944,5.45067 -2.83733,3.43467 -5.376,11.648 -5.376,17.696 0,4.40533 2.31467,7.168 6.12267,7.168 4.40533,0 9.856,-3.136 15.75467,-9.03467 z m -16.128,-3.136 c 1.26933,-7.98933 4.704,-14.18667 7.91466,-14.18667 1.26934,0 2.09067,1.26934 2.09067,3.06134 0,3.73333 -2.016,5.97333 -10.00533,11.12533 z"
         style=""
         id="path838" />
    </g>
    <text
       xml:space="preserve"
       style="font-style:normal;font-variant:normal;font-weight:normal;font-stretch:normal;font-size:25.39999962px;line-height:1.25;font-family:'URW Chancery L';-inkscape-font-specification:'URW Chancery L';letter-spacing:0px;word-spacing:0px;fill:#000000;fill-opacity:1;stroke:none;stroke-width:0.26458332"
       x="79.988785"
       y="163.32048"
       id="text839"><tspan
         sodipodi:role="line"
         id="tspan837"
         x="79.988785"
         y="163.32048"
         style="font-style:normal;font-variant:normal;font-weight:normal;font-stretch:normal;font-size:25.39999962px;font-family:'URW Chancery L';-inkscape-font-specification:'URW Chancery L';stroke-width:0.26458332">E.</tspan></text>
    <text
       xml:space="preserve"
       style="font-style:normal;font-variant:normal;font-weight:normal;font-stretch:normal;font-size:25.39999962px;line-height:1.25;font-family:'URW Chancery L';-inkscape-font-specification:'URW Chancery L';letter-spacing:0px;word-spacing:0px;fill:#000000;fill-opacity:1;stroke:none;stroke-width:0.26458332"
       x="111.70255"
       y="162.52039"
       id="text843"><tspan
         sodipodi:role="line"
         id="tspan841"
         x="111.70255"
         y="162.52039"
         style="font-size:25.39999962px;stroke-width:0.26458332">S.</tspan></text>
  </g>
</svg>
